<svg width="700" height="700" viewBox="0 0 700 700" fill="none" xmlns="http://www.w3.org/2000/svg">
<path fill-rule="evenodd" clip-rule="evenodd" d="M310 310H390V390H310V310ZM312 312H388V388H312V312Z" fill="url(#paint0_radial_447_1012)"/>
<path fill-rule="evenodd" clip-rule="evenodd" d="M300 300H400V400H300V300ZM302 302H398V398H302V302Z" fill="url(#paint1_radial_447_1012)"/>
<path fill-rule="evenodd" clip-rule="evenodd" d="M290 290V410H410V290H290ZM408 292H292V408H408V292Z" fill="url(#paint2_radial_447_1012)"/>
<path fill-rule="evenodd" clip-rule="evenodd" d="M280 280H420V420H280V280ZM282 282H418V418H282V282Z" fill="url(#paint3_radial_447_1012)"/>
<path fill-rule="evenodd" clip-rule="evenodd" d="M270 270V430H430V270H270ZM428 272H272V428H428V272Z" fill="url(#paint4_radial_447_1012)"/>
<path fill-rule="evenodd" clip-rule="evenodd" d="M260 260H440V440H260V260ZM262 262H438V438H262V262Z" fill="url(#paint5_radial_447_1012)"/>
<path fill-rule="evenodd" clip-rule="evenodd" d="M250 250V450H450V250H250ZM448 252H252V448H448V252Z" fill="url(#paint6_radial_447_1012)"/>
<path fill-rule="evenodd" clip-rule="evenodd" d="M240 240H460V460H240V240ZM242 242H458V458H242V242Z" fill="url(#paint7_radial_447_1012)"/>
<path fill-rule="evenodd" clip-rule="evenodd" d="M230 230V470H470V230H230ZM468 232H232V468H468V232Z" fill="url(#paint8_radial_447_1012)"/>
<path fill-rule="evenodd" clip-rule="evenodd" d="M220 220H480V480H220V220ZM222 222H478V478H222V222Z" fill="url(#paint9_radial_447_1012)"/>
<path fill-rule="evenodd" clip-rule="evenodd" d="M210 210V490H490V210H210ZM488 212H212V488H488V212Z" fill="url(#paint10_radial_447_1012)"/>
<path fill-rule="evenodd" clip-rule="evenodd" d="M200 200H500V500H200V200ZM202 202H498V498H202V202Z" fill="url(#paint11_radial_447_1012)"/>
<path fill-rule="evenodd" clip-rule="evenodd" d="M190 190V510H510V190H190ZM508 192H192V508H508V192Z" fill="url(#paint12_radial_447_1012)"/>
<path fill-rule="evenodd" clip-rule="evenodd" d="M180 180H520V520H180V180ZM182 182H518V518H182V182Z" fill="url(#paint13_radial_447_1012)"/>
<path fill-rule="evenodd" clip-rule="evenodd" d="M170 170V530H530V170H170ZM528 172H172V528H528V172Z" fill="url(#paint14_radial_447_1012)"/>
<path fill-rule="evenodd" clip-rule="evenodd" d="M160 160H540V540H160V160ZM162 162H538V538H162V162Z" fill="url(#paint15_radial_447_1012)"/>
<path fill-rule="evenodd" clip-rule="evenodd" d="M150 150V550H550V150H150ZM548 152H152V548H548V152Z" fill="url(#paint16_radial_447_1012)"/>
<path fill-rule="evenodd" clip-rule="evenodd" d="M140 140H560V560H140V140ZM142 142H558V558H142V142Z" fill="url(#paint17_radial_447_1012)"/>
<path fill-rule="evenodd" clip-rule="evenodd" d="M130 130V570H570V130H130ZM568 132H132V568H568V132Z" fill="url(#paint18_radial_447_1012)"/>
<path fill-rule="evenodd" clip-rule="evenodd" d="M120 120H580V580H120V120ZM122 122H578V578H122V122Z" fill="url(#paint19_radial_447_1012)"/>
<path fill-rule="evenodd" clip-rule="evenodd" d="M110 110V590H590V110H110ZM588 112H112V588H588V112Z" fill="url(#paint20_radial_447_1012)"/>
<path fill-rule="evenodd" clip-rule="evenodd" d="M100 100H600V600H100V100ZM102 102H598V598H102V102Z" fill="url(#paint21_radial_447_1012)"/>
<path fill-rule="evenodd" clip-rule="evenodd" d="M90 90V610H610V90H90ZM608 92H92V608H608V92Z" fill="url(#paint22_radial_447_1012)"/>
<path fill-rule="evenodd" clip-rule="evenodd" d="M80 80H620V620H80V80ZM82 82H618V618H82V82Z" fill="url(#paint23_radial_447_1012)"/>
<path fill-rule="evenodd" clip-rule="evenodd" d="M70 70V630H630V70H70ZM628 72H72V628H628V72Z" fill="url(#paint24_radial_447_1012)"/>
<path fill-rule="evenodd" clip-rule="evenodd" d="M60 60H640V640H60V60ZM62 62H638V638H62V62Z" fill="url(#paint25_radial_447_1012)"/>
<path fill-rule="evenodd" clip-rule="evenodd" d="M50 50V650H650V50H50ZM648 52H52V648H648V52Z" fill="url(#paint26_radial_447_1012)"/>
<path fill-rule="evenodd" clip-rule="evenodd" d="M40 40H660V660H40V40ZM42 42H658V658H42V42Z" fill="url(#paint27_radial_447_1012)"/>
<path fill-rule="evenodd" clip-rule="evenodd" d="M30 30V670H670V30H30ZM668 32H32V668H668V32Z" fill="url(#paint28_radial_447_1012)"/>
<path fill-rule="evenodd" clip-rule="evenodd" d="M20 20H680V680H20V20ZM22 22H678V678H22V22Z" fill="url(#paint29_radial_447_1012)"/>
<path fill-rule="evenodd" clip-rule="evenodd" d="M10 10V690H690V10H10ZM688 12H12V688H688V12Z" fill="url(#paint30_radial_447_1012)"/>
<path fill-rule="evenodd" clip-rule="evenodd" d="M0 0L700 0V700H0L0 0ZM2 2H698V698H2V2Z" fill="url(#paint31_radial_447_1012)"/>
<defs>
<radialGradient id="paint0_radial_447_1012" cx="0" cy="0" r="1" gradientUnits="userSpaceOnUse" gradientTransform="translate(1.20103e-05 350) scale(700 662)">
<stop stop-color="#2E2F30"/>
<stop offset="1"/>
</radialGradient>
<radialGradient id="paint1_radial_447_1012" cx="0" cy="0" r="1" gradientUnits="userSpaceOnUse" gradientTransform="translate(1.20103e-05 350) scale(700 662)">
<stop stop-color="#2E2F30"/>
<stop offset="1"/>
</radialGradient>
<radialGradient id="paint2_radial_447_1012" cx="0" cy="0" r="1" gradientUnits="userSpaceOnUse" gradientTransform="translate(1.20103e-05 350) scale(700 662)">
<stop stop-color="#2E2F30"/>
<stop offset="1"/>
</radialGradient>
<radialGradient id="paint3_radial_447_1012" cx="0" cy="0" r="1" gradientUnits="userSpaceOnUse" gradientTransform="translate(1.20103e-05 350) scale(700 662)">
<stop stop-color="#2E2F30"/>
<stop offset="1"/>
</radialGradient>
<radialGradient id="paint4_radial_447_1012" cx="0" cy="0" r="1" gradientUnits="userSpaceOnUse" gradientTransform="translate(1.20103e-05 350) scale(700 662)">
<stop stop-color="#2E2F30"/>
<stop offset="1"/>
</radialGradient>
<radialGradient id="paint5_radial_447_1012" cx="0" cy="0" r="1" gradientUnits="userSpaceOnUse" gradientTransform="translate(1.20103e-05 350) scale(700 662)">
<stop stop-color="#2E2F30"/>
<stop offset="1"/>
</radialGradient>
<radialGradient id="paint6_radial_447_1012" cx="0" cy="0" r="1" gradientUnits="userSpaceOnUse" gradientTransform="translate(1.20103e-05 350) scale(700 662)">
<stop stop-color="#2E2F30"/>
<stop offset="1"/>
</radialGradient>
<radialGradient id="paint7_radial_447_1012" cx="0" cy="0" r="1" gradientUnits="userSpaceOnUse" gradientTransform="translate(1.20103e-05 350) scale(700 662)">
<stop stop-color="#2E2F30"/>
<stop offset="1"/>
</radialGradient>
<radialGradient id="paint8_radial_447_1012" cx="0" cy="0" r="1" gradientUnits="userSpaceOnUse" gradientTransform="translate(1.20103e-05 350) scale(700 662)">
<stop stop-color="#2E2F30"/>
<stop offset="1"/>
</radialGradient>
<radialGradient id="paint9_radial_447_1012" cx="0" cy="0" r="1" gradientUnits="userSpaceOnUse" gradientTransform="translate(1.20103e-05 350) scale(700 662)">
<stop stop-color="#2E2F30"/>
<stop offset="1"/>
</radialGradient>
<radialGradient id="paint10_radial_447_1012" cx="0" cy="0" r="1" gradientUnits="userSpaceOnUse" gradientTransform="translate(1.20103e-05 350) scale(700 662)">
<stop stop-color="#2E2F30"/>
<stop offset="1"/>
</radialGradient>
<radialGradient id="paint11_radial_447_1012" cx="0" cy="0" r="1" gradientUnits="userSpaceOnUse" gradientTransform="translate(1.20103e-05 350) scale(700 662)">
<stop stop-color="#2E2F30"/>
<stop offset="1"/>
</radialGradient>
<radialGradient id="paint12_radial_447_1012" cx="0" cy="0" r="1" gradientUnits="userSpaceOnUse" gradientTransform="translate(1.20103e-05 350) scale(700 662)">
<stop stop-color="#2E2F30"/>
<stop offset="1"/>
</radialGradient>
<radialGradient id="paint13_radial_447_1012" cx="0" cy="0" r="1" gradientUnits="userSpaceOnUse" gradientTransform="translate(1.20103e-05 350) scale(700 662)">
<stop stop-color="#2E2F30"/>
<stop offset="1"/>
</radialGradient>
<radialGradient id="paint14_radial_447_1012" cx="0" cy="0" r="1" gradientUnits="userSpaceOnUse" gradientTransform="translate(1.20103e-05 350) scale(700 662)">
<stop stop-color="#2E2F30"/>
<stop offset="1"/>
</radialGradient>
<radialGradient id="paint15_radial_447_1012" cx="0" cy="0" r="1" gradientUnits="userSpaceOnUse" gradientTransform="translate(1.20103e-05 350) scale(700 662)">
<stop stop-color="#2E2F30"/>
<stop offset="1"/>
</radialGradient>
<radialGradient id="paint16_radial_447_1012" cx="0" cy="0" r="1" gradientUnits="userSpaceOnUse" gradientTransform="translate(1.20103e-05 350) scale(700 662)">
<stop stop-color="#2E2F30"/>
<stop offset="1"/>
</radialGradient>
<radialGradient id="paint17_radial_447_1012" cx="0" cy="0" r="1" gradientUnits="userSpaceOnUse" gradientTransform="translate(1.20103e-05 350) scale(700 662)">
<stop stop-color="#2E2F30"/>
<stop offset="1"/>
</radialGradient>
<radialGradient id="paint18_radial_447_1012" cx="0" cy="0" r="1" gradientUnits="userSpaceOnUse" gradientTransform="translate(1.20103e-05 350) scale(700 662)">
<stop stop-color="#2E2F30"/>
<stop offset="1"/>
</radialGradient>
<radialGradient id="paint19_radial_447_1012" cx="0" cy="0" r="1" gradientUnits="userSpaceOnUse" gradientTransform="translate(1.20103e-05 350) scale(700 662)">
<stop stop-color="#2E2F30"/>
<stop offset="1"/>
</radialGradient>
<radialGradient id="paint20_radial_447_1012" cx="0" cy="0" r="1" gradientUnits="userSpaceOnUse" gradientTransform="translate(1.20103e-05 350) scale(700 662)">
<stop stop-color="#2E2F30"/>
<stop offset="1"/>
</radialGradient>
<radialGradient id="paint21_radial_447_1012" cx="0" cy="0" r="1" gradientUnits="userSpaceOnUse" gradientTransform="translate(1.20103e-05 350) scale(700 662)">
<stop stop-color="#2E2F30"/>
<stop offset="1"/>
</radialGradient>
<radialGradient id="paint22_radial_447_1012" cx="0" cy="0" r="1" gradientUnits="userSpaceOnUse" gradientTransform="translate(1.20103e-05 350) scale(700 662)">
<stop stop-color="#2E2F30"/>
<stop offset="1"/>
</radialGradient>
<radialGradient id="paint23_radial_447_1012" cx="0" cy="0" r="1" gradientUnits="userSpaceOnUse" gradientTransform="translate(1.20103e-05 350) scale(700 662)">
<stop stop-color="#2E2F30"/>
<stop offset="1"/>
</radialGradient>
<radialGradient id="paint24_radial_447_1012" cx="0" cy="0" r="1" gradientUnits="userSpaceOnUse" gradientTransform="translate(1.20103e-05 350) scale(700 662)">
<stop stop-color="#2E2F30"/>
<stop offset="1"/>
</radialGradient>
<radialGradient id="paint25_radial_447_1012" cx="0" cy="0" r="1" gradientUnits="userSpaceOnUse" gradientTransform="translate(1.20103e-05 350) scale(700 662)">
<stop stop-color="#2E2F30"/>
<stop offset="1"/>
</radialGradient>
<radialGradient id="paint26_radial_447_1012" cx="0" cy="0" r="1" gradientUnits="userSpaceOnUse" gradientTransform="translate(1.20103e-05 350) scale(700 662)">
<stop stop-color="#2E2F30"/>
<stop offset="1"/>
</radialGradient>
<radialGradient id="paint27_radial_447_1012" cx="0" cy="0" r="1" gradientUnits="userSpaceOnUse" gradientTransform="translate(1.20103e-05 350) scale(700 662)">
<stop stop-color="#2E2F30"/>
<stop offset="1"/>
</radialGradient>
<radialGradient id="paint28_radial_447_1012" cx="0" cy="0" r="1" gradientUnits="userSpaceOnUse" gradientTransform="translate(1.20103e-05 350) scale(700 662)">
<stop stop-color="#2E2F30"/>
<stop offset="1"/>
</radialGradient>
<radialGradient id="paint29_radial_447_1012" cx="0" cy="0" r="1" gradientUnits="userSpaceOnUse" gradientTransform="translate(1.20103e-05 350) scale(700 662)">
<stop stop-color="#2E2F30"/>
<stop offset="1"/>
</radialGradient>
<radialGradient id="paint30_radial_447_1012" cx="0" cy="0" r="1" gradientUnits="userSpaceOnUse" gradientTransform="translate(1.20103e-05 350) scale(700 662)">
<stop stop-color="#2E2F30"/>
<stop offset="1"/>
</radialGradient>
<radialGradient id="paint31_radial_447_1012" cx="0" cy="0" r="1" gradientUnits="userSpaceOnUse" gradientTransform="translate(1.20103e-05 350) scale(700 662)">
<stop stop-color="#2E2F30"/>
<stop offset="1"/>
</radialGradient>
</defs>
</svg>
