<svg width="802" height="802" viewBox="0 0 802 802" fill="none" xmlns="http://www.w3.org/2000/svg">
<path fill-rule="evenodd" clip-rule="evenodd" d="M360 401C360 378.356 378.356 360 401 360C423.644 360 442 378.356 442 401C442 423.644 423.644 442 401 442C378.356 442 360 423.644 360 401ZM401 362C379.461 362 362 379.461 362 401C362 422.539 379.461 440 401 440C422.539 440 440 422.539 440 401C440 379.461 422.539 362 401 362Z" fill="url(#paint0_radial_447_1011)"/>
<path fill-rule="evenodd" clip-rule="evenodd" d="M350 401C350 372.833 372.833 350 401 350C429.167 350 452 372.833 452 401C452 429.167 429.167 452 401 452C372.833 452 350 429.167 350 401ZM401 352C373.938 352 352 373.938 352 401C352 428.062 373.938 450 401 450C428.062 450 450 428.062 450 401C450 373.938 428.062 352 401 352Z" fill="url(#paint1_radial_447_1011)"/>
<path fill-rule="evenodd" clip-rule="evenodd" d="M401 340C367.311 340 340 367.311 340 401C340 434.689 367.311 462 401 462C434.689 462 462 434.689 462 401C462 367.311 434.689 340 401 340ZM342 401C342 368.415 368.415 342 401 342C433.585 342 460 368.415 460 401C460 433.585 433.585 460 401 460C368.415 460 342 433.585 342 401Z" fill="url(#paint2_radial_447_1011)"/>
<path fill-rule="evenodd" clip-rule="evenodd" d="M330 401C330 361.788 361.788 330 401 330C440.212 330 472 361.788 472 401C472 440.212 440.212 472 401 472C361.788 472 330 440.212 330 401ZM401 332C362.892 332 332 362.892 332 401C332 439.108 362.892 470 401 470C439.108 470 470 439.108 470 401C470 362.892 439.108 332 401 332Z" fill="url(#paint3_radial_447_1011)"/>
<path fill-rule="evenodd" clip-rule="evenodd" d="M401 320C356.265 320 320 356.265 320 401C320 445.735 356.265 482 401 482C445.735 482 482 445.735 482 401C482 356.265 445.735 320 401 320ZM322 401C322 357.37 357.37 322 401 322C444.63 322 480 357.37 480 401C480 444.63 444.63 480 401 480C357.37 480 322 444.63 322 401Z" fill="url(#paint4_radial_447_1011)"/>
<path fill-rule="evenodd" clip-rule="evenodd" d="M310 401C310 350.742 350.742 310 401 310C451.258 310 492 350.742 492 401C492 451.258 451.258 492 401 492C350.742 492 310 451.258 310 401ZM401 312C351.847 312 312 351.847 312 401C312 450.153 351.847 490 401 490C450.153 490 490 450.153 490 401C490 351.847 450.153 312 401 312Z" fill="url(#paint5_radial_447_1011)"/>
<path fill-rule="evenodd" clip-rule="evenodd" d="M401 300C345.219 300 300 345.219 300 401C300 456.781 345.219 502 401 502C456.781 502 502 456.781 502 401C502 345.219 456.781 300 401 300ZM302 401C302 346.324 346.324 302 401 302C455.676 302 500 346.324 500 401C500 455.676 455.676 500 401 500C346.324 500 302 455.676 302 401Z" fill="url(#paint6_radial_447_1011)"/>
<path fill-rule="evenodd" clip-rule="evenodd" d="M290 401C290 339.696 339.696 290 401 290C462.304 290 512 339.696 512 401C512 462.304 462.304 512 401 512C339.696 512 290 462.304 290 401ZM401 292C340.801 292 292 340.801 292 401C292 461.199 340.801 510 401 510C461.199 510 510 461.199 510 401C510 340.801 461.199 292 401 292Z" fill="url(#paint7_radial_447_1011)"/>
<path fill-rule="evenodd" clip-rule="evenodd" d="M401 280C334.174 280 280 334.174 280 401C280 467.826 334.174 522 401 522C467.826 522 522 467.826 522 401C522 334.174 467.826 280 401 280ZM282 401C282 335.278 335.278 282 401 282C466.722 282 520 335.278 520 401C520 466.722 466.722 520 401 520C335.278 520 282 466.722 282 401Z" fill="url(#paint8_radial_447_1011)"/>
<path fill-rule="evenodd" clip-rule="evenodd" d="M270 401C270 328.651 328.651 270 401 270C473.349 270 532 328.651 532 401C532 473.349 473.349 532 401 532C328.651 532 270 473.349 270 401ZM401 272C329.755 272 272 329.755 272 401C272 472.245 329.755 530 401 530C472.245 530 530 472.245 530 401C530 329.755 472.245 272 401 272Z" fill="url(#paint9_radial_447_1011)"/>
<path fill-rule="evenodd" clip-rule="evenodd" d="M401 260C323.128 260 260 323.128 260 401C260 478.872 323.128 542 401 542C478.872 542 542 478.872 542 401C542 323.128 478.872 260 401 260ZM262 401C262 324.232 324.232 262 401 262C477.768 262 540 324.232 540 401C540 477.768 477.768 540 401 540C324.232 540 262 477.768 262 401Z" fill="url(#paint10_radial_447_1011)"/>
<path fill-rule="evenodd" clip-rule="evenodd" d="M250 401C250 317.605 317.605 250 401 250C484.395 250 552 317.605 552 401C552 484.395 484.395 552 401 552C317.605 552 250 484.395 250 401ZM401 252C318.71 252 252 318.71 252 401C252 483.29 318.71 550 401 550C483.29 550 550 483.29 550 401C550 318.71 483.29 252 401 252Z" fill="url(#paint11_radial_447_1011)"/>
<path fill-rule="evenodd" clip-rule="evenodd" d="M401 240C312.082 240 240 312.082 240 401C240 489.918 312.082 562 401 562C489.918 562 562 489.918 562 401C562 312.082 489.918 240 401 240ZM242 401C242 313.187 313.187 242 401 242C488.813 242 560 313.187 560 401C560 488.813 488.813 560 401 560C313.187 560 242 488.813 242 401Z" fill="url(#paint12_radial_447_1011)"/>
<path fill-rule="evenodd" clip-rule="evenodd" d="M230 401C230 306.559 306.559 230 401 230C495.441 230 572 306.559 572 401C572 495.441 495.441 572 401 572C306.559 572 230 495.441 230 401ZM401 232C307.664 232 232 307.664 232 401C232 494.336 307.664 570 401 570C494.336 570 570 494.336 570 401C570 307.664 494.336 232 401 232Z" fill="url(#paint13_radial_447_1011)"/>
<path fill-rule="evenodd" clip-rule="evenodd" d="M401 220C301.036 220 220 301.036 220 401C220 500.964 301.036 582 401 582C500.964 582 582 500.964 582 401C582 301.036 500.964 220 401 220ZM222 401C222 302.141 302.141 222 401 222C499.859 222 580 302.141 580 401C580 499.859 499.859 580 401 580C302.141 580 222 499.859 222 401Z" fill="url(#paint14_radial_447_1011)"/>
<path fill-rule="evenodd" clip-rule="evenodd" d="M210 401C210 295.514 295.514 210 401 210C506.486 210 592 295.514 592 401C592 506.486 506.486 592 401 592C295.514 592 210 506.486 210 401ZM401 212C296.618 212 212 296.618 212 401C212 505.382 296.618 590 401 590C505.382 590 590 505.382 590 401C590 296.618 505.382 212 401 212Z" fill="url(#paint15_radial_447_1011)"/>
<path fill-rule="evenodd" clip-rule="evenodd" d="M401 200C289.991 200 200 289.991 200 401C200 512.009 289.991 602 401 602C512.009 602 602 512.009 602 401C602 289.991 512.009 200 401 200ZM202 401C202 291.095 291.095 202 401 202C510.905 202 600 291.095 600 401C600 510.905 510.905 600 401 600C291.095 600 202 510.905 202 401Z" fill="url(#paint16_radial_447_1011)"/>
<path fill-rule="evenodd" clip-rule="evenodd" d="M190 401C190 284.468 284.468 190 401 190C517.532 190 612 284.468 612 401C612 517.532 517.532 612 401 612C284.468 612 190 517.532 190 401ZM401 192C285.572 192 192 285.572 192 401C192 516.427 285.572 610 401 610C516.427 610 610 516.427 610 401C610 285.572 516.427 192 401 192Z" fill="url(#paint17_radial_447_1011)"/>
<path fill-rule="evenodd" clip-rule="evenodd" d="M401 180C278.945 180 180 278.945 180 401C180 523.055 278.945 622 401 622C523.055 622 622 523.055 622 401C622 278.945 523.055 180 401 180ZM182 401C182 280.05 280.05 182 401 182C521.95 182 620 280.05 620 401C620 521.95 521.95 620 401 620C280.05 620 182 521.95 182 401Z" fill="url(#paint18_radial_447_1011)"/>
<path fill-rule="evenodd" clip-rule="evenodd" d="M170 401C170 273.422 273.422 170 401 170C528.578 170 632 273.422 632 401C632 528.578 528.578 632 401 632C273.422 632 170 528.578 170 401ZM401 172C274.527 172 172 274.527 172 401C172 527.473 274.527 630 401 630C527.473 630 630 527.473 630 401C630 274.527 527.473 172 401 172Z" fill="url(#paint19_radial_447_1011)"/>
<path fill-rule="evenodd" clip-rule="evenodd" d="M401 160C267.899 160 160 267.899 160 401C160 534.101 267.899 642 401 642C534.101 642 642 534.101 642 401C642 267.899 534.101 160 401 160ZM162 401C162 269.004 269.004 162 401 162C532.996 162 640 269.004 640 401C640 532.996 532.996 640 401 640C269.004 640 162 532.996 162 401Z" fill="url(#paint20_radial_447_1011)"/>
<path fill-rule="evenodd" clip-rule="evenodd" d="M150 401C150 262.377 262.377 150 401 150C539.623 150 652 262.377 652 401C652 539.623 539.623 652 401 652C262.377 652 150 539.623 150 401ZM401 152C263.481 152 152 263.481 152 401C152 538.519 263.481 650 401 650C538.519 650 650 538.519 650 401C650 263.481 538.519 152 401 152Z" fill="url(#paint21_radial_447_1011)"/>
<path fill-rule="evenodd" clip-rule="evenodd" d="M401 140C256.854 140 140 256.854 140 401C140 545.146 256.854 662 401 662C545.146 662 662 545.146 662 401C662 256.854 545.146 140 401 140ZM142 401C142 257.958 257.958 142 401 142C544.042 142 660 257.958 660 401C660 544.042 544.042 660 401 660C257.958 660 142 544.042 142 401Z" fill="url(#paint22_radial_447_1011)"/>
<path fill-rule="evenodd" clip-rule="evenodd" d="M130 401C130 251.331 251.331 130 401 130C550.669 130 672 251.331 672 401C672 550.669 550.669 672 401 672C251.331 672 130 550.669 130 401ZM401 132C252.435 132 132 252.435 132 401C132 549.565 252.435 670 401 670C549.565 670 670 549.565 670 401C670 252.435 549.565 132 401 132Z" fill="url(#paint23_radial_447_1011)"/>
<path fill-rule="evenodd" clip-rule="evenodd" d="M401 120C245.808 120 120 245.808 120 401C120 556.192 245.808 682 401 682C556.192 682 682 556.192 682 401C682 245.808 556.192 120 401 120ZM122 401C122 246.913 246.913 122 401 122C555.087 122 680 246.913 680 401C680 555.087 555.087 680 401 680C246.913 680 122 555.087 122 401Z" fill="url(#paint24_radial_447_1011)"/>
<path fill-rule="evenodd" clip-rule="evenodd" d="M110 401C110 240.285 240.285 110 401 110C561.715 110 692 240.285 692 401C692 561.715 561.715 692 401 692C240.285 692 110 561.715 110 401ZM401 112C241.39 112 112 241.39 112 401C112 560.61 241.39 690 401 690C560.61 690 690 560.61 690 401C690 241.39 560.61 112 401 112Z" fill="url(#paint25_radial_447_1011)"/>
<path fill-rule="evenodd" clip-rule="evenodd" d="M401 100C234.762 100 100 234.762 100 401C100 567.238 234.762 702 401 702C567.238 702 702 567.238 702 401C702 234.762 567.238 100 401 100ZM102 401C102 235.867 235.867 102 401 102C566.133 102 700 235.867 700 401C700 566.133 566.133 700 401 700C235.867 700 102 566.133 102 401Z" fill="url(#paint26_radial_447_1011)"/>
<path fill-rule="evenodd" clip-rule="evenodd" d="M90 401C90 229.239 229.239 90 401 90C572.761 90 712 229.239 712 401C712 572.761 572.761 712 401 712C229.239 712 90 572.761 90 401ZM401 92C230.344 92 92 230.344 92 401C92 571.656 230.344 710 401 710C571.656 710 710 571.656 710 401C710 230.344 571.656 92 401 92Z" fill="url(#paint27_radial_447_1011)"/>
<path fill-rule="evenodd" clip-rule="evenodd" d="M401 80C223.717 80 80 223.717 80 401C80 578.283 223.717 722 401 722C578.283 722 722 578.283 722 401C722 223.717 578.283 80 401 80ZM82 401C82 224.821 224.821 82 401 82C577.179 82 720 224.821 720 401C720 577.179 577.179 720 401 720C224.821 720 82 577.179 82 401Z" fill="url(#paint28_radial_447_1011)"/>
<path fill-rule="evenodd" clip-rule="evenodd" d="M70 401C70 218.194 218.194 70 401 70C583.806 70 732 218.194 732 401C732 583.806 583.806 732 401 732C218.194 732 70 583.806 70 401ZM401 72C219.298 72 72 219.298 72 401C72 582.702 219.298 730 401 730C582.702 730 730 582.702 730 401C730 219.298 582.702 72 401 72Z" fill="url(#paint29_radial_447_1011)"/>
<path fill-rule="evenodd" clip-rule="evenodd" d="M401 60C212.671 60 60 212.671 60 401C60 589.329 212.671 742 401 742C589.329 742 742 589.329 742 401C742 212.671 589.329 60 401 60ZM62 401C62 213.775 213.775 62 401 62C588.225 62 740 213.775 740 401C740 588.225 588.225 740 401 740C213.775 740 62 588.225 62 401Z" fill="url(#paint30_radial_447_1011)"/>
<path fill-rule="evenodd" clip-rule="evenodd" d="M50 401C50 207.148 207.148 50 401 50C594.852 50 752 207.148 752 401C752 594.852 594.852 752 401 752C207.148 752 50 594.852 50 401ZM401 52C208.253 52 52 208.253 52 401C52 593.747 208.253 750 401 750C593.747 750 750 593.747 750 401C750 208.253 593.747 52 401 52Z" fill="url(#paint31_radial_447_1011)"/>
<path fill-rule="evenodd" clip-rule="evenodd" d="M401 40C201.625 40 40 201.625 40 401C40 600.375 201.625 762 401 762C600.375 762 762 600.375 762 401C762 201.625 600.375 40 401 40ZM42 401C42 202.73 202.73 42 401 42C599.27 42 760 202.73 760 401C760 599.27 599.27 760 401 760C202.73 760 42 599.27 42 401Z" fill="url(#paint32_radial_447_1011)"/>
<path fill-rule="evenodd" clip-rule="evenodd" d="M30 401C30 196.102 196.102 30 401 30C605.898 30 772 196.102 772 401C772 605.898 605.898 772 401 772C196.102 772 30 605.898 30 401ZM401 32C197.207 32 32 197.207 32 401C32 604.793 197.207 770 401 770C604.793 770 770 604.793 770 401C770 197.207 604.793 32 401 32Z" fill="url(#paint33_radial_447_1011)"/>
<path fill-rule="evenodd" clip-rule="evenodd" d="M401 20C190.58 20 20 190.58 20 401C20 611.42 190.58 782 401 782C611.42 782 782 611.42 782 401C782 190.58 611.42 20 401 20ZM22 401C22 191.684 191.684 22 401 22C610.316 22 780 191.684 780 401C780 610.316 610.316 780 401 780C191.684 780 22 610.316 22 401Z" fill="url(#paint34_radial_447_1011)"/>
<path fill-rule="evenodd" clip-rule="evenodd" d="M10 401C10 185.057 185.057 10 401 10C616.943 10 792 185.057 792 401C792 616.943 616.943 792 401 792C185.057 792 10 616.943 10 401ZM401 12C186.161 12 12 186.161 12 401C12 615.839 186.161 790 401 790C615.839 790 790 615.839 790 401C790 186.161 615.839 12 401 12Z" fill="url(#paint35_radial_447_1011)"/>
<path fill-rule="evenodd" clip-rule="evenodd" d="M401 0C179.534 0 0 179.534 0 401C0 622.466 179.534 802 401 802C622.466 802 802 622.466 802 401C802 179.534 622.466 0 401 0ZM2 401C2 180.638 180.638 2 401 2C621.362 2 800 180.638 800 401C800 621.362 621.362 800 401 800C180.638 800 2 621.362 2 401Z" fill="url(#paint36_radial_447_1011)"/>
<defs>
<radialGradient id="paint0_radial_447_1011" cx="0" cy="0" r="1" gradientUnits="userSpaceOnUse" gradientTransform="translate(841 400.975) rotate(180) scale(876 645.975)">
<stop stop-color="#2E2F30"/>
<stop offset="1"/>
</radialGradient>
<radialGradient id="paint1_radial_447_1011" cx="0" cy="0" r="1" gradientUnits="userSpaceOnUse" gradientTransform="translate(841 400.975) rotate(180) scale(876 645.975)">
<stop stop-color="#2E2F30"/>
<stop offset="1"/>
</radialGradient>
<radialGradient id="paint2_radial_447_1011" cx="0" cy="0" r="1" gradientUnits="userSpaceOnUse" gradientTransform="translate(841 400.975) rotate(180) scale(876 645.975)">
<stop stop-color="#2E2F30"/>
<stop offset="1"/>
</radialGradient>
<radialGradient id="paint3_radial_447_1011" cx="0" cy="0" r="1" gradientUnits="userSpaceOnUse" gradientTransform="translate(841 400.975) rotate(180) scale(876 645.975)">
<stop stop-color="#2E2F30"/>
<stop offset="1"/>
</radialGradient>
<radialGradient id="paint4_radial_447_1011" cx="0" cy="0" r="1" gradientUnits="userSpaceOnUse" gradientTransform="translate(841 400.975) rotate(180) scale(876 645.975)">
<stop stop-color="#2E2F30"/>
<stop offset="1"/>
</radialGradient>
<radialGradient id="paint5_radial_447_1011" cx="0" cy="0" r="1" gradientUnits="userSpaceOnUse" gradientTransform="translate(841 400.975) rotate(180) scale(876 645.975)">
<stop stop-color="#2E2F30"/>
<stop offset="1"/>
</radialGradient>
<radialGradient id="paint6_radial_447_1011" cx="0" cy="0" r="1" gradientUnits="userSpaceOnUse" gradientTransform="translate(841 400.975) rotate(180) scale(876 645.975)">
<stop stop-color="#2E2F30"/>
<stop offset="1"/>
</radialGradient>
<radialGradient id="paint7_radial_447_1011" cx="0" cy="0" r="1" gradientUnits="userSpaceOnUse" gradientTransform="translate(841 400.975) rotate(180) scale(876 645.975)">
<stop stop-color="#2E2F30"/>
<stop offset="1"/>
</radialGradient>
<radialGradient id="paint8_radial_447_1011" cx="0" cy="0" r="1" gradientUnits="userSpaceOnUse" gradientTransform="translate(841 400.975) rotate(180) scale(876 645.975)">
<stop stop-color="#2E2F30"/>
<stop offset="1"/>
</radialGradient>
<radialGradient id="paint9_radial_447_1011" cx="0" cy="0" r="1" gradientUnits="userSpaceOnUse" gradientTransform="translate(841 400.975) rotate(180) scale(876 645.975)">
<stop stop-color="#2E2F30"/>
<stop offset="1"/>
</radialGradient>
<radialGradient id="paint10_radial_447_1011" cx="0" cy="0" r="1" gradientUnits="userSpaceOnUse" gradientTransform="translate(841 400.975) rotate(180) scale(876 645.975)">
<stop stop-color="#2E2F30"/>
<stop offset="1"/>
</radialGradient>
<radialGradient id="paint11_radial_447_1011" cx="0" cy="0" r="1" gradientUnits="userSpaceOnUse" gradientTransform="translate(841 400.975) rotate(180) scale(876 645.975)">
<stop stop-color="#2E2F30"/>
<stop offset="1"/>
</radialGradient>
<radialGradient id="paint12_radial_447_1011" cx="0" cy="0" r="1" gradientUnits="userSpaceOnUse" gradientTransform="translate(841 400.975) rotate(180) scale(876 645.975)">
<stop stop-color="#2E2F30"/>
<stop offset="1"/>
</radialGradient>
<radialGradient id="paint13_radial_447_1011" cx="0" cy="0" r="1" gradientUnits="userSpaceOnUse" gradientTransform="translate(841 400.975) rotate(180) scale(876 645.975)">
<stop stop-color="#2E2F30"/>
<stop offset="1"/>
</radialGradient>
<radialGradient id="paint14_radial_447_1011" cx="0" cy="0" r="1" gradientUnits="userSpaceOnUse" gradientTransform="translate(841 400.975) rotate(180) scale(876 645.975)">
<stop stop-color="#2E2F30"/>
<stop offset="1"/>
</radialGradient>
<radialGradient id="paint15_radial_447_1011" cx="0" cy="0" r="1" gradientUnits="userSpaceOnUse" gradientTransform="translate(841 400.975) rotate(180) scale(876 645.975)">
<stop stop-color="#2E2F30"/>
<stop offset="1"/>
</radialGradient>
<radialGradient id="paint16_radial_447_1011" cx="0" cy="0" r="1" gradientUnits="userSpaceOnUse" gradientTransform="translate(841 400.975) rotate(180) scale(876 645.975)">
<stop stop-color="#2E2F30"/>
<stop offset="1"/>
</radialGradient>
<radialGradient id="paint17_radial_447_1011" cx="0" cy="0" r="1" gradientUnits="userSpaceOnUse" gradientTransform="translate(841 400.975) rotate(180) scale(876 645.975)">
<stop stop-color="#2E2F30"/>
<stop offset="1"/>
</radialGradient>
<radialGradient id="paint18_radial_447_1011" cx="0" cy="0" r="1" gradientUnits="userSpaceOnUse" gradientTransform="translate(841 400.975) rotate(180) scale(876 645.975)">
<stop stop-color="#2E2F30"/>
<stop offset="1"/>
</radialGradient>
<radialGradient id="paint19_radial_447_1011" cx="0" cy="0" r="1" gradientUnits="userSpaceOnUse" gradientTransform="translate(841 400.975) rotate(180) scale(876 645.975)">
<stop stop-color="#2E2F30"/>
<stop offset="1"/>
</radialGradient>
<radialGradient id="paint20_radial_447_1011" cx="0" cy="0" r="1" gradientUnits="userSpaceOnUse" gradientTransform="translate(841 400.975) rotate(180) scale(876 645.975)">
<stop stop-color="#2E2F30"/>
<stop offset="1"/>
</radialGradient>
<radialGradient id="paint21_radial_447_1011" cx="0" cy="0" r="1" gradientUnits="userSpaceOnUse" gradientTransform="translate(841 400.975) rotate(180) scale(876 645.975)">
<stop stop-color="#2E2F30"/>
<stop offset="1"/>
</radialGradient>
<radialGradient id="paint22_radial_447_1011" cx="0" cy="0" r="1" gradientUnits="userSpaceOnUse" gradientTransform="translate(841 400.975) rotate(180) scale(876 645.975)">
<stop stop-color="#2E2F30"/>
<stop offset="1"/>
</radialGradient>
<radialGradient id="paint23_radial_447_1011" cx="0" cy="0" r="1" gradientUnits="userSpaceOnUse" gradientTransform="translate(841 400.975) rotate(180) scale(876 645.975)">
<stop stop-color="#2E2F30"/>
<stop offset="1"/>
</radialGradient>
<radialGradient id="paint24_radial_447_1011" cx="0" cy="0" r="1" gradientUnits="userSpaceOnUse" gradientTransform="translate(841 400.975) rotate(180) scale(876 645.975)">
<stop stop-color="#2E2F30"/>
<stop offset="1"/>
</radialGradient>
<radialGradient id="paint25_radial_447_1011" cx="0" cy="0" r="1" gradientUnits="userSpaceOnUse" gradientTransform="translate(841 400.975) rotate(180) scale(876 645.975)">
<stop stop-color="#2E2F30"/>
<stop offset="1"/>
</radialGradient>
<radialGradient id="paint26_radial_447_1011" cx="0" cy="0" r="1" gradientUnits="userSpaceOnUse" gradientTransform="translate(841 400.975) rotate(180) scale(876 645.975)">
<stop stop-color="#2E2F30"/>
<stop offset="1"/>
</radialGradient>
<radialGradient id="paint27_radial_447_1011" cx="0" cy="0" r="1" gradientUnits="userSpaceOnUse" gradientTransform="translate(841 400.975) rotate(180) scale(876 645.975)">
<stop stop-color="#2E2F30"/>
<stop offset="1"/>
</radialGradient>
<radialGradient id="paint28_radial_447_1011" cx="0" cy="0" r="1" gradientUnits="userSpaceOnUse" gradientTransform="translate(841 400.975) rotate(180) scale(876 645.975)">
<stop stop-color="#2E2F30"/>
<stop offset="1"/>
</radialGradient>
<radialGradient id="paint29_radial_447_1011" cx="0" cy="0" r="1" gradientUnits="userSpaceOnUse" gradientTransform="translate(841 400.975) rotate(180) scale(876 645.975)">
<stop stop-color="#2E2F30"/>
<stop offset="1"/>
</radialGradient>
<radialGradient id="paint30_radial_447_1011" cx="0" cy="0" r="1" gradientUnits="userSpaceOnUse" gradientTransform="translate(841 400.975) rotate(180) scale(876 645.975)">
<stop stop-color="#2E2F30"/>
<stop offset="1"/>
</radialGradient>
<radialGradient id="paint31_radial_447_1011" cx="0" cy="0" r="1" gradientUnits="userSpaceOnUse" gradientTransform="translate(841 400.975) rotate(180) scale(876 645.975)">
<stop stop-color="#2E2F30"/>
<stop offset="1"/>
</radialGradient>
<radialGradient id="paint32_radial_447_1011" cx="0" cy="0" r="1" gradientUnits="userSpaceOnUse" gradientTransform="translate(841 400.975) rotate(180) scale(876 645.975)">
<stop stop-color="#2E2F30"/>
<stop offset="1"/>
</radialGradient>
<radialGradient id="paint33_radial_447_1011" cx="0" cy="0" r="1" gradientUnits="userSpaceOnUse" gradientTransform="translate(841 400.975) rotate(180) scale(876 645.975)">
<stop stop-color="#2E2F30"/>
<stop offset="1"/>
</radialGradient>
<radialGradient id="paint34_radial_447_1011" cx="0" cy="0" r="1" gradientUnits="userSpaceOnUse" gradientTransform="translate(841 400.975) rotate(180) scale(876 645.975)">
<stop stop-color="#2E2F30"/>
<stop offset="1"/>
</radialGradient>
<radialGradient id="paint35_radial_447_1011" cx="0" cy="0" r="1" gradientUnits="userSpaceOnUse" gradientTransform="translate(841 400.975) rotate(180) scale(876 645.975)">
<stop stop-color="#2E2F30"/>
<stop offset="1"/>
</radialGradient>
<radialGradient id="paint36_radial_447_1011" cx="0" cy="0" r="1" gradientUnits="userSpaceOnUse" gradientTransform="translate(841 400.975) rotate(180) scale(876 645.975)">
<stop stop-color="#2E2F30"/>
<stop offset="1"/>
</radialGradient>
</defs>
</svg>
