<svg width="50" height="50" viewBox="0 0 50 50" fill="none" xmlns="http://www.w3.org/2000/svg">
<path fill-rule="evenodd" clip-rule="evenodd" d="M50 0V50H0V0H50ZM42.8182 1H49V5.85714L42.8182 1ZM33.8846 1H41.1996L49 7.12889V12.9091L33.8846 1ZM32.2688 1H25H17.7312L1 14.1822V20L25 1L49 20V14.1822L32.2688 1ZM1 12.9091L16.1154 1H8.80041L1 7.12889V12.9091ZM1 5.85714L7.18182 1H1V5.85714ZM2.26316 21H1V49H49V21H47.7368L42.6842 25H45V45H5V25H7.31579L2.26316 21ZM8.92687 25L3.87423 21H10.3333L15.6667 25H8.92687ZM8.57895 26H6V44H44V26H41.4211L35.1053 31H40V39H10V31H14.8947L8.57895 26ZM16.5058 31L10.19 26H17L23.6667 31H16.5058ZM16.1579 32H11V38H23.7368L16.1579 32ZM26.2632 38H39V32H33.8421L26.2632 38ZM32.231 32L25 37.7246L17.769 32H32.231ZM33.4942 31L39.81 26H33L26.3333 31H33.4942ZM41.0731 25L46.1258 21H39.6667L34.3333 25H41.0731ZM47.3889 20L25 2.27544L2.61108 20H9L25 8L41 20H47.3889ZM25 9.25L39.3333 20H33L25 14L17 20H10.6667L25 9.25ZM31.3333 20H18.6667L25 15.25L31.3333 20ZM30 21H20L25 24.75L30 21ZM12 21H18.3333L23.6667 25H17.3333L12 21ZM31.6667 21L26.3333 25H32.6667L38 21H31.6667ZM31.3333 26H18.6667L25 30.75L31.3333 26Z" fill="#707477"/>
</svg>
