<svg width="80" height="80" viewBox="0 0 80 80" fill="none" xmlns="http://www.w3.org/2000/svg">
<path fill-rule="evenodd" clip-rule="evenodd" d="M70.1667 0H68.5H56.8333H55.1667H44H42.3333H37.6667H36H24.8333H23.1667H11.5H9.83333H1H0V1V7.375V8V17.375V18V27V28.25V30V31V31.75V33V79V80H1H79H80V79V33V31.75V31V30V28.25V27V18V17.375V8V7.375V1V0H79H70.1667ZM79 17.875V26.25L45.3333 1H56.5L79 17.875ZM79 27.5L43.6667 1H36.3333L1 27.5V30H8L8.83333 29.375L40 6L71.1667 29.375L72 30H79V27.5ZM23.5 1H34.6667L1 26.25V17.875L23.5 1ZM1 79V33.75L7 38.25V72V73H8H72H73V72V38.25L79 33.75V79H1ZM8 37H7L1 32.5V31H9.33333L17.3333 37H8ZM8 72V39L16 45H15H14V46V64V65H15H65H66V64V46V45H65H64L72 39V72H8ZM8.33333 38L17.6667 45H28L18.6667 38H8.33333ZM15 46H17.3333L25.3333 52H22H21V53V57V58H22H33.3333L40 63L46.6667 58H58H59V57V53V52H58H54.6667L62.6667 46H65V64H15V46ZM19 46L27 52H37.3333L29.3333 46H19ZM22 53H26.6667L32 57H22V53ZM28.3333 53L33.6667 57H46.3333L51.6667 53H41.3333L40 54L38.6667 53H28.3333ZM40 61.75L35 58H45L40 61.75ZM58 57H48L53.3333 53H58V57ZM61 46L53 52H42.6667L50.6667 46H61ZM71.6667 38L62.3333 45H52L61.3333 38H71.6667ZM79 32.5L73 37H72H62.6667L70.6667 31H79V32.5ZM70.3333 30L40 7.25L9.66667 30H20L20.8333 29.375L40 15L59.1667 29.375L60 30H70.3333ZM19 37L11 31H21.3333L29.3333 37H19ZM29.6667 45L20.3333 38H30.6667L40 45H29.6667ZM50.3333 45H40L49.3333 38H59.6667L50.3333 45ZM39 52L31 46H49L41 52H39ZM61 37H50.6667L58.6667 31H69L61 37ZM23 31L31 37H49L57 31H23ZM40 43.75L47.6667 38H32.3333L40 43.75ZM40 16.25L58.3333 30H21.6667L40 16.25ZM21.8333 1L1 16.625V7.875L10.1667 1H21.8333ZM58.1667 1L79 16.625V7.875L69.8333 1H58.1667ZM1 1H8.5L1 6.625V1ZM71.5 1L79 6.625V1H71.5Z" fill="#707477"/>
</svg>
