<svg width="20" height="21" viewBox="0 0 20 21" fill="none" xmlns="http://www.w3.org/2000/svg">
<g clip-path="url(#clip0_511_3695)">
<path fill-rule="evenodd" clip-rule="evenodd" d="M0 0H20V21H0V0ZM1 5.48062V8.2L10 1L19 8.2V5.48062L13.3992 1H10H6.60078L1 5.48062ZM5 1H1V4.2L5 1ZM15 1L19 4.2V1H15ZM19 10H18.75L16.25 12H17V18H3V12H3.75L1.25 10H1V20H19V10ZM2.85078 10L5.35078 12H8.75L6.25 10H2.85078ZM5 9H1.60078L10 2.28062L18.3992 9H15L10 5L5 9ZM7.85078 10L10 11.7194L12.1492 10H7.85078ZM13.3992 9L10 6.28062L6.60078 9H13.3992ZM13.75 10L11.25 12H14.6492L17.1492 10H13.75ZM6.60078 13L10 15.7194L13.3992 13H6.60078ZM4 13H5L10 17H4V13ZM10 17L15 13H16V17H10Z" fill="white"/>
</g>
<defs>
<clipPath id="clip0_511_3695">
<rect width="20" height="21" fill="white"/>
</clipPath>
</defs>
</svg>
