<svg width="80" height="80" viewBox="0 0 80 80" fill="none" xmlns="http://www.w3.org/2000/svg">
<g clip-path="url(#clip0_244_4469)">
<path fill-rule="evenodd" clip-rule="evenodd" d="M0 0H80V74L74 80H0V0ZM7.05199 25.9261V7H10.601V14.6092H17.0942V7H20.6433V25.9261H17.0942V17.8156H10.601V25.9261H7.05199ZM27.3822 7L23.3086 25.9261H27.0325L27.9068 21.2158H34.3574L35.2317 25.9261H38.9556L34.882 7H27.3822ZM33.8329 18.5391H28.4361L30.1846 9.87532H32.0843L33.8329 18.5391ZM55.8029 9.70035V17.1346L53.9032 19.0357L56.9277 25.9213H53.0006L50.5763 19.9106H45.1464V25.9213H41.5973V7H53.0998L55.7982 9.70035H55.8029ZM45.1511 17.0116H52.2539V9.9037H45.1511V17.0116ZM59.3189 7V25.9213H70.2969L72.9953 23.221V9.70034L70.2969 7H59.3189ZM69.4462 22.8237L62.868 22.7244V10.1023H69.4462V22.8237ZM55.8029 33.2374V40.6716L53.9032 42.5727L56.9277 49.4583H53.0006L50.5763 43.4476H45.1464V49.4583H41.5973V30.5323H53.0998L55.7982 33.2326L55.8029 33.2374ZM45.1511 40.5486H52.2539V33.436H45.1511V40.5486ZM7 33.2373V46.7579L9.69841 49.4583H20.6433V46.233H10.6483V33.7622H20.6433V30.5369H9.69841L7 33.2373ZM23.8757 46.7579V33.2373L26.5741 30.5369H36.1485L38.8469 33.2373V46.7579L36.1485 49.4583H26.5741L23.8757 46.7579ZM27.524 33.6345V46.3559H35.1986V33.6345H27.524ZM59.3189 30.5323V49.4583V49.4631H73V46.4601H62.868V41.2485H71.5019V38.3448H62.868V33.5353H72.7495V30.5323H59.3189ZM23.3086 72.9953L27.3822 54.0692H34.882L38.9556 72.9953H35.2317L34.3574 68.285H27.9068L27.0325 72.9953H23.3086ZM28.4361 65.6083H33.8329L32.0843 56.9445H30.1846L28.4361 65.6083ZM7.05199 54.0692V72.9953H20.6244V65.9914H17.425V69.9923H10.601V54.0692H7.05199ZM56.2613 56.6702V61.8061L54.8861 62.9836L56.7623 64.5868V70.3989L54.1631 73H41.602V54.0739H53.6669L56.2613 56.6702ZM45.1511 61.9527H52.665V56.9682H45.1511V61.9527ZM45.1511 70.0915H53.114V64.5584H45.1511V70.0915ZM59.3142 69.8929V72.9952H70.3914L72.9905 70.3941V62.5059L62.8585 61.6783L62.9058 57.2849H72.7873V54.1826H61.9559L59.3567 56.7836L59.3094 64.3077L69.4415 65.1353V69.8929H59.3142Z" fill="#F6F6F6"/>
</g>
<defs>
<clipPath id="clip0_244_4469">
<rect width="80" height="80" fill="white"/>
</clipPath>
</defs>
</svg>
