<svg width="50" height="50" viewBox="0 0 50 50" fill="none" xmlns="http://www.w3.org/2000/svg">
<path fill-rule="evenodd" clip-rule="evenodd" d="M50 0V50H0V0H50ZM38 8V12H42V8L38 8ZM38 7V1H49V12H43V7L38 7ZM49 13H43V19H49V13ZM49 20H43V26H49V20ZM49 27H43V33H49V27ZM49 34H43V49H49V34ZM42 33V27H36V33H42ZM36 34H42V49H36V34ZM35 33V27H29V33H35ZM29 34H35V49H29V34ZM28 33V27H23V22H17V28H22V33H28ZM22 34V49H28V34H22ZM16 28V22H1V28H16ZM17 21H23V15H17V21ZM16 15V21H1V15H16ZM17 14H23V8L17 8V14ZM16 8V14H1V8L16 8ZM17 7L23 7V1H17V7ZM16 1V7L1 7V1H16ZM24 1V7H30V1H24ZM31 1V7L37 7V1H31ZM36 20H42V26H36V20ZM35 20V26H29V21H24V15L30 15V20H35ZM28 26H24V22H28V26ZM24 8V14L30 14V8H24ZM42 19V13H37V8H31V14L36 14V19H42ZM35 19V15L31 15V19H35ZM1 29V49H21V29H1Z" fill="#707477"/>
</svg>
