<svg width="120" height="122" viewBox="0 0 120 122" fill="none" xmlns="http://www.w3.org/2000/svg">
<path opacity="0.5" fill-rule="evenodd" clip-rule="evenodd" d="M59.375 0.833333L60 0L60.625 0.833335L119.25 79L120 80H118.75H111.562L114.312 84L115 85H113.786H107.5L109.375 88L110 89H108.821H102.188L104.438 93L105 94H103.853H97.5L99.5 98L100 99H98.882H92.8125L94.5625 103L95 104H93.9085H87.75L89.625 109L90 110H88.932H83.125L84.6875 115L85 116H83.9523H78.5L79.75 121L80 122H78.9692H41.0308H40L40.25 121L41.5 116H36.0477H35L35.3125 115L36.875 110H31.068H30L30.375 109L32.25 104H26.0915H25L25.4375 103L27.1875 99H21.118H20L20.5 98L22.5 94H16.1473H15L15.5625 93L17.8125 89H11.1792H10L10.625 88L12.5 85H6.21353H5L5.6875 84L8.4375 80H1.25H0L0.75 79L59.375 0.833333ZM42.5308 116L41.2808 121H78.7192L77.4692 116H42.5308ZM77.2192 115H42.7808L44.0308 110H75.9692L77.2192 115ZM78.25 115H83.6398L82.0773 110H77L78.25 115ZM76.75 109H81.7648L80.2023 104H75.5L76.75 109ZM75.25 103H79.8898L78.6398 99H74.25L75.25 103ZM73.2192 99L74.2192 103H45.7808L46.7808 99H73.2192ZM74 98H78.3273L77.0773 94H73L74 98ZM71.9692 94L72.9692 98H47.0308L48.0308 94H71.9692ZM72.75 93H76.7648L75.5148 89H71.75L72.75 93ZM70.7192 89L71.7192 93H48.2808L49.2808 89H70.7192ZM71.5 88H75.2023L74.2648 85H70.75L71.5 88ZM69.7192 85L70.4692 88H49.5308L50.2808 85H69.7192ZM70.5 84H73.9523L72.7023 80H69.5L70.5 84ZM68.4692 80L69.4692 84H50.5308L51.5308 80H68.4692ZM69.25 79H72.3898L60 39.3526L47.6102 79H50.75L59.4846 44.0616L60 42L60.5154 44.0616L69.25 79ZM51.7808 79L60 46.1231L68.2192 79H51.7808ZM50.5 80H47.2977L46.0477 84H49.5L50.5 80ZM49.25 85H45.7352L44.7977 88H48.5L49.25 85ZM48.25 89H44.4852L43.2352 93H47.25L48.25 89ZM47 94H42.9227L41.6727 98H46L47 94ZM45.75 99H41.3602L40.1102 103H44.75L45.75 99ZM44.5 104H39.7977L38.2352 109H43.25L44.5 104ZM44.2808 109H75.7192L74.4692 104H45.5308L44.2808 109ZM43 110H37.9227L36.3602 115H41.75L43 110ZM88.557 109H82.8125L81.25 104H86.682L88.557 109ZM86.307 103H80.9375L79.6875 99H84.807L86.307 103ZM84.432 98H79.375L78.125 94H82.932L84.432 98ZM82.557 93H77.8125L76.5625 89H81.057L82.557 93ZM80.682 88H76.25L75.3125 85H79.557L80.682 88ZM79.182 84H75L73.75 80H77.682L79.182 84ZM77.307 79H73.4375L60.5238 37.6763L60 36L59.4762 37.6763L46.5625 79H42.693L60 32.848L77.307 79ZM42.318 80H46.25L45 84H40.818L42.318 80ZM40.443 85H44.6875L43.75 88H39.318L40.443 85ZM38.943 89H43.4375L42.1875 93H37.443L38.943 89ZM37.068 94H41.875L40.625 98H35.568L37.068 94ZM35.193 99H40.3125L39.0625 103H33.693L35.193 99ZM33.318 104H38.75L37.1875 109H31.443L33.318 104ZM87.375 103H93.471L91.721 99H85.875L87.375 103ZM85.5 98H91.2835L89.5335 94H84L85.5 98ZM83.625 93H89.096L87.346 89H82.125L83.625 93ZM81.75 88H86.9085L85.596 85H80.625L81.75 88ZM80.25 84H85.1585L83.4085 80H78.75L80.25 84ZM78.375 79H82.971L60 26.4949L37.029 79H41.625L59.466 31.424L60 30L60.534 31.424L78.375 79ZM41.25 80H36.5915L34.8415 84H39.75L41.25 80ZM39.375 85H34.404L33.0915 88H38.25L39.375 85ZM37.875 89H32.654L30.904 93H36.375L37.875 89ZM36 94H30.4665L28.7165 98H34.5L36 94ZM34.125 99H28.279L26.529 103H32.625L34.125 99ZM98.382 98H92.375L90.625 94H96.382L98.382 98ZM95.882 93H90.1875L88.4375 89H93.882L95.882 93ZM93.382 88H88L86.6875 85H91.882L93.382 88ZM91.382 84H86.25L84.5 80H89.382L91.382 84ZM88.882 79H84.0625L60.5458 25.2474L60 24L59.4542 25.2474L35.9375 79H31.118L60 21.2361L88.882 79ZM30.618 80H35.5L33.75 84H28.618L30.618 80ZM28.118 85H33.3125L32 88H26.618L28.118 85ZM26.118 89H31.5625L29.8125 93H24.118L26.118 89ZM23.618 94H29.375L27.625 98H21.618L23.618 94ZM97 93H103.29L101.04 89H95L97 93ZM94.5 88H100.478L98.7901 85H93L94.5 88ZM92.5 84H98.2276L95.9776 80H90.5L92.5 84ZM90 79H95.4151L60 16.0397L24.5848 79H30L59.441 20.118L60 19L60.559 20.118L90 79ZM29.5 80H24.0223L21.7723 84H27.5L29.5 80ZM27 85H21.2098L19.5223 88H25.5L27 85ZM25 89H18.9598L16.7098 93H23L25 89ZM108.196 88H101.625L99.9375 85H106.321L108.196 88ZM105.696 84H99.375L97.125 80H103.196L105.696 84ZM102.571 79H96.5625L60.5737 15.0199L60 14L59.4263 15.0199L23.4375 79H17.4292L60 10.8868L102.571 79ZM16.8042 80H22.875L20.625 84H14.3042L16.8042 80ZM13.6792 85H20.0625L18.375 88H11.8042L13.6792 85ZM9.65103 80L6.90103 84H13.125L15.625 80H9.65103ZM16.25 79H10.3385L60 6.76513L109.661 79H103.75L60.5896 9.9434L60 9L59.4104 9.9434L16.25 79ZM104.375 80L106.875 84H113.099L110.349 80H104.375ZM110.875 79L60.6068 5.88257L60 5L59.3932 5.88257L9.125 79H2L60 1.66667L118 79H110.875Z" fill="#707477"/>
</svg>
