<svg width="160" height="160" viewBox="0 0 160 160" fill="none" xmlns="http://www.w3.org/2000/svg">
<path opacity="0.5" fill-rule="evenodd" clip-rule="evenodd" d="M1 1H79V79H1V1ZM0 0H1H79H80V1V79V80H79H1H0V79V1V0ZM80 80H81H159H160V81V159V160H159H81H80V159V81V80ZM81 81H159V159H81V81ZM70.9073 3.16609L3.16609 9.09268L9.09268 76.8339L76.8339 70.9073L70.9073 3.16609ZM3.07893 8.09648L2.08273 8.18364L2.16989 9.17983L8.09648 76.9211L8.18364 77.9173L9.17983 77.8301L76.9211 71.9035L77.9173 71.8164L77.8301 70.8202L71.9035 3.07893L71.8164 2.08273L70.8202 2.16989L3.07893 8.09648ZM89.0927 83.166L156.834 89.0926L150.907 156.834L83.1661 150.907L89.0927 83.166ZM88.1837 82.0827L89.1799 82.1699L156.921 88.0964L157.917 88.1836L157.83 89.1798L151.904 156.921L151.816 157.917L150.82 157.83L83.079 151.903L82.0828 151.816L82.1699 150.82L88.0965 83.0789L88.1837 82.0827ZM63.5236 6.40478L6.40478 16.4764L16.4764 73.5952L73.5952 63.5236L63.5236 6.40478ZM6.23113 15.4916L5.24632 15.6652L5.41997 16.65L15.4916 73.7689L15.6652 74.7537L16.65 74.58L73.7689 64.5084L74.7537 64.3348L74.58 63.35L64.5084 6.23113L64.3348 5.24632L63.35 5.41997L6.23113 15.4916ZM96.4764 86.4047L153.595 96.4763L143.524 153.595L86.4048 143.524L96.4764 86.4047ZM95.6652 85.2463L96.65 85.4199L153.769 95.4915L154.754 95.6652L154.58 96.65L144.508 153.769L144.335 154.754L143.35 154.58L86.2311 144.508L85.2463 144.335L85.42 143.35L95.4916 86.2311L95.6652 85.2463ZM56.9706 10.6061L10.6061 23.0294L23.0294 69.3939L69.3939 56.9706L56.9706 10.6061ZM10.3473 22.0635L9.38138 22.3223L9.6402 23.2883L22.0635 69.6527L22.3223 70.6186L23.2883 70.3598L69.6527 57.9365L70.6186 57.6777L70.3598 56.7117L57.9365 10.3473L57.6777 9.38138L56.7117 9.6402L10.3473 22.0635ZM103.029 90.6061L149.394 103.029L136.971 149.394L90.6061 136.971L103.029 90.6061ZM102.322 89.3813L103.288 89.6401L149.653 102.063L150.619 102.322L150.36 103.288L137.936 149.653L137.678 150.619L136.712 150.36L90.3473 137.936L89.3813 137.678L89.6402 136.712L102.063 90.3472L102.322 89.3813ZM51.3556 15.6474L15.6473 28.6442L28.6441 64.3525L64.3524 51.3558L51.3556 15.6474ZM15.3053 27.7045L14.3656 28.0465L14.7076 28.9862L27.7044 64.6945L28.0464 65.6342L28.9861 65.2922L64.6944 52.2954L65.6341 51.9534L65.2921 51.0137L52.2953 15.3054L51.9533 14.3657L51.0136 14.7077L15.3053 27.7045ZM108.644 95.6475L144.353 108.644L131.356 144.353L95.6475 131.356L108.644 95.6475ZM108.047 94.3657L108.986 94.7078L144.695 107.705L145.634 108.047L145.292 108.986L132.295 144.695L131.953 145.634L131.014 145.292L95.3054 132.295L94.3657 131.953L94.7078 131.014L107.705 95.3054L108.047 94.3657ZM46.7717 21.395L21.395 33.2283L33.2283 58.6049L58.605 46.7716L46.7717 21.395ZM20.9724 32.322L20.0661 32.7446L20.4887 33.6509L32.322 59.0276L32.7447 59.9339L33.651 59.5113L59.0276 47.6779L59.9339 47.2553L59.5113 46.349L47.678 20.9724L47.2553 20.0661L46.349 20.4887L20.9724 32.322ZM113.229 101.395L138.605 113.228L126.772 138.605L101.395 126.772L113.229 101.395ZM112.745 100.066L113.651 100.489L139.028 112.322L139.934 112.745L139.511 113.651L127.678 139.028L127.256 139.934L126.349 139.511L100.973 127.678L100.066 127.255L100.489 126.349L112.322 100.972L112.745 100.066ZM43.2943 27.7057L27.7059 36.7057L36.7059 52.2942L52.2943 43.2942L43.2943 27.7057ZM27.2059 35.8397L26.3398 36.3397L26.8398 37.2057L35.8398 52.7942L36.3398 53.6602L37.2059 53.1602L52.7943 44.1602L53.6604 43.6602L53.1604 42.7942L44.1604 27.2057L43.6604 26.3397L42.7943 26.8397L27.2059 35.8397ZM116.706 107.706L132.294 116.706L123.294 132.294L107.706 123.294L116.706 107.706ZM116.34 106.34L117.206 106.84L132.794 115.84L133.66 116.34L133.16 117.206L124.16 132.794L123.66 133.66L122.794 133.16L107.206 124.16L106.34 123.66L106.84 122.794L115.84 107.206L116.34 106.34ZM40.9824 34.4291L34.4292 39.0177L39.0178 45.5709L45.571 40.9823L40.9824 34.4291ZM33.8556 38.1985L33.0364 38.7721L33.61 39.5912L38.1986 46.1445L38.7722 46.9636L39.5913 46.39L46.1446 41.8014L46.9637 41.2279L46.3901 40.4087L41.8015 33.8555L41.228 33.0363L40.4088 33.6099L33.8556 38.1985ZM119.018 114.429L125.571 119.018L120.982 125.571L114.429 120.982L119.018 114.429ZM118.772 113.036L119.591 113.61L126.145 118.199L126.964 118.772L126.39 119.591L121.802 126.145L121.228 126.964L120.409 126.39L113.856 121.802L113.036 121.228L113.61 120.409L118.199 113.856L118.772 113.036Z" fill="#707477"/>
</svg>
