<svg width="800" height="560" fill="none" xmlns="http://www.w3.org/2000/svg"><path d="M0 0h800v540l-20 20H0V0z" fill="#2A2A2B"/><path opacity=".2" d="M400 560V0" stroke="#707477" stroke-width="2"/><path d="M51.705 37a5.13 5.13 0 0 0-.618-1.285 3.963 3.963 0 0 0-.902-.98 3.784 3.784 0 0 0-1.18-.618 4.696 4.696 0 0 0-1.448-.214c-.862 0-1.646.223-2.351.668-.706.445-1.267 1.1-1.683 1.967-.417.867-.625 1.93-.625 3.19 0 1.259.21 2.322.632 3.188.421.867.992 1.522 1.712 1.968.72.445 1.529.667 2.428.667.834 0 1.568-.177 2.202-.533a3.777 3.777 0 0 0 1.492-1.52c.36-.658.54-1.432.54-2.322l.54.114h-4.376v-1.563h5.54v1.563c0 1.198-.256 2.24-.767 3.125a5.3 5.3 0 0 1-2.102 2.06c-.89.482-1.913.724-3.069.724-1.287 0-2.419-.303-3.394-.91-.971-.605-1.729-1.467-2.273-2.584-.54-1.118-.81-2.444-.81-3.978 0-1.15.154-2.185.462-3.103.312-.924.753-1.71 1.32-2.358a5.776 5.776 0 0 1 2.018-1.492c.776-.346 1.631-.518 2.564-.518a6.45 6.45 0 0 1 2.145.348 5.754 5.754 0 0 1 1.782.973c.526.416.964.916 1.314 1.498.35.578.592 1.22.725 1.925h-1.818zM56.397 47V36.09h1.62v1.649h.113c.2-.54.56-.978 1.08-1.314a3.178 3.178 0 0 1 1.761-.505c.123 0 .277.003.462.008.185.004.324.011.419.02v1.705a4.98 4.98 0 0 0-.39-.063 3.837 3.837 0 0 0-.633-.05c-.53 0-1.004.111-1.42.334-.412.217-.739.52-.98.909a2.45 2.45 0 0 0-.355 1.314V47h-1.677zM67.939 47.227c-.985 0-1.85-.234-2.593-.703-.738-.469-1.316-1.124-1.733-1.967-.412-.843-.618-1.828-.618-2.955 0-1.136.206-2.128.618-2.976.417-.847.995-1.505 1.733-1.974.744-.469 1.608-.703 2.593-.703.985 0 1.846.234 2.585.703.743.469 1.32 1.127 1.733 1.974.416.848.625 1.84.625 2.976 0 1.127-.209 2.112-.625 2.955-.412.843-.99 1.498-1.733 1.967-.739.469-1.6.703-2.585.703zm0-1.505c.748 0 1.363-.192 1.846-.576.483-.383.84-.888 1.073-1.513a5.792 5.792 0 0 0 .348-2.03c0-.73-.116-1.41-.348-2.04-.232-.629-.59-1.138-1.073-1.526-.483-.388-1.098-.582-1.846-.582s-1.364.194-1.847.582c-.483.388-.84.897-1.072 1.527a5.851 5.851 0 0 0-.348 2.038c0 .73.116 1.407.348 2.032.232.624.59 1.129 1.072 1.512.483.384 1.099.576 1.847.576zM83.168 38.534l-1.506.426a2.798 2.798 0 0 0-.419-.731 2.034 2.034 0 0 0-.739-.597c-.312-.156-.712-.234-1.2-.234-.668 0-1.224.154-1.669.461-.44.303-.66.69-.66 1.158 0 .417.151.746.454.987.303.242.776.443 1.42.604l1.62.398c.975.236 1.702.599 2.18 1.086.478.483.718 1.106.718 1.868a2.77 2.77 0 0 1-.54 1.676c-.355.493-.852.881-1.492 1.165-.639.284-1.382.426-2.23.426-1.112 0-2.033-.241-2.763-.724-.729-.483-1.19-1.189-1.385-2.117l1.591-.397c.152.587.438 1.027.86 1.32.426.294.982.441 1.669.441.781 0 1.401-.166 1.86-.497.465-.336.697-.739.697-1.208 0-.378-.133-.696-.398-.951-.265-.26-.672-.455-1.222-.583l-1.818-.426c-.999-.236-1.733-.604-2.202-1.1-.464-.502-.696-1.13-.696-1.883 0-.615.173-1.16.519-1.633.35-.474.826-.845 1.427-1.115.606-.27 1.293-.405 2.06-.405 1.08 0 1.927.237 2.543.71a3.829 3.829 0 0 1 1.32 1.875zM93.617 38.534l-1.506.426a2.798 2.798 0 0 0-.419-.731 2.034 2.034 0 0 0-.738-.597c-.313-.156-.713-.234-1.2-.234-.668 0-1.225.154-1.67.461-.44.303-.66.69-.66 1.158 0 .417.151.746.454.987.303.242.777.443 1.42.604l1.62.398c.975.236 1.702.599 2.18 1.086.479.483.718 1.106.718 1.868a2.77 2.77 0 0 1-.54 1.676c-.355.493-.852.881-1.492 1.165-.639.284-1.382.426-2.23.426-1.112 0-2.033-.241-2.762-.724-.73-.483-1.191-1.189-1.385-2.117l1.59-.397c.152.587.439 1.027.86 1.32.426.294.982.441 1.669.441.781 0 1.401-.166 1.86-.497.465-.336.697-.739.697-1.208 0-.378-.133-.696-.398-.951-.265-.26-.672-.455-1.222-.583l-1.818-.426c-.999-.236-1.733-.604-2.201-1.1-.464-.502-.696-1.13-.696-1.883 0-.615.172-1.16.518-1.633.35-.474.826-.845 1.428-1.115.606-.27 1.292-.405 2.06-.405 1.079 0 1.926.237 2.542.71a3.829 3.829 0 0 1 1.32 1.875zM102.191 47V32.455h4.915c1.141 0 2.074.206 2.798.617.729.408 1.269.96 1.619 1.655.351.696.526 1.473.526 2.33s-.175 1.636-.526 2.336c-.345.701-.88 1.26-1.605 1.677-.724.411-1.652.617-2.784.617h-3.522v-1.562h3.465c.782 0 1.409-.135 1.883-.405.473-.27.816-.634 1.029-1.094.218-.464.327-.987.327-1.57 0-.582-.109-1.102-.327-1.562a2.327 2.327 0 0 0-1.037-1.08c-.478-.264-1.112-.397-1.903-.397h-3.097V47h-1.761zM119.116 47.227c-1.051 0-1.958-.232-2.72-.696a4.67 4.67 0 0 1-1.755-1.96c-.407-.843-.61-1.823-.61-2.94 0-1.118.203-2.103.61-2.955.412-.857.985-1.525 1.719-2.003.739-.483 1.601-.724 2.585-.724.569 0 1.13.095 1.684.284.554.19 1.058.497 1.512.923.455.422.817.98 1.087 1.676s.405 1.553.405 2.571v.71h-8.409v-1.448h6.704c0-.616-.123-1.165-.369-1.648a2.778 2.778 0 0 0-1.037-1.143c-.445-.28-.971-.42-1.577-.42-.667 0-1.245.166-1.733.498a3.274 3.274 0 0 0-1.115 1.278 3.76 3.76 0 0 0-.39 1.69v.966c0 .824.142 1.523.426 2.095a3.077 3.077 0 0 0 1.2 1.3c.512.294 1.106.44 1.783.44.44 0 .838-.061 1.193-.184.36-.128.67-.317.93-.568.261-.256.462-.573.604-.952l1.619.455a3.59 3.59 0 0 1-.859 1.448 4.19 4.19 0 0 1-1.491.966c-.592.228-1.258.341-1.996.341zM126.183 47V36.09h1.619v1.649h.114c.198-.54.558-.978 1.079-1.314a3.178 3.178 0 0 1 1.761-.505c.124 0 .277.003.462.008.185.004.324.011.419.02v1.705a5.01 5.01 0 0 0-.39-.063 3.846 3.846 0 0 0-.633-.05c-.53 0-1.003.111-1.42.334-.412.217-.739.52-.98.909a2.448 2.448 0 0 0-.355 1.314V47h-1.676zM139.166 36.09v1.421h-5.881v-1.42h5.881zM135.046 47V34.585c0-.625.147-1.146.441-1.562.293-.417.674-.73 1.143-.938a3.617 3.617 0 0 1 1.484-.312c.412 0 .749.033 1.009.1.26.065.454.127.582.184l-.483 1.449a7.926 7.926 0 0 0-.355-.107 2.154 2.154 0 0 0-.582-.064c-.554 0-.954.14-1.2.42-.242.279-.363.688-.363 1.228V47h-1.676zM145.497 47.227c-.985 0-1.849-.234-2.592-.703-.739-.469-1.316-1.124-1.733-1.967-.412-.843-.618-1.828-.618-2.955 0-1.136.206-2.128.618-2.976.417-.847.994-1.505 1.733-1.974.743-.469 1.607-.703 2.592-.703.985 0 1.847.234 2.585.703.744.469 1.321 1.127 1.733 1.974.417.848.625 1.84.625 2.976 0 1.127-.208 2.112-.625 2.955-.412.843-.989 1.498-1.733 1.967-.738.469-1.6.703-2.585.703zm0-1.505c.748 0 1.364-.192 1.847-.576.483-.383.84-.888 1.072-1.513a5.792 5.792 0 0 0 .348-2.03c0-.73-.116-1.41-.348-2.04-.232-.629-.589-1.138-1.072-1.526-.483-.388-1.099-.582-1.847-.582s-1.363.194-1.846.582a3.437 3.437 0 0 0-1.073 1.527 5.851 5.851 0 0 0-.348 2.038c0 .73.116 1.407.348 2.032.232.624.59 1.129 1.073 1.512.483.384 1.098.576 1.846.576zM152.999 47V36.09h1.619v1.649h.114c.199-.54.559-.978 1.079-1.314a3.179 3.179 0 0 1 1.762-.505c.123 0 .277.003.462.008.184.004.324.011.419.02v1.705a4.979 4.979 0 0 0-.391-.063 3.843 3.843 0 0 0-.632-.05c-.53 0-1.004.111-1.421.334-.412.217-.738.52-.98.909a2.457 2.457 0 0 0-.355 1.314V47h-1.676zM160.44 47V36.09h1.62v1.705h.142a2.738 2.738 0 0 1 1.101-1.356c.506-.327 1.115-.49 1.825-.49.72 0 1.319.163 1.797.49.483.322.859.774 1.129 1.356h.114a3.174 3.174 0 0 1 1.257-1.342c.558-.336 1.228-.504 2.01-.504.975 0 1.773.305 2.393.916.62.606.931 1.55.931 2.834V47h-1.677v-7.301c0-.805-.22-1.38-.66-1.726-.44-.346-.959-.518-1.555-.518-.768 0-1.362.232-1.783.696-.422.459-.632 1.041-.632 1.747V47h-1.705v-7.472c0-.62-.201-1.12-.603-1.498-.403-.384-.921-.575-1.556-.575-.435 0-.843.116-1.221.348a2.623 2.623 0 0 0-.91.965c-.227.408-.34.879-.34 1.414V47h-1.677zM181.033 47.256c-.691 0-1.318-.13-1.882-.391a3.229 3.229 0 0 1-1.342-1.143c-.331-.502-.497-1.108-.497-1.819 0-.625.123-1.131.369-1.52.246-.393.575-.7.987-.923a5.195 5.195 0 0 1 1.364-.497 16.57 16.57 0 0 1 1.513-.27c.663-.085 1.2-.149 1.612-.192.417-.047.72-.125.909-.234.194-.109.291-.298.291-.568v-.057c0-.7-.191-1.245-.575-1.634-.379-.388-.954-.582-1.726-.582-.8 0-1.427.175-1.882.526-.454.35-.774.724-.959 1.122l-1.591-.568c.284-.663.663-1.18 1.137-1.549a4.258 4.258 0 0 1 1.562-.78 6.487 6.487 0 0 1 1.676-.228c.351 0 .753.043 1.208.128.459.08.902.248 1.328.504.431.256.788.641 1.072 1.158.284.516.426 1.207.426 2.074V47h-1.676v-1.477h-.085c-.114.236-.303.49-.568.76-.265.27-.618.5-1.058.689-.441.189-.978.284-1.613.284zm.256-1.506c.663 0 1.222-.13 1.676-.39.46-.261.805-.597 1.037-1.01.237-.411.355-.844.355-1.299v-1.534c-.071.085-.227.163-.468.234a7.953 7.953 0 0 1-.824.178c-.308.047-.609.09-.902.128a43.6 43.6 0 0 0-.703.085c-.436.057-.843.15-1.222.277-.374.123-.677.31-.909.561-.227.246-.341.583-.341 1.009 0 .582.215 1.022.646 1.32.436.294.988.441 1.655.441zM190.769 40.438V47h-1.676V36.09h1.619v1.705h.142a3.117 3.117 0 0 1 1.165-1.335c.521-.34 1.193-.511 2.017-.511.739 0 1.385.151 1.939.454.554.299.985.753 1.292 1.364.308.606.462 1.373.462 2.301V47h-1.676v-6.818c0-.857-.223-1.525-.668-2.003-.445-.483-1.056-.724-1.832-.724-.535 0-1.013.116-1.435.348-.416.232-.745.57-.987 1.015-.241.445-.362.985-.362 1.62zM205.224 47.227c-1.023 0-1.904-.241-2.642-.724-.739-.483-1.307-1.148-1.705-1.996-.398-.847-.596-1.816-.596-2.905 0-1.108.203-2.085.61-2.933.412-.852.985-1.517 1.719-1.996.739-.483 1.601-.724 2.585-.724.767 0 1.459.142 2.074.426.616.284 1.12.682 1.513 1.193.393.512.637 1.108.732 1.79h-1.677c-.127-.497-.412-.938-.852-1.321-.435-.388-1.023-.582-1.761-.582-.654 0-1.227.17-1.719.51-.488.337-.869.813-1.143 1.428-.27.611-.405 1.329-.405 2.152 0 .843.132 1.577.397 2.202.27.625.649 1.11 1.137 1.456.492.346 1.07.519 1.733.519.435 0 .831-.076 1.186-.228.355-.151.656-.369.902-.653.246-.284.421-.625.525-1.023h1.677a3.888 3.888 0 0 1-.704 1.74 3.924 3.924 0 0 1-1.47 1.222c-.606.298-1.311.447-2.116.447zM216.538 47.227c-1.051 0-1.958-.232-2.72-.696a4.67 4.67 0 0 1-1.755-1.96c-.407-.843-.611-1.823-.611-2.94 0-1.118.204-2.103.611-2.955.412-.857.985-1.525 1.719-2.003.739-.483 1.6-.724 2.585-.724a5.17 5.17 0 0 1 1.683.284c.554.19 1.059.497 1.513.923.455.422.817.98 1.087 1.676s.405 1.553.405 2.571v.71h-8.409v-1.448h6.704c0-.616-.123-1.165-.369-1.648a2.785 2.785 0 0 0-1.037-1.143c-.445-.28-.971-.42-1.577-.42-.667 0-1.245.166-1.733.498a3.274 3.274 0 0 0-1.115 1.278 3.76 3.76 0 0 0-.39 1.69v.966c0 .824.142 1.523.426 2.095a3.077 3.077 0 0 0 1.2 1.3c.511.294 1.106.44 1.783.44.44 0 .838-.061 1.193-.184.36-.128.67-.317.93-.568.261-.256.462-.573.604-.952l1.619.455a3.59 3.59 0 0 1-.859 1.448c-.403.412-.9.734-1.492.966-.591.228-1.257.341-1.995.341zM712.506 47V45.72l4.801-5.255a33.808 33.808 0 0 0 1.392-1.605c.364-.46.634-.89.81-1.293.179-.407.269-.833.269-1.278 0-.512-.123-.954-.369-1.328a2.394 2.394 0 0 0-.994-.867 3.226 3.226 0 0 0-1.421-.305c-.558 0-1.046.116-1.463.348a2.4 2.4 0 0 0-.959.959c-.222.411-.333.894-.333 1.448h-1.677c0-.852.197-1.6.59-2.244a4.095 4.095 0 0 1 1.605-1.506c.682-.36 1.447-.54 2.294-.54.852 0 1.608.18 2.266.54.658.36 1.174.846 1.548 1.456.374.611.561 1.29.561 2.039 0 .535-.097 1.058-.291 1.57-.189.506-.521 1.072-.994 1.697-.469.62-1.12 1.378-1.954 2.273l-3.267 3.494v.113h6.762V47h-9.176zM729.359 47.199c-1.07 0-1.981-.291-2.734-.874-.753-.587-1.328-1.437-1.726-2.55-.398-1.117-.596-2.466-.596-4.048 0-1.572.198-2.914.596-4.027.403-1.117.98-1.97 1.733-2.557.758-.592 1.667-.887 2.727-.887 1.061 0 1.968.295 2.721.887.757.587 1.335 1.44 1.732 2.557.403 1.113.604 2.455.604 4.027 0 1.582-.199 2.931-.596 4.049-.398 1.112-.973 1.962-1.726 2.55-.753.582-1.665.873-2.735.873zm0-1.563c1.061 0 1.885-.511 2.472-1.534.587-1.022.881-2.48.881-4.375 0-1.26-.135-2.332-.405-3.217-.265-.886-.649-1.56-1.151-2.024-.497-.464-1.096-.696-1.797-.696-1.051 0-1.872.518-2.464 1.555-.592 1.032-.888 2.493-.888 4.382 0 1.26.133 2.33.398 3.21.265.881.646 1.551 1.143 2.01.502.46 1.106.69 1.811.69zM737.115 47V45.72l4.801-5.255a32.688 32.688 0 0 0 1.392-1.605c.365-.46.635-.89.81-1.293.18-.407.27-.833.27-1.278 0-.512-.123-.954-.37-1.328a2.388 2.388 0 0 0-.994-.867 3.222 3.222 0 0 0-1.42-.305c-.559 0-1.047.116-1.463.348a2.395 2.395 0 0 0-.959.959c-.223.411-.334.894-.334 1.448h-1.676c0-.852.196-1.6.589-2.244a4.095 4.095 0 0 1 1.605-1.506c.682-.36 1.447-.54 2.295-.54.852 0 1.607.18 2.265.54.658.36 1.174.846 1.548 1.456.374.611.562 1.29.562 2.039 0 .535-.098 1.058-.292 1.57-.189.506-.521 1.072-.994 1.697-.469.62-1.12 1.378-1.953 2.273l-3.267 3.494v.113h6.761V47h-9.176zM749.224 47V45.72l4.802-5.255a33.808 33.808 0 0 0 1.392-1.605c.364-.46.634-.89.809-1.293.18-.407.27-.833.27-1.278 0-.512-.123-.954-.369-1.328a2.4 2.4 0 0 0-.994-.867 3.226 3.226 0 0 0-1.421-.305c-.559 0-1.046.116-1.463.348a2.395 2.395 0 0 0-.959.959c-.222.411-.334.894-.334 1.448h-1.676c0-.852.197-1.6.59-2.244a4.095 4.095 0 0 1 1.605-1.506c.682-.36 1.446-.54 2.294-.54.852 0 1.607.18 2.266.54.658.36 1.174.846 1.548 1.456.374.611.561 1.29.561 2.039 0 .535-.097 1.058-.291 1.57-.19.506-.521 1.072-.995 1.697-.468.62-1.119 1.378-1.953 2.273l-3.267 3.494v.113h6.762V47h-9.177z" fill="#707477"/><path fill="#fff" d="M401 83h53.5v30H401z"/><mask id="a" style="mask-type:alpha" maskUnits="userSpaceOnUse" x="204" y="83" width="251" height="430"><path fill-rule="evenodd" clip-rule="evenodd" d="M401 83h53.4v30H401V83zM300 283h99v30h-99v-30zm99-100h-51v30h51v-30zM282 333h117v30H282v-30zm117-100h-72v30h72v-30zM234 383h165v30H234v-30zm165 50H204v30h195v-30zm-192 50h192v30H207v-30zm195-350h-1v30h1v-30z" fill="#000"/></mask><g mask="url(#a)"><path d="m180-423 300 300M180-419l300 300M180-415l300 300M180-411l300 300M180-407l300 300M180-403l300 300M180-399 480-99M180-395 480-95M180-391 480-91M180-387 480-87M180-383 480-83M180-379 480-79M180-375 480-75M180-371 480-71M180-367 480-67M180-363 480-63M180-359 480-59M180-355 480-55M180-351 480-51M180-347 480-47M180-343 480-43M180-339 480-39M180-335 480-35M180-331 480-31M180-327 480-27M180-323 480-23M180-319 480-19M180-315 480-15M180-311 480-11M180-307 480-7M180-303 480-3M180-299 480 1M180-295 480 5M180-291 480 9M180-287 480 13M180-283 480 17M180-279 480 21M180-275 480 25M180-271 480 29M180-267 480 33M180-263 480 37M180-259 480 41M180-255 480 45M180-251 480 49M180-247 480 53M180-243 480 57M180-239 480 61M180-235 480 65M180-231 480 69M180-227 480 73M180-223 480 77M180-219 480 81M180-215 480 85M180-211 480 89M180-207 480 93M180-203 480 97M180-199l300 300M180-195l300 300M180-191l300 300M180-187l300 300M180-183l300 300M180-179l300 300M180-175l300 300M180-171l300 300M180-167l300 300M180-163l300 300M180-159l300 300M180-155l300 300M180-151l300 300M180-147l300 300M180-143l300 300M180-139l300 300M180-135l300 300M180-131l300 300M180-127l300 300M180-123l300 300M180-119l300 300M180-115l300 300M180-111l300 300M180-107l300 300M180-103l300 300M180-99l300 300M180-95l300 300M180-91l300 300M180-87l300 300M180-83l300 300M180-79l300 300M180-75l300 300M180-71l300 300M180-67l300 300M180-63l300 300M180-59l300 300M180-55l300 300M180-51l300 300M180-47l300 300M180-43l300 300M180-39l300 300M180-35l300 300M180-31l300 300M180-27l300 300M180-23l300 300M180-19l300 300M180-15l300 300M180-11l300 300M180-7l300 300M180-3l300 300M180 1l300 300M180 5l300 300M180 9l300 300M180 13l300 300M180 17l300 300M180 21l300 300M180 25l300 300M180 29l300 300M180 33l300 300M180 37l300 300M180 41l300 300M180 45l300 300M180 49l300 300M180 53l300 300M180 57l300 300M180 61l300 300M180 65l300 300M180 69l300 300M180 73l300 300M180 77l300 300M180 81l300 300M180 85l300 300M180 89l300 300M180 93l300 300M180 97l300 300M180 101l300 300M180 105l300 300M180 109l300 300M180 113l300 300M180 117l300 300M180 121l300 300M180 125l300 300M180 129l300 300M180 133l300 300M180 137l300 300M180 141l300 300M180 145l300 300M180 149l300 300M180 153l300 300M180 157l300 300M180 161l300 300M180 165l300 300M180 169l300 300M180 173l300 300M180 177l300 300M180 181l300 300M180 185l300 300M180 189l300 300M180 193l300 300M180 197l300 300M180 201l300 300M180 205l300 300M180 209l300 300M180 213l300 300M180 217l300 300M180 221l300 300M180 225l300 300M180 229l300 300M180 233l300 300M180 237l300 300M180 241l300 300M180 245l300 300M180 249l300 300M180 253l300 300M180 257l300 300M180 261l300 300M180 265l300 300M180 269l300 300M180 273l300 300M180 277l300 300M180 281l300 300M180 285l300 300M180 289l300 300M180 293l300 300M180 297l300 300M180 301l300 300M180 305l300 300M180 309l300 300M180 313l300 300M180 317l300 300M180 321l300 300M180 325l300 300M180 329l300 300M180 333l300 300M180 337l300 300M180 341l300 300M180 345l300 300M180 349l300 300M180 353l300 300M180 357l300 300M180 361l300 300M180 365l300 300M180 369l300 300M180 373l300 300M180 377l300 300M180 381l300 300M180 385l300 300M180 389l300 300M180 393l300 300M180 397l300 300M180 401l300 300M180 405l300 300M180 409l300 300M180 413l300 300M180 417l300 300M180 421l300 300M180 425l300 300M180 429l300 300M180 433l300 300M180 437l300 300M180 441l300 300M180 445l300 300M180 449l300 300M180 453l300 300M180 457l300 300M180 461l300 300M180 465l300 300M180 469l300 300M180 473l300 300M180 477l300 300M180 481l300 300M180 485l300 300M180 489l300 300M180 493l300 300M180 497l300 300M180 501l300 300M180 505l300 300M180 509l300 300M180 513l300 300M180 517l300 300M180 521l300 300M180 525l300 300M180 529l300 300M180 533l300 300M180 537l300 300M180 541l300 300M180 545l300 300M180 549l300 300M180 553l300 300M180 557l300 300M180 561l300 300M180 565l300 300M180 569l300 300M180 573l300 300M180 577l300 300M180 581l300 300M180 585l300 300M180 589l300 300" stroke="#707477"/></g><path d="M113.023 110V86.727h4.92v9.603h9.989v-9.603h4.909V110h-4.909v-9.614h-9.989V110h-4.92zM140.909 110h-5.273l8.034-23.273h6.341L158.034 110h-5.273l-5.829-17.954h-.182L140.909 110zm-.329-9.148h12.454v3.841H140.58v-3.841zM160.835 110V86.727h9.182c1.758 0 3.258.315 4.5.944 1.25.62 2.201 1.503 2.852 2.647.659 1.137.989 2.474.989 4.012 0 1.545-.333 2.875-1 3.988-.667 1.106-1.633 1.955-2.898 2.546-1.257.591-2.78.886-4.568.886h-6.148v-3.954h5.353c.939 0 1.719-.13 2.34-.387.622-.257 1.084-.644 1.387-1.159.31-.515.466-1.155.466-1.92 0-.773-.156-1.425-.466-1.955-.303-.53-.769-.932-1.398-1.204-.621-.28-1.405-.42-2.352-.42h-3.318V110h-4.921zm12.568-10.59 5.784 10.59h-5.431l-5.659-10.59h5.306zM190.085 110h-8.25V86.727h8.318c2.341 0 4.356.466 6.046 1.398 1.689.924 2.988 2.254 3.898 3.989.916 1.735 1.375 3.81 1.375 6.227 0 2.424-.459 4.508-1.375 6.25-.91 1.742-2.216 3.08-3.921 4.011-1.697.932-3.727 1.398-6.091 1.398zm-3.329-4.216h3.125c1.454 0 2.678-.257 3.67-.773 1-.522 1.75-1.329 2.25-2.42.508-1.098.761-2.515.761-4.25 0-1.72-.253-3.125-.761-4.216-.5-1.09-1.246-1.894-2.239-2.409-.992-.515-2.215-.773-3.67-.773h-3.136v14.841zM225.651 94.875h-4.978a4.855 4.855 0 0 0-.557-1.716c-.28-.507-.64-.94-1.079-1.295a4.747 4.747 0 0 0-1.523-.819 5.823 5.823 0 0 0-1.852-.284c-1.205 0-2.254.3-3.148.898-.894.591-1.587 1.455-2.079 2.591-.493 1.129-.739 2.5-.739 4.114 0 1.659.246 3.053.739 4.182.5 1.128 1.197 1.981 2.091 2.556.893.576 1.928.864 3.102.864.659 0 1.269-.087 1.829-.261a4.813 4.813 0 0 0 1.512-.762 4.406 4.406 0 0 0 1.091-1.238c.295-.485.5-1.038.613-1.659l4.978.022a9.01 9.01 0 0 1-.966 3.091 9.303 9.303 0 0 1-2.057 2.648c-.856.773-1.879 1.386-3.068 1.841-1.182.447-2.519.67-4.012.67-2.075 0-3.932-.469-5.568-1.409-1.629-.939-2.917-2.299-3.864-4.079-.939-1.781-1.409-3.936-1.409-6.466 0-2.538.478-4.697 1.432-6.478.955-1.78 2.25-3.136 3.887-4.068 1.636-.94 3.477-1.409 5.522-1.409 1.349 0 2.599.19 3.75.568a9.51 9.51 0 0 1 3.08 1.66 8.538 8.538 0 0 1 2.182 2.647c.568 1.046.931 2.243 1.091 3.591zM250.565 98.364c0 2.538-.481 4.697-1.443 6.477-.954 1.78-2.257 3.14-3.909 4.08-1.644.931-3.492 1.397-5.545 1.397-2.069 0-3.925-.469-5.569-1.409-1.644-.939-2.943-2.299-3.897-4.079-.955-1.781-1.432-3.936-1.432-6.466 0-2.538.477-4.697 1.432-6.478.954-1.78 2.253-3.136 3.897-4.068 1.644-.94 3.5-1.409 5.569-1.409 2.053 0 3.901.47 5.545 1.41 1.652.931 2.955 2.287 3.909 4.067.962 1.78 1.443 3.94 1.443 6.478zm-4.988 0c0-1.644-.247-3.03-.739-4.16-.485-1.128-1.17-1.984-2.057-2.567-.886-.584-1.924-.876-3.113-.876-1.19 0-2.228.292-3.114.876-.886.583-1.576 1.439-2.068 2.568-.485 1.128-.728 2.515-.728 4.159 0 1.644.243 3.03.728 4.159.492 1.129 1.182 1.985 2.068 2.568.886.583 1.924.875 3.114.875 1.189 0 2.227-.292 3.113-.875.887-.583 1.572-1.439 2.057-2.568.492-1.129.739-2.515.739-4.16zM254.21 110V86.727h9.182c1.758 0 3.258.315 4.5.944 1.25.62 2.201 1.503 2.852 2.647.659 1.137.989 2.474.989 4.012 0 1.545-.333 2.875-1 3.988-.667 1.106-1.633 1.955-2.898 2.546-1.257.591-2.78.886-4.568.886h-6.148v-3.954h5.353c.939 0 1.719-.13 2.34-.387.622-.257 1.084-.644 1.387-1.159.31-.515.466-1.155.466-1.92 0-.773-.156-1.425-.466-1.955-.303-.53-.769-.932-1.398-1.204-.621-.28-1.405-.42-2.352-.42h-3.318V110h-4.921zm12.568-10.59 5.784 10.59h-5.431l-5.659-10.59h5.306zM275.21 110V86.727h15.682v4.057h-10.761v5.546h9.954v4.056h-9.954v5.557h10.806V110H275.21zM302.21 110V86.727h4.921v19.216h9.977V110H302.21zM324.972 110h-5.273l8.034-23.273h6.341L342.097 110h-5.273l-5.83-17.954h-.182L324.972 110zm-.33-9.148h12.455v3.841h-12.455v-3.841zM344.898 110V86.727h9.318c1.712 0 3.14.254 4.284.762 1.144.507 2.004 1.212 2.58 2.113.575.894.863 1.925.863 3.091 0 .91-.182 1.709-.545 2.398a4.715 4.715 0 0 1-1.5 1.682 6.155 6.155 0 0 1-2.159.92v.228a5.209 5.209 0 0 1 2.488.75c.781.462 1.413 1.11 1.898 1.943.485.825.727 1.81.727 2.954 0 1.235-.307 2.337-.92 3.307-.606.962-1.504 1.724-2.693 2.284-1.19.561-2.656.841-4.398.841h-9.943zm4.92-4.023h4.012c1.371 0 2.371-.261 3-.784.628-.53.943-1.235.943-2.113 0-.644-.156-1.212-.466-1.705-.311-.492-.754-.879-1.33-1.159-.568-.28-1.246-.42-2.034-.42h-4.125v6.181zm0-9.511h3.648c.674 0 1.273-.117 1.795-.352a2.983 2.983 0 0 0 1.25-1.023c.311-.44.466-.966.466-1.58 0-.84-.299-1.518-.897-2.034-.591-.515-1.432-.772-2.523-.772h-3.739v5.761zM378.679 93.42c-.091-.916-.481-1.628-1.17-2.136-.69-.507-1.625-.761-2.807-.761-.803 0-1.481.114-2.034.34-.553.22-.978.527-1.273.921-.288.394-.432.841-.432 1.341-.015.417.072.78.261 1.091.197.31.466.58.807.807.341.22.735.413 1.182.58.447.159.924.295 1.432.409l2.091.5c1.015.227 1.947.53 2.795.909a8.48 8.48 0 0 1 2.205 1.397 5.813 5.813 0 0 1 1.443 1.955c.348.75.526 1.61.534 2.579-.008 1.425-.371 2.659-1.091 3.705-.712 1.038-1.742 1.845-3.091 2.42-1.341.569-2.958.853-4.852.853-1.879 0-3.515-.288-4.909-.864-1.386-.576-2.47-1.428-3.25-2.557-.773-1.136-1.178-2.541-1.216-4.216h4.761c.053.781.277 1.432.671 1.955.401.515.935.905 1.602 1.17.674.258 1.436.387 2.284.387.833 0 1.557-.122 2.171-.364.621-.242 1.102-.58 1.443-1.011.341-.432.511-.928.511-1.489 0-.523-.155-.962-.466-1.318-.303-.356-.75-.659-1.341-.909-.583-.25-1.299-.478-2.147-.682l-2.534-.636c-1.963-.478-3.512-1.224-4.648-2.24-1.137-1.014-1.701-2.382-1.693-4.101-.008-1.41.367-2.64 1.125-3.694.765-1.053 1.814-1.874 3.147-2.465 1.334-.591 2.849-.887 4.546-.887 1.727 0 3.235.296 4.523.886 1.295.591 2.303 1.413 3.022 2.466.72 1.053 1.091 2.273 1.114 3.66h-4.716zM469.75 109.12v-3.42l3.15-.15V92.38l-2.97.27V89.2l7.23-1.2v17.55l2.79.15v3.42l-5.1-.24-5.1.24zM484.411 109l9.72-13.86V91.6h-7.68v3.84h-4.14V88h16.08v7.86l-8.88 13.14h-5.1zM499.822 109v-4.2h4.02v4.2h-4.02zM511.993 96.61h7.38v-5.13h-7.38v5.13zm-.48 8.91h8.52v-5.79h-8.52v5.79zm-1.38 3.48-3.24-3.24v-5.7l2.55-2.04-1.95-1.53v-5.25l3.24-3.24h9.9l3.24 3.24v5.25l-1.95 1.53 2.55 2.04v5.7l-3.24 3.24h-11.1zM526.277 109l12.45-21h4.23l-12.45 21h-4.23zm12.12 0v-4.56h4.02V109h-4.02zm-11.58-16.44V88h4.02v4.56h-4.02zM249.2 200.75v-2.7h7.8v2.7h-7.8zM259.545 209.12v-2.4l4.05-.15v-15.39l-3.75.27v-2.25l6.45-1.2v18.57l3.45.15v2.4l-5.1-.24-5.1.24zM275.586 209l10.2-13.89v-4.71h-10.8v4.8h-2.7V188h16.2v7.68l-9.69 13.32h-3.21zM290.595 209v-3h2.7v3h-2.7zM300.495 196.85h10.5v-6.45h-10.5v6.45zm-.6 9.75h11.7v-7.35h-11.7v7.35zm-.3 2.4-2.4-2.4v-6.78l2.31-1.8-1.71-1.29v-6.33l2.4-2.4h11.1l2.4 2.4v6.33l-1.71 1.29 2.31 1.8v6.78l-2.4 2.4h-12.3zM316.693 209l13.23-21h2.97l-13.23 21h-2.97zm13.2 0v-3.6h2.7v3.6h-2.7zm-12.9-17.4V188h2.7v3.6h-2.7zM219.2 250.75v-2.7h7.8v2.7h-7.8zM246.195 256.6v2.4h-16.2v-10.56l13.5-1.5v-6.54h-13.2V238h13.5l2.4 2.4v8.55l-13.5 1.5v6.15h13.5zM249.2 253.6l1.02-15.6h2.58l-.9 13.2h10.8V238h2.7v21h-2.7v-5.4h-13.5zM269.589 259v-3h2.7v3h-2.7zM276.489 256.6v-16.2l2.4-2.4h11.1l2.4 2.4v16.2l-2.4 2.4h-11.1l-2.4-2.4zm2.7-16.2v16.2h10.5v-16.2h-10.5zM295.101 259l13.23-21h2.97l-13.23 21h-2.97zm13.2 0v-3.6h2.7v3.6h-2.7zm-12.9-17.4V238h2.7v3.6h-2.7zM195.2 300.75v-2.7h7.8v2.7h-7.8zM218.895 309h-13.8v-2.4h13.5v-7.2h-11.7V297h11.1v-6.6h-12.6V288h12.9l2.4 2.4v6.33l-1.71 1.29 2.31 1.8v6.78l-2.4 2.4zM237.206 309h-13.8v-2.4h13.5v-7.2h-11.7V297h11.1v-6.6h-12.6V288h12.9l2.4 2.4v6.33l-1.71 1.29 2.31 1.8v6.78l-2.4 2.4zM243.216 309v-3h2.7v3h-2.7zM250.116 306.6v-16.2l2.4-2.4h11.1l2.4 2.4v16.2l-2.4 2.4h-11.1l-2.4-2.4zm2.7-16.2v16.2h10.5v-16.2h-10.5zM268.728 309l13.23-21h2.97l-13.23 21h-2.97zm13.2 0v-3.6h2.7v3.6h-2.7zm-12.9-17.4V288h2.7v3.6h-2.7zM176.2 350.75v-2.7h7.8v2.7h-7.8zM199.895 359h-13.8v-2.4h13.5v-7.2h-11.7V347h11.1v-6.6h-12.6V338h12.9l2.4 2.4v6.33l-1.71 1.29 2.31 1.8v6.78l-2.4 2.4zM218.806 338l2.4 2.4v16.2l-2.4 2.4h-12.3v-2.4h12v-5.4h-11.1l-2.1-2.1v-8.7l2.4-2.4h11.1zm-.3 2.4h-10.5v8.4h10.5v-8.4zM225.418 359v-3h2.7v3h-2.7zM232.318 356.6v-16.2l2.4-2.4h11.1l2.4 2.4v16.2l-2.4 2.4h-11.1l-2.4-2.4zm2.7-16.2v16.2h10.5v-16.2h-10.5zM250.929 359l13.23-21h2.97l-13.23 21h-2.97zm13.2 0v-3.6h2.7v3.6h-2.7zm-12.9-17.4V338h2.7v3.6h-2.7zM127.2 400.75v-2.7h7.8v2.7h-7.8zM154.195 390.4h-13.5v6.06l13.5.9v9.24l-2.4 2.4h-13.5v-2.4h13.2v-7.14l-13.5-.9V388h16.2v2.4zM174 390.4h-13.5v6.06l13.5.9v9.24l-2.4 2.4h-13.5v-2.4h13.2v-7.14l-13.5-.9V388H174v2.4zM178.205 409v-3h2.7v3h-2.7zM185.105 406.6v-16.2l2.4-2.4h11.1l2.4 2.4v16.2l-2.4 2.4h-11.1l-2.4-2.4zm2.7-16.2v16.2h10.5v-16.2h-10.5zM203.716 409l13.23-21h2.97l-13.23 21h-2.97zm13.2 0v-3.6h2.7v3.6h-2.7zm-12.9-17.4V388h2.7v3.6h-2.7zM96.2 450.75v-2.7h7.8v2.7h-7.8zM109.395 459l-2.4-2.4v-16.2l2.4-2.4h12.3v2.4h-12v5.4h11.1l2.1 2.1v8.7l-2.4 2.4h-11.1zm.3-2.4h10.5v-8.4h-10.5v8.4zM142.707 440.4h-13.5v6.06l13.5.9v9.24l-2.4 2.4h-13.5v-2.4h13.2v-7.14l-13.5-.9V438h16.2v2.4zM146.912 459v-3h2.7v3h-2.7zM153.812 456.6v-16.2l2.4-2.4h11.1l2.4 2.4v16.2l-2.4 2.4h-11.1l-2.4-2.4zm2.7-16.2v16.2h10.5v-16.2h-10.5zM172.423 459l13.23-21h2.97l-13.23 21h-2.97zm13.2 0v-3.6h2.7v3.6h-2.7zm-12.9-17.4V438h2.7v3.6h-2.7zM99.2 500.75v-2.7h7.8v2.7h-7.8zM112.395 509l-2.4-2.4v-16.2l2.4-2.4h12.3v2.4h-12v5.4h11.1l2.1 2.1v8.7l-2.4 2.4h-11.1zm.3-2.4h10.5v-8.4h-10.5v8.4zM128.907 503.6l1.02-15.6h2.58l-.9 13.2h10.8V488h2.7v21h-2.7v-5.4h-13.5zM149.296 509v-3h2.7v3h-2.7zM156.196 506.6v-16.2l2.4-2.4h11.1l2.4 2.4v16.2l-2.4 2.4h-11.1l-2.4-2.4zm2.7-16.2v16.2h10.5v-16.2h-10.5zM174.808 509l13.23-21h2.97l-13.23 21h-2.97zm13.2 0v-3.6h2.7v3.6h-2.7zm-12.9-17.4V488h2.7v3.6h-2.7zM417.8 156.6v-16.2l2.4-2.4h11.1l2.4 2.4v16.2l-2.4 2.4h-11.1l-2.4-2.4zm2.7-16.2v16.2H431v-16.2h-10.5zM437.912 159v-3h2.7v3h-2.7zM457.712 159h-13.8v-2.4h13.5v-7.2h-11.7V147h11.1v-6.6h-12.6V138h12.9l2.4 2.4v6.33l-1.71 1.29 2.31 1.8v6.78l-2.4 2.4zM462.222 159l13.23-21h2.97l-13.23 21h-2.97zm13.2 0v-3.6h2.7v3.6h-2.7zm-12.9-17.4V138h2.7v3.6h-2.7zM140.034 147.727c0 1.534-.277 2.86-.831 3.978-.554 1.117-1.314 1.979-2.28 2.585-.966.606-2.069.909-3.309.909-1.241 0-2.344-.303-3.31-.909-.966-.606-1.726-1.468-2.28-2.585-.554-1.118-.831-2.444-.831-3.978 0-1.534.277-2.86.831-3.977.554-1.117 1.314-1.979 2.28-2.585.966-.606 2.069-.909 3.31-.909 1.24 0 2.343.303 3.309.909.966.606 1.726 1.468 2.28 2.585.554 1.117.831 2.443.831 3.977zm-1.704 0c0-1.259-.211-2.322-.633-3.189-.416-.866-.982-1.522-1.697-1.967a4.402 4.402 0 0 0-2.386-.668 4.44 4.44 0 0 0-2.394.668c-.71.445-1.276 1.101-1.697 1.967-.417.867-.625 1.93-.625 3.189 0 1.26.208 2.323.625 3.189.421.867.987 1.522 1.697 1.968a4.438 4.438 0 0 0 2.394.667c.88 0 1.676-.222 2.386-.667.715-.446 1.281-1.101 1.697-1.968.422-.866.633-1.929.633-3.189zM147.513 144.091v1.42h-5.654v-1.42h5.654zm-4.006-2.614h1.676v10.398c0 .473.069.829.206 1.065.142.232.322.389.54.469.223.076.457.114.703.114.185 0 .336-.01.455-.029l.284-.057.341 1.506a3.449 3.449 0 0 1-.476.128 3.529 3.529 0 0 1-.774.071c-.474 0-.938-.102-1.392-.305a2.773 2.773 0 0 1-1.123-.931c-.293-.416-.44-.942-.44-1.576v-10.853zM151.945 148.437V155h-1.676v-14.545h1.676v5.34h.142a3.085 3.085 0 0 1 1.15-1.342c.516-.336 1.203-.504 2.06-.504.743 0 1.394.149 1.953.447.559.294.992.746 1.3 1.357.312.606.469 1.378.469 2.315V155h-1.677v-6.818c0-.867-.225-1.537-.674-2.01-.445-.478-1.063-.717-1.854-.717-.549 0-1.042.116-1.477.348-.431.232-.772.57-1.023 1.015-.246.445-.369.985-.369 1.619zM166.659 155.227c-1.051 0-1.958-.232-2.72-.696a4.672 4.672 0 0 1-1.755-1.96c-.407-.843-.61-1.823-.61-2.94 0-1.118.203-2.103.61-2.955.412-.857.985-1.525 1.719-2.003.739-.483 1.6-.724 2.585-.724.569 0 1.13.095 1.684.284a4.159 4.159 0 0 1 1.512.923c.455.422.817.98 1.087 1.676s.405 1.553.405 2.571v.711h-8.409v-1.449h6.704c0-.616-.123-1.165-.369-1.648a2.782 2.782 0 0 0-1.037-1.143c-.445-.28-.971-.419-1.577-.419-.667 0-1.245.165-1.733.497a3.272 3.272 0 0 0-1.115 1.278 3.762 3.762 0 0 0-.39 1.69v.966c0 .824.142 1.523.426 2.096a3.074 3.074 0 0 0 1.2 1.299c.511.294 1.106.441 1.783.441.44 0 .838-.062 1.193-.185.36-.128.67-.317.93-.568.261-.256.462-.573.604-.952l1.619.455a3.584 3.584 0 0 1-.859 1.448 4.19 4.19 0 0 1-1.491.966c-.592.228-1.258.341-1.996.341zM173.726 155v-10.909h1.619v1.648h.114c.198-.54.558-.978 1.079-1.314a3.18 3.18 0 0 1 1.761-.505c.124 0 .277.003.462.008.185.004.324.011.419.021v1.704a5.397 5.397 0 0 0-.391-.064 3.849 3.849 0 0 0-.632-.049c-.53 0-1.003.111-1.42.334-.412.217-.739.52-.98.909a2.445 2.445 0 0 0-.355 1.314V155h-1.676zM186.792 155v-10.909h1.619v1.704h.142a2.75 2.75 0 0 1 1.101-1.356c.507-.327 1.115-.49 1.825-.49.72 0 1.319.163 1.797.49.483.322.86.774 1.13 1.356h.113c.28-.563.699-1.01 1.257-1.342.559-.336 1.229-.504 2.01-.504.976 0 1.773.305 2.394.916.62.606.93 1.551.93 2.834V155h-1.676v-7.301c0-.805-.22-1.38-.661-1.726-.44-.346-.958-.518-1.555-.518-.767 0-1.361.232-1.783.696-.421.459-.632 1.041-.632 1.747V155h-1.704v-7.472c0-.62-.201-1.119-.604-1.498-.402-.384-.921-.575-1.555-.575-.436 0-.843.116-1.222.348a2.633 2.633 0 0 0-.909.965c-.227.408-.341.879-.341 1.414V155h-1.676zM207.385 155.256a4.438 4.438 0 0 1-1.882-.391 3.222 3.222 0 0 1-1.342-1.143c-.332-.502-.498-1.108-.498-1.819 0-.625.124-1.131.37-1.519a2.61 2.61 0 0 1 .987-.924 5.203 5.203 0 0 1 1.364-.497 16.346 16.346 0 0 1 1.512-.27 72.061 72.061 0 0 1 1.613-.192c.416-.047.719-.125.909-.234.194-.109.291-.298.291-.568v-.057c0-.701-.192-1.245-.575-1.633-.379-.389-.954-.583-1.726-.583-.8 0-1.428.175-1.882.526-.455.35-.775.724-.959 1.122l-1.591-.568c.284-.663.663-1.179 1.136-1.549a4.259 4.259 0 0 1 1.563-.781 6.508 6.508 0 0 1 1.676-.227c.35 0 .753.042 1.207.128.46.08.902.248 1.328.504.431.256.789.642 1.073 1.158.284.516.426 1.207.426 2.073V155h-1.676v-1.477h-.085c-.114.236-.303.49-.569.76-.265.27-.617.499-1.058.689-.44.189-.978.284-1.612.284zm.256-1.506c.663 0 1.221-.13 1.676-.391.459-.26.805-.596 1.037-1.008.236-.412.355-.845.355-1.3v-1.534c-.071.085-.227.163-.469.234a7.689 7.689 0 0 1-.824.178c-.308.047-.608.09-.902.128-.289.033-.523.061-.703.085a6.396 6.396 0 0 0-1.221.277c-.375.123-.678.31-.91.561-.227.246-.34.582-.34 1.009 0 .582.215 1.022.646 1.321.435.293.987.44 1.655.44zM215.444 155v-10.909h1.62v1.648h.113c.199-.54.559-.978 1.08-1.314a3.18 3.18 0 0 1 1.761-.505c.123 0 .277.003.462.008.184.004.324.011.419.021v1.704a5.397 5.397 0 0 0-.391-.064 3.858 3.858 0 0 0-.632-.049 2.96 2.96 0 0 0-1.42.334 2.446 2.446 0 0 0-1.336 2.223V155h-1.676zM224.448 151.023l-.028-2.074h.341l4.772-4.858h2.074l-5.085 5.142h-.142l-1.932 1.79zM222.886 155v-14.545h1.676V155h-1.676zm6.932 0-4.262-5.398 1.193-1.165 5.199 6.563h-2.13zM237.889 155.227c-1.051 0-1.958-.232-2.72-.696a4.677 4.677 0 0 1-1.754-1.96c-.407-.843-.611-1.823-.611-2.94 0-1.118.204-2.103.611-2.955.412-.857.985-1.525 1.719-2.003.738-.483 1.6-.724 2.585-.724.568 0 1.129.095 1.683.284a4.17 4.17 0 0 1 1.513.923c.454.422.817.98 1.086 1.676.27.696.405 1.553.405 2.571v.711h-8.409v-1.449h6.705c0-.616-.123-1.165-.37-1.648a2.78 2.78 0 0 0-1.036-1.143c-.446-.28-.971-.419-1.577-.419-.668 0-1.245.165-1.733.497a3.264 3.264 0 0 0-1.115 1.278 3.75 3.75 0 0 0-.391 1.69v.966c0 .824.142 1.523.426 2.096a3.07 3.07 0 0 0 1.201 1.299c.511.294 1.105.441 1.782.441.441 0 .838-.062 1.193-.185.36-.128.67-.317.931-.568.26-.256.461-.573.604-.952l1.619.455a3.586 3.586 0 0 1-.86 1.448 4.18 4.18 0 0 1-1.491.966c-.592.228-1.257.341-1.996.341zM249.7 144.091v1.42h-5.653v-1.42h5.653zm-4.005-2.614h1.676v10.398c0 .473.068.829.206 1.065.142.232.322.389.54.469.222.076.456.114.703.114.184 0 .336-.01.454-.029l.284-.057.341 1.506a3.37 3.37 0 0 1-.476.128 3.516 3.516 0 0 1-.774.071c-.473 0-.937-.102-1.392-.305a2.764 2.764 0 0 1-1.122-.931c-.294-.416-.44-.942-.44-1.576v-10.853zM258.081 147.983v1.562h-6.364v-1.562h6.364zM262.706 148.437V155h-1.676v-10.909h1.62v1.704h.142a3.113 3.113 0 0 1 1.164-1.335c.521-.341 1.194-.511 2.017-.511.739 0 1.385.151 1.939.454.554.299.985.753 1.293 1.364.308.606.462 1.373.462 2.301V155h-1.677v-6.818c0-.857-.222-1.525-.667-2.003-.445-.483-1.056-.724-1.833-.724-.535 0-1.013.116-1.434.348-.417.232-.746.57-.987 1.015-.242.445-.363.985-.363 1.619zM277.303 155.227c-1.051 0-1.958-.232-2.72-.696a4.677 4.677 0 0 1-1.754-1.96c-.407-.843-.611-1.823-.611-2.94 0-1.118.204-2.103.611-2.955.412-.857.985-1.525 1.719-2.003.738-.483 1.6-.724 2.585-.724.568 0 1.129.095 1.683.284a4.17 4.17 0 0 1 1.513.923c.454.422.817.98 1.087 1.676.269.696.404 1.553.404 2.571v.711h-8.409v-1.449h6.705c0-.616-.123-1.165-.369-1.648a2.788 2.788 0 0 0-1.037-1.143c-.445-.28-.971-.419-1.577-.419-.668 0-1.245.165-1.733.497a3.264 3.264 0 0 0-1.115 1.278 3.75 3.75 0 0 0-.391 1.69v.966c0 .824.142 1.523.426 2.096a3.07 3.07 0 0 0 1.201 1.299c.511.294 1.105.441 1.782.441.441 0 .838-.062 1.194-.185.359-.128.669-.317.93-.568.26-.256.462-.573.604-.952l1.619.455a3.595 3.595 0 0 1-.859 1.448c-.403.412-.9.734-1.492.966-.592.228-1.257.341-1.996.341zM291.245 150.54v-6.449h1.676V155h-1.676v-1.847h-.114c-.255.554-.653 1.025-1.193 1.414-.54.383-1.221.575-2.045.575-.682 0-1.288-.149-1.818-.447-.531-.303-.947-.758-1.25-1.364-.303-.611-.455-1.38-.455-2.308v-6.932h1.676v6.818c0 .796.223 1.43.668 1.903.45.474 1.023.711 1.719.711.416 0 .84-.107 1.271-.32.435-.213.8-.54 1.094-.98.298-.44.447-1.001.447-1.683zM300.735 144.091v1.42h-5.653v-1.42h5.653zm-4.005-2.614h1.676v10.398c0 .473.069.829.206 1.065.142.232.322.389.54.469.222.076.457.114.703.114.184 0 .336-.01.454-.029l.284-.057.341 1.506a3.389 3.389 0 0 1-.475.128 3.533 3.533 0 0 1-.775.071c-.473 0-.937-.102-1.392-.305a2.77 2.77 0 0 1-1.122-.931c-.293-.416-.44-.942-.44-1.576v-10.853zM303.257 155v-10.909h1.619v1.648h.114c.199-.54.558-.978 1.079-1.314a3.18 3.18 0 0 1 1.762-.505c.123 0 .277.003.461.008.185.004.325.011.419.021v1.704a5.332 5.332 0 0 0-.39-.064 3.867 3.867 0 0 0-.632-.049c-.531 0-1.004.111-1.421.334a2.51 2.51 0 0 0-.98.909 2.445 2.445 0 0 0-.355 1.314V155h-1.676zM313.908 155.256a4.442 4.442 0 0 1-1.882-.391 3.228 3.228 0 0 1-1.342-1.143c-.331-.502-.497-1.108-.497-1.819 0-.625.123-1.131.369-1.519a2.61 2.61 0 0 1 .987-.924 5.216 5.216 0 0 1 1.364-.497 16.367 16.367 0 0 1 1.513-.27c.663-.085 1.2-.149 1.612-.192.417-.047.72-.125.909-.234.194-.109.291-.298.291-.568v-.057c0-.701-.191-1.245-.575-1.633-.379-.389-.954-.583-1.726-.583-.8 0-1.427.175-1.882.526-.454.35-.774.724-.959 1.122l-1.591-.568c.284-.663.663-1.179 1.137-1.549a4.262 4.262 0 0 1 1.562-.781 6.508 6.508 0 0 1 1.676-.227c.351 0 .753.042 1.208.128.459.08.902.248 1.328.504.431.256.788.642 1.072 1.158.284.516.426 1.207.426 2.073V155h-1.676v-1.477h-.085c-.114.236-.303.49-.568.76-.265.27-.618.499-1.058.689-.441.189-.978.284-1.613.284zm.256-1.506c.663 0 1.222-.13 1.676-.391.46-.26.805-.596 1.037-1.008.237-.412.355-.845.355-1.3v-1.534c-.071.085-.227.163-.468.234a7.743 7.743 0 0 1-.824.178c-.308.047-.609.09-.902.128-.289.033-.523.061-.703.085a6.406 6.406 0 0 0-1.222.277c-.374.123-.677.31-.909.561-.227.246-.341.582-.341 1.009 0 .582.215 1.022.646 1.321.436.293.988.44 1.655.44zM323.644 140.455V155h-1.676v-14.545h1.676zM337.197 144.091v1.42h-5.881v-1.42h5.881zM333.077 155v-12.415c0-.625.147-1.146.441-1.562a2.732 2.732 0 0 1 1.143-.938 3.623 3.623 0 0 1 1.485-.312c.412 0 .748.033 1.008.099.261.066.455.128.583.185l-.483 1.449a8.09 8.09 0 0 0-.356-.107 2.168 2.168 0 0 0-.582-.064c-.554 0-.954.14-1.2.419-.242.28-.362.689-.362 1.229V155h-1.677zM346.421 150.54v-6.449h1.676V155h-1.676v-1.847h-.114c-.255.554-.653 1.025-1.193 1.414-.54.383-1.222.575-2.045.575-.682 0-1.288-.149-1.819-.447-.53-.303-.947-.758-1.25-1.364-.303-.611-.454-1.38-.454-2.308v-6.932h1.676v6.818c0 .796.223 1.43.668 1.903.449.474 1.022.711 1.718.711.417 0 .841-.107 1.272-.32.435-.213.8-.54 1.093-.98.299-.44.448-1.001.448-1.683zM352.843 148.437V155h-1.676v-10.909h1.619v1.704h.142a3.115 3.115 0 0 1 1.165-1.335c.521-.341 1.193-.511 2.017-.511.739 0 1.385.151 1.939.454.554.299.985.753 1.293 1.364.307.606.461 1.373.461 2.301V155h-1.676v-6.818c0-.857-.222-1.525-.667-2.003-.445-.483-1.056-.724-1.833-.724-.535 0-1.013.116-1.434.348-.417.232-.746.57-.988 1.015-.241.445-.362.985-.362 1.619zM366.985 155.227c-.909 0-1.711-.229-2.407-.689-.696-.464-1.241-1.117-1.634-1.96-.393-.847-.589-1.849-.589-3.004 0-1.146.196-2.14.589-2.983.393-.843.94-1.494 1.641-1.953.701-.46 1.51-.689 2.429-.689.71 0 1.271.118 1.683.355.417.232.734.497.952.795.222.294.395.535.518.725h.142v-5.369h1.677V155h-1.62v-1.676h-.199c-.123.199-.298.45-.525.753-.228.298-.552.565-.973.802-.422.232-.983.348-1.684.348zm.228-1.505c.672 0 1.24-.176 1.704-.526.464-.355.817-.845 1.059-1.47.241-.63.362-1.357.362-2.181 0-.814-.119-1.527-.355-2.137-.237-.616-.587-1.094-1.051-1.435-.464-.346-1.037-.518-1.719-.518-.71 0-1.302.182-1.776.546-.469.36-.821.85-1.058 1.471-.232.615-.348 1.306-.348 2.073 0 .777.118 1.482.355 2.117.242.63.597 1.132 1.065 1.506.474.369 1.061.554 1.762.554zM383.015 146.534l-1.505.426a2.808 2.808 0 0 0-.419-.731 2.033 2.033 0 0 0-.739-.597c-.313-.156-.713-.234-1.2-.234-.668 0-1.224.154-1.669.461-.441.303-.661.689-.661 1.158 0 .417.152.746.455.987.303.242.776.443 1.42.604l1.619.398c.976.236 1.703.599 2.181 1.086.478.483.717 1.106.717 1.868 0 .625-.18 1.184-.54 1.676-.355.493-.852.881-1.491 1.165-.639.284-1.383.426-2.23.426-1.113 0-2.034-.241-2.763-.724-.729-.483-1.191-1.189-1.385-2.117l1.591-.397c.152.587.438 1.027.859 1.321.427.293.983.44 1.669.44.782 0 1.402-.166 1.861-.497.464-.336.696-.739.696-1.208 0-.378-.132-.696-.397-.951-.266-.261-.673-.455-1.222-.583l-1.818-.426c-.999-.237-1.733-.603-2.202-1.101-.464-.502-.696-1.129-.696-1.882a2.7 2.7 0 0 1 .518-1.633c.351-.474.827-.845 1.428-1.115.606-.27 1.293-.405 2.06-.405 1.079 0 1.927.237 2.542.71a3.826 3.826 0 0 1 1.321 1.875zM422.045 200.454h1.932l1.62 2.131.426.568 2.414 3.211h-1.931l-1.591-2.131-.398-.54-2.472-3.239zm6.989-2.727c0 1.534-.277 2.86-.831 3.977-.554 1.118-1.314 1.98-2.28 2.586-.966.606-2.069.909-3.309.909-1.241 0-2.344-.303-3.31-.909-.966-.606-1.726-1.468-2.28-2.586-.554-1.117-.831-2.443-.831-3.977 0-1.534.277-2.86.831-3.977.554-1.117 1.314-1.979 2.28-2.585.966-.606 2.069-.909 3.31-.909 1.24 0 2.343.303 3.309.909.966.606 1.726 1.468 2.28 2.585.554 1.117.831 2.443.831 3.977zm-1.704 0c0-1.259-.211-2.322-.633-3.189-.416-.866-.982-1.522-1.697-1.967a4.402 4.402 0 0 0-2.386-.668 4.44 4.44 0 0 0-2.394.668c-.71.445-1.276 1.101-1.697 1.967-.417.867-.625 1.93-.625 3.189 0 1.26.208 2.323.625 3.189.421.867.987 1.522 1.697 1.967a4.43 4.43 0 0 0 2.394.668c.88 0 1.676-.222 2.386-.668.715-.445 1.281-1.1 1.697-1.967.422-.866.633-1.929.633-3.189zM438.643 200.54v-6.449h1.677V205h-1.677v-1.847h-.113c-.256.554-.654 1.025-1.193 1.414-.54.383-1.222.575-2.046.575-.682 0-1.288-.149-1.818-.447-.53-.303-.947-.758-1.25-1.364-.303-.611-.455-1.38-.455-2.308v-6.932h1.677v6.818c0 .795.222 1.43.667 1.903.45.474 1.023.711 1.719.711.417 0 .84-.107 1.271-.32.436-.213.8-.54 1.094-.98.298-.44.447-1.001.447-1.683zM446.6 205.256a4.435 4.435 0 0 1-1.882-.391 3.23 3.23 0 0 1-1.343-1.143c-.331-.502-.497-1.108-.497-1.819 0-.625.123-1.131.37-1.52.246-.393.575-.7.987-.923a5.21 5.21 0 0 1 1.363-.497 16.427 16.427 0 0 1 1.513-.27c.663-.085 1.2-.149 1.612-.192.417-.047.72-.125.909-.234.195-.109.292-.298.292-.568v-.057c0-.701-.192-1.245-.576-1.634-.378-.388-.954-.582-1.725-.582-.801 0-1.428.175-1.883.526-.454.35-.774.724-.958 1.122l-1.591-.568c.284-.663.663-1.179 1.136-1.549a4.259 4.259 0 0 1 1.563-.781 6.503 6.503 0 0 1 1.676-.227c.35 0 .753.042 1.207.128.459.08.902.248 1.328.504.431.256.789.641 1.073 1.158.284.516.426 1.207.426 2.073V205h-1.676v-1.477h-.086c-.113.236-.303.49-.568.76-.265.269-.618.499-1.058.689-.44.189-.978.284-1.612.284zm.255-1.506c.663 0 1.222-.13 1.677-.391.459-.26.805-.596 1.037-1.008.236-.412.355-.845.355-1.3v-1.534c-.071.085-.228.163-.469.234a7.689 7.689 0 0 1-.824.178c-.308.047-.608.09-.902.128-.289.033-.523.061-.703.085a6.406 6.406 0 0 0-1.222.277c-.374.123-.677.31-.909.561-.227.246-.341.582-.341 1.009 0 .582.216 1.022.647 1.321.435.293.987.44 1.654.44zM456.335 198.437V205h-1.676v-10.909h1.619v1.704h.142a3.115 3.115 0 0 1 1.165-1.335c.521-.341 1.193-.511 2.017-.511.739 0 1.385.151 1.939.454.554.299.985.753 1.293 1.364.308.606.461 1.373.461 2.301V205h-1.676v-6.818c0-.857-.222-1.525-.667-2.003-.445-.483-1.056-.725-1.833-.725-.535 0-1.013.116-1.434.348a2.494 2.494 0 0 0-.988 1.016c-.241.445-.362.985-.362 1.619zM471.103 194.091v1.42h-5.654v-1.42h5.654zm-4.006-2.614h1.676v10.398c0 .473.069.829.206 1.065.142.232.322.389.54.469.222.076.457.114.703.114.185 0 .336-.01.454-.029l.285-.057.34 1.506a3.389 3.389 0 0 1-.475.128 3.533 3.533 0 0 1-.775.071c-.473 0-.937-.102-1.392-.305a2.777 2.777 0 0 1-1.122-.931c-.293-.416-.44-.942-.44-1.577v-10.852zM480.925 190.454V205h-1.676v-14.546h1.676zM488.427 205.227c-.985 0-1.849-.234-2.592-.703-.739-.469-1.317-1.124-1.733-1.967-.412-.843-.618-1.828-.618-2.955 0-1.136.206-2.128.618-2.976.416-.847.994-1.505 1.733-1.974.743-.469 1.607-.703 2.592-.703.985 0 1.846.234 2.585.703.743.469 1.321 1.127 1.733 1.974.417.848.625 1.84.625 2.976 0 1.127-.208 2.112-.625 2.955-.412.843-.99 1.498-1.733 1.967-.739.469-1.6.703-2.585.703zm0-1.505c.748 0 1.363-.192 1.846-.576a3.39 3.39 0 0 0 1.073-1.513 5.791 5.791 0 0 0 .348-2.031 5.85 5.85 0 0 0-.348-2.038 3.433 3.433 0 0 0-1.073-1.527c-.483-.388-1.098-.583-1.846-.583s-1.364.195-1.847.583c-.483.388-.84.897-1.072 1.527a5.85 5.85 0 0 0-.348 2.038c0 .729.116 1.406.348 2.031.232.625.589 1.13 1.072 1.513.483.384 1.099.576 1.847.576zM497.605 198.437V205h-1.676v-10.909h1.619v1.704h.142a3.115 3.115 0 0 1 1.165-1.335c.521-.341 1.193-.511 2.017-.511.738 0 1.385.151 1.939.454.554.299.985.753 1.292 1.364.308.606.462 1.373.462 2.301V205h-1.676v-6.818c0-.857-.223-1.525-.668-2.003-.445-.483-1.056-.725-1.832-.725-.535 0-1.013.116-1.435.348a2.492 2.492 0 0 0-.987 1.016c-.242.445-.362.985-.362 1.619zM512.031 209.318c-.809 0-1.505-.104-2.088-.312-.582-.204-1.068-.474-1.456-.81a4.44 4.44 0 0 1-.916-1.065l1.335-.938c.152.199.344.426.576.682.232.26.549.485.951.675.407.194.94.291 1.598.291.881 0 1.608-.213 2.181-.639.573-.426.859-1.094.859-2.003v-2.216h-.142a8.894 8.894 0 0 1-.526.739c-.222.288-.544.546-.966.774-.416.222-.98.333-1.69.333-.881 0-1.671-.208-2.372-.625-.696-.416-1.248-1.022-1.655-1.818-.402-.795-.604-1.761-.604-2.897 0-1.118.197-2.091.59-2.919.393-.834.94-1.478 1.641-1.932.7-.46 1.51-.689 2.429-.689.71 0 1.273.118 1.69.355.421.232.743.497.966.795.227.294.402.535.525.725h.171v-1.733h1.619v11.221c0 .938-.213 1.7-.639 2.287a3.64 3.64 0 0 1-1.705 1.3c-.71.279-1.501.419-2.372.419zm-.057-5.994c.673 0 1.241-.154 1.705-.462.464-.308.817-.75 1.058-1.328.242-.578.362-1.269.362-2.074 0-.786-.118-1.479-.355-2.081-.236-.601-.587-1.072-1.051-1.413-.464-.341-1.037-.512-1.719-.512-.71 0-1.302.18-1.775.54-.469.36-.822.843-1.058 1.449-.232.606-.348 1.279-.348 2.017 0 .758.118 1.428.355 2.01.241.578.596 1.032 1.065 1.364.474.326 1.061.49 1.761.49zM526.065 197.983v1.562h-6.363v-1.562h6.363zM536.742 196.534l-1.506.426a2.78 2.78 0 0 0-.419-.731 2.025 2.025 0 0 0-.739-.597c-.312-.156-.712-.234-1.2-.234-.667 0-1.224.154-1.669.461-.44.303-.66.689-.66 1.158 0 .417.151.746.454.987.303.242.777.443 1.421.604l1.619.398c.975.236 1.702.599 2.18 1.086.479.483.718 1.106.718 1.868 0 .625-.18 1.184-.54 1.676-.355.493-.852.881-1.492 1.165-.639.284-1.382.426-2.23.426-1.112 0-2.033-.241-2.762-.724-.73-.483-1.191-1.189-1.385-2.117l1.591-.397c.151.587.437 1.027.859 1.321.426.293.982.44 1.669.44.781 0 1.401-.166 1.861-.497.464-.336.696-.739.696-1.208 0-.378-.133-.696-.398-.951-.265-.261-.672-.455-1.222-.583l-1.818-.426c-.999-.237-1.733-.604-2.201-1.101-.464-.502-.696-1.129-.696-1.882 0-.615.172-1.16.518-1.633.35-.474.826-.845 1.428-1.115.606-.27 1.292-.405 2.059-.405 1.08 0 1.927.237 2.543.71a3.839 3.839 0 0 1 1.321 1.875zM541.14 198.437V205h-1.676v-14.546h1.676v5.341h.142a3.082 3.082 0 0 1 1.151-1.342c.516-.336 1.202-.504 2.059-.504.744 0 1.395.149 1.953.447.559.294.992.746 1.3 1.357.313.606.469 1.378.469 2.315V205h-1.676v-6.818c0-.867-.225-1.537-.675-2.01-.445-.478-1.063-.718-1.854-.718-.549 0-1.041.116-1.477.348a2.545 2.545 0 0 0-1.023 1.016c-.246.445-.369.985-.369 1.619zM555.712 205.227c-.985 0-1.849-.234-2.592-.703-.739-.469-1.317-1.124-1.733-1.967-.412-.843-.618-1.828-.618-2.955 0-1.136.206-2.128.618-2.976.416-.847.994-1.505 1.733-1.974.743-.469 1.607-.703 2.592-.703.985 0 1.847.234 2.585.703.744.469 1.321 1.127 1.733 1.974.417.848.625 1.84.625 2.976 0 1.127-.208 2.112-.625 2.955-.412.843-.989 1.498-1.733 1.967-.738.469-1.6.703-2.585.703zm0-1.505c.748 0 1.364-.192 1.847-.576.483-.383.84-.888 1.072-1.513a5.791 5.791 0 0 0 .348-2.031 5.85 5.85 0 0 0-.348-2.038c-.232-.63-.589-1.139-1.072-1.527-.483-.388-1.099-.583-1.847-.583s-1.364.195-1.847.583c-.483.388-.84.897-1.072 1.527a5.85 5.85 0 0 0-.348 2.038c0 .729.116 1.406.348 2.031.232.625.589 1.13 1.072 1.513.483.384 1.099.576 1.847.576zM563.214 205v-10.909h1.619v1.648h.114c.199-.54.558-.978 1.079-1.314a3.173 3.173 0 0 1 1.762-.505c.123 0 .277.003.461.007.185.005.325.012.419.022v1.704a5.332 5.332 0 0 0-.39-.064 3.867 3.867 0 0 0-.632-.049c-.531 0-1.004.111-1.421.334a2.51 2.51 0 0 0-.98.909 2.445 2.445 0 0 0-.355 1.314V205h-1.676zM576.083 194.091v1.42h-5.653v-1.42h5.653zm-4.006-2.614h1.677v10.398c0 .473.068.829.206 1.065.142.232.321.389.539.469.223.076.457.114.703.114.185 0 .337-.01.455-.029l.284-.057.341 1.506a3.41 3.41 0 0 1-.476.128 3.523 3.523 0 0 1-.774.071c-.474 0-.938-.102-1.392-.305a2.764 2.764 0 0 1-1.122-.931c-.294-.416-.441-.942-.441-1.577v-10.852zM428.295 290.454V305h-1.704l-7.926-11.421h-.142V305h-1.762v-14.546h1.705l7.954 11.449h.142v-11.449h1.733zM432.417 305h-1.847l5.341-14.546h1.818L443.07 305h-1.847l-4.346-12.244h-.114L432.417 305zm.681-5.682h7.444v1.563h-7.444v-1.563zM453.29 294.091a2.227 2.227 0 0 0-1.037-1.676c-.606-.398-1.349-.597-2.23-.597-.644 0-1.207.104-1.69.313-.478.208-.853.494-1.122.859a2.056 2.056 0 0 0-.398 1.243c0 .388.092.722.277 1.001.189.275.431.505.724.689.294.18.602.329.924.448.322.113.617.206.887.277l1.478.397c.378.1.8.237 1.264.412.469.176.916.415 1.342.718.431.298.786.681 1.065 1.15.28.469.42 1.044.42 1.726a3.83 3.83 0 0 1-.618 2.131c-.408.634-1.004 1.138-1.79 1.513-.781.374-1.731.561-2.848.561-1.042 0-1.944-.168-2.706-.505-.758-.336-1.354-.805-1.79-1.406-.431-.601-.675-1.3-.731-2.095h1.818c.047.549.232 1.004.554 1.364.326.355.738.62 1.236.795.501.17 1.041.256 1.619.256.672 0 1.276-.109 1.811-.327.535-.223.959-.53 1.271-.923.313-.398.469-.862.469-1.392 0-.483-.135-.876-.405-1.179a2.97 2.97 0 0 0-1.065-.739 11.257 11.257 0 0 0-1.428-.497l-1.79-.511c-1.136-.327-2.036-.794-2.698-1.4-.663-.606-.995-1.399-.995-2.379 0-.814.22-1.525.661-2.131.445-.61 1.041-1.084 1.79-1.42.752-.341 1.593-.511 2.521-.511.937 0 1.771.168 2.5.504.729.331 1.307.786 1.733 1.364.431.577.658 1.233.682 1.967h-1.705zM462.578 305h-4.489v-14.546h4.688c1.411 0 2.618.292 3.622.874 1.004.578 1.773 1.409 2.308 2.493.535 1.08.803 2.372.803 3.878 0 1.515-.27 2.819-.81 3.913a5.759 5.759 0 0 1-2.358 2.514c-1.032.583-2.287.874-3.764.874zm-2.727-1.563h2.613c1.203 0 2.2-.232 2.991-.696a4.29 4.29 0 0 0 1.768-1.981c.388-.857.582-1.877.582-3.061 0-1.174-.191-2.185-.575-3.033-.383-.852-.956-1.506-1.719-1.96-.762-.459-1.711-.689-2.848-.689h-2.812v11.42zM472.377 305h-1.846l5.341-14.546h1.818L483.031 305h-1.847l-4.346-12.244h-.114L472.377 305zm.682-5.682h7.443v1.563h-7.443v-1.563zM489.897 300.454h1.932l1.619 2.131.426.568 2.415 3.211h-1.932l-1.591-2.131-.397-.54-2.472-3.239zm6.989-2.727c0 1.534-.277 2.86-.831 3.977-.554 1.118-1.314 1.98-2.28 2.586-.966.606-2.069.909-3.31.909-1.24 0-2.344-.303-3.309-.909-.966-.606-1.726-1.468-2.28-2.586-.554-1.117-.831-2.443-.831-3.977 0-1.534.277-2.86.831-3.977.554-1.117 1.314-1.979 2.28-2.585.965-.606 2.069-.909 3.309-.909 1.241 0 2.344.303 3.31.909.966.606 1.726 1.468 2.28 2.585.554 1.117.831 2.443.831 3.977zm-1.705 0c0-1.259-.211-2.322-.632-3.189-.417-.866-.982-1.522-1.697-1.967a4.406 4.406 0 0 0-2.387-.668c-.88 0-1.678.223-2.393.668-.711.445-1.276 1.101-1.698 1.967-.416.867-.625 1.93-.625 3.189 0 1.26.209 2.323.625 3.189.422.867.987 1.522 1.698 1.967a4.43 4.43 0 0 0 2.393.668c.881 0 1.676-.222 2.387-.668.715-.445 1.28-1.1 1.697-1.967.421-.866.632-1.929.632-3.189zM510.33 290.454V305h-1.761v-12.699h-.085l-3.551 2.358v-1.79l3.636-2.415h1.761zM519.258 305.199c-1.07 0-1.982-.291-2.735-.874-.752-.587-1.328-1.437-1.725-2.549-.398-1.118-.597-2.467-.597-4.049 0-1.572.199-2.914.597-4.027.402-1.117.98-1.969 1.733-2.557.757-.591 1.666-.887 2.727-.887 1.06 0 1.967.296 2.72.887.758.588 1.335 1.44 1.733 2.557.402 1.113.604 2.455.604 4.027 0 1.582-.199 2.931-.597 4.049-.398 1.112-.973 1.962-1.726 2.549-.753.583-1.664.874-2.734.874zm0-1.563c1.06 0 1.884-.511 2.471-1.534.588-1.023.881-2.481.881-4.375 0-1.259-.135-2.332-.405-3.217-.265-.886-.648-1.56-1.15-2.024-.497-.464-1.096-.696-1.797-.696-1.051 0-1.873.518-2.465 1.555-.592 1.032-.887 2.493-.887 4.382 0 1.26.132 2.33.397 3.21.265.881.647 1.551 1.144 2.01.502.46 1.105.689 1.811.689zM531.758 305.199c-1.07 0-1.982-.291-2.735-.874-.752-.587-1.328-1.437-1.725-2.549-.398-1.118-.597-2.467-.597-4.049 0-1.572.199-2.914.597-4.027.402-1.117.98-1.969 1.733-2.557.757-.591 1.666-.887 2.727-.887 1.06 0 1.967.296 2.72.887.758.588 1.335 1.44 1.733 2.557.402 1.113.604 2.455.604 4.027 0 1.582-.199 2.931-.597 4.049-.398 1.112-.973 1.962-1.726 2.549-.753.583-1.664.874-2.734.874zm0-1.563c1.06 0 1.884-.511 2.471-1.534.588-1.023.881-2.481.881-4.375 0-1.259-.135-2.332-.405-3.217-.265-.886-.648-1.56-1.15-2.024-.497-.464-1.096-.696-1.797-.696-1.051 0-1.873.518-2.465 1.555-.592 1.032-.887 2.493-.887 4.382 0 1.26.132 2.33.397 3.21.265.881.647 1.551 1.144 2.01.502.46 1.105.689 1.811.689zM421.25 255h-4.489v-14.545h4.688c1.411 0 2.618.291 3.622.873 1.004.578 1.773 1.409 2.308 2.493.535 1.08.803 2.372.803 3.878 0 1.515-.27 2.819-.81 3.913a5.77 5.77 0 0 1-2.358 2.514c-1.032.583-2.287.874-3.764.874zm-2.727-1.562h2.613c1.203 0 2.2-.233 2.99-.697a4.286 4.286 0 0 0 1.769-1.981c.388-.857.582-1.877.582-3.061 0-1.174-.191-2.185-.575-3.033-.384-.852-.956-1.505-1.719-1.96-.762-.459-1.711-.689-2.848-.689h-2.812v11.421zM430.909 255v-10.909h1.676V255h-1.676zm.852-12.727c-.326 0-.608-.112-.845-.334a1.073 1.073 0 0 1-.348-.803c0-.312.116-.58.348-.802.237-.223.519-.334.845-.334.327 0 .606.111.838.334.237.222.356.49.356.802 0 .313-.119.58-.356.803a1.169 1.169 0 0 1-.838.334zM443.382 246.534l-1.505.426a2.808 2.808 0 0 0-.419-.731 2.025 2.025 0 0 0-.739-.597c-.312-.156-.713-.234-1.2-.234-.668 0-1.224.154-1.669.461-.441.303-.661.689-.661 1.158 0 .417.152.746.455.987.303.242.776.443 1.42.604l1.62.398c.975.236 1.702.599 2.18 1.086.478.483.717 1.106.717 1.868 0 .625-.18 1.184-.539 1.676-.356.493-.853.881-1.492 1.165-.639.284-1.383.426-2.23.426-1.113 0-2.034-.241-2.763-.724-.729-.483-1.191-1.189-1.385-2.117l1.591-.397c.152.587.438 1.027.86 1.321.426.293.982.44 1.669.44.781 0 1.401-.166 1.86-.497.464-.336.696-.739.696-1.208 0-.378-.132-.696-.397-.951-.266-.261-.673-.455-1.222-.583l-1.818-.426c-.999-.237-1.733-.603-2.202-1.101-.464-.502-.696-1.129-.696-1.882 0-.615.173-1.16.519-1.633.35-.474.826-.845 1.427-1.115.606-.27 1.293-.405 2.06-.405 1.079 0 1.927.237 2.542.71a3.826 3.826 0 0 1 1.321 1.875zM450.536 255.227c-1.023 0-1.903-.241-2.642-.724-.738-.483-1.307-1.148-1.704-1.996-.398-.847-.597-1.816-.597-2.905 0-1.108.204-2.085.611-2.933.412-.852.985-1.517 1.719-1.996.738-.483 1.6-.724 2.585-.724.767 0 1.458.142 2.074.426a3.975 3.975 0 0 1 1.512 1.193c.393.512.637 1.108.732 1.79h-1.676c-.128-.497-.412-.938-.852-1.321-.436-.388-1.023-.582-1.762-.582-.653 0-1.226.17-1.719.511-.487.336-.868.812-1.143 1.427-.27.611-.405 1.329-.405 2.152 0 .843.133 1.577.398 2.202.27.625.649 1.11 1.136 1.456.493.346 1.07.519 1.733.519.436 0 .831-.076 1.186-.228a2.44 2.44 0 0 0 .902-.653c.246-.284.422-.625.526-1.023h1.676a3.886 3.886 0 0 1-.703 1.74c-.369.512-.86.919-1.47 1.222-.606.298-1.312.447-2.117.447zM457.276 255v-10.909h1.62v1.648h.113c.199-.54.559-.978 1.08-1.314a3.18 3.18 0 0 1 1.761-.505c.123 0 .277.003.462.008.184.004.324.011.419.021v1.704a5.397 5.397 0 0 0-.391-.064 3.858 3.858 0 0 0-.632-.049 2.96 2.96 0 0 0-1.42.334 2.446 2.446 0 0 0-1.336 2.223V255h-1.676zM468.96 255.227c-1.052 0-1.958-.232-2.721-.696a4.677 4.677 0 0 1-1.754-1.96c-.407-.843-.611-1.823-.611-2.94 0-1.118.204-2.103.611-2.955.412-.857.985-1.524 1.719-2.003.738-.483 1.6-.724 2.585-.724.568 0 1.129.095 1.683.284a4.162 4.162 0 0 1 1.513.923c.455.422.817.98 1.087 1.676s.405 1.553.405 2.571v.711h-8.41v-1.449h6.705c0-.616-.123-1.165-.369-1.648a2.782 2.782 0 0 0-1.037-1.143c-.445-.28-.971-.419-1.577-.419-.668 0-1.245.165-1.733.497a3.264 3.264 0 0 0-1.115 1.278 3.762 3.762 0 0 0-.391 1.69v.966c0 .824.142 1.523.427 2.096a3.062 3.062 0 0 0 1.2 1.299c.511.294 1.105.441 1.783.441.44 0 .838-.062 1.193-.185.36-.128.67-.317.93-.568.261-.256.462-.573.604-.952l1.619.455a3.584 3.584 0 0 1-.859 1.448c-.403.412-.9.734-1.492.966-.592.228-1.257.341-1.995.341zM480.771 244.091v1.42h-5.654v-1.42h5.654zm-4.006-2.614h1.676v10.398c0 .473.069.829.206 1.065.142.232.322.389.54.469.222.076.457.114.703.114.185 0 .336-.01.454-.029l.285-.056.34 1.505a3.389 3.389 0 0 1-.475.128 3.533 3.533 0 0 1-.775.071c-.473 0-.937-.102-1.392-.305a2.777 2.777 0 0 1-1.122-.931c-.293-.416-.44-.942-.44-1.576v-10.853zM483.292 255v-10.909h1.676V255h-1.676zm.852-12.727c-.327 0-.608-.112-.845-.334a1.073 1.073 0 0 1-.348-.803c0-.312.116-.58.348-.802a1.19 1.19 0 0 1 .845-.334c.327 0 .606.111.838.334.237.222.355.49.355.802 0 .313-.118.58-.355.803a1.169 1.169 0 0 1-.838.334zM492.47 255.227c-.985 0-1.849-.234-2.593-.703-.738-.469-1.316-1.124-1.732-1.967-.412-.843-.618-1.828-.618-2.955 0-1.136.206-2.128.618-2.976.416-.847.994-1.505 1.732-1.974.744-.469 1.608-.703 2.593-.703.985 0 1.846.234 2.585.703.743.469 1.321 1.127 1.733 1.974.417.848.625 1.84.625 2.976 0 1.127-.208 2.112-.625 2.955-.412.843-.99 1.498-1.733 1.967-.739.469-1.6.703-2.585.703zm0-1.505c.748 0 1.363-.192 1.846-.576a3.387 3.387 0 0 0 1.073-1.512 5.797 5.797 0 0 0 .348-2.032 5.85 5.85 0 0 0-.348-2.038 3.433 3.433 0 0 0-1.073-1.527c-.483-.388-1.098-.582-1.846-.582s-1.364.194-1.847.582c-.483.388-.84.897-1.072 1.527a5.85 5.85 0 0 0-.348 2.038c0 .729.116 1.407.348 2.032.232.625.589 1.129 1.072 1.512.483.384 1.099.576 1.847.576zM501.648 248.438V255h-1.676v-10.909h1.619v1.704h.142a3.115 3.115 0 0 1 1.165-1.335c.521-.341 1.193-.511 2.017-.511.738 0 1.385.151 1.939.454.554.299.985.753 1.292 1.364.308.606.462 1.373.462 2.301V255h-1.676v-6.818c0-.857-.223-1.525-.668-2.003-.445-.483-1.056-.724-1.832-.724-.535 0-1.013.116-1.435.348-.417.232-.746.57-.987 1.015-.242.445-.362.985-.362 1.62zM514.881 255.256a4.438 4.438 0 0 1-1.882-.391 3.222 3.222 0 0 1-1.342-1.143c-.332-.502-.498-1.108-.498-1.819 0-.625.124-1.131.37-1.519a2.61 2.61 0 0 1 .987-.924 5.203 5.203 0 0 1 1.364-.497 16.406 16.406 0 0 1 1.512-.27 72.061 72.061 0 0 1 1.613-.192c.416-.047.719-.125.909-.234.194-.109.291-.298.291-.568v-.057c0-.701-.192-1.245-.575-1.633-.379-.389-.954-.583-1.726-.583-.8 0-1.428.175-1.882.526-.455.35-.774.724-.959 1.122l-1.591-.568c.284-.663.663-1.179 1.136-1.549a4.266 4.266 0 0 1 1.563-.781 6.508 6.508 0 0 1 1.676-.227c.35 0 .753.042 1.207.128.46.08.902.248 1.328.504.431.256.789.642 1.073 1.158.284.516.426 1.207.426 2.073V255h-1.676v-1.477h-.085c-.114.236-.303.49-.569.76-.265.27-.617.499-1.058.689-.44.189-.978.284-1.612.284zm.256-1.506c.663 0 1.221-.13 1.676-.391.459-.26.805-.596 1.037-1.008.237-.412.355-.845.355-1.3v-1.534c-.071.085-.227.163-.469.234a7.689 7.689 0 0 1-.824.178c-.307.047-.608.09-.902.128-.289.033-.523.061-.703.085a6.396 6.396 0 0 0-1.221.277c-.374.123-.678.31-.91.561-.227.246-.34.582-.34 1.009 0 .582.215 1.022.646 1.321.435.293.987.44 1.655.44zM522.94 255v-10.909h1.62v1.648h.113c.199-.54.559-.978 1.08-1.314a3.18 3.18 0 0 1 1.761-.505c.123 0 .277.003.462.008.184.004.324.011.419.021v1.704a5.397 5.397 0 0 0-.391-.064 3.858 3.858 0 0 0-.632-.049 2.96 2.96 0 0 0-1.42.334 2.446 2.446 0 0 0-1.336 2.223V255h-1.676zM531.793 259.091a3.7 3.7 0 0 1-.76-.071 2 2 0 0 1-.461-.128l.426-1.477c.407.104.767.142 1.079.113a1.29 1.29 0 0 0 .831-.419c.247-.246.471-.646.675-1.2l.313-.852-4.035-10.966h1.819l3.011 8.693h.114l3.011-8.693h1.818l-4.63 12.5c-.209.563-.467 1.03-.775 1.399a2.897 2.897 0 0 1-1.072.831c-.403.18-.857.27-1.364.27zM549.148 240.455V255h-1.676v-14.545h1.676zM556.649 255.227c-.984 0-1.848-.234-2.592-.703-.738-.469-1.316-1.124-1.733-1.967-.412-.843-.618-1.828-.618-2.955 0-1.136.206-2.128.618-2.976.417-.847.995-1.505 1.733-1.974.744-.469 1.608-.703 2.592-.703.985 0 1.847.234 2.586.703.743.469 1.321 1.127 1.733 1.974.416.848.625 1.84.625 2.976 0 1.127-.209 2.112-.625 2.955-.412.843-.99 1.498-1.733 1.967-.739.469-1.601.703-2.586.703zm0-1.505c.749 0 1.364-.192 1.847-.576a3.387 3.387 0 0 0 1.073-1.512 5.797 5.797 0 0 0 .348-2.032 5.85 5.85 0 0 0-.348-2.038 3.433 3.433 0 0 0-1.073-1.527c-.483-.388-1.098-.582-1.847-.582-.748 0-1.363.194-1.846.582a3.433 3.433 0 0 0-1.073 1.527 5.85 5.85 0 0 0-.348 2.038c0 .729.116 1.407.348 2.032.232.625.59 1.129 1.073 1.512.483.384 1.098.576 1.846.576zM565.827 248.438V255h-1.676v-10.909h1.62v1.704h.142a3.113 3.113 0 0 1 1.164-1.335c.521-.341 1.194-.511 2.017-.511.739 0 1.385.151 1.939.454.554.299.985.753 1.293 1.364.308.606.462 1.373.462 2.301V255h-1.677v-6.818c0-.857-.222-1.525-.667-2.003-.445-.483-1.056-.724-1.833-.724-.535 0-1.013.116-1.434.348-.417.232-.746.57-.987 1.015-.242.445-.363.985-.363 1.62zM580.254 259.318c-.81 0-1.506-.104-2.088-.312-.583-.204-1.068-.474-1.456-.81a4.417 4.417 0 0 1-.916-1.065l1.335-.938c.151.199.343.426.575.682.232.26.549.485.952.675.407.194.94.291 1.598.291.881 0 1.607-.213 2.18-.639.573-.426.86-1.094.86-2.003v-2.216h-.142a9.139 9.139 0 0 1-.526.739c-.222.288-.544.546-.966.774-.417.222-.98.334-1.69.334-.881 0-1.672-.209-2.372-.625-.696-.417-1.248-1.023-1.655-1.819-.403-.795-.604-1.761-.604-2.897 0-1.118.197-2.091.59-2.919.393-.834.939-1.478 1.64-1.932.701-.459 1.511-.689 2.429-.689.71 0 1.274.118 1.691.355.421.232.743.497.965.795.228.294.403.535.526.725h.17v-1.733h1.62v11.221c0 .938-.213 1.7-.639 2.287a3.64 3.64 0 0 1-1.705 1.3c-.71.28-1.501.419-2.372.419zm-.057-5.994c.672 0 1.241-.154 1.705-.462.464-.308.816-.75 1.058-1.328.241-.578.362-1.269.362-2.074 0-.786-.118-1.479-.355-2.081-.237-.601-.587-1.072-1.051-1.413-.464-.341-1.037-.511-1.719-.511-.71 0-1.302.179-1.775.539-.469.36-.822.843-1.059 1.449-.232.606-.348 1.279-.348 2.017 0 .758.119 1.428.355 2.01.242.578.597 1.032 1.066 1.364.473.327 1.06.49 1.761.49zM594.288 247.983v1.562h-6.364v-1.562h6.364zM604.964 246.534l-1.505.426a2.808 2.808 0 0 0-.419-.731 2.025 2.025 0 0 0-.739-.597c-.312-.156-.712-.234-1.2-.234-.668 0-1.224.154-1.669.461-.441.303-.661.689-.661 1.158 0 .417.152.746.455.987.303.242.776.443 1.42.604l1.62.398c.975.236 1.702.599 2.18 1.086.478.483.717 1.106.717 1.868 0 .625-.18 1.184-.539 1.676-.356.493-.853.881-1.492 1.165-.639.284-1.382.426-2.23.426-1.113 0-2.034-.241-2.763-.724-.729-.483-1.191-1.189-1.385-2.117l1.591-.397c.152.587.438 1.027.86 1.321.426.293.982.44 1.669.44.781 0 1.401-.166 1.86-.497.464-.336.696-.739.696-1.208 0-.378-.132-.696-.397-.951-.265-.261-.673-.455-1.222-.583l-1.818-.426c-.999-.237-1.733-.603-2.202-1.101-.464-.502-.696-1.129-.696-1.882 0-.615.173-1.16.519-1.633.35-.474.826-.845 1.427-1.115.606-.27 1.293-.405 2.06-.405 1.079 0 1.927.237 2.542.71a3.826 3.826 0 0 1 1.321 1.875zM609.363 248.438V255h-1.677v-14.545h1.677v5.34h.142a3.085 3.085 0 0 1 1.15-1.342c.516-.336 1.203-.504 2.06-.504.743 0 1.394.149 1.953.447.559.294.992.746 1.3 1.357.312.606.468 1.378.468 2.315V255h-1.676v-6.818c0-.867-.225-1.537-.674-2.01-.446-.478-1.063-.717-1.854-.717-.549 0-1.042.116-1.477.348-.431.232-.772.57-1.023 1.015-.246.445-.369.985-.369 1.62zM623.935 255.227c-.985 0-1.849-.234-2.593-.703-.738-.469-1.316-1.124-1.733-1.967-.412-.843-.618-1.828-.618-2.955 0-1.136.206-2.128.618-2.976.417-.847.995-1.505 1.733-1.974.744-.469 1.608-.703 2.593-.703.984 0 1.846.234 2.585.703.743.469 1.321 1.127 1.733 1.974.416.848.625 1.84.625 2.976 0 1.127-.209 2.112-.625 2.955-.412.843-.99 1.498-1.733 1.967-.739.469-1.601.703-2.585.703zm0-1.505c.748 0 1.363-.192 1.846-.576a3.387 3.387 0 0 0 1.073-1.512 5.797 5.797 0 0 0 .348-2.032 5.85 5.85 0 0 0-.348-2.038 3.433 3.433 0 0 0-1.073-1.527c-.483-.388-1.098-.582-1.846-.582s-1.364.194-1.847.582c-.483.388-.84.897-1.072 1.527a5.85 5.85 0 0 0-.348 2.038c0 .729.116 1.407.348 2.032.232.625.589 1.129 1.072 1.512.483.384 1.099.576 1.847.576zM631.436 255v-10.909h1.62v1.648h.113c.199-.54.559-.978 1.08-1.314a3.18 3.18 0 0 1 1.761-.505c.123 0 .277.003.462.008.185.004.324.011.419.021v1.704a5.397 5.397 0 0 0-.391-.064 3.858 3.858 0 0 0-.632-.049 2.96 2.96 0 0 0-1.42.334c-.412.217-.739.52-.98.909a2.445 2.445 0 0 0-.355 1.314V255h-1.677zM644.306 244.091v1.42h-5.654v-1.42h5.654zm-4.006-2.614h1.676v10.398c0 .473.069.829.206 1.065.142.232.322.389.54.469.222.076.457.114.703.114.185 0 .336-.01.455-.029l.284-.056.341 1.505a3.449 3.449 0 0 1-.476.128 3.529 3.529 0 0 1-.774.071c-.474 0-.938-.102-1.392-.305a2.773 2.773 0 0 1-1.123-.931c-.293-.416-.44-.942-.44-1.576v-10.853zM422.045 350.454h1.932l1.62 2.131.426.568 2.414 3.211h-1.931l-1.591-2.131-.398-.54-2.472-3.239zm6.989-2.727c0 1.534-.277 2.86-.831 3.977-.554 1.118-1.314 1.98-2.28 2.586-.966.606-2.069.909-3.309.909-1.241 0-2.344-.303-3.31-.909-.966-.606-1.726-1.468-2.28-2.586-.554-1.117-.831-2.443-.831-3.977 0-1.534.277-2.86.831-3.977.554-1.117 1.314-1.979 2.28-2.585.966-.606 2.069-.909 3.31-.909 1.24 0 2.343.303 3.309.909.966.606 1.726 1.468 2.28 2.585.554 1.117.831 2.443.831 3.977zm-1.704 0c0-1.259-.211-2.322-.633-3.189-.416-.866-.982-1.522-1.697-1.967a4.402 4.402 0 0 0-2.386-.668 4.44 4.44 0 0 0-2.394.668c-.71.445-1.276 1.101-1.697 1.967-.417.867-.625 1.93-.625 3.189 0 1.26.208 2.323.625 3.189.421.867.987 1.522 1.697 1.967a4.43 4.43 0 0 0 2.394.668c.88 0 1.676-.222 2.386-.668.715-.445 1.281-1.1 1.697-1.967.422-.866.633-1.929.633-3.189zM438.643 350.54v-6.449h1.677V355h-1.677v-1.847h-.113c-.256.554-.654 1.025-1.193 1.414-.54.383-1.222.575-2.046.575-.682 0-1.288-.149-1.818-.447-.53-.303-.947-.758-1.25-1.364-.303-.611-.455-1.38-.455-2.308v-6.932h1.677v6.818c0 .795.222 1.43.667 1.903.45.474 1.023.711 1.719.711.417 0 .84-.107 1.271-.32.436-.213.8-.54 1.094-.98.298-.44.447-1.001.447-1.683zM446.6 355.256a4.435 4.435 0 0 1-1.882-.391 3.23 3.23 0 0 1-1.343-1.143c-.331-.502-.497-1.108-.497-1.819 0-.625.123-1.131.37-1.52.246-.393.575-.7.987-.923a5.21 5.21 0 0 1 1.363-.497 16.427 16.427 0 0 1 1.513-.27c.663-.085 1.2-.149 1.612-.192.417-.047.72-.125.909-.234.195-.109.292-.298.292-.568v-.057c0-.701-.192-1.245-.576-1.634-.378-.388-.954-.582-1.725-.582-.801 0-1.428.175-1.883.526-.454.35-.774.724-.958 1.122l-1.591-.568c.284-.663.663-1.179 1.136-1.549a4.259 4.259 0 0 1 1.563-.781 6.503 6.503 0 0 1 1.676-.227c.35 0 .753.042 1.207.128.459.08.902.248 1.328.504.431.256.789.641 1.073 1.158.284.516.426 1.207.426 2.073V355h-1.676v-1.477h-.086c-.113.236-.303.49-.568.76-.265.269-.618.499-1.058.689-.44.189-.978.284-1.612.284zm.255-1.506c.663 0 1.222-.13 1.677-.391.459-.26.805-.596 1.037-1.008.236-.412.355-.845.355-1.3v-1.534c-.071.085-.228.163-.469.234a7.689 7.689 0 0 1-.824.178c-.308.047-.608.09-.902.128-.289.033-.523.061-.703.085a6.406 6.406 0 0 0-1.222.277c-.374.123-.677.31-.909.561-.227.246-.341.582-.341 1.009 0 .582.216 1.022.647 1.321.435.293.987.44 1.654.44zM456.335 348.437V355h-1.676v-10.909h1.619v1.704h.142a3.115 3.115 0 0 1 1.165-1.335c.521-.341 1.193-.511 2.017-.511.739 0 1.385.151 1.939.454.554.299.985.753 1.293 1.364.308.606.461 1.373.461 2.301V355h-1.676v-6.818c0-.857-.222-1.525-.667-2.003-.445-.483-1.056-.725-1.833-.725-.535 0-1.013.116-1.434.348a2.494 2.494 0 0 0-.988 1.016c-.241.445-.362.985-.362 1.619zM471.103 344.091v1.42h-5.654v-1.42h5.654zm-4.006-2.614h1.676v10.398c0 .473.069.829.206 1.065.142.232.322.389.54.469.222.076.457.114.703.114.185 0 .336-.01.454-.029l.285-.057.34 1.506a3.389 3.389 0 0 1-.475.128 3.533 3.533 0 0 1-.775.071c-.473 0-.937-.102-1.392-.305a2.777 2.777 0 0 1-1.122-.931c-.293-.416-.44-.942-.44-1.577v-10.852zM480.925 340.454V355h-1.676v-14.546h1.676zM488.427 355.227c-.985 0-1.849-.234-2.592-.703-.739-.469-1.317-1.124-1.733-1.967-.412-.843-.618-1.828-.618-2.955 0-1.136.206-2.128.618-2.976.416-.847.994-1.505 1.733-1.974.743-.469 1.607-.703 2.592-.703.985 0 1.846.234 2.585.703.743.469 1.321 1.127 1.733 1.974.417.848.625 1.84.625 2.976 0 1.127-.208 2.112-.625 2.955-.412.843-.99 1.498-1.733 1.967-.739.469-1.6.703-2.585.703zm0-1.505c.748 0 1.363-.192 1.846-.576a3.39 3.39 0 0 0 1.073-1.513 5.791 5.791 0 0 0 .348-2.031 5.85 5.85 0 0 0-.348-2.038 3.433 3.433 0 0 0-1.073-1.527c-.483-.388-1.098-.583-1.846-.583s-1.364.195-1.847.583c-.483.388-.84.897-1.072 1.527a5.85 5.85 0 0 0-.348 2.038c0 .729.116 1.406.348 2.031.232.625.589 1.13 1.072 1.513.483.384 1.099.576 1.847.576zM497.605 348.437V355h-1.676v-10.909h1.619v1.704h.142a3.115 3.115 0 0 1 1.165-1.335c.521-.341 1.193-.511 2.017-.511.738 0 1.385.151 1.939.454.554.299.985.753 1.292 1.364.308.606.462 1.373.462 2.301V355h-1.676v-6.818c0-.857-.223-1.525-.668-2.003-.445-.483-1.056-.725-1.832-.725-.535 0-1.013.116-1.435.348a2.492 2.492 0 0 0-.987 1.016c-.242.445-.362.985-.362 1.619zM512.031 359.318c-.809 0-1.505-.104-2.088-.312-.582-.204-1.068-.474-1.456-.81a4.44 4.44 0 0 1-.916-1.065l1.335-.938c.152.199.344.426.576.682.232.26.549.485.951.675.407.194.94.291 1.598.291.881 0 1.608-.213 2.181-.639.573-.426.859-1.094.859-2.003v-2.216h-.142a8.894 8.894 0 0 1-.526.739c-.222.288-.544.546-.966.774-.416.222-.98.333-1.69.333-.881 0-1.671-.208-2.372-.625-.696-.416-1.248-1.022-1.655-1.818-.402-.795-.604-1.761-.604-2.897 0-1.118.197-2.091.59-2.919.393-.834.94-1.478 1.641-1.932.7-.46 1.51-.689 2.429-.689.71 0 1.273.118 1.69.355.421.232.743.497.966.795.227.294.402.535.525.725h.171v-1.733h1.619v11.221c0 .938-.213 1.7-.639 2.287a3.64 3.64 0 0 1-1.705 1.3c-.71.279-1.501.419-2.372.419zm-.057-5.994c.673 0 1.241-.154 1.705-.462.464-.308.817-.75 1.058-1.328.242-.578.362-1.269.362-2.074 0-.786-.118-1.479-.355-2.081-.236-.601-.587-1.072-1.051-1.413-.464-.341-1.037-.512-1.719-.512-.71 0-1.302.18-1.775.54-.469.36-.822.843-1.058 1.449-.232.606-.348 1.279-.348 2.017 0 .758.118 1.428.355 2.01.241.578.596 1.032 1.065 1.364.474.326 1.061.49 1.761.49zM526.065 347.983v1.562h-6.363v-1.562h6.363zM533.446 355.227c-.984 0-1.849-.234-2.592-.703-.739-.469-1.316-1.124-1.733-1.967-.412-.843-.618-1.828-.618-2.955 0-1.136.206-2.128.618-2.976.417-.847.994-1.505 1.733-1.974.743-.469 1.608-.703 2.592-.703.985 0 1.847.234 2.586.703.743.469 1.321 1.127 1.733 1.974.416.848.625 1.84.625 2.976 0 1.127-.209 2.112-.625 2.955-.412.843-.99 1.498-1.733 1.967-.739.469-1.601.703-2.586.703zm0-1.505c.748 0 1.364-.192 1.847-.576.483-.383.84-.888 1.072-1.513a5.791 5.791 0 0 0 .348-2.031 5.85 5.85 0 0 0-.348-2.038c-.232-.63-.589-1.139-1.072-1.527-.483-.388-1.099-.583-1.847-.583s-1.363.195-1.846.583a3.433 3.433 0 0 0-1.073 1.527 5.85 5.85 0 0 0-.348 2.038c0 .729.116 1.406.348 2.031a3.39 3.39 0 0 0 1.073 1.513c.483.384 1.098.576 1.846.576zM542.624 348.437V355h-1.676v-10.909h1.619v1.704h.143a3.106 3.106 0 0 1 1.164-1.335c.521-.341 1.193-.511 2.017-.511.739 0 1.385.151 1.939.454.554.299.985.753 1.293 1.364.308.606.462 1.373.462 2.301V355h-1.677v-6.818c0-.857-.222-1.525-.667-2.003-.445-.483-1.056-.725-1.833-.725-.535 0-1.013.116-1.434.348a2.486 2.486 0 0 0-.987 1.016c-.242.445-.363.985-.363 1.619zM554.324 340.454V355h-1.677v-14.546h1.677zM558.473 359.091a3.7 3.7 0 0 1-.76-.071 2.028 2.028 0 0 1-.462-.128l.427-1.477c.407.104.767.142 1.079.113a1.29 1.29 0 0 0 .831-.419c.246-.246.471-.646.675-1.2l.312-.852-4.034-10.966h1.818l3.012 8.693h.113l3.012-8.693h1.818l-4.631 12.5c-.208.563-.466 1.03-.774 1.399a2.905 2.905 0 0 1-1.072.831c-.403.18-.857.27-1.364.27zM421.25 405h-4.489v-14.545h4.688c1.411 0 2.618.291 3.622.873 1.004.578 1.773 1.409 2.308 2.493.535 1.08.803 2.372.803 3.878 0 1.515-.27 2.819-.81 3.913a5.77 5.77 0 0 1-2.358 2.514c-1.032.583-2.287.874-3.764.874zm-2.727-1.562h2.613c1.203 0 2.2-.233 2.99-.697a4.286 4.286 0 0 0 1.769-1.981c.388-.857.582-1.877.582-3.061 0-1.174-.191-2.185-.575-3.033-.384-.852-.956-1.505-1.719-1.96-.762-.459-1.711-.689-2.848-.689h-2.812v11.421zM430.909 405v-10.909h1.676V405h-1.676zm.852-12.727c-.326 0-.608-.112-.845-.334a1.073 1.073 0 0 1-.348-.803c0-.312.116-.58.348-.802.237-.223.519-.334.845-.334.327 0 .606.111.838.334.237.222.356.49.356.802 0 .313-.119.58-.356.803a1.169 1.169 0 0 1-.838.334zM443.382 396.534l-1.505.426a2.808 2.808 0 0 0-.419-.731 2.025 2.025 0 0 0-.739-.597c-.312-.156-.713-.234-1.2-.234-.668 0-1.224.154-1.669.461-.441.303-.661.689-.661 1.158 0 .417.152.746.455.987.303.242.776.443 1.42.604l1.62.398c.975.236 1.702.599 2.18 1.086.478.483.717 1.106.717 1.868 0 .625-.18 1.184-.539 1.676-.356.493-.853.881-1.492 1.165-.639.284-1.383.426-2.23.426-1.113 0-2.034-.241-2.763-.724-.729-.483-1.191-1.189-1.385-2.117l1.591-.397c.152.587.438 1.027.86 1.321.426.293.982.44 1.669.44.781 0 1.401-.166 1.86-.497.464-.336.696-.739.696-1.208 0-.378-.132-.696-.397-.951-.266-.261-.673-.455-1.222-.583l-1.818-.426c-.999-.237-1.733-.603-2.202-1.101-.464-.502-.696-1.129-.696-1.882 0-.615.173-1.16.519-1.633.35-.474.826-.845 1.427-1.115.606-.27 1.293-.405 2.06-.405 1.079 0 1.927.237 2.542.71a3.826 3.826 0 0 1 1.321 1.875zM450.536 405.227c-1.023 0-1.903-.241-2.642-.724-.738-.483-1.307-1.148-1.704-1.996-.398-.847-.597-1.816-.597-2.905 0-1.108.204-2.085.611-2.933.412-.852.985-1.517 1.719-1.996.738-.483 1.6-.724 2.585-.724.767 0 1.458.142 2.074.426a3.975 3.975 0 0 1 1.512 1.193c.393.512.637 1.108.732 1.79h-1.676c-.128-.497-.412-.938-.852-1.321-.436-.388-1.023-.582-1.762-.582-.653 0-1.226.17-1.719.511-.487.336-.868.812-1.143 1.427-.27.611-.405 1.329-.405 2.152 0 .843.133 1.577.398 2.202.27.625.649 1.11 1.136 1.456.493.346 1.07.519 1.733.519.436 0 .831-.076 1.186-.228a2.44 2.44 0 0 0 .902-.653c.246-.284.422-.625.526-1.023h1.676a3.886 3.886 0 0 1-.703 1.74c-.369.512-.86.919-1.47 1.222-.606.298-1.312.447-2.117.447zM457.276 405v-10.909h1.62v1.648h.113c.199-.54.559-.978 1.08-1.314a3.18 3.18 0 0 1 1.761-.505c.123 0 .277.003.462.008.184.004.324.011.419.021v1.704a5.397 5.397 0 0 0-.391-.064 3.858 3.858 0 0 0-.632-.049 2.96 2.96 0 0 0-1.42.334 2.446 2.446 0 0 0-1.336 2.223V405h-1.676zM468.96 405.227c-1.052 0-1.958-.232-2.721-.696a4.677 4.677 0 0 1-1.754-1.96c-.407-.843-.611-1.823-.611-2.94 0-1.118.204-2.103.611-2.955.412-.857.985-1.524 1.719-2.003.738-.483 1.6-.724 2.585-.724.568 0 1.129.095 1.683.284a4.162 4.162 0 0 1 1.513.923c.455.422.817.98 1.087 1.676s.405 1.553.405 2.571v.711h-8.41v-1.449h6.705c0-.616-.123-1.165-.369-1.648a2.782 2.782 0 0 0-1.037-1.143c-.445-.28-.971-.419-1.577-.419-.668 0-1.245.165-1.733.497a3.264 3.264 0 0 0-1.115 1.278 3.762 3.762 0 0 0-.391 1.69v.966c0 .824.142 1.523.427 2.096a3.062 3.062 0 0 0 1.2 1.299c.511.294 1.105.441 1.783.441.44 0 .838-.062 1.193-.185.36-.128.67-.317.93-.568.261-.256.462-.573.604-.952l1.619.455a3.584 3.584 0 0 1-.859 1.448c-.403.412-.9.734-1.492.966-.592.228-1.257.341-1.995.341zM480.771 394.091v1.42h-5.654v-1.42h5.654zm-4.006-2.614h1.676v10.398c0 .473.069.829.206 1.065.142.232.322.389.54.469.222.076.457.114.703.114.185 0 .336-.01.454-.029l.285-.056.34 1.505a3.389 3.389 0 0 1-.475.128 3.533 3.533 0 0 1-.775.071c-.473 0-.937-.102-1.392-.305a2.777 2.777 0 0 1-1.122-.931c-.293-.416-.44-.942-.44-1.576v-10.853zM483.292 405v-10.909h1.676V405h-1.676zm.852-12.727c-.327 0-.608-.112-.845-.334a1.073 1.073 0 0 1-.348-.803c0-.312.116-.58.348-.802a1.19 1.19 0 0 1 .845-.334c.327 0 .606.111.838.334.237.222.355.49.355.802 0 .313-.118.58-.355.803a1.169 1.169 0 0 1-.838.334zM492.47 405.227c-.985 0-1.849-.234-2.593-.703-.738-.469-1.316-1.124-1.732-1.967-.412-.843-.618-1.828-.618-2.955 0-1.136.206-2.128.618-2.976.416-.847.994-1.505 1.732-1.974.744-.469 1.608-.703 2.593-.703.985 0 1.846.234 2.585.703.743.469 1.321 1.127 1.733 1.974.417.848.625 1.84.625 2.976 0 1.127-.208 2.112-.625 2.955-.412.843-.99 1.498-1.733 1.967-.739.469-1.6.703-2.585.703zm0-1.505c.748 0 1.363-.192 1.846-.576a3.387 3.387 0 0 0 1.073-1.512 5.797 5.797 0 0 0 .348-2.032 5.85 5.85 0 0 0-.348-2.038 3.433 3.433 0 0 0-1.073-1.527c-.483-.388-1.098-.582-1.846-.582s-1.364.194-1.847.582c-.483.388-.84.897-1.072 1.527a5.85 5.85 0 0 0-.348 2.038c0 .729.116 1.407.348 2.032.232.625.589 1.129 1.072 1.512.483.384 1.099.576 1.847.576zM501.648 398.438V405h-1.676v-10.909h1.619v1.704h.142a3.115 3.115 0 0 1 1.165-1.335c.521-.341 1.193-.511 2.017-.511.738 0 1.385.151 1.939.454.554.299.985.753 1.292 1.364.308.606.462 1.373.462 2.301V405h-1.676v-6.818c0-.857-.223-1.525-.668-2.003-.445-.483-1.056-.724-1.832-.724-.535 0-1.013.116-1.435.348-.417.232-.746.57-.987 1.015-.242.445-.362.985-.362 1.62zM514.881 405.256a4.438 4.438 0 0 1-1.882-.391 3.222 3.222 0 0 1-1.342-1.143c-.332-.502-.498-1.108-.498-1.819 0-.625.124-1.131.37-1.519a2.61 2.61 0 0 1 .987-.924 5.203 5.203 0 0 1 1.364-.497 16.406 16.406 0 0 1 1.512-.27 72.061 72.061 0 0 1 1.613-.192c.416-.047.719-.125.909-.234.194-.109.291-.298.291-.568v-.057c0-.701-.192-1.245-.575-1.633-.379-.389-.954-.583-1.726-.583-.8 0-1.428.175-1.882.526-.455.35-.774.724-.959 1.122l-1.591-.568c.284-.663.663-1.179 1.136-1.549a4.266 4.266 0 0 1 1.563-.781 6.508 6.508 0 0 1 1.676-.227c.35 0 .753.042 1.207.128.46.08.902.248 1.328.504.431.256.789.642 1.073 1.158.284.516.426 1.207.426 2.073V405h-1.676v-1.477h-.085c-.114.236-.303.49-.569.76-.265.27-.617.499-1.058.689-.44.189-.978.284-1.612.284zm.256-1.506c.663 0 1.221-.13 1.676-.391.459-.26.805-.596 1.037-1.008.237-.412.355-.845.355-1.3v-1.534c-.071.085-.227.163-.469.234a7.689 7.689 0 0 1-.824.178c-.307.047-.608.09-.902.128-.289.033-.523.061-.703.085a6.396 6.396 0 0 0-1.221.277c-.374.123-.678.31-.91.561-.227.246-.34.582-.34 1.009 0 .582.215 1.022.646 1.321.435.293.987.44 1.655.44zM522.94 405v-10.909h1.62v1.648h.113c.199-.54.559-.978 1.08-1.314a3.18 3.18 0 0 1 1.761-.505c.123 0 .277.003.462.008.184.004.324.011.419.021v1.704a5.397 5.397 0 0 0-.391-.064 3.858 3.858 0 0 0-.632-.049 2.96 2.96 0 0 0-1.42.334 2.446 2.446 0 0 0-1.336 2.223V405h-1.676zM531.793 409.091a3.7 3.7 0 0 1-.76-.071 2 2 0 0 1-.461-.128l.426-1.477c.407.104.767.142 1.079.113a1.29 1.29 0 0 0 .831-.419c.247-.246.471-.646.675-1.2l.313-.852-4.035-10.966h1.819l3.011 8.693h.114l3.011-8.693h1.818l-4.63 12.5c-.209.563-.467 1.03-.775 1.399a2.897 2.897 0 0 1-1.072.831c-.403.18-.857.27-1.364.27zM549.148 390.455V405h-1.676v-14.545h1.676zM556.649 405.227c-.984 0-1.848-.234-2.592-.703-.738-.469-1.316-1.124-1.733-1.967-.412-.843-.618-1.828-.618-2.955 0-1.136.206-2.128.618-2.976.417-.847.995-1.505 1.733-1.974.744-.469 1.608-.703 2.592-.703.985 0 1.847.234 2.586.703.743.469 1.321 1.127 1.733 1.974.416.848.625 1.84.625 2.976 0 1.127-.209 2.112-.625 2.955-.412.843-.99 1.498-1.733 1.967-.739.469-1.601.703-2.586.703zm0-1.505c.749 0 1.364-.192 1.847-.576a3.387 3.387 0 0 0 1.073-1.512 5.797 5.797 0 0 0 .348-2.032 5.85 5.85 0 0 0-.348-2.038 3.433 3.433 0 0 0-1.073-1.527c-.483-.388-1.098-.582-1.847-.582-.748 0-1.363.194-1.846.582a3.433 3.433 0 0 0-1.073 1.527 5.85 5.85 0 0 0-.348 2.038c0 .729.116 1.407.348 2.032.232.625.59 1.129 1.073 1.512.483.384 1.098.576 1.846.576zM565.827 398.438V405h-1.676v-10.909h1.62v1.704h.142a3.113 3.113 0 0 1 1.164-1.335c.521-.341 1.194-.511 2.017-.511.739 0 1.385.151 1.939.454.554.299.985.753 1.293 1.364.308.606.462 1.373.462 2.301V405h-1.677v-6.818c0-.857-.222-1.525-.667-2.003-.445-.483-1.056-.724-1.833-.724-.535 0-1.013.116-1.434.348-.417.232-.746.57-.987 1.015-.242.445-.363.985-.363 1.62zM580.254 409.318c-.81 0-1.506-.104-2.088-.312-.583-.204-1.068-.474-1.456-.81a4.417 4.417 0 0 1-.916-1.065l1.335-.938c.151.199.343.426.575.682.232.26.549.485.952.675.407.194.94.291 1.598.291.881 0 1.607-.213 2.18-.639.573-.426.86-1.094.86-2.003v-2.216h-.142a9.139 9.139 0 0 1-.526.739c-.222.288-.544.546-.966.774-.417.222-.98.334-1.69.334-.881 0-1.672-.209-2.372-.625-.696-.417-1.248-1.023-1.655-1.819-.403-.795-.604-1.761-.604-2.897 0-1.118.197-2.091.59-2.919.393-.834.939-1.478 1.64-1.932.701-.459 1.511-.689 2.429-.689.71 0 1.274.118 1.691.355.421.232.743.497.965.795.228.294.403.535.526.725h.17v-1.733h1.62v11.221c0 .938-.213 1.7-.639 2.287a3.64 3.64 0 0 1-1.705 1.3c-.71.28-1.501.419-2.372.419zm-.057-5.994c.672 0 1.241-.154 1.705-.462.464-.308.816-.75 1.058-1.328.241-.578.362-1.269.362-2.074 0-.786-.118-1.479-.355-2.081-.237-.601-.587-1.072-1.051-1.413-.464-.341-1.037-.511-1.719-.511-.71 0-1.302.179-1.775.539-.469.36-.822.843-1.059 1.449-.232.606-.348 1.279-.348 2.017 0 .758.119 1.428.355 2.01.242.578.597 1.032 1.066 1.364.473.327 1.06.49 1.761.49zM594.288 397.983v1.562h-6.364v-1.562h6.364zM601.669 405.227c-.985 0-1.849-.234-2.592-.703-.739-.469-1.317-1.124-1.733-1.967-.412-.843-.618-1.828-.618-2.955 0-1.136.206-2.128.618-2.976.416-.847.994-1.505 1.733-1.974.743-.469 1.607-.703 2.592-.703.985 0 1.847.234 2.585.703.744.469 1.321 1.127 1.733 1.974.417.848.625 1.84.625 2.976 0 1.127-.208 2.112-.625 2.955-.412.843-.989 1.498-1.733 1.967-.738.469-1.6.703-2.585.703zm0-1.505c.748 0 1.364-.192 1.847-.576.483-.383.84-.887 1.072-1.512a5.797 5.797 0 0 0 .348-2.032 5.85 5.85 0 0 0-.348-2.038c-.232-.63-.589-1.139-1.072-1.527-.483-.388-1.099-.582-1.847-.582s-1.364.194-1.847.582c-.483.388-.84.897-1.072 1.527a5.85 5.85 0 0 0-.348 2.038c0 .729.116 1.407.348 2.032.232.625.589 1.129 1.072 1.512.483.384 1.099.576 1.847.576zM610.847 398.438V405h-1.676v-10.909h1.619v1.704h.142a3.115 3.115 0 0 1 1.165-1.335c.521-.341 1.193-.511 2.017-.511.739 0 1.385.151 1.939.454.554.299.985.753 1.293 1.364.307.606.461 1.373.461 2.301V405h-1.676v-6.818c0-.857-.223-1.525-.668-2.003-.445-.483-1.055-.724-1.832-.724-.535 0-1.013.116-1.435.348-.416.232-.745.57-.987 1.015-.241.445-.362.985-.362 1.62zM622.546 390.455V405h-1.676v-14.545h1.676zM626.696 409.091c-.284 0-.538-.024-.76-.071a1.997 1.997 0 0 1-.462-.128l.426-1.477c.407.104.767.142 1.08.113.312-.028.589-.168.831-.419.246-.246.471-.646.674-1.2l.313-.852-4.034-10.966h1.818l3.011 8.693h.114l3.011-8.693h1.819l-4.631 12.5c-.208.563-.467 1.03-.774 1.399a2.908 2.908 0 0 1-1.073.831c-.402.18-.857.27-1.363.27zM416.761 455v-14.545h4.915c1.141 0 2.074.206 2.798.617.73.408 1.269.959 1.62 1.655.35.696.525 1.473.525 2.33s-.175 1.636-.525 2.336c-.346.701-.881 1.26-1.605 1.677-.725.412-1.653.618-2.784.618h-3.523v-1.563h3.466c.781 0 1.408-.135 1.882-.405.473-.27.817-.634 1.03-1.094a3.66 3.66 0 0 0 .326-1.569c0-.583-.109-1.103-.326-1.563a2.33 2.33 0 0 0-1.037-1.079c-.479-.265-1.113-.398-1.904-.398h-3.096V455h-1.762zM432.44 455.256a4.435 4.435 0 0 1-1.882-.391 3.23 3.23 0 0 1-1.343-1.143c-.331-.502-.497-1.108-.497-1.819 0-.625.123-1.131.369-1.519a2.62 2.62 0 0 1 .988-.924 5.196 5.196 0 0 1 1.363-.497 16.367 16.367 0 0 1 1.513-.27c.663-.085 1.2-.149 1.612-.192.417-.047.72-.125.909-.234.194-.109.291-.298.291-.568v-.057c0-.701-.191-1.245-.575-1.633-.379-.389-.954-.583-1.726-.583-.8 0-1.427.175-1.882.526-.454.35-.774.724-.959 1.122l-1.59-.568c.284-.663.662-1.179 1.136-1.549a4.262 4.262 0 0 1 1.562-.781 6.516 6.516 0 0 1 1.677-.227c.35 0 .752.042 1.207.128.459.08.902.248 1.328.504.431.256.788.642 1.072 1.158.285.516.427 1.207.427 2.073V455h-1.677v-1.477h-.085c-.113.236-.303.49-.568.76-.265.27-.618.499-1.058.689-.441.189-.978.284-1.612.284zm.255-1.506c.663 0 1.222-.13 1.676-.391.46-.26.805-.596 1.037-1.008.237-.412.355-.845.355-1.3v-1.534c-.071.085-.227.163-.468.234a7.743 7.743 0 0 1-.824.178c-.308.047-.609.09-.902.128-.289.033-.523.061-.703.085a6.406 6.406 0 0 0-1.222.277c-.374.123-.677.31-.909.561-.227.246-.341.582-.341 1.009 0 .582.216 1.022.646 1.321.436.293.988.44 1.655.44zM448.226 446.534l-1.505.426a2.785 2.785 0 0 0-.42-.731 2.02 2.02 0 0 0-.738-.597c-.313-.156-.713-.234-1.2-.234-.668 0-1.224.154-1.669.461-.441.303-.661.689-.661 1.158 0 .417.152.746.455.987.303.242.776.443 1.42.604l1.619.398c.976.236 1.703.599 2.181 1.086.478.483.717 1.106.717 1.868 0 .625-.18 1.184-.54 1.676-.355.493-.852.881-1.491 1.165-.639.284-1.383.426-2.23.426-1.113 0-2.034-.241-2.763-.724-.729-.483-1.191-1.189-1.385-2.117l1.591-.397c.151.587.438 1.027.859 1.321.426.293.983.44 1.669.44.782 0 1.402-.166 1.861-.497.464-.336.696-.739.696-1.208 0-.378-.132-.696-.398-.951-.265-.261-.672-.455-1.221-.583l-1.818-.426c-.999-.237-1.733-.603-2.202-1.101-.464-.502-.696-1.129-.696-1.882a2.7 2.7 0 0 1 .518-1.633c.351-.474.827-.845 1.428-1.115.606-.27 1.293-.405 2.06-.405 1.079 0 1.927.237 2.542.71a3.832 3.832 0 0 1 1.321 1.875zM458.675 446.534l-1.505.426a2.808 2.808 0 0 0-.419-.731 2.025 2.025 0 0 0-.739-.597c-.312-.156-.713-.234-1.2-.234-.668 0-1.224.154-1.669.461-.441.303-.661.689-.661 1.158 0 .417.152.746.455.987.303.242.776.443 1.42.604l1.62.398c.975.236 1.702.599 2.18 1.086.478.483.717 1.106.717 1.868 0 .625-.18 1.184-.539 1.676-.356.493-.853.881-1.492 1.165-.639.284-1.383.426-2.23.426-1.113 0-2.034-.241-2.763-.724-.729-.483-1.191-1.189-1.385-2.117l1.591-.397c.152.587.438 1.027.859 1.321.427.293.983.44 1.67.44.781 0 1.401-.166 1.86-.497.464-.336.696-.739.696-1.208 0-.378-.132-.696-.397-.951-.266-.261-.673-.455-1.222-.583l-1.818-.426c-.999-.237-1.733-.603-2.202-1.101-.464-.502-.696-1.129-.696-1.882 0-.615.173-1.16.519-1.633.35-.474.826-.845 1.427-1.115.606-.27 1.293-.405 2.06-.405 1.079 0 1.927.237 2.542.71a3.826 3.826 0 0 1 1.321 1.875zM461.397 455v-10.909h1.676V455h-1.676zm.853-12.727c-.327 0-.609-.112-.846-.334a1.073 1.073 0 0 1-.348-.803c0-.312.116-.58.348-.802.237-.223.519-.334.846-.334.326 0 .606.111.838.334.236.222.355.49.355.802 0 .313-.119.58-.355.803a1.17 1.17 0 0 1-.838.334zM475.064 444.091 471.03 455h-1.705l-4.034-10.909h1.818l3.012 8.693h.113l3.012-8.693h1.818zM481.46 455.227c-1.052 0-1.958-.232-2.721-.696a4.677 4.677 0 0 1-1.754-1.96c-.407-.843-.611-1.823-.611-2.94 0-1.118.204-2.103.611-2.955.412-.857.985-1.524 1.719-2.003.738-.483 1.6-.724 2.585-.724.568 0 1.129.095 1.683.284a4.162 4.162 0 0 1 1.513.923c.455.422.817.98 1.087 1.676s.405 1.553.405 2.571v.711h-8.41v-1.449h6.705c0-.616-.123-1.165-.369-1.648a2.782 2.782 0 0 0-1.037-1.143c-.445-.28-.971-.419-1.577-.419-.668 0-1.245.165-1.733.497a3.264 3.264 0 0 0-1.115 1.278 3.762 3.762 0 0 0-.391 1.69v.966c0 .824.142 1.523.427 2.096a3.062 3.062 0 0 0 1.2 1.299c.511.294 1.105.441 1.783.441.44 0 .838-.062 1.193-.185.36-.128.67-.317.93-.568.261-.256.462-.573.604-.952l1.619.455a3.584 3.584 0 0 1-.859 1.448c-.403.412-.9.734-1.492.966-.592.228-1.257.341-1.995.341zM495.827 440.455V455h-1.676v-14.545h1.676zM503.329 455.227c-.985 0-1.849-.234-2.592-.703-.739-.469-1.316-1.124-1.733-1.967-.412-.843-.618-1.828-.618-2.955 0-1.136.206-2.128.618-2.976.417-.847.994-1.505 1.733-1.974.743-.469 1.607-.703 2.592-.703.985 0 1.847.234 2.585.703.744.469 1.321 1.127 1.733 1.974.417.848.625 1.84.625 2.976 0 1.127-.208 2.112-.625 2.955-.412.843-.989 1.498-1.733 1.967-.738.469-1.6.703-2.585.703zm0-1.505c.748 0 1.364-.192 1.847-.576.483-.383.84-.887 1.072-1.512a5.797 5.797 0 0 0 .348-2.032 5.85 5.85 0 0 0-.348-2.038c-.232-.63-.589-1.139-1.072-1.527-.483-.388-1.099-.582-1.847-.582s-1.363.194-1.846.582a3.433 3.433 0 0 0-1.073 1.527 5.85 5.85 0 0 0-.348 2.038c0 .729.116 1.407.348 2.032.232.625.59 1.129 1.073 1.512.483.384 1.098.576 1.846.576zM512.507 448.438V455h-1.676v-10.909h1.619v1.704h.142a3.115 3.115 0 0 1 1.165-1.335c.521-.341 1.193-.511 2.017-.511.739 0 1.385.151 1.939.454.554.299.985.753 1.293 1.364.307.606.461 1.373.461 2.301V455h-1.676v-6.818c0-.857-.222-1.525-.667-2.003-.446-.483-1.056-.724-1.833-.724-.535 0-1.013.116-1.434.348-.417.232-.746.57-.988 1.015-.241.445-.362.985-.362 1.62zM526.934 459.318c-.81 0-1.506-.104-2.088-.312-.583-.204-1.068-.474-1.456-.81a4.445 4.445 0 0 1-.917-1.065l1.336-.938c.151.199.343.426.575.682.232.26.549.485.952.675.407.194.939.291 1.598.291.88 0 1.607-.213 2.18-.639.573-.426.859-1.094.859-2.003v-2.216h-.142a9.09 9.09 0 0 1-.525.739c-.223.288-.545.546-.966.774-.417.222-.98.334-1.691.334-.88 0-1.671-.209-2.372-.625-.696-.417-1.247-1.023-1.654-1.819-.403-.795-.604-1.761-.604-2.897 0-1.118.196-2.091.589-2.919.393-.834.94-1.478 1.641-1.932.701-.459 1.51-.689 2.429-.689.71 0 1.274.118 1.69.355.422.232.744.497.966.795.227.294.403.535.526.725h.17v-1.733h1.619v11.221c0 .938-.213 1.7-.639 2.287a3.632 3.632 0 0 1-1.704 1.3c-.71.28-1.501.419-2.372.419zm-.057-5.994c.672 0 1.24-.154 1.704-.462.464-.308.817-.75 1.059-1.328.241-.578.362-1.269.362-2.074 0-.786-.119-1.479-.355-2.081-.237-.601-.587-1.072-1.051-1.413-.465-.341-1.037-.511-1.719-.511-.71 0-1.302.179-1.776.539-.469.36-.821.843-1.058 1.449-.232.606-.348 1.279-.348 2.017 0 .758.118 1.428.355 2.01.242.578.597 1.032 1.065 1.364.474.327 1.061.49 1.762.49zM540.968 447.983v1.562h-6.364v-1.562h6.364zM548.349 455.227c-.985 0-1.849-.234-2.593-.703-.738-.469-1.316-1.124-1.733-1.967-.412-.843-.617-1.828-.617-2.955 0-1.136.205-2.128.617-2.976.417-.847.995-1.505 1.733-1.974.744-.469 1.608-.703 2.593-.703.985 0 1.846.234 2.585.703.743.469 1.321 1.127 1.733 1.974.417.848.625 1.84.625 2.976 0 1.127-.208 2.112-.625 2.955-.412.843-.99 1.498-1.733 1.967-.739.469-1.6.703-2.585.703zm0-1.505c.748 0 1.363-.192 1.846-.576a3.387 3.387 0 0 0 1.073-1.512 5.797 5.797 0 0 0 .348-2.032 5.85 5.85 0 0 0-.348-2.038 3.433 3.433 0 0 0-1.073-1.527c-.483-.388-1.098-.582-1.846-.582s-1.364.194-1.847.582c-.483.388-.84.897-1.072 1.527a5.85 5.85 0 0 0-.348 2.038c0 .729.116 1.407.348 2.032.232.625.589 1.129 1.072 1.512.483.384 1.099.576 1.847.576zM557.527 448.438V455h-1.677v-10.909h1.62v1.704h.142a3.115 3.115 0 0 1 1.165-1.335c.52-.341 1.193-.511 2.017-.511.738 0 1.385.151 1.939.454.554.299.984.753 1.292 1.364.308.606.462 1.373.462 2.301V455h-1.676v-6.818c0-.857-.223-1.525-.668-2.003-.445-.483-1.056-.724-1.832-.724-.535 0-1.014.116-1.435.348-.417.232-.746.57-.987 1.015-.242.445-.362.985-.362 1.62zM569.226 440.455V455h-1.676v-14.545h1.676zM573.375 459.091a3.7 3.7 0 0 1-.76-.071 2 2 0 0 1-.461-.128l.426-1.477c.407.104.767.142 1.079.113a1.29 1.29 0 0 0 .831-.419c.247-.246.472-.646.675-1.2l.313-.852-4.034-10.966h1.818l3.011 8.693h.114l3.011-8.693h1.818l-4.63 12.5c-.209.563-.467 1.03-.775 1.399a2.897 2.897 0 0 1-1.072.831c-.402.18-.857.27-1.364.27zM416.761 505v-14.545h5.086c1.013 0 1.849.175 2.507.525.658.346 1.148.812 1.47 1.399.322.583.483 1.229.483 1.939 0 .625-.111 1.141-.334 1.548-.218.408-.507.73-.866.966a3.955 3.955 0 0 1-1.158.526v.142c.445.028.892.185 1.342.469.45.284.826.691 1.129 1.221.303.531.455 1.179.455 1.946 0 .73-.166 1.385-.497 1.968-.332.582-.855 1.044-1.57 1.385-.715.341-1.645.511-2.791.511h-5.256zm1.762-1.562h3.494c1.151 0 1.967-.223 2.45-.668.488-.45.732-.994.732-1.634 0-.492-.126-.947-.377-1.363a2.72 2.72 0 0 0-1.072-1.009c-.464-.255-1.013-.383-1.648-.383h-3.579v5.057zm0-6.591h3.267c.53 0 1.008-.105 1.434-.313a2.505 2.505 0 0 0 1.023-.881c.256-.378.384-.823.384-1.335 0-.639-.223-1.181-.668-1.626-.445-.45-1.151-.675-2.116-.675h-3.324v4.83zM429.542 505v-10.909h1.676V505h-1.676zm.852-12.727c-.327 0-.608-.112-.845-.334a1.073 1.073 0 0 1-.348-.803c0-.312.116-.58.348-.802a1.19 1.19 0 0 1 .845-.334c.327 0 .606.111.838.334.237.222.355.49.355.802 0 .313-.118.58-.355.803a1.169 1.169 0 0 1-.838.334zM439.032 494.091v1.42h-5.653v-1.42h5.653zm-4.005-2.614h1.676v10.398c0 .473.068.829.206 1.065.142.232.322.389.539.469.223.076.457.114.704.114.184 0 .336-.01.454-.029l.284-.056.341 1.505a3.37 3.37 0 0 1-.476.128 3.516 3.516 0 0 1-.774.071c-.473 0-.937-.102-1.392-.305a2.764 2.764 0 0 1-1.122-.931c-.294-.416-.44-.942-.44-1.576v-10.853zM445.868 505.227c-1.022 0-1.903-.241-2.642-.724-.738-.483-1.307-1.148-1.704-1.996-.398-.847-.597-1.816-.597-2.905 0-1.108.204-2.085.611-2.933.412-.852.985-1.517 1.719-1.996.738-.483 1.6-.724 2.585-.724.767 0 1.458.142 2.074.426a3.975 3.975 0 0 1 1.512 1.193c.393.512.637 1.108.732 1.79h-1.676c-.128-.497-.412-.938-.852-1.321-.436-.388-1.023-.582-1.762-.582-.653 0-1.226.17-1.719.511-.487.336-.868.812-1.143 1.427-.27.611-.405 1.329-.405 2.152 0 .843.133 1.577.398 2.202.27.625.649 1.11 1.136 1.456.493.346 1.07.519 1.733.519.436 0 .831-.076 1.186-.228a2.44 2.44 0 0 0 .902-.653c.247-.284.422-.625.526-1.023h1.676a3.886 3.886 0 0 1-.703 1.74 3.92 3.92 0 0 1-1.47 1.222c-.606.298-1.312.447-2.117.447zM457.04 505.227c-.985 0-1.849-.234-2.592-.703-.739-.469-1.317-1.124-1.733-1.967-.412-.843-.618-1.828-.618-2.955 0-1.136.206-2.128.618-2.976.416-.847.994-1.505 1.733-1.974.743-.469 1.607-.703 2.592-.703.985 0 1.847.234 2.585.703.744.469 1.321 1.127 1.733 1.974.417.848.625 1.84.625 2.976 0 1.127-.208 2.112-.625 2.955-.412.843-.989 1.498-1.733 1.967-.738.469-1.6.703-2.585.703zm0-1.505c.748 0 1.364-.192 1.847-.576.483-.383.84-.887 1.072-1.512a5.797 5.797 0 0 0 .348-2.032 5.85 5.85 0 0 0-.348-2.038c-.232-.63-.589-1.139-1.072-1.527-.483-.388-1.099-.582-1.847-.582s-1.364.194-1.846.582a3.433 3.433 0 0 0-1.073 1.527 5.85 5.85 0 0 0-.348 2.038c0 .729.116 1.407.348 2.032.232.625.59 1.129 1.073 1.512.482.384 1.098.576 1.846.576zM464.542 505v-10.909h1.676V505h-1.676zm.852-12.727c-.327 0-.608-.112-.845-.334a1.073 1.073 0 0 1-.348-.803c0-.312.116-.58.348-.802a1.19 1.19 0 0 1 .845-.334c.327 0 .606.111.838.334.237.222.355.49.355.802 0 .313-.118.58-.355.803a1.169 1.169 0 0 1-.838.334zM470.964 498.438V505h-1.676v-10.909h1.619v1.704h.142a3.115 3.115 0 0 1 1.165-1.335c.521-.341 1.193-.511 2.017-.511.739 0 1.385.151 1.939.454.554.299.985.753 1.293 1.364.307.606.461 1.373.461 2.301V505h-1.676v-6.818c0-.857-.222-1.525-.667-2.003-.445-.483-1.056-.724-1.833-.724-.535 0-1.013.116-1.434.348-.417.232-.746.57-.988 1.015-.241.445-.362.985-.362 1.62z" fill="#fff"/></svg>