<svg width="80" height="80" viewBox="0 0 80 80" fill="none" xmlns="http://www.w3.org/2000/svg">
<path fill-rule="evenodd" clip-rule="evenodd" d="M69 10H65V15H70V11V10H69ZM70 9H65V1H70H79V10V15H71V10V9H70ZM79 16H71V19V24H79V16ZM79 25H71V33H79V25ZM79 34H71V42H79V34ZM79 43H71V51H79V43ZM79 52H71V79H79V52ZM70 51V43H62V51H70ZM62 52H70V79H62V52ZM61 51V43H53V51H61ZM53 52H61V79H53V52ZM52 51V43H44V46V51H52ZM44 52H52V79H44V52ZM43 51V46V43H38H37V42V37H34H29V45H34H35V46V51H43ZM35 52H43V79H35V52ZM34 52V51V47V46H33H29H28H1V79H34V52ZM28 45V37H1V45H28ZM29 36H34H37V28H29V36ZM28 28V36H1V28L28 28ZM29 27H37V19H29V27ZM28 19V27L1 27V19L28 19ZM29 18H37V10H29V18ZM28 10V18L1 18V10L28 10ZM29 9H37V1H29V9ZM28 1V9L1 9V1L28 1ZM38 1V9L46 9V1H38ZM47 1V9L55 9V1H47ZM56 1V9H61H64V1H56ZM80 79V52V51V43V42V34V33V25V24V16V15V10V1V3.49691e-06H79H70H65H64H56H55H47H46H38H37H29H28L1 0H0V1V9V10V18V19V27V28V36V37V45V46V79V80H1H34H35H43H44H52H53H61H62H70H71H79H80V79ZM70 19V16H65H64V15V10H61H56V18H61H62V19V24H70V19ZM70 25H62V28V33H70V25ZM61 24V20V19H60H56V24H61ZM55 19V24V25H56H61V28V33H53V28V27H52H47V19H52H55ZM55 18V10L47 10V18H52H55ZM38 10V18H46V10L38 10ZM38 19V27H43H46V19H38ZM38 28V36H43H44V37V42H52V37V34H47H46V33V28H43H38ZM38 42H43V38V37H42H38V42ZM62 42H70V34H62V42ZM53 42H61V34H53V37V42ZM52 33V29V28H51H47V33H52Z" fill="#707477"/>
</svg>
