<svg width="174" height="170" viewBox="0 0 174 170" fill="none" xmlns="http://www.w3.org/2000/svg">
<g opacity="0.5">
<path fill-rule="evenodd" clip-rule="evenodd" d="M40.7658 59.8861L84.2401 28.7357L129.731 59.619L114.372 109.856L59.3885 110.022L40.7658 59.8861ZM60.083 109.019L41.9693 60.2541L84.2555 29.9548L128.559 60.0321L113.632 108.859L60.083 109.019Z" fill="#707477"/>
<path fill-rule="evenodd" clip-rule="evenodd" d="M91.5774 21.8438L37.4214 50.1831L50.523 109.885L112.776 118.444L138.149 64.0312L91.5774 21.8438ZM38.5619 50.7149L51.3503 108.989L112.182 117.353L136.931 64.2771L91.423 23.0532L38.5619 50.7149Z" fill="#707477"/>
<path fill-rule="evenodd" clip-rule="evenodd" d="M34.6038 42.5673L98.528 17.2287L145.673 69.9061L110.887 127.801L42.2417 110.905L34.6038 42.5673ZM43.1581 110.101L35.6824 43.2155L98.2481 18.4154L144.436 70.0234L110.409 126.654L43.1581 110.101Z" fill="#707477"/>
<path fill-rule="evenodd" clip-rule="evenodd" d="M105.534 13.1672L32.3231 35.0237L34.1596 111.405L108.505 136.755L152.617 76.0405L105.534 13.1672ZM33.3412 35.7634L35.1425 110.684L108.13 135.57L151.374 76.0495L105.151 14.325L33.3412 35.7634Z" fill="#707477"/>
<path fill-rule="evenodd" clip-rule="evenodd" d="M31.038 26.8956L113.358 9.96375L158.925 83.3751L104.766 145.678L25.7278 110.771L31.038 26.8956ZM26.7698 110.138L31.9878 27.7212L112.877 11.0838L157.686 83.2757L104.496 144.465L26.7698 110.138Z" fill="#707477"/>
<path fill-rule="evenodd" clip-rule="evenodd" d="M120.798 7.03116L29.9242 19.1929L17.7625 110.067L101.12 154.068L164.8 90.3887L120.798 7.03116ZM30.8141 20.0827L18.8462 109.508L100.935 152.839L163.571 90.2032L120.239 8.11485L30.8141 20.0827Z" fill="#707477"/>
<path fill-rule="evenodd" clip-rule="evenodd" d="M170.013 98.299L173.19 107.617L88.1899 169.373L0.167358 103.457L30.7664 0.961914L137.7 3.53306L169.889 97.9358L170.039 98.276L170.013 98.299ZM1.32511 103.074L31.5061 1.97999L136.979 4.51602L165.254 87.44L128.786 4.86684L29.6605 11.1426L9.6501 108.43L96.3224 162.228L88.1989 168.13L1.32511 103.074ZM97.2254 161.572L172.005 107.241L169.198 99.0074L97.2254 161.572ZM10.7701 107.949L30.4861 12.0924L128.153 5.90892L168.826 98.0052L96.3096 161.043L10.7701 107.949Z" fill="#707477"/>
</g>
</svg>
