<svg width="50" height="50" viewBox="0 0 50 50" fill="none" xmlns="http://www.w3.org/2000/svg">
<path fill-rule="evenodd" clip-rule="evenodd" d="M25 33C29.4183 33 33 29.4183 33 25C33 20.5817 29.4183 17 25 17C20.5817 17 17 20.5817 17 25C17 29.4183 20.5817 33 25 33ZM25 32C28.866 32 32 28.866 32 25C32 21.134 28.866 18 25 18C21.134 18 18 21.134 18 25C18 28.866 21.134 32 25 32Z" fill="#707477"/>
<path fill-rule="evenodd" clip-rule="evenodd" d="M39 25C39 32.732 32.732 39 25 39C17.268 39 11 32.732 11 25C11 17.268 17.268 11 25 11C32.732 11 39 17.268 39 25ZM38 25C38 32.1797 32.1797 38 25 38C17.8203 38 12 32.1797 12 25C12 17.8203 17.8203 12 25 12C32.1797 12 38 17.8203 38 25Z" fill="#707477"/>
<path fill-rule="evenodd" clip-rule="evenodd" d="M25 45C36.0457 45 45 36.0457 45 25C45 13.9543 36.0457 5 25 5C13.9543 5 5 13.9543 5 25C5 36.0457 13.9543 45 25 45ZM25 44C35.4934 44 44 35.4934 44 25C44 14.5066 35.4934 6 25 6C14.5066 6 6 14.5066 6 25C6 35.4934 14.5066 44 25 44Z" fill="#707477"/>
<path fill-rule="evenodd" clip-rule="evenodd" d="M50 50V0H0V50H50ZM49 49V46.1666C48.1154 47.1689 47.1689 48.1154 46.1666 49H49ZM44.6229 49C46.2232 47.69 47.69 46.2232 49 44.6229V35.0176C46.3659 41.321 41.321 46.3659 35.0176 49H44.6229ZM49 1V3.83341C48.1154 2.83111 47.1689 1.88465 46.1666 1H49ZM49 5.37711C47.69 3.77683 46.2232 2.30997 44.6229 1H35.0176C41.321 3.63409 46.3659 8.67904 49 14.9824V5.37711ZM1 1H3.8334C2.8311 1.88465 1.88465 2.8311 1 3.8334V1ZM5.37711 1C3.77683 2.30997 2.30997 3.77683 1 5.37711V14.9824C3.63409 8.67904 8.67904 3.63409 14.9824 1H5.37711ZM1 49V46.1666C1.88465 47.1689 2.83111 48.1154 3.83341 49H1ZM1 44.6229C2.30997 46.2232 3.77683 47.69 5.37711 49H14.9824C8.67904 46.3659 3.63409 41.321 1 35.0176V44.6229ZM17.9768 49H32.0232C40.1833 46.616 46.616 40.1833 49 32.0232V17.9768C46.616 9.81665 40.1833 3.38397 32.0232 1H17.9768C9.81665 3.38397 3.38397 9.81665 1 17.9768V32.0232C3.38397 40.1833 9.81665 46.616 17.9768 49Z" fill="#707477"/>
</svg>
