<svg width="1350" height="1352" viewBox="0 0 1350 1352" fill="none" xmlns="http://www.w3.org/2000/svg">
<path fill-rule="evenodd" clip-rule="evenodd" d="M948.975 360C971.618 360 989.975 378.356 989.975 401C989.975 423.644 971.618 442 948.975 442C926.331 442 907.975 423.644 907.975 401C907.975 378.356 926.331 360 948.975 360ZM987.975 401C987.975 379.461 970.514 362 948.975 362C927.436 362 909.975 379.461 909.975 401C909.975 422.539 927.436 440 948.975 440C970.514 440 987.975 422.539 987.975 401Z" fill="url(#paint0_radial_439_407)"/>
<path fill-rule="evenodd" clip-rule="evenodd" d="M948.975 350C977.141 350 999.975 372.833 999.975 401C999.975 429.167 977.141 452 948.975 452C920.808 452 897.975 429.167 897.975 401C897.975 372.833 920.808 350 948.975 350ZM997.975 401C997.975 373.938 976.037 352 948.975 352C921.913 352 899.975 373.938 899.975 401C899.975 428.062 921.913 450 948.975 450C976.037 450 997.975 428.062 997.975 401Z" fill="url(#paint1_radial_439_407)"/>
<path fill-rule="evenodd" clip-rule="evenodd" d="M1009.97 401C1009.97 367.311 982.664 340 948.975 340C915.285 340 887.975 367.311 887.975 401C887.975 434.689 915.285 462 948.975 462C982.664 462 1009.97 434.689 1009.97 401ZM948.975 342C981.559 342 1007.97 368.415 1007.97 401C1007.97 433.585 981.559 460 948.975 460C916.39 460 889.975 433.585 889.975 401C889.975 368.415 916.39 342 948.975 342Z" fill="url(#paint2_radial_439_407)"/>
<path fill-rule="evenodd" clip-rule="evenodd" d="M948.975 330C988.187 330 1019.97 361.788 1019.97 401C1019.97 440.212 988.187 472 948.975 472C909.762 472 877.975 440.212 877.975 401C877.975 361.788 909.762 330 948.975 330ZM1017.97 401C1017.97 362.892 987.082 332 948.975 332C910.867 332 879.975 362.892 879.975 401C879.975 439.108 910.867 470 948.975 470C987.082 470 1017.97 439.108 1017.97 401Z" fill="url(#paint3_radial_439_407)"/>
<path fill-rule="evenodd" clip-rule="evenodd" d="M1029.97 401C1029.97 356.265 993.71 320 948.975 320C904.24 320 867.975 356.265 867.975 401C867.975 445.735 904.24 482 948.975 482C993.71 482 1029.97 445.735 1029.97 401ZM948.975 322C992.605 322 1027.97 357.37 1027.97 401C1027.97 444.63 992.605 480 948.975 480C905.344 480 869.975 444.63 869.975 401C869.975 357.37 905.344 322 948.975 322Z" fill="url(#paint4_radial_439_407)"/>
<path fill-rule="evenodd" clip-rule="evenodd" d="M948.975 310C999.233 310 1039.97 350.742 1039.97 401C1039.97 451.258 999.233 492 948.975 492C898.717 492 857.975 451.258 857.975 401C857.975 350.742 898.717 310 948.975 310ZM1037.97 401C1037.97 351.847 998.128 312 948.975 312C899.821 312 859.975 351.847 859.975 401C859.975 450.153 899.821 490 948.975 490C998.128 490 1037.97 450.153 1037.97 401Z" fill="url(#paint5_radial_439_407)"/>
<path fill-rule="evenodd" clip-rule="evenodd" d="M1049.97 401C1049.97 345.219 1004.76 300 948.975 300C893.194 300 847.975 345.219 847.975 401C847.975 456.781 893.194 502 948.975 502C1004.76 502 1049.97 456.781 1049.97 401ZM948.975 302C1003.65 302 1047.97 346.324 1047.97 401C1047.97 455.676 1003.65 500 948.975 500C894.298 500 849.975 455.676 849.975 401C849.975 346.324 894.298 302 948.975 302Z" fill="url(#paint6_radial_439_407)"/>
<path fill-rule="evenodd" clip-rule="evenodd" d="M948.975 290C1010.28 290 1059.97 339.696 1059.97 401C1059.97 462.304 1010.28 512 948.975 512C887.671 512 837.975 462.304 837.975 401C837.975 339.696 887.671 290 948.975 290ZM1057.97 401C1057.97 340.801 1009.17 292 948.975 292C888.776 292 839.975 340.801 839.975 401C839.975 461.199 888.776 510 948.975 510C1009.17 510 1057.97 461.199 1057.97 401Z" fill="url(#paint7_radial_439_407)"/>
<path fill-rule="evenodd" clip-rule="evenodd" d="M1069.97 401C1069.97 334.174 1015.8 280 948.975 280C882.148 280 827.975 334.174 827.975 401C827.975 467.826 882.148 522 948.975 522C1015.8 522 1069.97 467.826 1069.97 401ZM948.975 282C1014.7 282 1067.97 335.278 1067.97 401C1067.97 466.722 1014.7 520 948.975 520C883.253 520 829.975 466.722 829.975 401C829.975 335.278 883.253 282 948.975 282Z" fill="url(#paint8_radial_439_407)"/>
<path fill-rule="evenodd" clip-rule="evenodd" d="M948.975 270C1021.32 270 1079.97 328.651 1079.97 401C1079.97 473.349 1021.32 532 948.975 532C876.625 532 817.975 473.349 817.975 401C817.975 328.651 876.625 270 948.975 270ZM1077.97 401C1077.97 329.755 1020.22 272 948.975 272C877.73 272 819.975 329.755 819.975 401C819.975 472.245 877.73 530 948.975 530C1020.22 530 1077.97 472.245 1077.97 401Z" fill="url(#paint9_radial_439_407)"/>
<path fill-rule="evenodd" clip-rule="evenodd" d="M1089.97 401C1089.97 323.128 1026.85 260 948.975 260C871.102 260 807.975 323.128 807.975 401C807.975 478.872 871.102 542 948.975 542C1026.85 542 1089.97 478.872 1089.97 401ZM948.975 262C1025.74 262 1087.97 324.232 1087.97 401C1087.97 477.768 1025.74 540 948.975 540C872.207 540 809.975 477.768 809.975 401C809.975 324.232 872.207 262 948.975 262Z" fill="url(#paint10_radial_439_407)"/>
<path fill-rule="evenodd" clip-rule="evenodd" d="M948.975 250C1032.37 250 1099.97 317.605 1099.97 401C1099.97 484.395 1032.37 552 948.975 552C865.58 552 797.975 484.395 797.975 401C797.975 317.605 865.58 250 948.975 250ZM1097.97 401C1097.97 318.71 1031.27 252 948.975 252C866.684 252 799.975 318.71 799.975 401C799.975 483.29 866.684 550 948.975 550C1031.27 550 1097.97 483.29 1097.97 401Z" fill="url(#paint11_radial_439_407)"/>
<path fill-rule="evenodd" clip-rule="evenodd" d="M1109.97 401C1109.97 312.082 1037.89 240 948.975 240C860.057 240 787.975 312.082 787.975 401C787.975 489.918 860.057 562 948.975 562C1037.89 562 1109.97 489.918 1109.97 401ZM948.975 242C1036.79 242 1107.97 313.187 1107.97 401C1107.97 488.813 1036.79 560 948.975 560C861.161 560 789.975 488.813 789.975 401C789.975 313.187 861.161 242 948.975 242Z" fill="url(#paint12_radial_439_407)"/>
<path fill-rule="evenodd" clip-rule="evenodd" d="M948.975 230C1043.42 230 1119.97 306.559 1119.97 401C1119.97 495.441 1043.42 572 948.975 572C854.534 572 777.975 495.441 777.975 401C777.975 306.559 854.534 230 948.975 230ZM1117.97 401C1117.97 307.664 1042.31 232 948.975 232C855.638 232 779.975 307.664 779.975 401C779.975 494.336 855.638 570 948.975 570C1042.31 570 1117.97 494.336 1117.97 401Z" fill="url(#paint13_radial_439_407)"/>
<path fill-rule="evenodd" clip-rule="evenodd" d="M1129.97 401C1129.97 301.036 1048.94 220 948.975 220C849.011 220 767.975 301.036 767.975 401C767.975 500.964 849.011 582 948.975 582C1048.94 582 1129.97 500.964 1129.97 401ZM948.975 222C1047.83 222 1127.97 302.141 1127.97 401C1127.97 499.859 1047.83 580 948.975 580C850.116 580 769.975 499.859 769.975 401C769.975 302.141 850.116 222 948.975 222Z" fill="url(#paint14_radial_439_407)"/>
<path fill-rule="evenodd" clip-rule="evenodd" d="M948.975 210C1054.46 210 1139.97 295.514 1139.97 401C1139.97 506.486 1054.46 592 948.975 592C843.488 592 757.975 506.486 757.975 401C757.975 295.514 843.488 210 948.975 210ZM1137.97 401C1137.97 296.618 1053.36 212 948.975 212C844.593 212 759.975 296.618 759.975 401C759.975 505.382 844.593 590 948.975 590C1053.36 590 1137.97 505.382 1137.97 401Z" fill="url(#paint15_radial_439_407)"/>
<path fill-rule="evenodd" clip-rule="evenodd" d="M1149.97 401C1149.97 289.991 1059.98 200 948.975 200C837.965 200 747.975 289.991 747.975 401C747.975 512.009 837.965 602 948.975 602C1059.98 602 1149.97 512.009 1149.97 401ZM948.975 202C1058.88 202 1147.97 291.095 1147.97 401C1147.97 510.905 1058.88 600 948.975 600C839.07 600 749.975 510.905 749.975 401C749.975 291.095 839.07 202 948.975 202Z" fill="url(#paint16_radial_439_407)"/>
<path fill-rule="evenodd" clip-rule="evenodd" d="M948.975 190C1065.51 190 1159.97 284.468 1159.97 401C1159.97 517.532 1065.51 612 948.975 612C832.443 612 737.975 517.532 737.975 401C737.975 284.468 832.443 190 948.975 190ZM1157.97 401C1157.97 285.572 1064.4 192 948.975 192C833.547 192 739.975 285.572 739.975 401C739.975 516.427 833.547 610 948.975 610C1064.4 610 1157.97 516.427 1157.97 401Z" fill="url(#paint17_radial_439_407)"/>
<path fill-rule="evenodd" clip-rule="evenodd" d="M1169.97 401C1169.97 278.945 1071.03 180 948.975 180C826.92 180 727.975 278.945 727.975 401C727.975 523.055 826.92 622 948.975 622C1071.03 622 1169.97 523.055 1169.97 401ZM948.975 182C1069.92 182 1167.97 280.05 1167.97 401C1167.97 521.95 1069.92 620 948.975 620C828.024 620 729.975 521.95 729.975 401C729.975 280.05 828.024 182 948.975 182Z" fill="url(#paint18_radial_439_407)"/>
<path fill-rule="evenodd" clip-rule="evenodd" d="M948.975 170C1076.55 170 1179.97 273.422 1179.97 401C1179.97 528.578 1076.55 632 948.975 632C821.397 632 717.975 528.578 717.975 401C717.975 273.422 821.397 170 948.975 170ZM1177.97 401C1177.97 274.527 1075.45 172 948.975 172C822.501 172 719.975 274.527 719.975 401C719.975 527.473 822.501 630 948.975 630C1075.45 630 1177.97 527.473 1177.97 401Z" fill="url(#paint19_radial_439_407)"/>
<path fill-rule="evenodd" clip-rule="evenodd" d="M1189.97 401C1189.97 267.899 1082.08 160 948.975 160C815.874 160 707.975 267.899 707.975 401C707.975 534.101 815.874 642 948.975 642C1082.08 642 1189.97 534.101 1189.97 401ZM948.975 162C1080.97 162 1187.97 269.004 1187.97 401C1187.97 532.996 1080.97 640 948.975 640C816.979 640 709.975 532.996 709.975 401C709.975 269.004 816.979 162 948.975 162Z" fill="url(#paint20_radial_439_407)"/>
<path fill-rule="evenodd" clip-rule="evenodd" d="M948.975 150C1087.6 150 1199.97 262.377 1199.97 401C1199.97 539.623 1087.6 652 948.975 652C810.351 652 697.975 539.623 697.975 401C697.975 262.377 810.351 150 948.975 150ZM1197.97 401C1197.97 263.481 1086.49 152 948.975 152C811.456 152 699.975 263.481 699.975 401C699.975 538.519 811.456 650 948.975 650C1086.49 650 1197.97 538.519 1197.97 401Z" fill="url(#paint21_radial_439_407)"/>
<path fill-rule="evenodd" clip-rule="evenodd" d="M1209.97 401C1209.97 256.854 1093.12 140 948.975 140C804.828 140 687.975 256.854 687.975 401C687.975 545.146 804.828 662 948.975 662C1093.12 662 1209.97 545.146 1209.97 401ZM948.975 142C1092.02 142 1207.97 257.958 1207.97 401C1207.97 544.042 1092.02 660 948.975 660C805.933 660 689.975 544.042 689.975 401C689.975 257.958 805.933 142 948.975 142Z" fill="url(#paint22_radial_439_407)"/>
<path fill-rule="evenodd" clip-rule="evenodd" d="M948.975 130C1098.64 130 1219.97 251.331 1219.97 401C1219.97 550.669 1098.64 672 948.975 672C799.305 672 677.975 550.669 677.975 401C677.975 251.331 799.305 130 948.975 130ZM1217.97 401C1217.97 252.435 1097.54 132 948.975 132C800.41 132 679.975 252.435 679.975 401C679.975 549.565 800.41 670 948.975 670C1097.54 670 1217.97 549.565 1217.97 401Z" fill="url(#paint23_radial_439_407)"/>
<path fill-rule="evenodd" clip-rule="evenodd" d="M1229.97 401C1229.97 245.808 1104.17 120 948.975 120C793.783 120 667.975 245.808 667.975 401C667.975 556.192 793.783 682 948.975 682C1104.17 682 1229.97 556.192 1229.97 401ZM948.975 122C1103.06 122 1227.97 246.913 1227.97 401C1227.97 555.087 1103.06 680 948.975 680C794.887 680 669.975 555.087 669.975 401C669.975 246.913 794.887 122 948.975 122Z" fill="url(#paint24_radial_439_407)"/>
<path fill-rule="evenodd" clip-rule="evenodd" d="M948.975 110C1109.69 110 1239.97 240.285 1239.97 401C1239.97 561.715 1109.69 692 948.975 692C788.26 692 657.975 561.715 657.975 401C657.975 240.285 788.26 110 948.975 110ZM1237.97 401C1237.97 241.39 1108.58 112 948.975 112C789.364 112 659.975 241.39 659.975 401C659.975 560.61 789.364 690 948.975 690C1108.58 690 1237.97 560.61 1237.97 401Z" fill="url(#paint25_radial_439_407)"/>
<path fill-rule="evenodd" clip-rule="evenodd" d="M1249.97 401C1249.97 234.762 1115.21 100 948.975 100C782.737 100 647.975 234.762 647.975 401C647.975 567.238 782.737 702 948.975 702C1115.21 702 1249.97 567.238 1249.97 401ZM948.975 102C1114.11 102 1247.97 235.867 1247.97 401C1247.97 566.133 1114.11 700 948.975 700C783.841 700 649.975 566.133 649.975 401C649.975 235.867 783.841 102 948.975 102Z" fill="url(#paint26_radial_439_407)"/>
<path fill-rule="evenodd" clip-rule="evenodd" d="M948.975 90C1120.74 90 1259.97 229.239 1259.97 401C1259.97 572.761 1120.74 712 948.975 712C777.214 712 637.975 572.761 637.975 401C637.975 229.239 777.214 90 948.975 90ZM1257.97 401C1257.97 230.344 1119.63 92 948.975 92C778.319 92 639.975 230.344 639.975 401C639.975 571.656 778.319 710 948.975 710C1119.63 710 1257.97 571.656 1257.97 401Z" fill="url(#paint27_radial_439_407)"/>
<path fill-rule="evenodd" clip-rule="evenodd" d="M1269.97 401C1269.97 223.717 1126.26 80 948.975 80C771.691 80 627.975 223.717 627.975 401C627.975 578.283 771.691 722 948.975 722C1126.26 722 1269.97 578.283 1269.97 401ZM948.975 82C1125.15 82 1267.97 224.821 1267.97 401C1267.97 577.179 1125.15 720 948.975 720C772.796 720 629.975 577.179 629.975 401C629.975 224.821 772.796 82 948.975 82Z" fill="url(#paint28_radial_439_407)"/>
<path fill-rule="evenodd" clip-rule="evenodd" d="M948.975 70C1131.78 70 1279.97 218.194 1279.97 401C1279.97 583.806 1131.78 732 948.975 732C766.168 732 617.975 583.806 617.975 401C617.975 218.194 766.168 70 948.975 70ZM1277.97 401C1277.97 219.298 1130.68 72 948.975 72C767.273 72 619.975 219.298 619.975 401C619.975 582.702 767.273 730 948.975 730C1130.68 730 1277.97 582.702 1277.97 401Z" fill="url(#paint29_radial_439_407)"/>
<path fill-rule="evenodd" clip-rule="evenodd" d="M1289.97 401C1289.97 212.671 1137.3 60 948.975 60C760.646 60 607.975 212.671 607.975 401C607.975 589.329 760.646 742 948.975 742C1137.3 742 1289.97 589.329 1289.97 401ZM948.975 62C1136.2 62 1287.97 213.775 1287.97 401C1287.97 588.225 1136.2 740 948.975 740C761.75 740 609.975 588.225 609.975 401C609.975 213.775 761.75 62 948.975 62Z" fill="url(#paint30_radial_439_407)"/>
<path fill-rule="evenodd" clip-rule="evenodd" d="M948.975 50C1142.83 50 1299.97 207.148 1299.97 401C1299.97 594.852 1142.83 752 948.975 752C755.123 752 597.975 594.852 597.975 401C597.975 207.148 755.123 50 948.975 50ZM1297.97 401C1297.97 208.253 1141.72 52 948.975 52C756.227 52 599.975 208.253 599.975 401C599.975 593.747 756.227 750 948.975 750C1141.72 750 1297.97 593.747 1297.97 401Z" fill="url(#paint31_radial_439_407)"/>
<path fill-rule="evenodd" clip-rule="evenodd" d="M1309.97 401C1309.97 201.625 1148.35 40 948.975 40C749.6 40 587.975 201.625 587.975 401C587.975 600.375 749.6 762 948.975 762C1148.35 762 1309.97 600.375 1309.97 401ZM948.975 42C1147.24 42 1307.97 202.73 1307.97 401C1307.97 599.27 1147.24 760 948.975 760C750.704 760 589.975 599.27 589.975 401C589.975 202.73 750.704 42 948.975 42Z" fill="url(#paint32_radial_439_407)"/>
<path fill-rule="evenodd" clip-rule="evenodd" d="M948.975 30C1153.87 30 1319.97 196.102 1319.97 401C1319.97 605.898 1153.87 772 948.975 772C744.077 772 577.975 605.898 577.975 401C577.975 196.102 744.077 30 948.975 30ZM1317.97 401C1317.97 197.207 1152.77 32 948.975 32C745.182 32 579.975 197.207 579.975 401C579.975 604.793 745.182 770 948.975 770C1152.77 770 1317.97 604.793 1317.97 401Z" fill="url(#paint33_radial_439_407)"/>
<path fill-rule="evenodd" clip-rule="evenodd" d="M1329.97 401C1329.97 190.58 1159.4 20 948.975 20C738.554 20 567.975 190.58 567.975 401C567.975 611.42 738.554 782 948.975 782C1159.4 782 1329.97 611.42 1329.97 401ZM948.975 22C1158.29 22 1327.97 191.684 1327.97 401C1327.97 610.316 1158.29 780 948.975 780C739.659 780 569.975 610.316 569.975 401C569.975 191.684 739.659 22 948.975 22Z" fill="url(#paint34_radial_439_407)"/>
<path fill-rule="evenodd" clip-rule="evenodd" d="M948.975 10C1164.92 10 1339.97 185.057 1339.97 401C1339.97 616.943 1164.92 792 948.975 792C733.031 792 557.975 616.943 557.975 401C557.975 185.057 733.031 10 948.975 10ZM1337.97 401C1337.97 186.161 1163.81 12 948.975 12C734.136 12 559.975 186.161 559.975 401C559.975 615.839 734.136 790 948.975 790C1163.81 790 1337.97 615.839 1337.97 401Z" fill="url(#paint35_radial_439_407)"/>
<path fill-rule="evenodd" clip-rule="evenodd" d="M1349.97 401C1349.97 179.534 1170.44 0 948.975 0C727.508 0 547.975 179.534 547.975 401C547.975 622.466 727.508 802 948.975 802C1170.44 802 1349.97 622.466 1349.97 401ZM948.975 2C1169.34 2 1347.97 180.638 1347.97 401C1347.97 621.362 1169.34 800 948.975 800C728.613 800 549.975 621.362 549.975 401C549.975 180.638 728.613 2 948.975 2Z" fill="url(#paint36_radial_439_407)"/>
<path fill-rule="evenodd" clip-rule="evenodd" d="M551.543 857L494.974 913.569L438.406 857L494.974 800.431L551.543 857ZM548.715 857L494.974 910.74L441.234 857L494.974 803.26L548.715 857Z" fill="url(#paint37_radial_439_407)"/>
<path fill-rule="evenodd" clip-rule="evenodd" d="M565.685 857L494.974 927.711L424.264 857L494.974 786.289L565.685 857ZM562.857 857L494.974 924.882L427.092 857L494.974 789.118L562.857 857Z" fill="url(#paint38_radial_439_407)"/>
<path fill-rule="evenodd" clip-rule="evenodd" d="M579.827 857L494.974 772.147L410.122 857L494.974 941.853L579.827 857ZM494.974 939.024L576.999 857L494.974 774.976L412.95 857L494.974 939.024Z" fill="url(#paint39_radial_439_407)"/>
<path fill-rule="evenodd" clip-rule="evenodd" d="M593.969 857L494.974 955.995L395.98 857L494.974 758.005L593.969 857ZM591.141 857L494.974 953.167L398.808 857L494.974 760.833L591.141 857Z" fill="url(#paint40_radial_439_407)"/>
<path fill-rule="evenodd" clip-rule="evenodd" d="M608.112 857L494.974 743.863L381.837 857L494.974 970.137L608.112 857ZM494.974 967.309L605.283 857L494.974 746.691L384.666 857L494.974 967.309Z" fill="url(#paint41_radial_439_407)"/>
<path fill-rule="evenodd" clip-rule="evenodd" d="M622.254 857L494.974 984.279L367.695 857L494.974 729.721L622.254 857ZM619.425 857L494.974 981.451L370.524 857L494.974 732.549L619.425 857Z" fill="url(#paint42_radial_439_407)"/>
<path fill-rule="evenodd" clip-rule="evenodd" d="M636.396 857L494.974 715.579L353.553 857L494.974 998.421L636.396 857ZM494.974 995.593L633.567 857L494.974 718.407L356.382 857L494.974 995.593Z" fill="url(#paint43_radial_439_407)"/>
<path fill-rule="evenodd" clip-rule="evenodd" d="M650.538 857L494.974 1012.56L339.411 857L494.974 701.437L650.538 857ZM647.71 857L494.974 1009.74L342.239 857L494.974 704.265L647.71 857Z" fill="url(#paint44_radial_439_407)"/>
<path fill-rule="evenodd" clip-rule="evenodd" d="M664.68 857L494.974 687.294L325.269 857L494.974 1026.71L664.68 857ZM494.974 1023.88L661.852 857L494.974 690.123L328.097 857L494.974 1023.88Z" fill="url(#paint45_radial_439_407)"/>
<path fill-rule="evenodd" clip-rule="evenodd" d="M678.822 857L494.974 1040.85L311.127 857L494.974 673.152L678.822 857ZM675.994 857L494.974 1038.02L313.955 857L494.974 675.981L675.994 857Z" fill="url(#paint46_radial_439_407)"/>
<path fill-rule="evenodd" clip-rule="evenodd" d="M692.964 857L494.974 659.01L296.985 857L494.974 1054.99L692.964 857ZM494.974 1052.16L690.136 857L494.974 661.839L299.813 857L494.974 1052.16Z" fill="url(#paint47_radial_439_407)"/>
<path fill-rule="evenodd" clip-rule="evenodd" d="M707.107 857L494.974 1069.13L282.842 857L494.974 644.868L707.107 857ZM704.278 857L494.974 1066.3L285.671 857L494.974 647.696L704.278 857Z" fill="url(#paint48_radial_439_407)"/>
<path fill-rule="evenodd" clip-rule="evenodd" d="M721.249 857L494.974 630.726L268.7 857L494.974 1083.27L721.249 857ZM494.974 1080.45L718.42 857L494.974 633.554L271.529 857L494.974 1080.45Z" fill="url(#paint49_radial_439_407)"/>
<path fill-rule="evenodd" clip-rule="evenodd" d="M735.391 857L494.974 1097.42L254.558 857L494.974 616.584L735.391 857ZM732.562 857L494.974 1094.59L257.387 857L494.974 619.412L732.562 857Z" fill="url(#paint50_radial_439_407)"/>
<path fill-rule="evenodd" clip-rule="evenodd" d="M749.533 857L494.974 602.442L240.416 857L494.974 1111.56L749.533 857ZM494.974 1108.73L746.704 857L494.974 605.27L243.244 857L494.974 1108.73Z" fill="url(#paint51_radial_439_407)"/>
<path fill-rule="evenodd" clip-rule="evenodd" d="M763.675 857L494.974 1125.7L226.274 857L494.974 588.299L763.675 857ZM760.847 857L494.974 1122.87L229.102 857L494.974 591.128L760.847 857Z" fill="url(#paint52_radial_439_407)"/>
<path fill-rule="evenodd" clip-rule="evenodd" d="M777.817 857L494.974 574.157L212.132 857L494.974 1139.84L777.817 857ZM494.974 1137.01L774.989 857L494.974 576.986L214.96 857L494.974 1137.01Z" fill="url(#paint53_radial_439_407)"/>
<path fill-rule="evenodd" clip-rule="evenodd" d="M791.959 857L494.974 1153.98L197.99 857L494.974 560.015L791.959 857ZM789.131 857L494.974 1151.16L200.818 857L494.974 562.844L789.131 857Z" fill="url(#paint54_radial_439_407)"/>
<path fill-rule="evenodd" clip-rule="evenodd" d="M806.101 857L494.974 545.873L183.847 857L494.974 1168.13L806.101 857ZM494.974 1165.3L803.273 857L494.974 548.701L186.676 857L494.974 1165.3Z" fill="url(#paint55_radial_439_407)"/>
<path fill-rule="evenodd" clip-rule="evenodd" d="M820.244 857L494.974 1182.27L169.705 857L494.974 531.731L820.244 857ZM817.415 857L494.974 1179.44L172.534 857L494.974 534.559L817.415 857Z" fill="url(#paint56_radial_439_407)"/>
<path fill-rule="evenodd" clip-rule="evenodd" d="M834.386 857L494.974 517.589L155.563 857L494.974 1196.41L834.386 857ZM494.974 1193.58L831.557 857L494.974 520.417L158.392 857L494.974 1193.58Z" fill="url(#paint57_radial_439_407)"/>
<path fill-rule="evenodd" clip-rule="evenodd" d="M848.528 857L494.974 1210.55L141.421 857L494.974 503.447L848.528 857ZM845.699 857L494.974 1207.72L144.25 857L494.974 506.275L845.699 857Z" fill="url(#paint58_radial_439_407)"/>
<path fill-rule="evenodd" clip-rule="evenodd" d="M862.67 857L494.974 489.304L127.279 857L494.974 1224.7L862.67 857ZM494.974 1221.87L859.842 857L494.974 492.133L130.107 857L494.974 1221.87Z" fill="url(#paint59_radial_439_407)"/>
<path fill-rule="evenodd" clip-rule="evenodd" d="M876.812 857L494.974 1238.84L113.137 857L494.974 475.162L876.812 857ZM873.984 857L494.974 1236.01L115.965 857L494.974 477.991L873.984 857Z" fill="url(#paint60_radial_439_407)"/>
<path fill-rule="evenodd" clip-rule="evenodd" d="M890.954 857L494.974 461.02L98.9947 857L494.974 1252.98L890.954 857ZM494.974 1250.15L888.126 857L494.974 463.849L101.823 857L494.974 1250.15Z" fill="url(#paint61_radial_439_407)"/>
<path fill-rule="evenodd" clip-rule="evenodd" d="M905.096 857L494.974 1267.12L84.8525 857L494.974 446.878L905.096 857ZM902.268 857L494.974 1264.29L87.681 857L494.974 449.706L902.268 857Z" fill="url(#paint62_radial_439_407)"/>
<path fill-rule="evenodd" clip-rule="evenodd" d="M919.239 857L494.974 432.736L70.7104 857L494.974 1281.26L919.239 857ZM494.974 1278.44L916.41 857L494.974 435.564L73.5388 857L494.974 1278.44Z" fill="url(#paint63_radial_439_407)"/>
<path fill-rule="evenodd" clip-rule="evenodd" d="M933.381 857L494.974 1295.41L56.5683 857L494.974 418.594L933.381 857ZM930.552 857L494.974 1292.58L59.3967 857L494.974 421.422L930.552 857Z" fill="url(#paint64_radial_439_407)"/>
<path fill-rule="evenodd" clip-rule="evenodd" d="M947.523 857L494.974 404.452L42.4261 857L494.974 1309.55L947.523 857ZM494.974 1306.72L944.694 857L494.974 407.28L45.2546 857L494.974 1306.72Z" fill="url(#paint65_radial_439_407)"/>
<path fill-rule="evenodd" clip-rule="evenodd" d="M961.665 857L494.974 1323.69L28.284 857L494.974 390.31L961.665 857ZM958.837 857L494.974 1320.86L31.1124 857L494.974 393.138L958.837 857Z" fill="url(#paint66_radial_439_407)"/>
<path fill-rule="evenodd" clip-rule="evenodd" d="M975.807 857L494.974 376.167L14.1419 857L494.974 1337.83L975.807 857ZM494.974 1335L972.979 857L494.974 378.996L16.9703 857L494.974 1335Z" fill="url(#paint67_radial_439_407)"/>
<path fill-rule="evenodd" clip-rule="evenodd" d="M989.949 857L494.974 1351.97L-0.000244141 857L494.974 362.025L989.949 857ZM987.121 857L494.974 1349.15L2.82819 857L494.974 364.854L987.121 857Z" fill="url(#paint68_radial_439_407)"/>
<defs>
<radialGradient id="paint0_radial_439_407" cx="0" cy="0" r="1" gradientUnits="userSpaceOnUse" gradientTransform="translate(949 802) rotate(-90) scale(401)">
<stop stop-color="#2E2F30"/>
<stop offset="1"/>
</radialGradient>
<radialGradient id="paint1_radial_439_407" cx="0" cy="0" r="1" gradientUnits="userSpaceOnUse" gradientTransform="translate(949 802) rotate(-90) scale(401)">
<stop stop-color="#2E2F30"/>
<stop offset="1"/>
</radialGradient>
<radialGradient id="paint2_radial_439_407" cx="0" cy="0" r="1" gradientUnits="userSpaceOnUse" gradientTransform="translate(949 802) rotate(-90) scale(401)">
<stop stop-color="#2E2F30"/>
<stop offset="1"/>
</radialGradient>
<radialGradient id="paint3_radial_439_407" cx="0" cy="0" r="1" gradientUnits="userSpaceOnUse" gradientTransform="translate(949 802) rotate(-90) scale(401)">
<stop stop-color="#2E2F30"/>
<stop offset="1"/>
</radialGradient>
<radialGradient id="paint4_radial_439_407" cx="0" cy="0" r="1" gradientUnits="userSpaceOnUse" gradientTransform="translate(949 802) rotate(-90) scale(401)">
<stop stop-color="#2E2F30"/>
<stop offset="1"/>
</radialGradient>
<radialGradient id="paint5_radial_439_407" cx="0" cy="0" r="1" gradientUnits="userSpaceOnUse" gradientTransform="translate(949 802) rotate(-90) scale(401)">
<stop stop-color="#2E2F30"/>
<stop offset="1"/>
</radialGradient>
<radialGradient id="paint6_radial_439_407" cx="0" cy="0" r="1" gradientUnits="userSpaceOnUse" gradientTransform="translate(949 802) rotate(-90) scale(401)">
<stop stop-color="#2E2F30"/>
<stop offset="1"/>
</radialGradient>
<radialGradient id="paint7_radial_439_407" cx="0" cy="0" r="1" gradientUnits="userSpaceOnUse" gradientTransform="translate(949 802) rotate(-90) scale(401)">
<stop stop-color="#2E2F30"/>
<stop offset="1"/>
</radialGradient>
<radialGradient id="paint8_radial_439_407" cx="0" cy="0" r="1" gradientUnits="userSpaceOnUse" gradientTransform="translate(949 802) rotate(-90) scale(401)">
<stop stop-color="#2E2F30"/>
<stop offset="1"/>
</radialGradient>
<radialGradient id="paint9_radial_439_407" cx="0" cy="0" r="1" gradientUnits="userSpaceOnUse" gradientTransform="translate(949 802) rotate(-90) scale(401)">
<stop stop-color="#2E2F30"/>
<stop offset="1"/>
</radialGradient>
<radialGradient id="paint10_radial_439_407" cx="0" cy="0" r="1" gradientUnits="userSpaceOnUse" gradientTransform="translate(949 802) rotate(-90) scale(401)">
<stop stop-color="#2E2F30"/>
<stop offset="1"/>
</radialGradient>
<radialGradient id="paint11_radial_439_407" cx="0" cy="0" r="1" gradientUnits="userSpaceOnUse" gradientTransform="translate(949 802) rotate(-90) scale(401)">
<stop stop-color="#2E2F30"/>
<stop offset="1"/>
</radialGradient>
<radialGradient id="paint12_radial_439_407" cx="0" cy="0" r="1" gradientUnits="userSpaceOnUse" gradientTransform="translate(949 802) rotate(-90) scale(401)">
<stop stop-color="#2E2F30"/>
<stop offset="1"/>
</radialGradient>
<radialGradient id="paint13_radial_439_407" cx="0" cy="0" r="1" gradientUnits="userSpaceOnUse" gradientTransform="translate(949 802) rotate(-90) scale(401)">
<stop stop-color="#2E2F30"/>
<stop offset="1"/>
</radialGradient>
<radialGradient id="paint14_radial_439_407" cx="0" cy="0" r="1" gradientUnits="userSpaceOnUse" gradientTransform="translate(949 802) rotate(-90) scale(401)">
<stop stop-color="#2E2F30"/>
<stop offset="1"/>
</radialGradient>
<radialGradient id="paint15_radial_439_407" cx="0" cy="0" r="1" gradientUnits="userSpaceOnUse" gradientTransform="translate(949 802) rotate(-90) scale(401)">
<stop stop-color="#2E2F30"/>
<stop offset="1"/>
</radialGradient>
<radialGradient id="paint16_radial_439_407" cx="0" cy="0" r="1" gradientUnits="userSpaceOnUse" gradientTransform="translate(949 802) rotate(-90) scale(401)">
<stop stop-color="#2E2F30"/>
<stop offset="1"/>
</radialGradient>
<radialGradient id="paint17_radial_439_407" cx="0" cy="0" r="1" gradientUnits="userSpaceOnUse" gradientTransform="translate(949 802) rotate(-90) scale(401)">
<stop stop-color="#2E2F30"/>
<stop offset="1"/>
</radialGradient>
<radialGradient id="paint18_radial_439_407" cx="0" cy="0" r="1" gradientUnits="userSpaceOnUse" gradientTransform="translate(949 802) rotate(-90) scale(401)">
<stop stop-color="#2E2F30"/>
<stop offset="1"/>
</radialGradient>
<radialGradient id="paint19_radial_439_407" cx="0" cy="0" r="1" gradientUnits="userSpaceOnUse" gradientTransform="translate(949 802) rotate(-90) scale(401)">
<stop stop-color="#2E2F30"/>
<stop offset="1"/>
</radialGradient>
<radialGradient id="paint20_radial_439_407" cx="0" cy="0" r="1" gradientUnits="userSpaceOnUse" gradientTransform="translate(949 802) rotate(-90) scale(401)">
<stop stop-color="#2E2F30"/>
<stop offset="1"/>
</radialGradient>
<radialGradient id="paint21_radial_439_407" cx="0" cy="0" r="1" gradientUnits="userSpaceOnUse" gradientTransform="translate(949 802) rotate(-90) scale(401)">
<stop stop-color="#2E2F30"/>
<stop offset="1"/>
</radialGradient>
<radialGradient id="paint22_radial_439_407" cx="0" cy="0" r="1" gradientUnits="userSpaceOnUse" gradientTransform="translate(949 802) rotate(-90) scale(401)">
<stop stop-color="#2E2F30"/>
<stop offset="1"/>
</radialGradient>
<radialGradient id="paint23_radial_439_407" cx="0" cy="0" r="1" gradientUnits="userSpaceOnUse" gradientTransform="translate(949 802) rotate(-90) scale(401)">
<stop stop-color="#2E2F30"/>
<stop offset="1"/>
</radialGradient>
<radialGradient id="paint24_radial_439_407" cx="0" cy="0" r="1" gradientUnits="userSpaceOnUse" gradientTransform="translate(949 802) rotate(-90) scale(401)">
<stop stop-color="#2E2F30"/>
<stop offset="1"/>
</radialGradient>
<radialGradient id="paint25_radial_439_407" cx="0" cy="0" r="1" gradientUnits="userSpaceOnUse" gradientTransform="translate(949 802) rotate(-90) scale(401)">
<stop stop-color="#2E2F30"/>
<stop offset="1"/>
</radialGradient>
<radialGradient id="paint26_radial_439_407" cx="0" cy="0" r="1" gradientUnits="userSpaceOnUse" gradientTransform="translate(949 802) rotate(-90) scale(401)">
<stop stop-color="#2E2F30"/>
<stop offset="1"/>
</radialGradient>
<radialGradient id="paint27_radial_439_407" cx="0" cy="0" r="1" gradientUnits="userSpaceOnUse" gradientTransform="translate(949 802) rotate(-90) scale(401)">
<stop stop-color="#2E2F30"/>
<stop offset="1"/>
</radialGradient>
<radialGradient id="paint28_radial_439_407" cx="0" cy="0" r="1" gradientUnits="userSpaceOnUse" gradientTransform="translate(949 802) rotate(-90) scale(401)">
<stop stop-color="#2E2F30"/>
<stop offset="1"/>
</radialGradient>
<radialGradient id="paint29_radial_439_407" cx="0" cy="0" r="1" gradientUnits="userSpaceOnUse" gradientTransform="translate(949 802) rotate(-90) scale(401)">
<stop stop-color="#2E2F30"/>
<stop offset="1"/>
</radialGradient>
<radialGradient id="paint30_radial_439_407" cx="0" cy="0" r="1" gradientUnits="userSpaceOnUse" gradientTransform="translate(949 802) rotate(-90) scale(401)">
<stop stop-color="#2E2F30"/>
<stop offset="1"/>
</radialGradient>
<radialGradient id="paint31_radial_439_407" cx="0" cy="0" r="1" gradientUnits="userSpaceOnUse" gradientTransform="translate(949 802) rotate(-90) scale(401)">
<stop stop-color="#2E2F30"/>
<stop offset="1"/>
</radialGradient>
<radialGradient id="paint32_radial_439_407" cx="0" cy="0" r="1" gradientUnits="userSpaceOnUse" gradientTransform="translate(949 802) rotate(-90) scale(401)">
<stop stop-color="#2E2F30"/>
<stop offset="1"/>
</radialGradient>
<radialGradient id="paint33_radial_439_407" cx="0" cy="0" r="1" gradientUnits="userSpaceOnUse" gradientTransform="translate(949 802) rotate(-90) scale(401)">
<stop stop-color="#2E2F30"/>
<stop offset="1"/>
</radialGradient>
<radialGradient id="paint34_radial_439_407" cx="0" cy="0" r="1" gradientUnits="userSpaceOnUse" gradientTransform="translate(949 802) rotate(-90) scale(401)">
<stop stop-color="#2E2F30"/>
<stop offset="1"/>
</radialGradient>
<radialGradient id="paint35_radial_439_407" cx="0" cy="0" r="1" gradientUnits="userSpaceOnUse" gradientTransform="translate(949 802) rotate(-90) scale(401)">
<stop stop-color="#2E2F30"/>
<stop offset="1"/>
</radialGradient>
<radialGradient id="paint36_radial_439_407" cx="0" cy="0" r="1" gradientUnits="userSpaceOnUse" gradientTransform="translate(949 802) rotate(-90) scale(401)">
<stop stop-color="#2E2F30"/>
<stop offset="1"/>
</radialGradient>
<radialGradient id="paint37_radial_439_407" cx="0" cy="0" r="1" gradientUnits="userSpaceOnUse" gradientTransform="translate(495 362) rotate(90) scale(495 495.025)">
<stop stop-color="#2E2F30"/>
<stop offset="1"/>
</radialGradient>
<radialGradient id="paint38_radial_439_407" cx="0" cy="0" r="1" gradientUnits="userSpaceOnUse" gradientTransform="translate(495 362) rotate(90) scale(495 495.025)">
<stop stop-color="#2E2F30"/>
<stop offset="1"/>
</radialGradient>
<radialGradient id="paint39_radial_439_407" cx="0" cy="0" r="1" gradientUnits="userSpaceOnUse" gradientTransform="translate(495 362) rotate(90) scale(495 495.025)">
<stop stop-color="#2E2F30"/>
<stop offset="1"/>
</radialGradient>
<radialGradient id="paint40_radial_439_407" cx="0" cy="0" r="1" gradientUnits="userSpaceOnUse" gradientTransform="translate(495 362) rotate(90) scale(495 495.025)">
<stop stop-color="#2E2F30"/>
<stop offset="1"/>
</radialGradient>
<radialGradient id="paint41_radial_439_407" cx="0" cy="0" r="1" gradientUnits="userSpaceOnUse" gradientTransform="translate(495 362) rotate(90) scale(495 495.025)">
<stop stop-color="#2E2F30"/>
<stop offset="1"/>
</radialGradient>
<radialGradient id="paint42_radial_439_407" cx="0" cy="0" r="1" gradientUnits="userSpaceOnUse" gradientTransform="translate(495 362) rotate(90) scale(495 495.025)">
<stop stop-color="#2E2F30"/>
<stop offset="1"/>
</radialGradient>
<radialGradient id="paint43_radial_439_407" cx="0" cy="0" r="1" gradientUnits="userSpaceOnUse" gradientTransform="translate(495 362) rotate(90) scale(495 495.025)">
<stop stop-color="#2E2F30"/>
<stop offset="1"/>
</radialGradient>
<radialGradient id="paint44_radial_439_407" cx="0" cy="0" r="1" gradientUnits="userSpaceOnUse" gradientTransform="translate(495 362) rotate(90) scale(495 495.025)">
<stop stop-color="#2E2F30"/>
<stop offset="1"/>
</radialGradient>
<radialGradient id="paint45_radial_439_407" cx="0" cy="0" r="1" gradientUnits="userSpaceOnUse" gradientTransform="translate(495 362) rotate(90) scale(495 495.025)">
<stop stop-color="#2E2F30"/>
<stop offset="1"/>
</radialGradient>
<radialGradient id="paint46_radial_439_407" cx="0" cy="0" r="1" gradientUnits="userSpaceOnUse" gradientTransform="translate(495 362) rotate(90) scale(495 495.025)">
<stop stop-color="#2E2F30"/>
<stop offset="1"/>
</radialGradient>
<radialGradient id="paint47_radial_439_407" cx="0" cy="0" r="1" gradientUnits="userSpaceOnUse" gradientTransform="translate(495 362) rotate(90) scale(495 495.025)">
<stop stop-color="#2E2F30"/>
<stop offset="1"/>
</radialGradient>
<radialGradient id="paint48_radial_439_407" cx="0" cy="0" r="1" gradientUnits="userSpaceOnUse" gradientTransform="translate(495 362) rotate(90) scale(495 495.025)">
<stop stop-color="#2E2F30"/>
<stop offset="1"/>
</radialGradient>
<radialGradient id="paint49_radial_439_407" cx="0" cy="0" r="1" gradientUnits="userSpaceOnUse" gradientTransform="translate(495 362) rotate(90) scale(495 495.025)">
<stop stop-color="#2E2F30"/>
<stop offset="1"/>
</radialGradient>
<radialGradient id="paint50_radial_439_407" cx="0" cy="0" r="1" gradientUnits="userSpaceOnUse" gradientTransform="translate(495 362) rotate(90) scale(495 495.025)">
<stop stop-color="#2E2F30"/>
<stop offset="1"/>
</radialGradient>
<radialGradient id="paint51_radial_439_407" cx="0" cy="0" r="1" gradientUnits="userSpaceOnUse" gradientTransform="translate(495 362) rotate(90) scale(495 495.025)">
<stop stop-color="#2E2F30"/>
<stop offset="1"/>
</radialGradient>
<radialGradient id="paint52_radial_439_407" cx="0" cy="0" r="1" gradientUnits="userSpaceOnUse" gradientTransform="translate(495 362) rotate(90) scale(495 495.025)">
<stop stop-color="#2E2F30"/>
<stop offset="1"/>
</radialGradient>
<radialGradient id="paint53_radial_439_407" cx="0" cy="0" r="1" gradientUnits="userSpaceOnUse" gradientTransform="translate(495 362) rotate(90) scale(495 495.025)">
<stop stop-color="#2E2F30"/>
<stop offset="1"/>
</radialGradient>
<radialGradient id="paint54_radial_439_407" cx="0" cy="0" r="1" gradientUnits="userSpaceOnUse" gradientTransform="translate(495 362) rotate(90) scale(495 495.025)">
<stop stop-color="#2E2F30"/>
<stop offset="1"/>
</radialGradient>
<radialGradient id="paint55_radial_439_407" cx="0" cy="0" r="1" gradientUnits="userSpaceOnUse" gradientTransform="translate(495 362) rotate(90) scale(495 495.025)">
<stop stop-color="#2E2F30"/>
<stop offset="1"/>
</radialGradient>
<radialGradient id="paint56_radial_439_407" cx="0" cy="0" r="1" gradientUnits="userSpaceOnUse" gradientTransform="translate(495 362) rotate(90) scale(495 495.025)">
<stop stop-color="#2E2F30"/>
<stop offset="1"/>
</radialGradient>
<radialGradient id="paint57_radial_439_407" cx="0" cy="0" r="1" gradientUnits="userSpaceOnUse" gradientTransform="translate(495 362) rotate(90) scale(495 495.025)">
<stop stop-color="#2E2F30"/>
<stop offset="1"/>
</radialGradient>
<radialGradient id="paint58_radial_439_407" cx="0" cy="0" r="1" gradientUnits="userSpaceOnUse" gradientTransform="translate(495 362) rotate(90) scale(495 495.025)">
<stop stop-color="#2E2F30"/>
<stop offset="1"/>
</radialGradient>
<radialGradient id="paint59_radial_439_407" cx="0" cy="0" r="1" gradientUnits="userSpaceOnUse" gradientTransform="translate(495 362) rotate(90) scale(495 495.025)">
<stop stop-color="#2E2F30"/>
<stop offset="1"/>
</radialGradient>
<radialGradient id="paint60_radial_439_407" cx="0" cy="0" r="1" gradientUnits="userSpaceOnUse" gradientTransform="translate(495 362) rotate(90) scale(495 495.025)">
<stop stop-color="#2E2F30"/>
<stop offset="1"/>
</radialGradient>
<radialGradient id="paint61_radial_439_407" cx="0" cy="0" r="1" gradientUnits="userSpaceOnUse" gradientTransform="translate(495 362) rotate(90) scale(495 495.025)">
<stop stop-color="#2E2F30"/>
<stop offset="1"/>
</radialGradient>
<radialGradient id="paint62_radial_439_407" cx="0" cy="0" r="1" gradientUnits="userSpaceOnUse" gradientTransform="translate(495 362) rotate(90) scale(495 495.025)">
<stop stop-color="#2E2F30"/>
<stop offset="1"/>
</radialGradient>
<radialGradient id="paint63_radial_439_407" cx="0" cy="0" r="1" gradientUnits="userSpaceOnUse" gradientTransform="translate(495 362) rotate(90) scale(495 495.025)">
<stop stop-color="#2E2F30"/>
<stop offset="1"/>
</radialGradient>
<radialGradient id="paint64_radial_439_407" cx="0" cy="0" r="1" gradientUnits="userSpaceOnUse" gradientTransform="translate(495 362) rotate(90) scale(495 495.025)">
<stop stop-color="#2E2F30"/>
<stop offset="1"/>
</radialGradient>
<radialGradient id="paint65_radial_439_407" cx="0" cy="0" r="1" gradientUnits="userSpaceOnUse" gradientTransform="translate(495 362) rotate(90) scale(495 495.025)">
<stop stop-color="#2E2F30"/>
<stop offset="1"/>
</radialGradient>
<radialGradient id="paint66_radial_439_407" cx="0" cy="0" r="1" gradientUnits="userSpaceOnUse" gradientTransform="translate(495 362) rotate(90) scale(495 495.025)">
<stop stop-color="#2E2F30"/>
<stop offset="1"/>
</radialGradient>
<radialGradient id="paint67_radial_439_407" cx="0" cy="0" r="1" gradientUnits="userSpaceOnUse" gradientTransform="translate(495 362) rotate(90) scale(495 495.025)">
<stop stop-color="#2E2F30"/>
<stop offset="1"/>
</radialGradient>
<radialGradient id="paint68_radial_439_407" cx="0" cy="0" r="1" gradientUnits="userSpaceOnUse" gradientTransform="translate(495 362) rotate(90) scale(495 495.025)">
<stop stop-color="#2E2F30"/>
<stop offset="1"/>
</radialGradient>
</defs>
</svg>
