<svg width="80" height="80" viewBox="0 0 80 80" fill="none" xmlns="http://www.w3.org/2000/svg">
<path fill-rule="evenodd" clip-rule="evenodd" d="M21.6441 80H24.189H55.811H58.3559H71.6419H73.2286H79H80V79V73.2286V71.6419V58.3559V55.811V24.189V21.6441V8.35811V6.77141V1V0H79H73.2286H71.6419H58.3559H55.811H24.189H21.6441H8.35811H6.77141H1H0V1V6.77141V8.35811V21.6441V24.189V55.811V58.3559V71.6419V73.2286V79V80H1H6.77141H8.35811H21.6441ZM79 79V74.3957C77.5624 76.0245 76.0245 77.5624 74.3957 79H79ZM72.8651 79C75.0793 77.1322 77.1322 75.0793 79 72.8651V60.3909C74.841 68.3293 68.3293 74.841 60.3909 79H72.8651ZM79 1V5.60428C77.5624 3.97555 76.0245 2.43755 74.3957 1H79ZM79 7.1349C77.1322 4.92072 75.0793 2.86779 72.8651 1H60.3909C68.3293 5.15904 74.841 11.6707 79 19.6091V7.1349ZM1 1H5.60428C3.97554 2.43755 2.43755 3.97554 1 5.60428V1ZM7.1349 1C4.92072 2.86779 2.86779 4.92072 1 7.1349V19.6091C5.15904 11.6707 11.6707 5.15904 19.6091 1H7.1349ZM1 79V74.3957C2.43755 76.0245 3.97555 77.5624 5.60428 79H1ZM1 72.8651C2.86779 75.0793 4.92072 77.1322 7.1349 79H19.6091C11.6707 74.841 5.15904 68.3293 1 60.3909V72.8651ZM58.1352 79H21.8648C12.6898 74.7263 5.27369 67.3102 1 58.1352V21.8648C5.27369 12.6898 12.6898 5.27369 21.8648 1H58.1352C67.3102 5.27369 74.7263 12.6898 79 21.8648V58.1352C74.7263 67.3102 67.3102 74.7263 58.1352 79ZM51 40C51 46.0751 46.0751 51 40 51C33.9249 51 29 46.0751 29 40C29 33.9249 33.9249 29 40 29C46.0751 29 51 33.9249 51 40ZM52 40C52 46.6274 46.6274 52 40 52C33.3726 52 28 46.6274 28 40C28 33.3726 33.3726 28 40 28C46.6274 28 52 33.3726 52 40ZM40 59C50.4934 59 59 50.4934 59 40C59 29.5066 50.4934 21 40 21C29.5066 21 21 29.5066 21 40C21 50.4934 29.5066 59 40 59ZM40 60C51.0457 60 60 51.0457 60 40C60 28.9543 51.0457 20 40 20C28.9543 20 20 28.9543 20 40C20 51.0457 28.9543 60 40 60ZM67 40C67 54.9117 54.9117 67 40 67C25.0883 67 13 54.9117 13 40C13 25.0883 25.0883 13 40 13C54.9117 13 67 25.0883 67 40ZM68 40C68 55.464 55.464 68 40 68C24.536 68 12 55.464 12 40C12 24.536 24.536 12 40 12C55.464 12 68 24.536 68 40ZM40 75C59.33 75 75 59.33 75 40C75 20.67 59.33 5 40 5C20.67 5 5 20.67 5 40C5 59.33 20.67 75 40 75ZM40 76C59.8822 76 76 59.8822 76 40C76 20.1177 59.8822 4 40 4C20.1177 4 4 20.1177 4 40C4 59.8822 20.1177 76 40 76Z" fill="#707477"/>
</svg>
