<svg width="50" height="50" viewBox="0 0 50 50" fill="none" xmlns="http://www.w3.org/2000/svg">
<path fill-rule="evenodd" clip-rule="evenodd" d="M0 50H50V0H0V50ZM1 28.9142V34.5L7 28.5L4.20711 25.7071L1 28.9142ZM7.70711 29.2071L1 35.9142V39.0858L10.9142 49H16.5L5 37.5L10.5 32L7.70711 29.2071ZM1 46.0858V40.5L9.5 49H3.91422L1 46.0858ZM46.0858 49H40.5L49 40.5V46.0858L46.0858 49ZM39.0858 49L49 39.0858V35.9142L42.2929 29.2071L39.5 32L45 37.5L33.5 49H39.0858ZM49 28.9142V34.5L43 28.5L45.7929 25.7071L49 28.9142ZM45.0858 25L42.2929 27.7929L39.5 25L42.2929 22.2071L45.0858 25ZM41.5858 21.5L38.7929 24.2929L36 21.5L38.7929 18.7071L41.5858 21.5ZM38.0858 25L35.2929 22.2071L32.5 25L35.2929 27.7929L38.0858 25ZM38.0858 18L35.2929 20.7929L32.5 18L35.2929 15.2071L38.0858 18ZM34.5858 21.5L31.7929 18.7071L29 21.5L31.7929 24.2929L34.5858 21.5ZM28.2929 22.2071L31.0858 25L28.2929 27.7929L25.5 25L28.2929 22.2071ZM29 28.5L31.7929 25.7071L34.5858 28.5L31.7929 31.2929L29 28.5ZM32.5 32L35.2929 29.2071L38.0858 32L35.2929 34.7929L32.5 32ZM41.5858 28.5L38.7929 31.2929L36 28.5L38.7929 25.7071L41.5858 28.5ZM36 35.5L38.7929 32.7071L43.5858 37.5L32.0858 49H26.5L38 37.5L36 35.5ZM23.5 49H17.9142L6.41422 37.5L11.2071 32.7071L14 35.5L12 37.5L23.5 49ZM14.7071 34.7929L11.9142 32L14.7071 29.2071L17.5 32L14.7071 34.7929ZM18.2071 31.2929L15.4142 28.5L18.2071 25.7071L21 28.5L18.2071 31.2929ZM14.7071 27.7929L17.5 25L14.7071 22.2071L11.9142 25L14.7071 27.7929ZM21.7071 27.7929L18.9142 25L21.7071 22.2071L24.5 25L21.7071 27.7929ZM18.2071 24.2929L21 21.5L18.2071 18.7071L15.4142 21.5L18.2071 24.2929ZM14.7071 15.2071L17.5 18L14.7071 20.7929L11.9142 18L14.7071 15.2071ZM11.2071 18.7071L14 21.5L11.2071 24.2929L8.41422 21.5L11.2071 18.7071ZM7.70711 22.2071L10.5 25L7.70711 27.7929L4.91422 25L7.70711 22.2071ZM11.2071 31.2929L8.41422 28.5L11.2071 25.7071L14 28.5L11.2071 31.2929ZM7 21.5L4.20711 24.2929L1 21.0858V15.5L7 21.5ZM10.5 18L7.70711 20.7929L1 14.0858V10.9142L10.9142 1H16.5L5 12.5L10.5 18ZM14 14.5L11.2071 17.2929L6.41421 12.5L17.9142 1H23.5L12 12.5L14 14.5ZM24.9142 49H25.0858L36.5858 37.5L25 25.9142L13.4142 37.5L24.9142 49ZM38.7929 17.2929L36 14.5L38 12.5L26.5 1H32.0858L43.5858 12.5L38.7929 17.2929ZM42.2929 20.7929L39.5 18L45 12.5L33.5 1H39.0858L49 10.9142V14.0858L42.2929 20.7929ZM45.7929 24.2929L43 21.5L49 15.5V21.0858L45.7929 24.2929ZM49 27.5L46.5 25L49 22.5V27.5ZM47.5 49L49 47.5V49H47.5ZM1 47.5L2.5 49H1V47.5ZM1 27.5L3.5 25L1 22.5V27.5ZM1 9.5V3.91421L3.91421 1H9.5L1 9.5ZM49 9.5V3.91422L46.0858 1H40.5L49 9.5ZM47.5 1L49 2.5V1H47.5ZM24.9142 1H25.0858L36.5858 12.5L25 24.0858L13.4142 12.5L24.9142 1ZM2.5 1L1 2.5V1H2.5Z" fill="#707477"/>
</svg>
