<svg width="110" height="110" viewBox="0 0 110 110" fill="none" xmlns="http://www.w3.org/2000/svg">
<g clip-path="url(#clip0_455_1075)">
<path d="M0 0H110V90L90 110H0V0Z" fill="#2A2A2B"/>
<path d="M18.8 46.112V28.688L22.688 24.8H35.576V29.444H24.056V45.356H35.936V50H22.688L18.8 46.112Z" fill="white"/>
<path d="M38.8056 50V24.8H56.3736V29.12H43.9176V35.024H54.5736V39.2H43.9176V45.68H56.7336V50H38.8056Z" fill="white"/>
<path d="M59.6884 50V24.8H76.9684V29.408H64.8004V37.184H76.2484V41.648H64.8004V50H59.6884Z" fill="white"/>
<path d="M79.6512 50.144V46.04L83.2152 45.86V28.94L79.6512 28.76V24.656L85.7712 24.944L91.8912 24.656V28.76L88.3272 28.94V45.86L91.8912 46.04V50.144L85.7712 49.856L79.6512 50.144Z" fill="white"/>
<path d="M18.872 86V60.8H23.984V81.68H32.48V75.92H37.088V86H18.872Z" fill="white"/>
<path d="M38.5977 86L44.4657 60.8H55.2657L61.1337 86H55.7697L54.5097 80.24H45.2217L43.9617 86H38.5977ZM45.9777 76.388H53.7537L51.2337 64.94H48.4977L45.9777 76.388Z" fill="white"/>
<path d="M68.6324 71.132H77.9204V64.976H68.6324V71.132ZM68.6324 81.824H78.5684V74.876H68.6324V81.824ZM83.1044 64.544V70.916L81.1244 72.608L83.8244 74.912V82.256L80.0804 86H63.5204V60.8H79.3604L83.1044 64.544Z" fill="white"/>
</g>
<defs>
<clipPath id="clip0_455_1075">
<rect width="110" height="110" fill="white"/>
</clipPath>
</defs>
</svg>
