<svg width="110" height="110" viewBox="0 0 110 110" fill="none" xmlns="http://www.w3.org/2000/svg">
<g clip-path="url(#clip0_455_1075)">
<path d="M0 0H110V90L90 110H0V0Z" fill="#2A2A2B"/>
<path d="M21.984 45.536H30.948V29.264H21.984V45.536ZM16.872 50V24.8H32.172L36.06 28.688V46.112L32.172 50H16.872Z" fill="white"/>
<path d="M39.7236 50V24.8H57.2916V29.12H44.8356V35.024H55.4916V39.2H44.8356V45.68H57.6516V50H39.7236Z" fill="white"/>
<path d="M60.6064 50V24.8H77.8864V29.408H65.7184V37.184H77.1664V41.648H65.7184V50H60.6064Z" fill="white"/>
<path d="M80.5692 50.144V46.04L84.1332 45.86V28.94L80.5692 28.76V24.656L86.6892 24.944L92.8092 24.656V28.76L89.2452 28.94V45.86L92.8092 46.04V50.144L86.6892 49.856L80.5692 50.144Z" fill="white"/>
<path d="M16.872 86V60.8H21.984V81.68H30.48V75.92H35.088V86H16.872Z" fill="white"/>
<path d="M36.5978 86L42.4658 60.8H53.2658L59.1338 86H53.7698L52.5098 80.24H43.2218L41.9618 86H36.5978ZM43.9778 76.388H51.7538L49.2338 64.94H46.4978L43.9778 76.388Z" fill="white"/>
<path d="M66.6324 71.132H75.9204V64.976H66.6324V71.132ZM66.6324 81.824H76.5684V74.876H66.6324V81.824ZM81.1044 64.544V70.916L79.1244 72.608L81.8244 74.912V82.256L78.0804 86H61.5204V60.8H77.3604L81.1044 64.544Z" fill="white"/>
</g>
<defs>
<clipPath id="clip0_455_1075">
<rect width="110" height="110" fill="white"/>
</clipPath>
</defs>
</svg>
