<svg width="80" height="80" viewBox="0 0 80 80" fill="none" xmlns="http://www.w3.org/2000/svg">
<path fill-rule="evenodd" clip-rule="evenodd" d="M0 80H80V0H0V80ZM1 49.9142V58.5L14.5 45L10.2071 40.7071L1 49.9142ZM1 69.0858V60.5L19.5 79H10.9142L1 69.0858ZM79 69.0858L69.0858 79H60.5L79 60.5V69.0858ZM79 58.5V49.9142L69.7929 40.7071L65.5 45L79 58.5ZM79 31.5V48.5L70.5 40L79 31.5ZM79 30.0858L69.7929 39.2929L65.5 35L79 21.5V30.0858ZM78.5858 20.5L64.7929 34.2929L60.5 30L70 20.5L50.5 1H59.0858L78.5858 20.5ZM64.0858 35L59.7929 30.7071L55.5 35L59.7929 39.2929L64.0858 35ZM68.5858 20.5L59.7929 29.2929L55.5 25L60 20.5L40.5 1H49.0858L68.5858 20.5ZM59.0858 30L54.7929 25.7071L50.5 30L54.7929 34.2929L59.0858 30ZM45.5 35L49.7929 30.7071L54.0858 35L49.7929 39.2929L45.5 35ZM50.5 40L54.7929 35.7071L59.0858 40L54.7929 44.2929L50.5 40ZM55.5 45L59.7929 40.7071L64.0858 45L59.7929 49.2929L55.5 45ZM69.0858 40L64.7929 44.2929L60.5 40L64.7929 35.7071L69.0858 40ZM78.5858 59.5L64.7929 45.7071L60.5 50L70 59.5L50.5 79H59.0858L78.5858 59.5ZM54.7929 45.7071L59.0858 50L54.7929 54.2929L50.5 50L54.7929 45.7071ZM55.5 55L59.7929 50.7071L68.5858 59.5L49.0858 79H40.5L60 59.5L55.5 55ZM39.5 79H30.9142L11.4142 59.5L20.2071 50.7071L24.5 55L20 59.5L39.5 79ZM25.2071 54.2929L20.9142 50L25.2071 45.7071L29.5 50L25.2071 54.2929ZM20.2071 49.2929L24.5 45L20.2071 40.7071L15.9142 45L20.2071 49.2929ZM30.2071 49.2929L25.9142 45L30.2071 40.7071L34.5 45L30.2071 49.2929ZM25.2071 44.2929L29.5 40L25.2071 35.7071L20.9142 40L25.2071 44.2929ZM35.2071 44.2929L30.9142 40L35.2071 35.7071L39.5 40L35.2071 44.2929ZM30.2071 39.2929L34.5 35L30.2071 30.7071L25.9142 35L30.2071 39.2929ZM25.2071 25.7071L29.5 30L25.2071 34.2929L20.9142 30L25.2071 25.7071ZM20.2071 30.7071L24.5 35L20.2071 39.2929L15.9142 35L20.2071 30.7071ZM15.2071 35.7071L19.5 40L15.2071 44.2929L10.9142 40L15.2071 35.7071ZM14.5 35L10.2071 39.2929L1 30.0858V21.5L14.5 35ZM19.5 30L15.2071 34.2929L1.41421 20.5L20.9142 1H29.5L10 20.5L19.5 30ZM24.5 25L20.2071 29.2929L11.4142 20.5L30.9142 1H39.5L20 20.5L24.5 25ZM40.5 40L44.7929 35.7071L49.0858 40L44.7929 44.2929L40.5 40ZM45.5 45L49.7929 40.7071L54.0858 45L49.7929 49.2929L45.5 45ZM19.5 50L15.2071 45.7071L1.41421 59.5L20.9142 79H29.5L10 59.5L19.5 50ZM70.5 79L79 70.5V79H70.5ZM1 70.5L9.49999 79H1V70.5ZM1 48.5L9.5 40L1 31.5V48.5ZM1 19.5V10.9142L10.9142 1H19.5L1 19.5ZM60.5 1L79 19.5V10.9142L69.0858 1H60.5ZM70.5 1L79 9.5V1H70.5ZM9.5 1L1 9.5V1H9.5ZM58.5858 20.5L40 39.0858L21.4142 20.5L40 1.91421L58.5858 20.5ZM40 78.0858L58.5858 59.5L40 40.9142L21.4142 59.5L40 78.0858Z" fill="#707477"/>
</svg>
