<svg width="111" height="40" viewBox="0 0 111 40" fill="none" xmlns="http://www.w3.org/2000/svg">
<path d="M100.47 35.6942L110.667 33.5295L101.438 30.6243L100.47 35.6942Z" fill="white"/>
<path d="M99.4445 31.3648H27.6682C25.9593 31.3648 25.2187 33.3016 24.4782 35.1245C24.2503 35.8651 23.9085 36.5487 23.5098 37.1753C22.9401 36.6056 22.5414 33.9852 22.4274 32.9598L22.3135 32.3902C21.7438 28.8583 21.2881 25.0986 20.7754 21.5098C18.6677 5.73043 17.6993 0.204797 14.7371 0.147832C11.0344 0.0908666 9.72417 6.58491 5.85053 25.9531L5.33784 28.5166C4.76819 31.3648 3.45799 31.3648 2.88833 31.3648H1.12241L0.666687 33.8713H2.83137C4.31247 33.8713 6.87591 33.2447 7.73038 28.9723L8.24307 26.4658C10.6356 14.5031 12.9142 3.28092 14.5093 2.71127C15.8764 4.19237 17.2436 14.3892 18.269 21.9086C18.7247 25.5544 19.2374 29.3141 19.807 32.8459L19.921 33.4156C20.3767 36.2638 20.8894 39.8526 23.5667 39.8526C25.2757 39.8526 26.0162 37.9158 26.7568 36.0929C26.9847 35.3524 27.3834 34.6118 27.7822 33.9283H98.9888L99.4445 31.3648Z" fill="white"/>
<path d="M32.5673 12.3384H41.9665L42.3083 21.225H42.4223L46.2959 12.3384H55.6952L52.3342 28.6305H46.6377L49.3151 15.8133H49.1442L43.2198 28.6305H37.979L37.4093 15.8133H37.2954L34.618 28.6305H29.2063L32.5673 12.3384Z" fill="white"/>
<path d="M64.8666 12.3384L61.3347 28.6305H54.6698L58.2016 12.3384H64.8666Z" fill="white"/>
<path d="M71.9873 20.4844H73.6392C76.2027 20.4844 77.1141 19.1742 77.1141 18.0919C77.1141 17.5792 76.8293 16.4399 74.7785 16.4399H72.8987L71.9873 20.4844ZM77.5129 12.3384C80.9878 12.3384 83.2094 14.3892 83.2094 17.1805C83.2094 20.1996 80.7599 24.0163 74.8925 24.0163H71.2467L70.2213 28.6305H63.8412L67.2591 12.3954L77.5129 12.3384Z" fill="white"/>
<path d="M101.495 12.3384L100.527 17.1235H95.0012L92.6656 28.6305H86.3425L88.6781 17.1235H83.1525L84.1778 12.3384H101.495Z" fill="white"/>
</svg>
