<svg width="106" height="41" viewBox="0 0 106 41" fill="none" xmlns="http://www.w3.org/2000/svg">
<g clip-path="url(#clip0_357_13128)">
<path d="M20.6182 40.1494C31.6639 40.1494 40.6182 31.1951 40.6182 20.1494C40.6182 9.1037 31.6639 0.149414 20.6182 0.149414C9.57244 0.149414 0.618164 9.1037 0.618164 20.1494C0.618164 31.1951 9.57244 40.1494 20.6182 40.1494Z" fill="#707477"/>
<path d="M13.7886 11.312C11.2773 11.312 9.68566 14.0209 10.949 16.2108L19.3784 30.8214C19.9285 31.7754 21.307 31.7754 21.8571 30.8214L30.2882 16.2108C31.5499 14.0244 29.9582 11.312 27.4487 11.312H13.7886ZM19.3716 26.4399L17.5358 22.887L13.1062 14.9646C12.814 14.4575 13.1749 13.8078 13.7869 13.8078H19.3699V26.4416L19.3716 26.4399ZM28.1259 14.9629L23.698 22.8887L21.8622 26.4399V13.806H27.4452C28.0572 13.806 28.4181 14.4558 28.1259 14.9629Z" fill="white"/>
<path d="M53.2256 31.1973H57.7051V15.575H63.8991V11.3194H47.0314V15.575H53.2256V31.1973Z" fill="white"/>
<path d="M74.665 31.5333C80.32 31.5333 84.94 26.9138 84.94 21.2583C84.94 15.603 80.32 10.9834 74.665 10.9834C68.9815 10.9834 64.39 15.603 64.39 21.2583C64.39 26.9138 68.9815 31.5333 74.665 31.5333ZM74.665 27.2217C71.4172 27.2217 68.8695 24.478 68.8695 21.2583C68.8695 18.0387 71.4172 15.295 74.665 15.295C77.8843 15.295 80.4322 18.0387 80.4322 21.2583C80.4322 24.478 77.8843 27.2217 74.665 27.2217Z" fill="white"/>
<path d="M105.382 31.1973V11.3194H100.902V23.5821L91.2436 11.3194H87.4078V31.1973H91.8593V18.9066L101.546 31.1973H105.382Z" fill="white"/>
</g>
<defs>
<clipPath id="clip0_357_13128">
<rect width="105" height="40" fill="white" transform="translate(0.5 0.149414)"/>
</clipPath>
</defs>
</svg>
