<svg width="240" height="380" viewBox="0 0 240 380" fill="none" xmlns="http://www.w3.org/2000/svg">
<g clip-path="url(#clip0_455_1078)">
<g opacity="0.5">
<path d="M70.7071 140L120 90.7071L169.293 140L120 189.293L70.7071 140Z" stroke="#707477"/>
<path d="M120 199.341L50.7683 140L120 80.6585L189.232 140L120 199.341Z" stroke="#707477"/>
<path d="M120 209.367L30.8144 140L120 70.6334L209.186 140L120 209.367Z" stroke="#707477"/>
<path d="M120 219.382L10.8501 140L120 60.6182L229.15 140L120 219.382Z" stroke="#707477"/>
<path d="M120 229.392L-9.12159 140L120 50.6081L249.122 140L120 229.392Z" stroke="#707477"/>
<path d="M120 239.399L-29.0986 140L120 40.6009L269.099 140L120 239.399Z" stroke="#707477"/>
<path d="M-103 169.382L-212.15 90L-103 10.6182L6.1499 90L-103 169.382Z" stroke="#707477"/>
<path d="M-103 179.392L-232.122 90L-103 0.608132L26.1216 90L-103 179.392Z" stroke="#707477"/>
<path d="M-103 189.399L-252.099 90L-103 -9.39907L46.0986 90L-103 189.399Z" stroke="#707477"/>
<path d="M343 169.382L233.85 90L343 10.6182L452.15 90L343 169.382Z" stroke="#707477"/>
<path d="M343 179.392L213.878 90L343 0.608132L472.122 90L343 179.392Z" stroke="#707477"/>
<path d="M343 189.399L193.901 90L343 -9.39907L492.099 90L343 189.399Z" stroke="#707477"/>
<path d="M-103 269.382L-212.15 190L-103 110.618L6.1499 190L-103 269.382Z" stroke="#707477"/>
<path d="M-103 279.392L-232.122 190L-103 100.608L26.1216 190L-103 279.392Z" stroke="#707477"/>
<path d="M-103 289.399L-252.099 190L-103 90.6009L46.0986 190L-103 289.399Z" stroke="#707477"/>
<path d="M343 269.382L233.85 190L343 110.618L452.15 190L343 269.382Z" stroke="#707477"/>
<path d="M343 279.392L213.878 190L343 100.608L472.122 190L343 279.392Z" stroke="#707477"/>
<path d="M343 289.399L193.901 190L343 90.6009L492.099 190L343 289.399Z" stroke="#707477"/>
<path d="M-103 369.382L-212.15 290L-103 210.618L6.1499 290L-103 369.382Z" stroke="#707477"/>
<path d="M-103 379.392L-232.122 290L-103 200.608L26.1216 290L-103 379.392Z" stroke="#707477"/>
<path d="M-103 389.399L-252.099 290L-103 190.601L46.0986 290L-103 389.399Z" stroke="#707477"/>
<path d="M343 369.382L233.85 290L343 210.618L452.15 290L343 369.382Z" stroke="#707477"/>
<path d="M343 379.392L213.878 290L343 200.608L472.122 290L343 379.392Z" stroke="#707477"/>
<path d="M343 389.399L193.901 290L343 190.601L492.099 290L343 389.399Z" stroke="#707477"/>
<path d="M70.7071 240L120 190.707L169.293 240L120 289.293L70.7071 240Z" stroke="#707477"/>
<path d="M120 299.341L50.7683 240L120 180.659L189.232 240L120 299.341Z" stroke="#707477"/>
<path d="M120 309.367L30.8144 240L120 170.633L209.186 240L120 309.367Z" stroke="#707477"/>
<path d="M120 319.382L10.8501 240L120 160.618L229.15 240L120 319.382Z" stroke="#707477"/>
<path d="M120 329.392L-9.12159 240L120 150.608L249.122 240L120 329.392Z" stroke="#707477"/>
<path d="M120 339.399L-29.0986 240L120 140.601L269.099 240L120 339.399Z" stroke="#707477"/>
<path d="M70.7071 340L120 290.707L169.293 340L120 389.293L70.7071 340Z" stroke="#707477"/>
<path d="M120 399.341L50.7683 340L120 280.659L189.232 340L120 399.341Z" stroke="#707477"/>
<path d="M120 409.367L30.8144 340L120 270.633L209.186 340L120 409.367Z" stroke="#707477"/>
<path d="M120 419.382L10.8501 340L120 260.618L229.15 340L120 419.382Z" stroke="#707477"/>
<path d="M120 429.392L-9.12159 340L120 250.608L249.122 340L120 429.392Z" stroke="#707477"/>
<path d="M120 439.399L-29.0986 340L120 240.601L269.099 340L120 439.399Z" stroke="#707477"/>
<path d="M120 509.367L30.8144 440L120 370.633L209.186 440L120 509.367Z" stroke="#707477"/>
<path d="M120 519.382L10.8501 440L120 360.618L229.15 440L120 519.382Z" stroke="#707477"/>
<path d="M120 529.392L-9.12159 440L120 350.608L249.122 440L120 529.392Z" stroke="#707477"/>
<path d="M120 539.399L-29.0986 440L120 340.601L269.099 440L120 539.399Z" stroke="#707477"/>
<path d="M70.7071 40L120 -9.29289L169.293 40L120 89.2929L70.7071 40Z" stroke="#707477"/>
<path d="M120 99.3415L50.7683 40L120 -19.3415L189.232 40L120 99.3415Z" stroke="#707477"/>
<path d="M120 109.367L30.8144 40L120 -29.3666L209.186 40L120 109.367Z" stroke="#707477"/>
<path d="M120 119.382L10.8501 40L120 -39.3818L229.15 40L120 119.382Z" stroke="#707477"/>
<path d="M120 129.392L-9.12159 40L120 -49.3919L249.122 40L120 129.392Z" stroke="#707477"/>
<path d="M120 139.399L-29.0986 40L120 -59.3991L269.099 40L120 139.399Z" stroke="#707477"/>
<path d="M120 9.36658L30.8144 -60L120 -129.367L209.186 -60L120 9.36658Z" stroke="#707477"/>
<path d="M120 19.3818L10.8501 -60L120 -139.382L229.15 -60L120 19.3818Z" stroke="#707477"/>
<path d="M120 29.3919L-9.12159 -60L120 -149.392L249.122 -60L120 29.3919Z" stroke="#707477"/>
<path d="M120 39.3991L-29.0986 -60L120 -159.399L269.099 -60L120 39.3991Z" stroke="#707477"/>
</g>
</g>
<defs>
<clipPath id="clip0_455_1078">
<rect width="380" height="380" fill="white" transform="translate(-70)"/>
</clipPath>
</defs>
</svg>
