<svg width="60" height="25" viewBox="0 0 60 25" fill="none" xmlns="http://www.w3.org/2000/svg">
<path d="M60 12.4951C60 12.3372 60 12.1738 60 12.0047C60 11.8243 59.9832 11.6495 59.9493 11.4805C59.9267 11.3113 59.9098 11.1422 59.8985 10.9731C59.8872 10.804 59.8648 10.6461 59.8309 10.4996H50.4115L47.5535 14.981H54.7915C54.5772 15.7364 54.2672 16.4241 53.8614 17.0441C53.4667 17.6529 52.9932 18.1827 52.4408 18.6337V18.6506C51.8658 19.1016 51.2288 19.4567 50.5299 19.716C49.8422 19.9641 49.1094 20.0881 48.3315 20.0881C48.3089 20.0881 48.2864 20.0881 48.2638 20.0881C48.2525 20.0881 48.2469 20.0881 48.2469 20.0881C47.2322 20.0881 46.2739 19.8852 45.372 19.4793C44.4701 19.0735 43.6979 18.5322 43.0552 17.8558C42.3901 17.1455 41.8659 16.3338 41.4825 15.4206C41.0992 14.5074 40.9076 13.5323 40.9076 12.4951C40.9076 12.4838 40.9076 12.4782 40.9076 12.4782C40.9076 12.4669 40.9076 12.45 40.9076 12.4274C40.9076 11.4015 41.0992 10.4376 41.4825 9.53566C41.8659 8.62248 42.3957 7.82766 43.0721 7.15122C43.7373 6.47478 44.5209 5.93364 45.4228 5.52777C46.3247 5.12191 47.283 4.91898 48.2976 4.91898C48.2976 4.91898 48.3035 4.91898 48.3146 4.91898C48.3259 4.91898 48.3315 4.91898 48.3315 4.91898C48.3315 4.91898 48.3373 4.91898 48.3483 4.91898C48.3709 4.91898 48.3822 4.91898 48.3822 4.91898C48.8106 4.91898 49.2334 4.95848 49.6505 5.03736C50.0789 5.10499 50.4905 5.20647 50.885 5.34175L50.8005 5.3079C51.2064 5.45447 51.584 5.62357 51.9335 5.81522C52.283 6.00689 52.6099 6.21546 52.9144 6.44093V6.424L54.1827 4.41161L55.451 2.3823C54.9775 2.05535 54.4701 1.76223 53.929 1.50293C53.3992 1.24363 52.8466 1.02379 52.2717 0.843409L52.1872 0.809555C51.6235 0.651717 51.0203 0.527701 50.3777 0.437514C49.735 0.336043 49.0868 0.285311 48.433 0.285311C48.4104 0.285311 48.3935 0.285311 48.3822 0.285311C48.3822 0.285311 48.3709 0.285311 48.3483 0.285311C48.3371 0.285311 48.3202 0.285311 48.2976 0.285311C48.2864 0.285311 48.2694 0.285311 48.2469 0.285311C47.3788 0.285311 46.5332 0.364221 45.7102 0.522067C44.8985 0.679896 44.1093 0.916652 43.3427 1.23233L43.4442 1.19847C42.7001 1.52542 42.0068 1.9031 41.3641 2.33151C40.7216 2.75991 40.1353 3.23907 39.6054 3.76894C38.9741 4.4341 38.4385 5.08799 37.9989 5.73061C37.5705 6.39577 37.2153 7.04403 36.9335 7.67536C36.6516 8.3067 36.4205 8.94369 36.2402 9.5863C36.071 10.2064 35.9188 10.8208 35.7836 11.4296C35.5243 12.6247 35.2537 13.7633 34.9719 14.8456C34.69 15.9279 34.1094 16.9031 33.23 17.7712C32.8918 18.1207 32.5198 18.442 32.1138 18.7351C31.7193 19.0169 31.3077 19.2537 30.8794 19.4453L30.8286 19.4792C30.4002 19.6483 29.9493 19.7836 29.4757 19.8851C29.0135 19.9865 28.5232 20.0372 28.0045 20.0372C28.0045 20.0372 27.9932 20.0372 27.9707 20.0372C27.9594 20.0372 27.9537 20.0372 27.9537 20.0372C26.9054 20.0372 25.9188 19.8343 24.9944 19.4285C24.0699 19.0226 23.2582 18.4702 22.5592 17.7712C21.8828 17.106 21.3416 16.3112 20.9357 15.3868C20.5299 14.451 20.327 13.4589 20.327 12.4104C20.327 11.3957 20.5243 10.4375 20.9188 9.53556C21.3134 8.62238 21.8545 7.82756 22.5422 7.15112C23.23 6.46341 24.036 5.91662 24.9605 5.51077C25.885 5.09363 26.8715 4.88506 27.92 4.88506C28.3597 4.88506 28.788 4.92456 29.2052 5.00344C29.6223 5.07107 30.0338 5.1669 30.4397 5.29092H30.372C30.7779 5.41494 31.15 5.57277 31.4882 5.76443C31.8264 5.94481 32.1533 6.14773 32.469 6.37322H32.4352L33.7203 4.36082L35.0225 2.31459C34.5603 1.99892 34.0586 1.71144 33.5174 1.45214C32.9876 1.19284 32.4296 0.973002 31.8433 0.792611H31.7756C31.2119 0.612229 30.6087 0.476945 29.9662 0.386749C29.3348 0.296562 28.6866 0.251465 28.0214 0.251465C28.0101 0.251465 27.9932 0.251465 27.9706 0.251465C27.9594 0.251465 27.9481 0.251465 27.9369 0.251465C27.9369 0.251465 27.9311 0.251465 27.9199 0.251465C27.9087 0.251465 27.903 0.251465 27.903 0.251465C26.8545 0.251465 25.8399 0.381115 24.859 0.640416C23.8895 0.88844 22.9763 1.23794 22.1195 1.68889L22.1702 1.67196C21.3247 2.10038 20.5468 2.6246 19.8365 3.24467C19.1262 3.86473 18.4949 4.54681 17.9424 5.2909L17.9087 5.30782C17.6832 4.63138 17.3562 4.01695 16.9278 3.46453C16.4994 2.90083 15.992 2.43297 15.4058 2.06093H15.3888C14.7688 1.65506 14.0868 1.33939 13.3427 1.11391C12.5986 0.877164 11.8207 0.758782 11.009 0.758782C10.9751 0.758782 10.947 0.758782 10.9244 0.758782C10.9018 0.758782 10.8849 0.758782 10.8737 0.758782H0V24.1973H12.0068C12.0293 24.1973 12.0518 24.1973 12.0744 24.1973C12.097 24.1973 12.1139 24.1973 12.1252 24.1973C12.8467 24.1973 13.5345 24.1071 14.1883 23.9268C14.8422 23.7576 15.4623 23.5152 16.0485 23.1996L15.9977 23.2165C16.5501 22.9121 17.0462 22.5514 17.4859 22.1342C17.9368 21.7058 18.3145 21.2323 18.6189 20.7136L18.6528 20.6629C19.1939 21.283 19.7971 21.8354 20.4622 22.3202C21.1274 22.8049 21.8321 23.2278 22.5761 23.5886L22.6606 23.6054C23.4048 23.9436 24.2052 24.2086 25.0621 24.4002C25.9188 24.6032 26.8094 24.7047 27.7339 24.7047C27.7339 24.7047 27.7397 24.7047 27.7508 24.7047C27.7621 24.7047 27.7734 24.7047 27.7847 24.7047C27.8073 24.7047 27.8242 24.7047 27.8354 24.7047C27.8467 24.7047 27.8636 24.7047 27.8862 24.7047C28.9347 24.7047 29.9549 24.575 30.947 24.3157C31.9392 24.0676 32.8636 23.7069 33.7204 23.2335L33.6697 23.2842C34.549 22.8219 35.3438 22.2752 36.0541 21.6438C36.7644 21.0012 37.3958 20.2909 37.9482 19.513L37.9651 19.4623C38.5062 20.2514 39.1262 20.9673 39.8252 21.61C40.5355 22.2413 41.3022 22.7824 42.1251 23.2335L42.1759 23.2672C43.0327 23.7182 43.9572 24.0677 44.9493 24.3157C45.9413 24.5751 46.9729 24.7047 48.0439 24.7047C48.0439 24.7047 48.0498 24.7047 48.0609 24.7047C48.0722 24.7047 48.0891 24.7047 48.1117 24.7047C48.1229 24.7047 48.1341 24.7047 48.1454 24.7047C48.1567 24.7047 48.1624 24.7047 48.1624 24.7047C48.9854 24.7047 49.7858 24.6202 50.5637 24.451C51.3417 24.2819 52.0857 24.0396 52.796 23.7238C53.5175 23.4195 54.194 23.0474 54.8252 22.6078C55.4566 22.1568 56.0373 21.6551 56.5671 21.1027C57.1082 20.5616 57.5874 19.964 58.0046 19.3102C58.4217 18.6675 58.7768 17.9854 59.0699 17.2639C59.3631 16.5424 59.5885 15.787 59.7464 14.9978C59.9155 14.22 60 13.4082 60 12.5626C60 12.5514 60 12.5401 60 12.5288C60 12.5176 60 12.5064 60 12.4951ZM5.05645 10.2797V5.08809H10.8231C10.8344 5.08809 10.84 5.08809 10.84 5.08809C11.2008 5.08809 11.5334 5.15571 11.8377 5.29102C12.1422 5.41504 12.4183 5.59541 12.6664 5.83217H12.6495C12.8862 6.06892 13.0667 6.3395 13.1907 6.64389C13.3259 6.94829 13.3936 7.27524 13.3936 7.62473C13.3936 7.62473 13.3936 7.63054 13.3936 7.64166C13.3936 7.65294 13.3936 7.65858 13.3936 7.65858C13.3936 7.68115 13.3936 7.69244 13.3936 7.69244C13.3936 7.69244 13.3936 7.70372 13.3936 7.72629C13.3936 8.06451 13.3259 8.39146 13.1907 8.70712C13.0667 9.01153 12.8918 9.2821 12.6664 9.51885H12.6495C12.4127 9.7556 12.1422 9.94162 11.8377 10.0769C11.5334 10.2122 11.2008 10.2798 10.84 10.2798C10.84 10.2798 10.8342 10.2798 10.8231 10.2798L5.05645 10.2797ZM5.05645 14.5413H11.9391C11.9504 14.5413 11.9561 14.5413 11.9561 14.5413C12.3281 14.5413 12.6776 14.6089 13.0046 14.7442C13.3428 14.8795 13.6416 15.0599 13.9008 15.2854C14.1489 15.5221 14.3462 15.804 14.4927 16.1309C14.6393 16.4578 14.7125 16.8017 14.7125 17.1625C14.7125 17.1625 14.7125 17.1683 14.7125 17.1794C14.7125 17.5627 14.6393 17.9179 14.4927 18.2448C14.3462 18.5717 14.1432 18.8593 13.884 19.1072C13.636 19.3552 13.3428 19.547 13.0046 19.6822C12.6776 19.8175 12.3225 19.8852 11.9391 19.8852H5.05645V14.5413Z" fill="white"/>
</svg>
