<svg width="100" height="28" viewBox="0 0 100 28" fill="none" xmlns="http://www.w3.org/2000/svg">
<path d="M26.1693 12.3502H33.544V27.5229H38.9448V12.3502H46.458V7.49619H26.1693V12.3502Z" fill="white"/>
<path d="M24.4239 7.45487H18.9743V27.5228H24.4239V7.45487Z" fill="white"/>
<path d="M0 7.45487V27.5228H5.44957V7.45487H0Z" fill="white"/>
<path d="M13.6669 7.45487L5.44957 27.5228H11.0676L18.9704 7.45487H13.6669Z" fill="white"/>
<path d="M68.3273 7.45487L62.9188 20.6649L57.5107 7.45487H48.1994V27.5228H53.649V11.1179L60.1098 27.5228H65.7282L72.189 11.1179V27.5228H77.6382V7.45487H68.3273Z" fill="white"/>
<path d="M21.6971 0.297492C21.1704 0.307822 20.6585 0.473494 20.2255 0.773714C19.7926 1.07394 19.4581 1.49533 19.2638 1.98501C19.0695 2.4747 19.0242 3.01086 19.1335 3.5262C19.2429 4.04155 19.502 4.51312 19.8783 4.88173C20.2547 5.25034 20.7316 5.49959 21.2491 5.59817C21.7666 5.69676 22.3017 5.64031 22.7872 5.43586C23.2727 5.23145 23.6871 4.88815 23.9783 4.4491C24.2694 4.01004 24.4244 3.49478 24.4237 2.96797C24.4158 2.25241 24.1242 1.56924 23.613 1.06853C23.1017 0.567817 22.4127 0.290501 21.6971 0.297492Z" fill="white"/>
<path d="M94.7178 17.6687C94.6463 20.7548 92.579 22.8261 89.579 22.8261H89.4664C87.8523 22.7961 86.5225 22.2755 85.6202 21.3279C84.7174 20.3803 84.2527 18.9795 84.2827 17.3166C84.2476 16.6235 84.3602 15.9308 84.6125 15.2844C84.8651 14.6379 85.2519 14.0525 85.7478 13.5667C86.2433 13.081 86.8364 12.706 87.4878 12.4666C88.1392 12.2271 88.8343 12.1288 89.5264 12.1779C90.2167 12.1536 90.9045 12.2698 91.5486 12.5196C92.1923 12.7694 92.7786 13.1476 93.2719 13.6311C93.7709 14.175 94.1559 14.8137 94.4034 15.5092C94.6514 16.2047 94.7567 16.9428 94.7139 17.6799L94.7178 17.6687ZM95.1409 8.75833C93.4728 7.79439 91.5765 7.29517 89.6501 7.3126C89.1495 7.3138 88.6493 7.34258 88.1521 7.39876C85.2266 7.72086 82.8746 8.94184 81.1594 11.028C79.5487 12.9869 78.8519 15.3765 79.0318 18.3241C79.099 20.3654 79.8288 22.3294 81.1106 23.9197C83.1705 26.4366 85.9795 27.6389 89.991 27.7026H90.0805L90.6013 27.6352C91.3007 27.5571 91.994 27.432 92.6762 27.2606C94.7225 26.7494 96.5503 25.5939 97.8899 23.9647C99.1931 22.3216 99.9289 20.3006 99.9871 18.2042C100.163 13.9082 98.534 10.7134 95.1443 8.75833" fill="white"/>
</svg>
