<svg width="50" height="50" viewBox="0 0 50 50" fill="none" xmlns="http://www.w3.org/2000/svg">
<path fill-rule="evenodd" clip-rule="evenodd" d="M50 0V50H0V0H50ZM49 17C49 20.1827 48.3805 23.2207 47.2554 26H40.5919C42.1235 23.3524 43 20.2786 43 17C43 10.0341 39.0431 3.99245 33.2544 1H42.8889C46.6892 5.24605 49 10.8532 49 17ZM39.9689 27H46.8238C45.6205 29.6217 43.9587 31.9893 41.9411 34H30.931C34.6512 32.7022 37.8151 30.2177 39.9689 27ZM19.069 34H8.05893C6.04127 31.9893 4.37945 29.6217 3.17617 27H10.0311C12.1849 30.2177 15.3488 32.7022 19.069 34ZM9.12505 35H40.8749C36.6441 38.7342 31.0867 41 25 41C18.9133 41 13.3559 38.7342 9.12505 35ZM8 35.3305C10.804 37.9322 14.206 39.8984 17.9768 41H14V49H8V35.3305ZM15 42V49H35V42H15ZM42 49H36V41H32.0232C35.794 39.8984 39.196 37.9322 42 35.3305V49ZM7 34.3494C4.9528 32.2259 3.27785 29.7411 2.08022 27H1V49H7V34.3494ZM43 49H49V27H47.9198C46.7221 29.7411 45.0472 32.2259 43 34.3494V49ZM25 34C30.6511 34 35.6581 31.2427 38.7492 27H11.2508C14.3419 31.2427 19.3489 34 25 34ZM1 17C1 20.1827 1.61952 23.2207 2.74455 26H9.40808C7.87655 23.3524 7 20.2786 7 17C7 10.0341 10.9569 3.99245 16.7456 1H7.11115C3.31083 5.24605 1 10.8532 1 17ZM8 17C8 20.3051 8.9432 23.3899 10.5751 26H20.6359C17.2997 24.3793 15 20.9582 15 17C15 11.4772 19.4772 7 25 7C30.5228 7 35 11.4772 35 17C35 20.9582 32.7003 24.3793 29.3641 26H39.4249C41.0568 23.3899 42 20.3051 42 17C42 9.63236 37.3131 3.3594 30.7583 1H19.2417C12.6869 3.3594 8 9.63236 8 17ZM34 17C34 21.9706 29.9706 26 25 26C20.0294 26 16 21.9706 16 17C16 12.0294 20.0294 8 25 8C29.9706 8 34 12.0294 34 17ZM1 26H1.66898C1.41947 25.3536 1.19604 24.6943 1 24.0232V26ZM48.331 26H49V24.0232C48.804 24.6943 48.5805 25.3536 48.331 26ZM1 9.97679C1.9738 6.64356 3.62314 3.59856 5.78981 1H1V9.97679ZM44.2102 1H49V9.97679C48.0262 6.64356 46.3769 3.59856 44.2102 1Z" fill="#707477"/>
</svg>
