<svg width="141" height="48" viewBox="0 0 141 48" fill="none" xmlns="http://www.w3.org/2000/svg">
<path d="M20.7597 0.780912C21.0385 0.292971 21.5962 0.0838552 22.1538 0.362678C22.6418 0.641501 22.8509 1.19915 22.5721 1.75679C22.4326 1.96591 22.2932 2.10532 22.0841 2.24473C22.5721 2.31444 22.9903 2.59326 23.1297 3.0812C23.2691 4.05708 23.06 5.03296 22.4326 5.79973C22.2235 6.07855 21.875 6.49679 21.4568 6.28767C20.8991 5.86943 20.5506 5.24208 20.3415 4.61473C20.0627 4.05708 20.0627 3.42973 20.3415 2.80238C20.5506 2.52356 20.8991 2.31444 21.2477 2.24473C20.7597 1.96591 20.5506 1.33856 20.7597 0.780912ZM17.135 4.40561C17.4138 3.29032 18.3897 2.59326 19.505 2.59326C19.4353 3.84796 19.7141 5.17238 20.3415 6.28767C19.5747 6.35738 18.7382 6.6362 18.0412 7.05443C17.4835 6.35737 16.9259 5.38149 17.135 4.40561ZM23.8965 2.59326C25.0118 2.52356 25.9876 3.29032 26.2665 4.40561C26.4059 5.38149 26.0574 6.35737 25.3603 7.05443C24.6632 6.6362 23.8965 6.35738 23.06 6.28767C23.6874 5.17238 23.9662 3.91767 23.8965 2.59326ZM18.6685 7.68178C19.2262 7.33326 19.9232 7.12414 20.6203 7.12414C21.875 6.98472 23.1297 7.12414 24.3147 7.47267C24.8026 7.61208 24.6632 8.16972 24.6632 8.58796C24.4541 8.93649 23.9662 8.93649 23.6176 9.14561C23.5479 8.86678 23.5479 8.58796 23.5479 8.23943L22.9206 8.03031C22.6418 9.70325 22.9206 11.4459 23.6874 12.9097C23.4085 13.1885 23.1297 13.5371 22.9206 13.8856C22.0144 12.0732 22.0841 9.98207 22.0841 8.03031H21.1779C21.1779 9.98207 21.2477 12.0035 20.4112 13.8159C20.2021 13.5371 19.9232 13.1885 19.6444 12.9097C20.4112 11.4459 20.69 9.77296 20.4112 8.10002L19.7838 8.30914C19.7838 8.58796 19.7838 8.93649 19.7141 9.21531C19.3656 9.0759 19.0171 8.93649 18.6685 8.72737C18.6685 8.30914 18.6685 7.96061 18.6685 7.68178ZM8.28238 7.61208C9.39767 7.19384 10.6524 7.47267 11.4191 8.37884C11.8374 8.79708 11.6283 9.42443 11.4888 9.84266C11.21 10.47 11.1403 11.0974 11.2797 11.7944C11.4888 12.2824 11.9768 12.5612 12.4647 12.7006C12.395 12.9794 12.3253 13.2582 12.2556 13.5371C11.9768 13.6068 11.7677 13.7462 11.5585 13.8159C11.0706 13.328 10.7221 12.7006 10.513 12.0035C10.3736 11.2368 10.3736 10.4003 10.5827 9.63355C10.025 9.00619 9.11885 8.93649 8.4915 9.49413L8.42179 9.56384C9.11885 10.6094 9.67649 11.7247 10.1644 12.9097C10.2341 13.5371 10.1644 14.1644 10.025 14.7918C9.81591 15.6282 9.81591 16.4647 10.025 17.3012C8.90973 16.4647 8.07326 15.3494 7.51561 14.025C8.14297 13.8159 8.90973 13.328 8.97944 12.5612C9.04914 11.7944 8.28238 11.5156 7.93385 11.0277C7.09738 10.1215 7.16709 8.72737 8.07326 7.8909C8.00356 7.8212 8.14297 7.68178 8.28238 7.61208ZM15.7409 8.72737C15.1833 8.23943 15.6015 7.26355 16.2985 7.47267C16.9259 7.68178 16.8562 8.51825 16.3682 8.79708H16.6471C17.0653 9.21531 17.135 9.91237 16.8562 10.47C16.7168 10.8883 16.438 11.3065 16.0197 11.5156C15.5318 11.3762 15.3924 10.8185 15.1833 10.4003C14.9741 9.84266 15.0438 9.00619 15.7409 8.72737ZM26.8241 8.72737C26.3362 8.30914 26.4756 7.40296 27.1726 7.40296C27.5909 7.47267 27.8697 7.8212 27.8 8.23943C27.8 8.37884 27.6606 8.58796 27.5212 8.65766C28.0091 8.86678 28.2879 9.35472 28.1485 9.84266C28.1485 10.47 27.8 11.0974 27.3121 11.4459C26.6847 11.2368 26.4756 10.5397 26.2665 9.98207C26.1271 9.56384 26.3362 9.00619 26.8241 8.72737ZM32.54 7.82119C33.3068 7.26355 34.3523 7.19384 35.1888 7.68178C36.095 8.30914 36.3738 9.49413 35.9556 10.5397C35.607 11.2368 34.91 11.5853 34.5615 12.2824C34.3523 13.1885 35.2585 13.8159 35.9556 14.025C35.3979 15.2797 34.5615 16.395 33.4462 17.3012C33.5856 16.4647 33.5856 15.6282 33.4462 14.7918C33.237 14.1644 33.237 13.5371 33.3068 12.84C33.7947 11.7247 34.3523 10.6094 34.9797 9.56384C34.422 9.00619 33.4462 9.00619 32.8885 9.56384L32.8188 9.63355C33.0279 10.4003 33.0279 11.1671 32.8885 11.9338C32.6794 12.6309 32.3309 13.2582 31.8429 13.7462C31.6338 13.6068 31.355 13.5371 31.1459 13.4674C31.0762 13.1885 31.0065 12.9097 30.9368 12.6309C31.4247 12.4915 31.9823 12.2824 32.1217 11.7944C32.4006 10.8882 31.9126 10.0518 31.7035 9.21531C31.6338 8.65766 32.1218 8.16972 32.54 7.82119ZM24.245 10.3306C24.4541 9.63355 25.0815 9.14561 25.7785 9.14561C25.7088 9.98207 25.9179 10.8882 26.3362 11.655C25.7785 11.7247 25.2906 11.9338 24.8026 12.2127C24.3147 11.655 24.0359 10.958 24.245 10.3306ZM28.8456 9.0759C29.6123 9.0759 30.3094 9.63354 30.4488 10.4003C30.4488 10.958 30.3094 11.4459 29.9609 11.8641C29.4032 11.655 28.8456 11.5853 28.2879 11.5156C28.6365 10.8185 28.8456 9.91237 28.8456 9.0759ZM12.883 10.2609C13.0224 9.56384 13.7194 9.00619 14.4862 9.0759C14.4165 9.91237 14.6256 10.8185 15.0438 11.5853C14.4862 11.655 13.9285 11.7247 13.3709 11.9338C12.9527 11.4459 12.8133 10.8882 12.883 10.2609ZM17.5532 9.14561C18.2503 9.14561 18.9474 9.63355 19.1565 10.3306C19.2262 11.0277 19.0171 11.7247 18.5291 12.2127C18.0412 11.9338 17.5532 11.7247 16.9956 11.655C17.4138 10.8882 17.5532 9.98207 17.5532 9.14561ZM13.58 12.2127C14.9741 11.7247 16.5077 11.8641 17.8321 12.4218C19.2262 13.0491 20.0627 14.5129 20.6203 15.8374C21.0385 16.7435 21.3871 17.7194 21.5962 18.6953C21.875 17.58 22.2235 16.4647 22.7115 15.4888C23.1994 14.0947 24.245 12.9794 25.5694 12.3521C26.8938 11.7944 28.3576 11.7944 29.6821 12.2127C30.3094 12.4915 30.6579 13.1885 30.5185 13.8856C29.8215 14.025 29.0547 14.1644 28.3576 14.3735C27.8697 14.5129 27.5212 13.6765 28.0091 13.4674C28.2879 13.3977 28.5668 13.6068 28.7759 13.6765C28.5668 13.1885 27.9394 12.9794 27.4515 13.1885C27.1726 13.328 26.9635 13.5371 26.8938 13.8856C26.8241 14.4432 27.3818 14.5827 27.7303 14.7221C26.8241 15.3494 26.1271 16.2556 25.7088 17.3012C25.1512 18.8347 25.43 20.5774 26.4756 21.9018C27.5909 23.2959 29.2638 24.0626 31.0762 23.9232C31.4247 23.9232 31.7035 23.7838 31.8429 23.505C31.9823 23.1565 31.8429 22.8079 31.4944 22.6685C31.4247 22.5988 31.2853 22.5988 31.2156 22.5988C30.7973 22.5988 30.7973 22.9473 30.7973 23.2262C30.1003 23.2959 29.4729 22.8079 29.4032 22.1109C29.3335 21.4835 29.6123 20.9259 30.2397 20.6471C31.9823 19.7409 33.7947 18.765 34.9797 17.1618C35.9556 15.7677 36.7223 14.3038 37.2103 12.7006C37.3497 12.4915 37.6285 12.4218 37.8376 12.4915C37.977 12.5612 38.0467 12.7006 38.0467 12.84C37.7679 15.21 36.5132 17.3012 35.1888 19.1832C36.3041 18.3468 37.28 17.4406 38.1164 16.3253C38.5347 15.8374 38.8832 15.2797 39.3014 14.8615C39.5106 14.7221 39.8591 14.7918 39.9288 15.0009C39.9985 15.1403 39.9985 15.2797 39.9985 15.4191C39.0226 17.7891 37.0709 19.6015 35.1191 21.135C37.0709 20.2985 38.8832 19.1135 40.4167 17.6497C40.7653 17.1618 41.6017 17.7891 41.1835 18.2074C39.7894 20.2985 37.4891 21.6229 35.3282 22.8079C37.28 22.3897 39.162 21.6926 40.835 20.7168C41.1138 20.5774 41.3926 20.2985 41.6714 20.5076C41.8806 20.6471 42.02 20.9259 41.8806 21.2047C41.8806 21.2744 41.8109 21.3441 41.7411 21.3441C39.9288 23.0171 37.5588 23.8535 35.2585 24.6203C37.2103 24.5506 39.162 24.2021 40.9744 23.6444C41.3229 23.505 41.8109 23.4353 41.8806 23.8535C41.9503 24.2718 41.532 24.4809 41.2532 24.6203C39.3014 25.6659 37.0709 25.9447 34.8403 26.2235C36.792 26.5023 38.7438 26.5721 40.7653 26.4326C41.0441 26.4326 41.2532 26.6418 41.2532 26.9206C41.2532 27.06 41.1835 27.2691 41.0441 27.3388C39.0226 28.1056 36.8617 27.8268 34.7009 27.8965C36.2344 28.6632 38.0467 28.8026 39.7197 29.2209C39.9288 29.3603 40.0682 29.6391 39.9288 29.8482C39.8591 29.9876 39.7894 30.0573 39.65 30.0573C37.8376 30.3362 36.0253 29.7088 34.2826 29.43C35.3979 30.2665 36.792 30.6847 37.977 31.4515C38.1862 31.6606 38.1862 31.9394 37.977 32.1485C37.9073 32.2879 37.6982 32.2879 37.5588 32.2879C36.2344 32.0091 34.9797 31.5909 33.7947 30.9635C33.7947 31.0332 33.7947 31.2423 33.7947 31.312C34.4917 31.8697 35.1191 32.4273 35.6767 33.1244C35.8162 33.3335 35.7464 33.6123 35.5373 33.8214C35.4676 33.8912 35.3282 33.8912 35.1888 33.8912C34.5615 33.6123 33.9341 33.2638 33.3765 32.8456C33.0976 34.4488 32.9582 36.1217 32.8885 37.725C32.8885 38.0735 32.8188 38.4917 32.6794 38.8403C32.4703 38.91 32.1915 38.91 31.9823 38.9797C32.1915 38.2129 32.052 37.4461 31.7732 36.6794C31.9126 32.8456 32.8885 29.1512 33.5159 25.3871C31.5641 25.6659 29.5426 25.9447 27.6606 25.3871C28.4971 27.5479 28.7759 29.9179 28.2879 32.1485C27.9394 34.17 26.8938 36.052 25.43 37.4461C25.9876 37.5856 26.5453 37.7947 27.0332 38.1432C26.9635 38.4917 26.8241 38.7706 26.615 39.0494C25.2209 39.1888 23.7571 39.1888 22.5024 39.9556C21.875 40.3041 21.7356 41.1406 22.0841 41.6982C22.1538 41.7679 22.1538 41.8376 22.2235 41.9073C22.9206 42.6044 23.8268 43.162 24.8026 43.5106C25.7785 43.7894 26.8241 43.8591 27.8 44.1379C28.0091 44.2773 27.7303 44.4864 27.5909 44.6258C26.8241 45.1835 25.9179 45.3926 25.0118 45.1835C23.6874 44.835 22.5024 44.0682 21.7356 43.0226C22.0841 44.2076 22.8509 45.1835 23.9662 45.7411C24.4541 46.02 25.0815 46.02 25.5694 46.2988C24.6632 47.2747 23.06 46.9958 22.1538 46.0897C21.9447 46.6473 21.6659 47.205 21.3871 47.7626H21.2477C20.9688 47.2747 20.69 46.717 20.4809 46.1594C19.5747 46.9958 17.9715 47.2747 17.0653 46.3685C17.5532 46.1594 18.1109 45.9503 18.5988 45.8108C19.7141 45.2532 20.5506 44.2076 20.8294 43.0226C19.9929 44.1379 18.808 44.9047 17.4835 45.1835C16.5774 45.3926 15.6015 45.2532 14.9044 44.6258C14.765 44.4864 14.5559 44.347 14.765 44.1379C15.8803 43.7894 17.0653 43.7894 18.1806 43.3711C19.0171 43.0226 19.7838 42.465 20.4112 41.8376C20.8294 41.28 20.7597 40.5132 20.2021 40.0253C20.1324 40.0253 20.1324 39.9556 20.0627 39.9556C18.8777 39.1888 17.3441 39.1888 15.95 39.0494C15.6712 38.8403 15.6015 38.4917 15.5318 38.1432C16.0197 37.7947 16.5774 37.5856 17.135 37.4461C15.6015 35.9823 14.5559 33.9609 14.2074 31.8697C13.8588 29.7088 14.068 27.4085 14.9044 25.3871C13.0224 25.9447 11.0009 25.7356 9.04914 25.4568C9.60679 29.1512 10.5827 32.7759 10.7918 36.54C10.7918 36.8188 10.7221 37.0976 10.5827 37.3067C10.4433 37.8644 10.4433 38.422 10.5827 38.9797C10.2341 38.91 9.7462 38.9797 9.7462 38.5614C9.67649 36.6794 9.46738 34.7276 9.18855 32.8456C8.63091 33.2638 8.00356 33.6123 7.3762 33.8912C7.09738 33.9609 6.88826 33.7517 6.81856 33.4729C6.81856 33.3335 6.81856 33.1941 6.88826 33.1244C7.3065 32.497 7.86414 31.9394 8.42179 31.5212C8.63091 31.3817 8.90973 31.2423 8.70061 30.8938C7.51561 31.5212 6.26091 31.9394 4.9365 32.2182C4.65768 32.2182 4.44856 32.0788 4.44856 31.8C4.44856 31.6606 4.51827 31.5212 4.58797 31.4515C5.77297 30.6847 7.16709 30.2665 8.28238 29.43C6.53973 29.7088 4.72738 30.3362 2.91503 30.0573C2.63621 29.9876 2.56651 29.7088 2.63621 29.43C2.70592 29.2906 2.84533 29.1512 2.98474 29.1512C4.51827 28.8723 6.1215 28.5238 7.58532 28.0359L7.86414 27.8268C5.77297 27.757 3.54239 28.0359 1.52092 27.2691C1.3118 27.1297 1.2421 26.8509 1.38151 26.572C1.45121 26.4326 1.59063 26.3629 1.79974 26.3629C3.7515 26.5023 5.77297 26.4326 7.72473 26.1538C5.42444 25.8053 3.05445 25.5962 1.03298 24.4112C0.754156 24.3415 0.614745 24.0626 0.68445 23.7838C0.68445 23.7141 0.754155 23.6444 0.823861 23.5747C1.10268 23.2959 1.45121 23.505 1.73004 23.5747C3.54239 24.1323 5.42444 24.4112 7.3065 24.4809C5.07591 23.7141 2.63621 22.9473 0.893567 21.2744C0.68445 21.0653 0.68445 20.7865 0.823861 20.5774C0.893567 20.5076 1.03298 20.4379 1.17239 20.4379C1.66033 20.6471 2.14827 20.8562 2.63621 21.135C4.10003 21.9018 5.70327 22.4594 7.3065 22.8079C5.14562 21.6229 2.84533 20.2985 1.45121 18.2074C1.3118 17.9982 1.3118 17.6497 1.59062 17.5103C1.73004 17.4406 1.86945 17.3709 2.00886 17.4406C2.56651 17.8588 3.05445 18.3468 3.61209 18.765C4.79709 19.6712 6.1215 20.5076 7.51561 21.0653C5.56385 19.5318 3.61209 17.7194 2.63621 15.3494C2.35739 14.8615 3.26356 14.4432 3.47268 14.9312C4.51827 16.5344 5.91238 17.9285 7.3762 19.1135C6.05179 17.1618 4.8668 15.0706 4.51827 12.7006C4.51827 12.4218 4.72738 12.2127 5.00621 12.2127C5.07591 12.2127 5.14562 12.2127 5.21533 12.2824C5.42444 12.3521 5.49415 12.5612 5.56385 12.7703C6.19121 14.5129 7.02767 16.1162 8.21267 17.58C9.46738 18.8347 10.9312 19.8106 12.5344 20.5076C13.2315 20.8562 13.4406 21.6926 13.0921 22.3897C13.0921 22.4594 13.0224 22.4594 13.0224 22.5291C12.7435 22.8776 12.3253 23.0868 11.9071 23.0171C11.9071 22.6685 11.7677 22.32 11.3494 22.3897C11.0009 22.4594 10.7918 22.7382 10.8615 23.0868C10.9312 23.3656 11.0706 23.505 11.3494 23.5747C12.7435 23.7838 14.2074 23.3656 15.253 22.5291C16.1591 21.8321 16.7865 20.7865 16.9956 19.6712C17.2744 18.5559 17.135 17.3012 16.5774 16.2556C16.1591 15.5585 15.6015 14.9312 14.9044 14.3735C15.253 14.2341 15.7409 14.1644 15.7409 13.6765C15.8106 12.7006 14.068 12.4218 13.9285 13.3977C14.068 13.328 14.2771 13.1885 14.4165 13.1188L14.9044 13.1885C15.0438 13.5371 14.8347 13.8856 14.5559 14.025C13.7891 13.8856 13.0224 13.6068 12.1859 13.5371C12.6041 13.1885 12.9527 12.4915 13.58 12.2127ZM19.0868 22.4594C17.6927 23.4353 16.6471 24.8294 16.0894 26.5023C15.253 29.0118 15.3227 31.7303 16.3682 34.1003C16.9259 33.0547 17.4835 32.0788 18.0412 31.0332C17.9715 30.6847 17.8321 30.2665 18.0412 29.9876C18.2503 29.7088 18.5988 29.4997 18.8079 29.1512C19.2959 28.1753 19.7838 27.1994 20.2021 26.2235C20.4112 25.8053 20.8991 25.8053 21.1779 25.5962C20.8991 25.1779 20.4809 24.7597 20.6203 24.2718C20.69 23.9232 20.9688 23.6444 21.2477 23.505C21.2477 23.3656 21.1779 23.0868 21.1082 22.9473L21.6659 22.6685L22.0841 23.1565L21.8053 23.5747C22.4327 24.1323 22.5024 25.1082 21.875 25.7356L21.8053 25.8053C22.2235 25.875 22.7115 26.0841 23.06 26.2932C23.2691 26.572 23.4085 26.8509 23.4782 27.1297C21.7356 28.8723 21.0385 31.4515 21.6659 33.8912C21.9447 34.7276 22.5024 35.4247 23.1994 35.7732C22.9206 36.052 22.6418 36.1914 22.2932 36.3309C22.0841 36.6097 21.875 37.0279 21.5265 37.0976C21.1779 37.1673 21.1779 36.6794 21.1779 36.4006C20.6203 36.2612 20.1324 35.9823 19.7141 35.5641C19.2262 35.5641 18.6685 35.7035 18.32 35.2853C18.5291 35.1459 18.6685 35.0064 18.8777 34.867C18.6685 33.8912 18.4594 32.9153 18.1806 31.9394C17.623 32.8456 17.135 33.8214 16.5774 34.7276C17.4138 36.4006 18.8777 37.6553 20.7597 38.1432C22.2932 38.422 23.8965 38.0038 25.0118 36.9582C26.4756 35.5641 27.4515 33.7517 27.7303 31.7303C28.1485 29.2209 27.6606 26.6418 26.3362 24.4809C25.4997 23.1565 24.245 22.1806 22.7115 21.8321C21.4568 21.5532 20.1324 21.8321 19.0868 22.4594ZM20.4112 28.0359C20.0627 28.6632 19.7141 29.2906 19.2959 29.9876L21.0385 29.3603L20.9688 28.5238C20.7597 28.3844 20.6203 28.1753 20.4112 28.0359ZM11.3494 14.9312C11.5586 14.3735 12.1859 14.025 12.8133 14.2341C12.9527 14.6524 12.1859 14.7221 12.395 15.0706C12.883 15.21 13.3709 15.0009 13.8588 15.1403C15.0438 15.3494 16.0894 15.9071 16.7865 16.8829C17.2047 17.3709 17.2047 18.0679 16.7865 18.4862C16.0894 19.3226 14.765 19.4621 13.9285 18.765C14.5559 18.9741 15.253 18.9741 15.8803 18.6953C16.2985 18.4862 16.7865 18.0679 16.5774 17.5103C15.8106 16.3253 14.2771 15.8374 12.9527 16.3253C12.4647 16.5344 11.9768 16.8829 11.6283 17.3012C11.21 16.6041 11.1403 15.6979 11.3494 14.9312ZM30.5185 14.3735C30.6579 14.0947 31.0762 14.1644 31.355 14.2341C31.8429 14.4432 32.1915 15.0009 32.1915 15.5585C32.1915 16.1859 32.052 16.7435 31.7732 17.3012C31.2853 16.6738 30.5882 16.2556 29.7518 16.1162C28.6365 15.9768 27.5212 16.4647 26.8938 17.4406C26.6847 17.9285 27.1726 18.4165 27.5909 18.6256C28.2182 18.9044 28.9153 18.9741 29.5426 18.6953C28.7062 19.4621 27.4515 19.3924 26.6847 18.5559C26.6847 18.4862 26.615 18.4862 26.615 18.4165C26.1968 17.9982 26.1968 17.3012 26.5453 16.8132C27.3121 15.7677 28.5668 15.0706 29.8912 15.0009C30.3094 15.0009 30.7973 15.1403 31.1459 14.8615C31.0065 14.6524 30.7276 14.4432 30.5882 14.2341M13.9285 17.0224C14.6256 16.6738 15.5318 16.8132 16.0894 17.3012C15.3924 17.3709 14.6953 17.58 13.9983 17.8588C13.58 18.2771 13.0921 18.5559 12.6041 18.765C12.0465 18.8347 11.4191 18.6953 11.0009 18.3468C11.2797 18.1376 11.698 18.2074 12.0465 18.2074C12.8133 18.1376 13.2315 17.3709 13.9285 17.0224ZM27.2423 17.2315C27.8697 16.7435 28.6365 16.6738 29.3335 16.9527C29.8215 17.3012 30.3094 17.6497 30.7276 17.9982C31.2156 18.2074 31.7732 18.2771 32.3309 18.2771C31.9126 18.6953 31.2853 18.9044 30.7276 18.765C29.9609 18.5559 29.4729 17.7194 28.7062 17.58C28.2182 17.4406 27.6606 17.5103 27.2423 17.2315ZM22.6418 22.8079L23.4085 22.4594V23.2262C23.1994 23.4353 22.9206 23.7141 22.7115 23.9929L22.3629 23.4353C22.4326 23.2959 22.5024 23.0868 22.6418 22.8079ZM24.245 27.1297C24.8026 26.7812 25.4997 26.9206 25.9179 27.3388C26.4756 28.0359 26.8241 28.942 26.8241 29.8482C26.8938 31.3817 26.4756 32.9153 25.5694 34.17C25.1512 34.867 24.3844 35.2853 23.5479 35.2853C22.8509 35.0762 22.2932 34.5185 22.1538 33.7517C21.8053 32.2879 21.875 30.7544 22.5024 29.43C22.7812 28.4541 23.4085 27.6176 24.245 27.1297ZM23.6176 28.6632C23.8965 28.7329 24.1753 28.8026 24.3844 29.0117C24.5238 29.2906 24.5935 29.5694 24.5935 29.8482C24.3844 29.7088 24.1056 29.5694 23.8965 29.43C23.9662 29.7088 24.1056 30.0573 24.245 30.3362C24.4541 30.2665 24.7329 30.2665 24.9421 30.4059C25.2209 30.127 25.43 29.9179 25.6391 29.6391C25.3603 29.7088 25.0815 29.7785 24.8724 29.8482C25.0118 29.2906 25.5694 28.8723 26.1968 28.942C26.0574 28.5935 25.9179 28.3147 25.7785 27.9662C25.5694 28.1056 25.43 28.4541 25.0815 28.3844C24.7329 28.3147 24.6632 28.0359 24.5238 27.8268C24.1753 28.1056 23.8965 28.3844 23.6176 28.6632ZM23.4085 29.7785C23.3388 30.127 23.3388 30.4756 23.4782 30.7544L22.9206 30.4059C22.7115 31.1726 22.6418 32.0091 22.7115 32.8456C23.1297 32.2879 23.8965 31.8 23.9662 31.0332C23.8268 30.615 23.6176 30.127 23.4085 29.7785ZM24.8724 31.1726C24.7329 31.8697 25.2906 32.3576 25.5694 32.9153C25.8482 32.2879 25.9876 31.5909 26.1271 30.8938L25.6391 30.9635C25.8482 30.6847 25.9179 30.4059 25.9179 30.0573C25.5694 30.4059 25.2209 30.7544 24.8724 31.1726ZM22.8509 33.4729C22.9206 34.0306 23.4782 34.6579 24.0359 34.4488C24.5238 34.2397 24.9421 33.8912 25.2209 33.4729C25.0118 33.0547 24.7329 32.6364 24.5238 32.2182C24.3147 32.2879 24.1056 32.2879 23.8965 32.1485C23.5479 32.6365 23.1994 33.0547 22.8509 33.4729ZM12.5344 30.615C13.0224 30.615 13.4406 30.615 13.9285 30.615C13.6497 31.312 13.3709 32.0091 12.9527 32.7062L12.6041 32.6364C12.883 32.0788 13.1618 31.5212 13.4406 30.9635H12.6041L12.5344 30.615ZM11.3494 30.615H12.1859V32.2182H11.7677V30.9635H11.3494V30.615ZM29.3335 30.8938C29.6123 30.4756 30.5185 30.615 30.5185 31.2423C30.5185 31.5909 30.17 31.7303 29.8912 31.9394H30.5882C30.5882 32.0091 30.5882 32.2182 30.5882 32.2879H29.3335V31.9394C29.6123 31.7303 29.8912 31.5212 30.1003 31.2423C30.17 30.7544 29.5426 31.2423 29.3335 30.8938ZM31.4247 30.7544H31.9823V31.9394H32.2612C32.2612 32.0091 32.2612 32.1485 32.2612 32.2182H31.9823C31.9823 32.3576 31.9823 32.6365 31.9823 32.7759H31.5641C31.5641 32.6365 31.5641 32.3576 31.5641 32.2879H30.6579C30.9368 31.6606 31.1459 31.1726 31.4247 30.7544ZM31.2156 31.8697H31.6338C31.6338 31.5909 31.6338 31.3817 31.6338 31.1029L31.2156 31.8697ZM23.8965 33.8214C23.3388 33.4729 23.7571 32.7062 24.245 32.5667C24.5238 32.9153 24.6632 33.8214 23.8965 33.8214ZM30.6579 36.54C31.0065 36.6097 31.355 36.7491 31.6338 37.0279C32.1915 37.6553 32.1218 38.6311 31.4944 39.1888C31.4247 39.2585 31.2853 39.3282 31.2156 39.3979C30.0306 39.7464 28.7062 39.7464 27.5212 39.3282C27.9394 39.1191 28.4273 38.8403 28.4971 38.3523C28.4273 38.1432 28.3576 37.8644 28.2182 37.6553C28.5668 37.6553 28.9153 37.7947 29.1244 38.0735C29.4032 38.422 29.1244 38.8403 28.985 39.1888C29.3335 39.0494 29.6123 38.8403 29.7518 38.4917C29.9609 37.8644 29.6123 37.3067 29.3335 36.7491C29.8912 36.8188 30.3791 37.0976 30.6579 37.5856C30.867 38.0735 30.7973 38.6311 30.4488 38.9797L30.867 38.91C31.1459 38.5614 31.2853 38.1432 31.355 37.725C31.1459 37.3067 30.9368 36.8885 30.6579 36.54ZM11.698 37.0279C11.9768 36.7491 12.3253 36.54 12.7435 36.4703C12.4647 36.8885 12.2556 37.3764 12.2556 37.8644C12.3253 38.3523 12.5344 38.91 13.0921 39.0494C12.8133 38.7009 12.7435 38.2129 12.8133 37.725C13.0921 37.1673 13.58 36.8188 14.1377 36.7491C13.7891 37.237 13.6497 37.7947 13.7194 38.3523C13.8588 38.7706 14.1377 39.0494 14.5559 39.1888C14.4165 38.8403 14.1377 38.4917 14.3468 38.1432C14.5559 37.725 14.9044 37.725 15.253 37.6553C15.1135 37.8644 15.0438 38.1432 14.9741 38.3523C15.0438 38.8403 15.5318 39.1191 15.95 39.3282C14.765 39.7464 13.5103 39.7464 12.3253 39.3979C11.5585 39.0494 11.21 38.1432 11.5585 37.3764C11.5585 37.237 11.6283 37.0976 11.698 37.0279ZM14.8347 41.28C14.765 40.3041 15.7409 39.7464 16.5774 39.6767C17.6927 39.7464 18.8079 39.9556 19.8535 40.3041C19.7141 40.8617 19.0868 40.9314 18.5988 41.0011C17.7624 41.0011 16.9259 41.0011 16.1591 40.8617C15.6712 40.9314 15.253 41.0708 14.8347 41.28ZM23.6176 40.3041C24.5935 40.0253 25.6391 39.8161 26.6847 39.6767C27.6606 39.607 28.4971 40.3041 28.5668 41.2103C28.0788 41.1406 27.6606 40.792 27.1726 40.8617C26.1271 40.9314 24.9421 41.28 23.9662 40.792C23.7571 40.7223 23.4085 40.5132 23.6176 40.3041ZM19.2959 41.4891C19.7838 41.4194 20.1324 41.0708 20.5506 40.9314C20.4809 41.8376 19.5747 42.3256 18.8079 42.6044C17.623 43.0226 16.438 43.2317 15.253 43.3014C14.6953 43.3711 14.3468 43.8591 13.8588 44.2076C13.3709 43.7894 13.3012 43.0226 13.6497 42.5347C14.1377 42.0467 14.8347 41.7679 15.5318 41.7679C16.7865 41.7679 18.0412 41.6982 19.2959 41.4891ZM22.9206 40.9314C23.2691 41.1406 23.6874 41.3497 24.1056 41.4891C25.3603 41.6982 26.615 41.8376 27.8 41.8376C28.4971 41.7679 29.1941 42.0467 29.7518 42.5347C30.17 43.0226 30.1003 43.7894 29.6123 44.2773C29.6123 44.2773 29.6123 44.2773 29.5426 44.2773C29.1941 43.7894 28.5668 43.4408 27.9394 43.3711C26.4756 43.3014 25.0815 42.9529 23.7571 42.3256C23.2691 41.977 22.9206 41.4891 22.9206 40.9314Z" fill="white"/>
<path d="M57.0764 12.9097C58.5402 12.0732 60.2829 12.3521 61.8861 12.6309C61.8861 13.1188 61.8861 13.6068 61.8861 14.0947C60.9799 13.6068 60.0041 13.3977 59.0282 13.3977C58.3311 13.3977 57.7735 13.8856 57.6341 14.513C57.6341 15.21 57.9826 15.8374 58.6099 16.1859C59.7252 16.9527 61.1194 17.3709 62.0255 18.4165C62.7923 19.3924 62.9317 20.7168 62.3741 21.7624C61.8164 22.6685 60.9102 23.2262 59.8646 23.2959C58.6099 23.4353 57.3552 23.3656 56.1702 22.9474V21.2047C57.3552 21.9018 58.8888 22.4594 60.2132 21.9715C60.9799 21.5532 61.2588 20.6471 60.8405 19.8803C60.7708 19.7409 60.7011 19.6015 60.5617 19.5318C59.4464 18.3468 57.7038 18.0679 56.5885 16.8132C55.6126 15.6979 55.752 13.9553 56.8673 13.0491C56.937 13.0491 57.0067 12.9794 57.0764 12.9097ZM75.4787 12.5612C76.6637 12.5612 77.9184 12.4915 79.1034 12.6309C80.5673 12.5612 81.822 13.7462 81.8917 15.2797C81.8917 15.5585 81.8917 15.7677 81.822 16.0465C81.7523 16.8829 81.334 17.58 80.637 17.9982C79.5914 18.4862 78.4064 18.6953 77.2214 18.5559V23.2262H75.5484V12.5612M77.1517 13.6068V17.5103C78.0579 17.5103 79.2429 17.6497 79.8005 16.7435C80.2187 15.9768 80.149 15.0706 79.7308 14.3038C79.1034 13.4674 78.0579 13.6068 77.1517 13.6068ZM113.259 19.1135V12.5612H114.862C114.862 14.025 114.862 15.4888 114.862 16.8829C115.141 16.395 115.629 16.0465 116.117 15.7677C117.093 15.4191 118.208 15.7677 118.905 16.6041C119.463 17.5103 119.742 18.6256 119.672 19.7409C119.742 20.8562 119.324 21.9018 118.627 22.6685C117.72 23.3656 116.535 23.6444 115.42 23.3656C114.723 23.2959 114.096 22.8776 113.677 22.2503C113.329 21.2047 113.12 20.1591 113.259 19.1135ZM115.908 16.7435C115.42 17.0921 115.072 17.58 115.002 18.2074C114.862 19.1135 114.793 20.0197 114.932 20.8562C114.932 21.4138 115.141 22.0412 115.56 22.4594C116.117 22.8776 116.884 22.8079 117.302 22.2503L117.372 22.1806C118.139 20.5774 118.139 18.765 117.372 17.1618C117.023 16.6738 116.396 16.4647 115.908 16.7435ZM64.6743 14.0947C65.232 13.8159 65.7199 13.4674 66.2079 13.1885V15.8374H68.2293V16.6738H66.2079C66.2079 18.1377 66.2079 19.6015 66.2079 21.0653C66.2079 21.4835 66.2079 22.0412 66.6261 22.32C67.114 22.5291 67.602 22.5291 68.0899 22.3897C68.0899 22.6685 68.0899 23.0171 68.0899 23.2959C67.2535 23.4353 66.3473 23.4353 65.5108 23.1565C65.0229 22.8776 64.6743 22.32 64.6743 21.7624C64.6743 20.0894 64.6743 18.4165 64.6743 16.7435H63.4893V15.9071H64.6743C64.6743 15.2797 64.6743 14.7221 64.6743 14.0947ZM90.1867 14.0947C90.7443 13.8159 91.2322 13.4674 91.7899 13.1188V15.7677H93.8113C93.8113 16.0465 93.8113 16.3253 93.8113 16.6041H91.7899C91.7899 18.1376 91.7899 19.6712 91.7899 21.2047C91.7202 21.6229 91.8596 21.9715 92.2081 22.2503C92.6961 22.4594 93.184 22.4594 93.6719 22.32C93.6719 22.5988 93.6719 22.9473 93.6719 23.2262C92.7658 23.4353 91.7202 23.3656 90.8837 22.9474C90.3958 22.5291 90.117 21.8321 90.2564 21.2047V16.6041H89.0714V15.7677H90.2564L90.1867 14.0947ZM82.6584 16.7435C83.1464 16.0465 83.9828 15.6979 84.8193 15.6979C85.7255 15.5585 86.6317 15.8374 87.3287 16.4647C87.8167 17.0921 88.0955 17.9285 88.0258 18.765C86.562 18.765 85.0981 18.765 83.5646 18.765C83.6343 20.0197 83.9828 21.4138 85.0284 22.1806C85.8649 22.7382 86.9802 22.7382 87.8864 22.32C87.8864 22.5988 87.8864 22.8079 87.8864 23.0868C86.562 23.6444 85.0981 23.6444 83.7737 23.0171C82.7281 22.32 82.1008 21.2047 82.0311 19.95C81.8917 18.765 82.1008 17.6497 82.6584 16.7435ZM84.0525 16.8132C83.7737 17.1618 83.6343 17.58 83.5646 17.9982C84.5405 17.9982 85.4467 17.9982 86.4225 17.9982C86.4225 17.58 86.2831 17.1618 86.0043 16.8132C85.5164 16.2556 84.6799 16.2556 84.1223 16.7435C84.1223 16.7435 84.0525 16.7435 84.0525 16.8132ZM95.2055 16.8132C95.6934 16.1162 96.5299 15.6979 97.3663 15.6979C98.2725 15.5585 99.1787 15.8374 99.8757 16.4647C100.364 17.0921 100.643 17.9285 100.573 18.765C99.109 18.765 97.6452 18.765 96.1116 18.765C96.1813 20.0197 96.5299 21.4138 97.5755 22.1806C98.4119 22.6685 99.4575 22.7382 100.364 22.32C100.364 22.5291 100.364 22.8079 100.364 23.0171C99.109 23.5747 97.6452 23.5747 96.3905 23.0171C95.3449 22.3897 94.7175 21.3441 94.6478 20.0894C94.4387 18.9044 94.6478 17.7891 95.2055 16.8132ZM96.6693 16.8132C96.3905 17.1618 96.251 17.58 96.251 17.9982C97.2269 17.9982 98.1331 17.9982 99.109 17.9982C99.109 17.58 98.9696 17.1618 98.6908 16.7435C98.2028 16.1859 97.2966 16.1859 96.8087 16.7435C96.6693 16.7435 96.6693 16.7435 96.6693 16.8132ZM103.849 17.7194C104.267 16.7435 105.104 15.698 106.219 15.6282C106.219 16.1859 106.219 16.7435 106.219 17.3012C105.592 17.3012 104.964 17.5103 104.476 17.8588C103.988 18.3468 103.779 19.0438 103.849 19.7409C103.849 20.9259 103.849 22.0412 103.849 23.2262H102.315V15.8374H103.919C103.849 16.4647 103.849 17.0921 103.849 17.7194ZM108.031 16.1162C109.147 15.6282 110.332 15.5585 111.447 15.9768C111.447 16.4647 111.447 16.8829 111.447 17.3709C110.889 16.9527 110.192 16.6738 109.425 16.6738C109.007 16.6738 108.659 16.8829 108.519 17.3012C108.45 17.7194 108.798 18.0679 109.077 18.2771C109.844 18.8347 110.75 19.1135 111.377 19.8106C111.935 20.5076 112.074 21.4138 111.656 22.1806C111.377 22.7382 110.82 23.1565 110.192 23.2959C109.147 23.505 108.101 23.4353 107.055 23.1565V21.6229C107.683 22.1109 108.45 22.3897 109.216 22.3897C109.704 22.3897 110.122 22.1109 110.332 21.6926C110.401 21.3441 110.262 20.9259 109.913 20.7168C109.147 20.0894 108.101 19.7409 107.474 18.9741C106.777 18.1376 106.916 16.8829 107.753 16.1859C107.892 16.1859 107.962 16.1162 108.031 16.1162ZM131.313 17.7194C131.731 16.7435 132.568 15.7677 133.683 15.6282C133.683 16.1859 133.683 16.7435 133.683 17.3012C133.056 17.3012 132.428 17.5103 131.94 17.8588C131.452 18.3468 131.243 19.0438 131.313 19.6712C131.313 20.8562 131.313 21.9715 131.313 23.1565H129.71V15.8374H131.313V17.7194ZM135.077 16.6041C135.705 15.7677 136.82 15.4888 137.796 15.7677C138.423 15.9768 138.841 16.4647 139.12 17.0921C139.12 16.6738 139.12 16.2556 139.12 15.9071H140.654C140.654 18.2771 140.654 20.6471 140.654 23.0171C140.723 23.9232 140.514 24.8294 140.026 25.6659C139.538 26.2235 138.911 26.572 138.214 26.7115C137.099 26.8509 135.983 26.7812 134.938 26.5023V24.9688C135.635 25.5265 136.541 25.8053 137.447 25.875C138.005 25.875 138.562 25.5962 138.841 25.1082C139.26 24.2718 139.12 23.2959 139.12 22.3897C138.284 23.8535 135.844 23.7141 135.007 22.32C134.52 21.4138 134.31 20.3682 134.38 19.3226C134.38 18.2074 134.589 17.3709 135.077 16.6041ZM136.959 16.8829C136.262 17.3012 136.123 18.2074 136.053 18.9741C135.914 19.95 136.123 20.9259 136.541 21.8321C136.89 22.3897 137.656 22.5291 138.214 22.1806C138.353 22.1109 138.423 22.0412 138.493 21.9018C138.841 21.2047 139.05 20.4379 138.981 19.6712C139.05 18.8347 138.841 17.9982 138.493 17.3012C138.144 16.6738 137.517 16.5344 136.959 16.8829ZM121.415 15.8374H123.018V20.5774C122.948 21.0653 123.157 21.5532 123.436 21.9715C123.924 22.2503 124.552 22.1109 124.9 21.6926C125.527 20.9956 125.806 20.0894 125.876 19.1832C125.946 18.0679 125.876 16.8829 125.876 15.7677H127.41V23.1565H125.806C125.806 22.5988 125.806 21.9715 125.806 21.4138C125.527 22.1109 124.97 22.7382 124.342 23.0868C123.645 23.4353 122.739 23.4353 122.112 22.9474C121.624 22.4594 121.345 21.7624 121.415 21.0653C121.415 19.3924 121.415 17.6497 121.415 15.8374ZM55.9611 29.0118H57.7038C57.7038 31.5212 57.7038 33.9609 57.7038 36.4703C57.7038 37.237 57.7735 38.2129 58.5402 38.7009C59.307 39.1191 60.2132 39.0494 60.8405 38.5614C61.3285 38.0038 61.5376 37.237 61.4679 36.4703C61.4679 33.9609 61.4679 31.5212 61.4679 29.0118H63.2105C63.2105 31.312 63.2105 33.682 63.2105 35.9823C63.2105 37.0279 63.0711 38.2826 62.3043 39.0494C61.4679 39.6767 60.4223 39.9556 59.3767 39.8858C58.4008 39.9556 57.3552 39.607 56.7279 38.8403C56.1702 37.9341 55.9611 36.8885 56.0308 35.8429C55.9611 33.6123 55.9611 31.312 55.9611 29.0118ZM73.8058 29.0118H75.4787V30.5453H73.8058V29.0118ZM102.943 29.0118H104.616C104.616 29.4997 104.616 30.0573 104.616 30.5453H102.943V29.0118ZM107.404 30.615L109.007 29.6391V32.2879H111.029V33.1244H109.007C109.007 34.6579 109.007 36.1217 109.007 37.6553C108.938 38.0735 109.077 38.4917 109.425 38.7706C109.844 38.91 110.332 38.9797 110.82 38.8403C110.82 39.1191 110.82 39.4676 110.82 39.7464C109.913 39.9556 109.007 39.8858 108.171 39.5373C107.613 39.1888 107.334 38.5614 107.404 37.9341C107.404 36.3309 107.404 34.7276 107.404 33.1244H106.219C106.219 32.8456 106.219 32.5667 106.219 32.2879H107.404C107.404 31.8 107.404 31.1726 107.404 30.615ZM68.299 32.5667C68.9264 32.1485 69.7629 32.0788 70.4599 32.3576C71.157 32.7759 71.5055 33.5426 71.5055 34.3094C71.5055 36.1217 71.5055 37.9341 71.5055 39.7464H69.9023C69.9023 38.0735 69.9023 36.4006 69.9023 34.7973C69.9023 34.3094 69.7629 33.6123 69.2749 33.4032C68.5082 33.3335 67.7414 33.7517 67.5323 34.5185C66.7655 36.1217 67.1141 38.0038 67.0443 39.7464H65.4411V32.2879H66.9746C66.9746 32.8456 66.9746 33.4729 66.9746 34.0306C67.3232 33.4729 67.7414 32.9153 68.299 32.5667ZM84.5405 33.682C84.9587 32.8456 85.7255 32.2879 86.7014 32.2182C87.6772 32.0091 88.6531 32.2879 89.4199 32.8456C89.9775 33.4729 90.2564 34.3094 90.1867 35.1459H85.7952C85.7255 36.4703 86.2831 37.725 87.259 38.5614C88.0955 39.1191 89.2108 39.1191 90.1169 38.7009C90.1169 38.91 90.1169 39.1888 90.1169 39.3979C88.9319 39.8859 87.6075 39.9556 86.4225 39.5373C85.377 39.1191 84.6102 38.1432 84.4011 36.9582C83.9828 35.9126 84.1222 34.7276 84.5405 33.682ZM86.2134 33.1941C85.9346 33.5426 85.7255 33.9609 85.7255 34.3791H88.5834C88.5834 33.9609 88.444 33.5426 88.1652 33.1941C87.6773 32.6365 86.8408 32.6365 86.2134 33.1941C86.2831 33.1941 86.2831 33.1244 86.2134 33.1941ZM97.5755 32.497C98.621 32.0091 99.8757 31.9394 100.991 32.3576V33.7517C100.294 33.2638 99.3181 32.7759 98.4816 33.1941C98.1331 33.3335 97.9937 33.7517 98.1331 34.1003C98.2028 34.17 98.2725 34.3094 98.3422 34.3791C99.109 35.0762 100.224 35.355 100.921 36.1914C101.479 36.8885 101.618 37.7947 101.27 38.6311C100.921 39.2585 100.364 39.6767 99.7363 39.7464C98.7605 39.9556 97.7149 39.8858 96.739 39.5373C96.739 39.0494 96.739 38.5614 96.739 38.0735C97.3663 38.5614 98.0634 38.8403 98.8302 38.8403C99.3181 38.91 99.8061 38.6311 100.015 38.1432C100.085 37.725 99.8757 37.3067 99.5272 37.1673C98.7605 36.6097 97.7846 36.2612 97.1572 35.4944C96.4602 34.6579 96.5996 33.4032 97.436 32.7062C97.436 32.6365 97.5058 32.5667 97.5755 32.497ZM73.8755 32.2879H75.409C75.409 34.7276 75.409 37.237 75.409 39.6767H73.8058L73.8755 32.2879ZM76.6637 32.2879H78.3367L80.2187 37.5856C80.7764 35.8429 81.4037 34.1003 81.9614 32.2879H83.4252C82.5887 34.7276 81.6826 37.237 80.8461 39.6767H79.452C78.5458 37.1673 77.6396 34.7276 76.6637 32.2879ZM93.3931 34.17C93.8114 33.1941 94.5781 32.2182 95.7631 32.0788C95.7631 32.6365 95.7631 33.1941 95.7631 33.7517C95.1358 33.7517 94.5781 33.8912 94.0902 34.2397C93.6022 34.7276 93.3234 35.355 93.3931 36.052C93.3931 37.237 93.3931 38.422 93.3931 39.607H91.7899C91.7899 37.1673 91.7899 34.6579 91.7899 32.2182H93.3931C93.4628 32.8456 93.4628 33.4729 93.3931 34.17ZM103.013 32.3576H104.616V39.7464H103.013V32.3576ZM111.238 32.3576H112.911C113.538 34.1003 114.235 35.8429 114.862 37.6553C115.42 35.9126 115.978 34.17 116.605 32.3576H118.069C116.814 35.9126 115.56 39.4676 114.305 43.0226H113.05C113.399 41.9073 113.817 40.8617 114.096 39.7464C113.19 37.3067 112.214 34.7973 111.238 32.3576Z" fill="white"/>
</svg>
