<svg width="154" height="36" viewBox="0 0 154 36" fill="none" xmlns="http://www.w3.org/2000/svg">
<path d="M46.877 20.8041H48.8049V20.7964H48.821V19.9459H48.8049V19.9369H43.8928V19.9459H43.8916V20.7964H43.8928V20.8041H45.8066V26.1289H45.8182V26.1386H46.877V20.8041Z" fill="white"/>
<path d="M49.8669 26.1289H49.8502V19.5969H50.8839V19.6059H50.8871V22.0256C51.042 21.8393 51.2367 21.6902 51.457 21.5892C51.6787 21.4876 51.9206 21.4374 52.1645 21.4425C52.4704 21.4425 52.7292 21.4969 52.9411 21.6057C53.0632 21.6661 53.1743 21.7476 53.2689 21.8469C53.4113 21.9987 53.5149 22.1826 53.5711 22.383C53.6418 22.6016 53.6771 22.8677 53.6771 23.1827V26.1386H52.6486V26.1289H52.6235V23.1609C52.6235 22.8433 52.5547 22.6183 52.4178 22.4865C52.2796 22.3547 52.0771 22.2891 51.8109 22.2891C51.6069 22.2891 51.4285 22.3338 51.2755 22.4232C51.1641 22.4927 51.0688 22.5814 50.99 22.689C50.9514 22.7404 50.918 22.7957 50.8871 22.8536V26.1386H49.8669V26.1289Z" fill="white"/>
<path fill-rule="evenodd" clip-rule="evenodd" d="M55.1601 22.5454C55.2699 22.3267 55.4181 22.1305 55.5968 21.9657C55.6425 21.9234 55.6902 21.8833 55.7397 21.8457C55.7864 21.81 55.8348 21.7763 55.8847 21.7446C56.2057 21.543 56.578 21.4381 56.957 21.4425C57.5831 21.4425 58.0672 21.6418 58.4092 22.0416C58.5446 22.2007 58.6532 22.3858 58.7351 22.597C58.7602 22.6608 58.7828 22.7271 58.8026 22.7957C58.8843 23.0709 58.9254 23.3743 58.9254 23.706V24.1438H58.9216V24.156H55.9143C55.9464 24.5353 56.0731 24.8361 56.2955 25.0573C56.5179 25.2784 56.7976 25.389 57.1351 25.389C57.6088 25.389 57.9946 25.1974 58.2922 24.8143L58.8496 25.3466L58.8402 25.3604L58.8444 25.3646C58.7348 25.5203 58.6047 25.6604 58.4574 25.7811C58.2986 25.9116 58.1045 26.0184 57.875 26.1C57.6206 26.1867 57.353 26.2285 57.0843 26.2234C56.7688 26.228 56.4553 26.1717 56.1611 26.0576C55.8983 25.9505 55.6608 25.7898 55.4636 25.5857C55.2713 25.3808 55.1222 25.1392 55.0252 24.8754C54.9215 24.5934 54.8696 24.295 54.8722 23.9946V23.8249C54.8722 23.4649 54.9249 23.1384 55.0297 22.8465C55.0677 22.7406 55.1112 22.6402 55.1601 22.5454ZM56.2659 22.5694C56.4401 22.3708 56.669 22.2711 56.9525 22.2711C57.2386 22.2711 57.4623 22.3605 57.6243 22.5373C57.7863 22.7147 57.8782 22.9764 57.9001 23.3216V23.3987H55.9316C55.9529 23.2419 55.9867 23.1004 56.0327 22.9742C56.0654 22.8876 56.1054 22.8038 56.1523 22.7238C56.1867 22.6679 56.2245 22.6165 56.2659 22.5694Z" fill="white"/>
<path d="M63.9603 26.1289V26.1386H62.9356V22.293H62.2503V22.2846H62.2291V21.5357H62.2503V21.5274H62.9356V21.0934C62.9356 20.7508 62.9992 20.4628 63.1265 20.2301C63.2524 19.9991 63.4472 19.8133 63.6839 19.6984C63.7178 19.6812 63.7527 19.6652 63.7884 19.6504C64.0095 19.5551 64.2694 19.5075 64.5684 19.5075C64.7504 19.5075 64.9432 19.5332 65.147 19.584L65.1213 20.3921C64.9909 20.3679 64.8585 20.3565 64.7259 20.358C64.2322 20.358 63.9866 20.6119 63.9866 21.1191V21.5274H64.9207V22.293H63.986V26.1289H63.9603Z" fill="white"/>
<path d="M69.791 26.1289V26.1386H68.8216L68.7968 25.6972C68.6437 25.8715 68.4591 26.0017 68.2429 26.0877C68.031 26.1784 67.7817 26.2234 67.4941 26.2234C67.2703 26.2234 67.0646 26.1913 66.8776 26.1257C66.6905 26.0608 66.5285 25.9599 66.3929 25.8236C66.2591 25.6879 66.1556 25.5111 66.0824 25.2926C66.0084 25.074 65.9718 24.813 65.9718 24.5096V21.5364H66.0014V21.5274H67.0351V24.4954C67.0351 25.0798 67.2774 25.3723 67.7621 25.3723C68.1096 25.3723 68.3792 25.2859 68.5702 25.1131C68.6497 25.0345 68.7148 24.9418 68.7618 24.8394V21.5364H68.7778V21.5274H69.8116V26.1289H69.791Z" fill="white"/>
<path d="M72.5077 21.5274V20.4088H71.4451V21.5274H70.7174V21.5357H70.6961V22.2846H70.7174V22.293H71.4451V24.93C71.4451 25.245 71.4959 25.497 71.5981 25.6873C71.7003 25.8769 71.8417 26.0151 72.0236 26.0994C72.2049 26.1816 72.4132 26.2228 72.6485 26.2228C72.7931 26.2228 72.9211 26.2131 73.0316 26.1932C73.1448 26.1739 73.2444 26.1508 73.3293 26.1251L73.3293 26.1206L73.3454 26.1161V25.3164C73.2239 25.3453 73.1036 25.3588 72.9841 25.3588C72.8054 25.3588 72.6819 25.3196 72.6119 25.2424C72.5424 25.1646 72.5077 25.0374 72.5077 24.8612V22.293H73.3203V21.5274H72.5077Z" fill="white"/>
<path d="M78.2201 26.1289V26.1386H77.2501L77.226 25.7001C77.0609 25.8874 76.8593 26.0233 76.6212 26.1082C76.4209 26.1851 76.1884 26.2234 75.9232 26.2234C75.6989 26.2234 75.4938 26.1913 75.3067 26.1257C75.119 26.0608 74.9576 25.9599 74.8214 25.8236C74.6883 25.6879 74.5848 25.5111 74.5108 25.2926C74.4376 25.074 74.4003 24.813 74.4003 24.5096V21.5364H74.4337V21.5274H75.4674V24.4954C75.4674 25.0798 75.7098 25.3723 76.1945 25.3723C76.5191 25.3723 76.7752 25.297 76.9633 25.1466C77.0591 25.0611 77.1367 24.9567 77.1909 24.8394V21.5364H77.2109V21.5274H78.2446V26.1289H78.2201Z" fill="white"/>
<path d="M81.6337 22.4376C81.7748 22.4374 81.9156 22.4488 82.0548 22.4717L82.0586 21.5016C81.9622 21.4618 81.8401 21.4425 81.6929 21.4425C81.4708 21.4425 81.2728 21.493 81.0991 21.594L81.0849 21.6021L81.0731 21.609C80.9076 21.7093 80.7681 21.8478 80.6544 22.023L80.6302 21.5274H79.6434V21.5364H79.6145V26.1386H80.6392V26.1289H80.6765V22.9821C80.8411 22.6189 81.1599 22.4376 81.6337 22.4376Z" fill="white"/>
<path fill-rule="evenodd" clip-rule="evenodd" d="M85.0608 25.389C85.4761 25.389 85.8233 25.2418 86.1036 24.9473C86.1347 24.9137 86.1646 24.8783 86.1935 24.8413L86.1952 24.8429C86.2028 24.8335 86.2104 24.824 86.2179 24.8143L86.7753 25.3466C86.5906 25.6221 86.3356 25.8431 86.0366 25.9869C86.0033 26.0028 85.9697 26.0179 85.9358 26.0322C85.8797 26.0575 85.8224 26.0801 85.7641 26.1C85.5097 26.1867 85.2421 26.2285 84.9734 26.2234C84.6326 26.2234 84.3253 26.1681 84.0502 26.0576C83.7874 25.9506 83.5498 25.7899 83.3527 25.5857C83.1603 25.3808 83.0112 25.1392 82.9143 24.8754C82.8108 24.5934 82.7589 24.295 82.7613 23.9946V23.8249C82.7613 23.4649 82.814 23.1384 82.9188 22.8465C83.0236 22.5546 83.1695 22.3052 83.3566 22.0982C83.5399 21.8911 83.7667 21.7269 84.0206 21.6174C84.1402 21.5662 84.264 21.5267 84.3904 21.499C84.5505 21.4598 84.7156 21.4406 84.8821 21.4425C85.5089 21.4425 85.9929 21.6418 86.3343 22.0416C86.6756 22.4421 86.8473 23.0072 86.8473 23.7388V24.156H83.84C83.8715 24.5353 83.9988 24.8361 84.2212 25.0573C84.4436 25.2784 84.7233 25.389 85.0608 25.389ZM84.1916 22.5694C84.3659 22.3708 84.5941 22.2711 84.8782 22.2711C84.9179 22.2711 84.9563 22.2729 84.9936 22.2763C85.1527 22.2937 85.2847 22.3405 85.3899 22.4164C85.526 22.5157 85.6308 22.6517 85.6921 22.8086C85.7607 22.9732 85.7982 23.1491 85.8026 23.3274V23.3987H83.8574C83.9056 23.0439 84.0174 22.7674 84.1916 22.5694Z" fill="white"/>
<path fill-rule="evenodd" clip-rule="evenodd" d="M91.5009 21.6302C91.6693 21.555 91.8514 21.5035 92.0471 21.4757C92.1779 21.4536 92.3142 21.4425 92.4562 21.4425C93.0766 21.4425 93.5806 21.6418 93.9676 22.0416C94.3546 22.4421 94.5641 22.9719 94.595 23.6327L94.5995 23.8751C94.5995 24.3283 94.5121 24.7346 94.3379 25.0914C94.1753 25.4355 93.9148 25.724 93.5889 25.9206C93.3906 26.04 93.1735 26.123 92.9377 26.1694C92.7731 26.2054 92.5977 26.2234 92.4112 26.2234C92.0737 26.2234 91.7716 26.1656 91.5048 26.0492C91.2412 25.9303 91.0175 25.7657 90.833 25.5561C90.6485 25.3434 90.5084 25.0946 90.4119 24.8117C90.3155 24.5282 90.2673 24.2203 90.2673 23.8886V23.7909C90.2673 23.4591 90.3155 23.1512 90.4119 22.8677C90.5008 22.5947 90.6423 22.3418 90.8285 22.1233C91.013 21.9111 91.2374 21.7459 91.5009 21.6302ZM92.4646 25.389C92.1155 25.389 91.8429 25.2553 91.6481 24.9872C91.4521 24.7191 91.3544 24.3489 91.3544 23.8751C91.3544 23.3415 91.4534 22.9416 91.652 22.6736C91.8506 22.4055 92.1187 22.2718 92.4556 22.2718C92.485 22.2718 92.5138 22.2728 92.5421 22.2748C92.662 22.2893 92.7786 22.3261 92.8856 22.3837C93.034 22.4635 93.1592 22.5804 93.2489 22.7231C93.3427 22.8645 93.4102 23.0278 93.4533 23.2123C93.4983 23.3936 93.5208 23.5864 93.5208 23.7909V23.8886C93.5208 24.0956 93.4983 24.291 93.4533 24.4755C93.4102 24.66 93.344 24.8214 93.2534 24.9602C93.1655 25.0964 93.0457 25.2089 92.9043 25.2881C92.8608 25.3118 92.8158 25.3321 92.7696 25.3488C92.6755 25.3756 92.5738 25.389 92.4646 25.389Z" fill="white"/>
<path d="M97.1317 26.1289V26.1386H96.1064V22.293H95.4841V22.2853H95.4005V21.5357H95.4841V21.5274H96.1064V21.0934C96.1064 20.7501 96.17 20.4628 96.2979 20.2301C96.4284 19.9948 96.6142 19.8174 96.8553 19.6984C97.0479 19.6008 97.2685 19.5426 97.5173 19.5232C97.6078 19.5127 97.7025 19.5075 97.8016 19.5075C97.9835 19.5075 98.1764 19.5332 98.3801 19.584L98.3544 20.3921C98.3284 20.3872 98.3023 20.3829 98.2761 20.3791L98.276 20.3831C98.2661 20.3807 98.2562 20.3785 98.2463 20.3763L98.2289 20.3728C98.1396 20.3619 98.0497 20.357 97.9597 20.358C97.466 20.358 97.2191 20.6119 97.2191 21.1191V21.5274H98.1545V22.293H97.2191V26.1289H97.1317Z" fill="white"/>
<path d="M102.772 21.9393L102.747 21.5274H101.773V21.5364H101.673V26.1386H102.698V26.1289H102.807V22.7951C102.979 22.4569 103.273 22.2885 103.687 22.2885C103.73 22.2885 103.771 22.2902 103.811 22.2937C103.889 22.3077 103.965 22.3308 104.038 22.3624C104.163 22.4161 104.264 22.5129 104.323 22.635C104.391 22.7623 104.425 22.9378 104.425 23.1621V26.1386H105.45V26.1296H105.55L105.545 22.9731C105.598 22.7803 105.707 22.608 105.858 22.4781C106.007 22.3521 106.199 22.2885 106.435 22.2885C106.492 22.2885 106.545 22.2911 106.596 22.2962C106.668 22.309 106.734 22.3281 106.794 22.3534C106.917 22.4029 107.018 22.497 107.075 22.617C107.143 22.7443 107.177 22.9243 107.177 23.157V26.1386H108.206V26.1289H108.293V23.1049C108.287 22.5579 108.16 22.1439 107.912 21.8636C107.664 21.5826 107.286 21.4425 106.778 21.4425C106.692 21.4425 106.609 21.4472 106.528 21.4567C106.322 21.4732 106.119 21.5261 105.931 21.6135C105.697 21.724 105.494 21.8885 105.338 22.0927C105.105 21.659 104.694 21.4425 104.104 21.4425C104.005 21.4425 103.91 21.4483 103.819 21.4599C103.598 21.4792 103.399 21.5318 103.221 21.618C103.051 21.6988 102.901 21.8057 102.772 21.9393Z" fill="white"/>
<path fill-rule="evenodd" clip-rule="evenodd" d="M110.638 21.6302C110.881 21.5255 111.14 21.4657 111.404 21.4536C111.482 21.4462 111.562 21.4425 111.644 21.4425C112.265 21.4425 112.769 21.6418 113.155 22.0416C113.543 22.4421 113.751 22.9719 113.782 23.6327L113.787 23.8751C113.787 24.3283 113.7 24.7346 113.526 25.0914C113.363 25.4355 113.102 25.724 112.776 25.9206C112.504 26.0843 112.198 26.1794 111.856 26.206C111.757 26.2176 111.654 26.2234 111.548 26.2234C111.238 26.2289 110.929 26.1698 110.643 26.0499C110.386 25.9357 110.156 25.7673 109.971 25.5561C109.783 25.3379 109.64 25.085 109.55 24.8117C109.451 24.5141 109.402 24.2021 109.405 23.8886V23.7909C109.405 23.4591 109.453 23.1512 109.55 22.8677C109.646 22.5816 109.785 22.3335 109.966 22.1233C110.151 21.9108 110.38 21.7424 110.638 21.6302ZM111.652 25.389C111.303 25.389 111.031 25.2553 110.835 24.9872C110.64 24.7191 110.542 24.3489 110.542 23.8751C110.542 23.3415 110.641 22.9416 110.839 22.6736C111.038 22.4055 111.306 22.2718 111.644 22.2718L111.657 22.2719C111.79 22.2845 111.92 22.3251 112.038 22.3914C112.18 22.4713 112.3 22.5856 112.387 22.7237C112.483 22.8731 112.552 23.0386 112.591 23.2123C112.636 23.3936 112.659 23.5864 112.659 23.7909V23.8886C112.659 24.0962 112.636 24.291 112.591 24.4755C112.553 24.6476 112.485 24.8117 112.391 24.9602C112.303 25.0963 112.183 25.2089 112.042 25.2881C111.97 25.3294 111.89 25.36 111.803 25.3798C111.755 25.3859 111.704 25.389 111.652 25.389Z" fill="white"/>
<path d="M115.992 21.9552L115.968 21.5274H114.994V21.5364H114.874V26.1386H115.899V26.1289H116.028V22.8542C116.232 22.4775 116.543 22.2885 116.959 22.2885C116.985 22.2885 117.01 22.2891 117.034 22.2902C117.119 22.3039 117.202 22.3281 117.281 22.3624C117.405 22.4173 117.503 22.5158 117.558 22.6389C117.623 22.7661 117.656 22.941 117.656 23.1621V26.1386H118.685V26.1289H118.8V23.0882C118.783 21.9915 118.296 21.4425 117.337 21.4425C117.266 21.4425 117.197 21.4459 117.129 21.4527C116.903 21.4617 116.679 21.5161 116.473 21.6129C116.293 21.6972 116.13 21.8133 115.992 21.9552Z" fill="white"/>
<path fill-rule="evenodd" clip-rule="evenodd" d="M122.287 25.389C122.363 25.389 122.437 25.3841 122.509 25.3742C122.619 25.3493 122.722 25.3119 122.818 25.2624C123.011 25.1634 123.179 25.0226 123.32 24.8413L123.377 24.8959C123.4 24.8697 123.422 24.8425 123.444 24.8143L124.002 25.3466C123.817 25.6217 123.562 25.8427 123.264 25.9869C122.991 26.1175 122.695 26.1932 122.394 26.2103C122.296 26.2209 122.198 26.2253 122.1 26.2234C121.784 26.228 121.471 26.1717 121.177 26.0576C120.914 25.9508 120.677 25.79 120.48 25.5857C120.287 25.3808 120.138 25.1392 120.041 24.8754C119.937 24.5934 119.886 24.295 119.888 23.9946V23.8249C119.888 23.4649 119.94 23.1384 120.046 22.8465C120.151 22.5546 120.296 22.3052 120.484 22.0982C120.667 21.8911 120.893 21.7269 121.147 21.6174C121.381 21.5173 121.631 21.4616 121.885 21.4527C121.959 21.4451 122.034 21.4417 122.109 21.4425C122.736 21.4425 123.22 21.6418 123.562 22.0416C123.903 22.4421 124.074 23.0072 124.074 23.7388V24.156H121.067C121.098 24.5353 121.225 24.8361 121.447 25.0573C121.67 25.2784 121.95 25.389 122.287 25.389ZM121.418 22.5694C121.585 22.3794 121.802 22.2799 122.068 22.2717C122.251 22.284 122.4 22.3324 122.517 22.4164C122.653 22.5157 122.757 22.6518 122.818 22.8086C122.887 22.9731 122.925 23.149 122.929 23.3274V23.3987H121.084C121.132 23.0439 121.243 22.7674 121.418 22.5694Z" fill="white"/>
<path d="M128.815 21.5274H127.714L127.711 21.537H127.607L126.718 24.4541L125.804 21.5274H124.69L124.694 21.537H124.545L126.175 26.127L126.025 26.5294C125.974 26.6831 125.912 26.8052 125.838 26.8959C125.767 26.9866 125.671 27.0545 125.561 27.0913C125.548 27.0958 125.534 27.1002 125.521 27.1042C125.441 27.1174 125.353 27.1241 125.256 27.1241L125.06 27.1112V27.1515C125.017 27.1491 124.975 27.146 124.932 27.1421L124.936 27.9251C125.013 27.9427 125.092 27.9581 125.17 27.9714C125.255 27.9887 125.343 27.9971 125.434 27.9971C125.508 27.9971 125.579 27.9931 125.646 27.9851C126.272 27.9521 126.718 27.5658 126.986 26.8264L128.815 21.5274Z" fill="white"/>
<path fill-rule="evenodd" clip-rule="evenodd" d="M12.9425 30.3744C17.053 30.3744 20.773 28.8742 22.9618 26.6437L20.7352 36L36.3817 13.5L27.563 17.1566L29.2704 12.6566H37.2354L39.227 4.5H23.3992L23.3728 4.45821C21.3736 1.773 17.375 0 12.9425 0C6.1957 0 0.821411 3.67586 0.821411 8.08136V22.572C1.05863 26.8727 6.31013 30.3744 12.9425 30.3744ZM12.9418 29.2603C14.1474 29.2065 15.4144 29.048 16.582 28.7773L17.4528 25.1498C16.0847 25.4792 14.497 25.7021 12.9418 25.6371C8.02848 25.7066 3.95148 23.778 1.94898 20.8993V22.2936C2.00555 26.0473 6.84498 29.2018 12.9418 29.2603ZM14.7605 4.5H21.9885L21.9631 4.45821C19.9528 2.42421 16.5772 1.16421 12.9425 1.11407C6.84498 1.16357 2.00555 4.31871 1.94963 8.08071C2.0062 12.0362 6.84498 15.1914 12.9425 15.3257C15.7382 15.2024 18.3899 14.4092 20.3298 13.1646L20.4517 12.6566H12.7696L14.7605 4.5ZM19.9384 14.7951C17.891 15.7556 15.4763 16.3635 12.9425 16.4411C8.02848 16.3556 3.95148 14.4264 1.94963 11.7032V12.8179C2.00555 16.7034 6.84498 19.8579 12.9425 19.7846C15.1656 19.8525 17.3092 19.3946 19.0277 18.5887L19.9384 14.7951ZM17.7682 23.836L18.6966 19.9682C16.9734 20.6413 14.9786 21.0211 12.9425 20.8999C8.01948 21.0311 3.95148 19.1025 1.94963 16.4411V17.5558C2.00555 21.3795 6.84498 24.534 12.9425 24.5218C14.5663 24.5327 16.2217 24.2542 17.7682 23.836ZM24.7183 24.4684L23.5805 30.0934L32.9681 16.0316L25.2866 19.4066L28.7008 11.5316H36.3817L37.8043 5.625H15.6136L14.1909 11.5316H21.8731L18.1741 27.2816L24.7177 24.4697L24.7183 24.4684Z" fill="white"/>
<path d="M50.063 12.1481C50.698 11.5902 51.0503 10.8286 51.1192 9.86014H49.2929C49.2523 10.4079 49.0936 10.8129 48.8152 11.0751C48.5368 11.3361 48.1164 11.4673 47.552 11.4673C46.9271 11.4673 46.4694 11.2429 46.1788 10.7929C45.8889 10.3442 45.7436 9.63257 45.7436 8.65993V7.97979C45.752 7.04829 45.9069 6.36107 46.2097 5.9175C46.5118 5.47457 46.967 5.25343 47.5764 5.25343C48.1364 5.25343 48.5529 5.38393 48.8274 5.64557C49.1013 5.90721 49.2607 6.32893 49.3057 6.91007H51.1321C51.0337 5.904 50.6731 5.12293 50.0482 4.56686C49.4227 4.01014 48.5986 3.73179 47.5764 3.73179C46.8371 3.73179 46.1891 3.90729 45.6305 4.26086C45.0731 4.6125 44.6437 5.11907 44.3435 5.778C44.0433 6.43821 43.8928 7.20064 43.8928 8.06593V8.61686C43.8928 9.97329 44.2181 11.0398 44.8706 11.8164C45.5206 12.5936 46.4154 12.9819 47.5513 12.9819C48.5908 12.9819 49.4278 12.7041 50.063 12.1481Z" fill="white"/>
<path fill-rule="evenodd" clip-rule="evenodd" d="M60.0871 10.8919C60.3956 10.2246 60.5499 9.44807 60.5499 8.56093L60.5506 8.56157V8.1585C60.5506 7.2765 60.3931 6.49864 60.0781 5.82493C59.7644 5.15121 59.3195 4.63371 58.7454 4.27243C58.1707 3.91243 57.515 3.73179 56.7757 3.73179C56.0371 3.73179 55.3807 3.91243 54.8066 4.27243C54.2313 4.63371 53.7877 5.15121 53.4727 5.82493C53.1584 6.49864 53.0008 7.27843 53.0008 8.16493V8.60979C53.0047 9.47636 53.1654 10.242 53.4817 10.908C53.7986 11.5734 54.2454 12.0851 54.8208 12.4444C55.3981 12.8031 56.0531 12.9819 56.7879 12.9819C57.5304 12.9819 58.1894 12.8006 58.7628 12.438C59.3381 12.0748 59.7785 11.5605 60.0871 10.8919ZM58.2009 6.00107C58.5333 6.49157 58.6998 7.20836 58.6998 8.15271V8.59179C58.6959 9.52779 58.5288 10.2401 58.2009 10.7286C57.8711 11.2172 57.4006 11.4615 56.7879 11.4615C56.1624 11.4615 55.6835 11.2076 55.3511 10.7004C55.0181 10.1938 54.8523 9.48086 54.8523 8.56157V8.1225C54.8555 7.18586 55.0246 6.47614 55.3569 5.99143C55.6899 5.50736 56.1624 5.265 56.7757 5.265C57.3928 5.265 57.8679 5.51057 58.2009 6.00107Z" fill="white"/>
<path d="M62.9426 12.8584H64.7683V3.85521H62.9426V12.8584Z" fill="white"/>
<path d="M72.7931 12.8584H74.6201V3.85521H72.7996V9.79136L69.2381 3.85521H67.4118V12.8584H69.2381V6.93514L72.7931 12.8584Z" fill="white"/>
<path d="M80.9465 5.35821H83.6619V3.85521H76.4414V5.35821H79.1201V12.8584H80.9465V5.35821Z" fill="white"/>
<path d="M87.4799 8.95693H90.986V7.50343H87.4799V5.35821H91.5832V3.85521H85.6529V12.8584H91.5948V11.3683H87.4799V8.95693Z" fill="white"/>
<path d="M99.3213 11.3683H95.4429V3.85521H93.6166V12.8584H99.3213V11.3683Z" fill="white"/>
<path d="M103.145 8.95629H106.652V7.50343H103.145V5.35821H107.248V3.85521H101.319V12.8584H107.26V11.3683H103.145V8.95629Z" fill="white"/>
<path d="M114.901 12.6508C115.502 12.4309 115.967 12.1204 116.296 11.7206V8.12829H112.807V9.495H114.469V11.0469C114.177 11.3439 113.687 11.4917 113.002 11.4917C112.32 11.4917 111.802 11.2506 111.449 10.7685C111.097 10.2857 110.92 9.57343 110.92 8.62907V8.05436C110.924 7.11836 111.088 6.41314 111.412 5.93936C111.737 5.46557 112.21 5.22836 112.832 5.22836C113.318 5.22836 113.701 5.34793 113.979 5.58707C114.257 5.82621 114.437 6.20293 114.518 6.7185H116.296C116.186 5.74586 115.835 5.00464 115.242 4.4955C114.65 3.98636 113.827 3.73179 112.777 3.73179C112.022 3.73179 111.363 3.906 110.801 4.25443C110.239 4.60221 109.808 5.10621 109.511 5.76321C109.212 6.42021 109.062 7.19807 109.062 8.09679V8.70943C109.071 9.58307 109.232 10.3436 109.547 10.9909C109.862 11.6383 110.308 12.1314 110.886 12.4721C111.464 12.8121 112.137 12.9825 112.904 12.9825C113.635 12.9825 114.3 12.8719 114.901 12.6508Z" fill="white"/>
<path fill-rule="evenodd" clip-rule="evenodd" d="M120.552 9.56314H122.006L123.668 12.8584H125.629V12.7716L123.711 9.09257C124.242 8.84957 124.64 8.523 124.901 8.11221C125.164 7.70271 125.294 7.19036 125.294 6.57579C125.294 5.70986 125.01 5.04064 124.442 4.56686C123.874 4.09243 123.066 3.85521 122.019 3.85521H118.725V12.8584H120.552V9.56314ZM122.024 8.06014H120.552L120.551 5.35821H122.019C122.51 5.35821 122.874 5.47971 123.112 5.72271C123.349 5.96571 123.468 6.3 123.468 6.72429C123.468 7.14086 123.342 7.46679 123.09 7.70464C122.838 7.94121 122.483 8.06014 122.024 8.06014Z" fill="white"/>
<path fill-rule="evenodd" clip-rule="evenodd" d="M129.434 11.0031H132.637L133.252 12.8584H135.193L131.876 3.85521H130.184L126.883 12.8584H128.826L129.434 11.0031ZM132.144 9.50143H129.928L131.03 6.13029L132.144 9.50143Z" fill="white"/>
<path fill-rule="evenodd" clip-rule="evenodd" d="M138.798 12.8584V9.68657H140.399C141.45 9.68657 142.273 9.432 142.868 8.92221C143.463 8.41371 143.76 7.71814 143.76 6.83614C143.76 6.25436 143.624 5.73621 143.352 5.28107C143.08 4.82464 142.692 4.47364 142.186 4.22679C141.68 3.97864 141.095 3.85521 140.429 3.85521H136.972V12.8584H138.798ZM140.429 8.18357H138.798V5.35821H140.473C140.923 5.36657 141.276 5.50671 141.532 5.778C141.788 6.04993 141.915 6.40736 141.915 6.84836C141.915 7.2765 141.789 7.60629 141.535 7.83771C141.281 8.0685 140.913 8.18357 140.429 8.18357Z" fill="white"/>
<path d="M151.352 12.8584H153.179V3.85521H151.352V7.50343H147.791V3.85521H145.964V12.8584H147.791V9H151.352V12.8584Z" fill="white"/>
</svg>
