<svg width="110" height="44" viewBox="0 0 110 44" fill="none" xmlns="http://www.w3.org/2000/svg">
<path fill-rule="evenodd" clip-rule="evenodd" d="M17.7638 0.413086L35.5368 29.2018H0L17.7638 0.413086Z" fill="white"/>
<path d="M56.2407 30.0073C64.4049 30.0073 71.0233 23.3985 71.0233 15.2461C71.0233 7.09377 64.4049 0.484969 56.2407 0.484969C48.0765 0.484969 41.4581 7.09377 41.4581 15.2461C41.4581 23.3985 48.0765 30.0073 56.2407 30.0073Z" fill="white"/>
<path d="M82.3071 1.55409H109.696V28.9382H82.3071V1.55409Z" fill="white"/>
<path d="M4.04323 39.2965C3.99931 38.8738 3.84558 38.5691 3.58205 38.3824C3.32401 38.1903 2.99185 38.0942 2.58558 38.0942C2.42087 38.0942 2.25891 38.1106 2.09969 38.1436C1.94047 38.1765 1.79773 38.2314 1.67145 38.3083C1.55067 38.3852 1.45184 38.4895 1.37498 38.6212C1.30361 38.7475 1.26792 38.9067 1.26792 39.0989C1.26792 39.2801 1.32008 39.4283 1.42439 39.5436C1.5342 39.6534 1.67694 39.744 1.85263 39.8154C2.03381 39.8867 2.23695 39.9471 2.46205 39.9965C2.68715 40.0405 2.91499 40.0899 3.14558 40.1448C3.38166 40.1997 3.61225 40.2656 3.83735 40.3424C4.06245 40.4138 4.26284 40.5126 4.43853 40.6389C4.61971 40.7652 4.76245 40.9244 4.86677 41.1166C4.97657 41.3087 5.03147 41.5503 5.03147 41.8413C5.03147 42.1542 4.9601 42.4232 4.81736 42.6483C4.6801 42.8679 4.50167 43.0491 4.28206 43.1919C4.06245 43.3291 3.81539 43.4279 3.54088 43.4883C3.27186 43.5542 3.00283 43.5872 2.73381 43.5872C2.4044 43.5872 2.09146 43.546 1.79498 43.4636C1.504 43.3813 1.24596 43.2577 1.02086 43.093C0.801251 42.9228 0.625563 42.7087 0.493798 42.4507C0.367522 42.1871 0.304385 41.8769 0.304385 41.5201H1.04557C1.04557 41.7671 1.09223 41.9813 1.18557 42.1624C1.28439 42.3381 1.41067 42.4836 1.56439 42.5989C1.72361 42.7142 1.90753 42.7993 2.11616 42.8542C2.32479 42.9091 2.53891 42.9366 2.75852 42.9366C2.93421 42.9366 3.10989 42.9201 3.28558 42.8872C3.46676 42.8542 3.62872 42.7993 3.77147 42.7224C3.91421 42.6401 4.02951 42.5303 4.11735 42.393C4.20519 42.2558 4.24912 42.0801 4.24912 41.866C4.24912 41.6628 4.19421 41.4981 4.08441 41.3718C3.9801 41.2456 3.83735 41.144 3.65617 41.0671C3.48048 40.9848 3.28009 40.9189 3.05499 40.8695C2.82989 40.8201 2.5993 40.7707 2.36322 40.7213C2.13263 40.6664 1.90479 40.606 1.67969 40.5401C1.45459 40.4687 1.25145 40.3781 1.07027 40.2683C0.894585 40.153 0.751839 40.0075 0.642034 39.8318C0.537719 39.6507 0.485562 39.4256 0.485562 39.1565C0.485562 38.8601 0.545955 38.6048 0.66674 38.3907C0.787525 38.171 0.946742 37.9926 1.14439 37.8554C1.34753 37.7126 1.57537 37.6083 1.82792 37.5424C2.08597 37.471 2.3495 37.4354 2.61852 37.4354C2.92048 37.4354 3.20048 37.471 3.45852 37.5424C3.71656 37.6138 3.94166 37.7263 4.13382 37.8801C4.33147 38.0338 4.4852 38.2287 4.595 38.4648C4.7103 38.6954 4.77343 38.9726 4.78441 39.2965H4.04323Z" fill="white"/>
<path d="M10.1163 39.346C10.0284 38.9287 9.83354 38.6158 9.53158 38.4071C9.23511 38.1985 8.88099 38.0942 8.46922 38.0942C8.11784 38.0942 7.81588 38.1601 7.56333 38.2918C7.31627 38.4236 7.11039 38.602 6.94568 38.8271C6.78646 39.0467 6.66842 39.2993 6.59156 39.5848C6.5147 39.8703 6.47626 40.1667 6.47626 40.4742C6.47626 40.8091 6.5147 41.1275 6.59156 41.4295C6.66842 41.726 6.78646 41.9868 6.94568 42.2119C7.11039 42.4315 7.31902 42.6072 7.57157 42.7389C7.82412 42.8707 8.12608 42.9366 8.47745 42.9366C8.73549 42.9366 8.96334 42.8954 9.16099 42.813C9.36413 42.7252 9.53707 42.6072 9.67981 42.4589C9.82805 42.3052 9.94335 42.124 10.0257 41.9154C10.1081 41.7068 10.1575 41.4817 10.1739 41.2401H10.9563C10.8794 41.9813 10.6241 42.5577 10.1904 42.9695C9.75668 43.3813 9.16373 43.5872 8.41157 43.5872C7.95588 43.5872 7.55784 43.5103 7.21744 43.3566C6.87705 43.1974 6.5943 42.9805 6.3692 42.706C6.1441 42.4315 5.97391 42.1075 5.85861 41.7342C5.74881 41.3609 5.69391 40.9601 5.69391 40.5318C5.69391 40.1036 5.7543 39.7028 5.87508 39.3295C5.99587 38.9507 6.17156 38.6212 6.40215 38.3412C6.63823 38.0612 6.92921 37.8416 7.27509 37.6824C7.62647 37.5177 8.02725 37.4354 8.47745 37.4354C8.78491 37.4354 9.07589 37.4765 9.3504 37.5589C9.62491 37.6412 9.86923 37.762 10.0833 37.9212C10.2975 38.0805 10.4759 38.2808 10.6186 38.5224C10.7614 38.7585 10.8547 39.033 10.8986 39.346H10.1163Z" fill="white"/>
<path d="M11.9254 37.5754H12.7078V40.1036H15.8043V37.5754H16.5866V43.4554H15.8043V40.7624H12.7078V43.4554H11.9254V37.5754Z" fill="white"/>
<path d="M18.3217 40.5154C18.3217 40.8118 18.3601 41.1056 18.4369 41.3966C18.5138 41.682 18.6346 41.9401 18.7993 42.1707C18.964 42.4013 19.1754 42.5879 19.4334 42.7307C19.6915 42.8679 19.9989 42.9366 20.3558 42.9366C20.7127 42.9366 21.0201 42.8679 21.2781 42.7307C21.5362 42.5879 21.7476 42.4013 21.9123 42.1707C22.077 41.9401 22.1978 41.682 22.2746 41.3966C22.3515 41.1056 22.3899 40.8118 22.3899 40.5154C22.3899 40.2189 22.3515 39.9279 22.2746 39.6424C22.1978 39.3514 22.077 39.0907 21.9123 38.8601C21.7476 38.6295 21.5362 38.4456 21.2781 38.3083C21.0201 38.1656 20.7127 38.0942 20.3558 38.0942C19.9989 38.0942 19.6915 38.1656 19.4334 38.3083C19.1754 38.4456 18.964 38.6295 18.7993 38.8601C18.6346 39.0907 18.5138 39.3514 18.4369 39.6424C18.3601 39.9279 18.3217 40.2189 18.3217 40.5154ZM17.5393 40.5154C17.5393 40.1146 17.5969 39.7303 17.7122 39.3624C17.833 38.9891 18.0115 38.6597 18.2475 38.3742C18.4836 38.0887 18.7773 37.8608 19.1287 37.6906C19.4801 37.5205 19.8891 37.4354 20.3558 37.4354C20.8225 37.4354 21.2315 37.5205 21.5829 37.6906C21.9342 37.8608 22.228 38.0887 22.464 38.3742C22.7001 38.6597 22.8758 38.9891 22.9911 39.3624C23.1119 39.7303 23.1723 40.1146 23.1723 40.5154C23.1723 40.9162 23.1119 41.3032 22.9911 41.6766C22.8758 42.0444 22.7001 42.3711 22.464 42.6566C22.228 42.9421 21.9342 43.1699 21.5829 43.3401C21.2315 43.5048 20.8225 43.5872 20.3558 43.5872C19.8891 43.5872 19.4801 43.5048 19.1287 43.3401C18.7773 43.1699 18.4836 42.9421 18.2475 42.6566C18.0115 42.3711 17.833 42.0444 17.7122 41.6766C17.5969 41.3032 17.5393 40.9162 17.5393 40.5154Z" fill="white"/>
<path d="M24.5786 40.5154C24.5786 40.8118 24.617 41.1056 24.6939 41.3966C24.7707 41.682 24.8915 41.9401 25.0562 42.1707C25.2209 42.4013 25.4323 42.5879 25.6904 42.7307C25.9484 42.8679 26.2559 42.9366 26.6127 42.9366C26.9696 42.9366 27.277 42.8679 27.5351 42.7307C27.7931 42.5879 28.0045 42.4013 28.1692 42.1707C28.3339 41.9401 28.4547 41.682 28.5316 41.3966C28.6084 41.1056 28.6469 40.8118 28.6469 40.5154C28.6469 40.2189 28.6084 39.9279 28.5316 39.6424C28.4547 39.3514 28.3339 39.0907 28.1692 38.8601C28.0045 38.6295 27.7931 38.4456 27.5351 38.3083C27.277 38.1656 26.9696 38.0942 26.6127 38.0942C26.2559 38.0942 25.9484 38.1656 25.6904 38.3083C25.4323 38.4456 25.2209 38.6295 25.0562 38.8601C24.8915 39.0907 24.7707 39.3514 24.6939 39.6424C24.617 39.9279 24.5786 40.2189 24.5786 40.5154ZM23.7962 40.5154C23.7962 40.1146 23.8539 39.7303 23.9692 39.3624C24.09 38.9891 24.2684 38.6597 24.5045 38.3742C24.7406 38.0887 25.0343 37.8608 25.3857 37.6906C25.737 37.5205 26.1461 37.4354 26.6127 37.4354C27.0794 37.4354 27.4884 37.5205 27.8398 37.6906C28.1912 37.8608 28.4849 38.0887 28.721 38.3742C28.9571 38.6597 29.1327 38.9891 29.248 39.3624C29.3688 39.7303 29.4292 40.1146 29.4292 40.5154C29.4292 40.9162 29.3688 41.3032 29.248 41.6766C29.1327 42.0444 28.9571 42.3711 28.721 42.6566C28.4849 42.9421 28.1912 43.1699 27.8398 43.3401C27.4884 43.5048 27.0794 43.5872 26.6127 43.5872C26.1461 43.5872 25.737 43.5048 25.3857 43.3401C25.0343 43.1699 24.7406 42.9421 24.5045 42.6566C24.2684 42.3711 24.09 42.0444 23.9692 41.6766C23.8539 41.3032 23.7962 40.9162 23.7962 40.5154Z" fill="white"/>
<path d="M30.3826 37.5754H31.1649V42.7966H34.2779V43.4554H30.3826V37.5754Z" fill="white"/>
<path d="M37.7037 40.5154C37.7037 40.8118 37.7421 41.1056 37.819 41.3966C37.8958 41.682 38.0166 41.9401 38.1813 42.1707C38.346 42.4013 38.5574 42.5879 38.8154 42.7307C39.0735 42.8679 39.3809 42.9366 39.7378 42.9366C40.0947 42.9366 40.4021 42.8679 40.6602 42.7307C40.9182 42.5879 41.1296 42.4013 41.2943 42.1707C41.459 41.9401 41.5798 41.682 41.6566 41.3966C41.7335 41.1056 41.7719 40.8118 41.7719 40.5154C41.7719 40.2189 41.7335 39.9279 41.6566 39.6424C41.5798 39.3514 41.459 39.0907 41.2943 38.8601C41.1296 38.6295 40.9182 38.4456 40.6602 38.3083C40.4021 38.1656 40.0947 38.0942 39.7378 38.0942C39.3809 38.0942 39.0735 38.1656 38.8154 38.3083C38.5574 38.4456 38.346 38.6295 38.1813 38.8601C38.0166 39.0907 37.8958 39.3514 37.819 39.6424C37.7421 39.9279 37.7037 40.2189 37.7037 40.5154ZM36.9213 40.5154C36.9213 40.1146 36.979 39.7303 37.0943 39.3624C37.215 38.9891 37.3935 38.6597 37.6296 38.3742C37.8656 38.0887 38.1594 37.8608 38.5107 37.6906C38.8621 37.5205 39.2711 37.4354 39.7378 37.4354C40.2045 37.4354 40.6135 37.5205 40.9649 37.6906C41.3162 37.8608 41.61 38.0887 41.8461 38.3742C42.0821 38.6597 42.2578 38.9891 42.3731 39.3624C42.4939 39.7303 42.5543 40.1146 42.5543 40.5154C42.5543 40.9162 42.4939 41.3032 42.3731 41.6766C42.2578 42.0444 42.0821 42.3711 41.8461 42.6566C41.61 42.9421 41.3162 43.1699 40.9649 43.3401C40.6135 43.5048 40.2045 43.5872 39.7378 43.5872C39.2711 43.5872 38.8621 43.5048 38.5107 43.3401C38.1594 43.1699 37.8656 42.9421 37.6296 42.6566C37.3935 42.3711 37.215 42.0444 37.0943 41.6766C36.979 41.3032 36.9213 40.9162 36.9213 40.5154Z" fill="white"/>
<path d="M43.5077 37.5754H47.37V38.2342H44.29V40.1036H46.9912V40.7624H44.29V43.4554H43.5077V37.5754Z" fill="white"/>
<path d="M51.311 42.7966H52.6122C52.7 42.7966 52.8098 42.7911 52.9416 42.7801C53.0733 42.7636 53.2133 42.7307 53.3616 42.6813C53.5098 42.6264 53.6553 42.5495 53.7981 42.4507C53.9463 42.3519 54.0781 42.2173 54.1934 42.0471C54.3086 41.877 54.402 41.6656 54.4734 41.413C54.5502 41.155 54.5886 40.8448 54.5886 40.4824C54.5886 40.1311 54.553 39.8181 54.4816 39.5436C54.4157 39.2636 54.3032 39.0275 54.1439 38.8354C53.9902 38.6377 53.7898 38.4895 53.5428 38.3907C53.2957 38.2863 52.991 38.2342 52.6286 38.2342H51.311V42.7966ZM50.5286 37.5754H52.5463C53.4522 37.5754 54.1494 37.8059 54.6381 38.2671C55.1267 38.7283 55.371 39.4311 55.371 40.3754C55.371 40.8695 55.3161 41.3087 55.2063 41.693C55.0965 42.0719 54.9263 42.393 54.6957 42.6566C54.4651 42.9146 54.1714 43.1123 53.8145 43.2495C53.4577 43.3868 53.0349 43.4554 52.5463 43.4554H50.5286V37.5754Z" fill="white"/>
<path d="M57.3401 41.026H59.333L58.353 38.2836H58.3366L57.3401 41.026ZM57.9248 37.5754H58.7895L61.0872 43.4554H60.2225L59.5801 41.6848H57.093L56.4342 43.4554H55.6354L57.9248 37.5754Z" fill="white"/>
<path d="M62.2454 38.2342H60.2854V37.5754H64.9878V38.2342H63.0278V43.4554H62.2454V38.2342Z" fill="white"/>
<path d="M65.8971 41.026H67.8901L66.9101 38.2836H66.8936L65.8971 41.026ZM66.4818 37.5754H67.3466L69.6442 43.4554H68.7795L68.1372 41.6848H65.6501L64.9912 43.4554H64.1924L66.4818 37.5754Z" fill="white"/>
<path d="M73.5293 41.026H75.5223L74.5423 38.2836H74.5258L73.5293 41.026ZM74.114 37.5754H74.9787L77.2764 43.4554H76.4117L75.7693 41.6848H73.2822L72.6234 43.4554H71.8246L74.114 37.5754Z" fill="white"/>
<path d="M77.8482 37.5754H78.68L81.7765 42.3436H81.793V37.5754H82.5341V43.4554H81.6777L78.6059 38.7365H78.5894V43.4554H77.8482V37.5754Z" fill="white"/>
<path d="M84.8127 41.026H86.8057L85.8257 38.2836H85.8092L84.8127 41.026ZM85.3974 37.5754H86.2621L88.5598 43.4554H87.6951L87.0527 41.6848H84.5656L83.9068 43.4554H83.108L85.3974 37.5754Z" fill="white"/>
<path d="M89.1399 37.5754H89.9222V42.7966H93.0352V43.4554H89.1399V37.5754Z" fill="white"/>
<path d="M95.2286 41.0507V43.4554H94.4462V41.0507L92.1732 37.5754H93.1038L94.8662 40.3754L96.5874 37.5754H97.4768L95.2286 41.0507Z" fill="white"/>
<path d="M101.54 39.2965C101.497 38.8738 101.343 38.5691 101.079 38.3824C100.821 38.1903 100.489 38.0942 100.083 38.0942C99.9181 38.0942 99.7561 38.1106 99.5969 38.1436C99.4377 38.1765 99.2949 38.2314 99.1687 38.3083C99.0479 38.3852 98.949 38.4895 98.8722 38.6212C98.8008 38.7475 98.7651 38.9067 98.7651 39.0989C98.7651 39.2801 98.8173 39.4283 98.9216 39.5436C99.0314 39.6534 99.1741 39.744 99.3498 39.8154C99.531 39.8867 99.7341 39.9471 99.9592 39.9965C100.184 40.0405 100.412 40.0899 100.643 40.1448C100.879 40.1997 101.109 40.2656 101.335 40.3424C101.56 40.4138 101.76 40.5126 101.936 40.6389C102.117 40.7652 102.26 40.9244 102.364 41.1166C102.474 41.3087 102.529 41.5503 102.529 41.8413C102.529 42.1542 102.457 42.4232 102.315 42.6483C102.177 42.8679 101.999 43.0491 101.779 43.1919C101.56 43.3291 101.313 43.4279 101.038 43.4883C100.769 43.5542 100.5 43.5872 100.231 43.5872C99.9016 43.5872 99.5887 43.546 99.2922 43.4636C99.0012 43.3813 98.7432 43.2577 98.5181 43.093C98.2985 42.9228 98.1228 42.7087 97.991 42.4507C97.8647 42.1871 97.8016 41.8769 97.8016 41.5201H98.5428C98.5428 41.7671 98.5894 41.9813 98.6828 42.1624C98.7816 42.3381 98.9079 42.4836 99.0616 42.5989C99.2208 42.7142 99.4047 42.7993 99.6134 42.8542C99.822 42.9091 100.036 42.9366 100.256 42.9366C100.431 42.9366 100.607 42.9201 100.783 42.8872C100.964 42.8542 101.126 42.7993 101.269 42.7224C101.411 42.6401 101.527 42.5303 101.615 42.393C101.702 42.2558 101.746 42.0801 101.746 41.866C101.746 41.6628 101.691 41.4981 101.582 41.3718C101.477 41.2456 101.335 41.144 101.153 41.0671C100.978 40.9848 100.777 40.9189 100.552 40.8695C100.327 40.8201 100.097 40.7707 99.8604 40.7213C99.6298 40.6664 99.402 40.606 99.1769 40.5401C98.9518 40.4687 98.7486 40.3781 98.5675 40.2683C98.3918 40.153 98.249 40.0075 98.1392 39.8318C98.0349 39.6507 97.9828 39.4256 97.9828 39.1565C97.9828 38.8601 98.0432 38.6048 98.1639 38.3907C98.2847 38.171 98.4439 37.9926 98.6416 37.8554C98.8447 37.7126 99.0726 37.6083 99.3251 37.5424C99.5832 37.471 99.8467 37.4354 100.116 37.4354C100.418 37.4354 100.698 37.471 100.956 37.5424C101.214 37.6138 101.439 37.7263 101.631 37.8801C101.829 38.0338 101.982 38.2287 102.092 38.4648C102.207 38.6954 102.271 38.9726 102.282 39.2965H101.54Z" fill="white"/>
<path d="M103.512 37.5754H104.295V43.4554H103.512V37.5754Z" fill="white"/>
<path d="M109.012 39.2965C108.968 38.8738 108.814 38.5691 108.551 38.3824C108.293 38.1903 107.96 38.0942 107.554 38.0942C107.389 38.0942 107.227 38.1106 107.068 38.1436C106.909 38.1765 106.766 38.2314 106.64 38.3083C106.519 38.3852 106.42 38.4895 106.344 38.6212C106.272 38.7475 106.236 38.9067 106.236 39.0989C106.236 39.2801 106.289 39.4283 106.393 39.5436C106.503 39.6534 106.645 39.744 106.821 39.8154C107.002 39.8867 107.205 39.9471 107.431 39.9965C107.656 40.0405 107.884 40.0899 108.114 40.1448C108.35 40.1997 108.581 40.2656 108.806 40.3424C109.031 40.4138 109.231 40.5126 109.407 40.6389C109.588 40.7652 109.731 40.9244 109.835 41.1166C109.945 41.3087 110 41.5503 110 41.8413C110 42.1542 109.929 42.4232 109.786 42.6483C109.649 42.8679 109.47 43.0491 109.251 43.1919C109.031 43.3291 108.784 43.4279 108.509 43.4883C108.24 43.5542 107.971 43.5872 107.702 43.5872C107.373 43.5872 107.06 43.546 106.764 43.4636C106.473 43.3813 106.214 43.2577 105.989 43.093C105.77 42.9228 105.594 42.7087 105.462 42.4507C105.336 42.1871 105.273 41.8769 105.273 41.5201H106.014C106.014 41.7671 106.061 41.9813 106.154 42.1624C106.253 42.3381 106.379 42.4836 106.533 42.5989C106.692 42.7142 106.876 42.7993 107.085 42.8542C107.293 42.9091 107.507 42.9366 107.727 42.9366C107.903 42.9366 108.078 42.9201 108.254 42.8872C108.435 42.8542 108.597 42.7993 108.74 42.7224C108.883 42.6401 108.998 42.5303 109.086 42.393C109.174 42.2558 109.218 42.0801 109.218 41.866C109.218 41.6628 109.163 41.4981 109.053 41.3718C108.949 41.2456 108.806 41.144 108.625 41.0671C108.449 40.9848 108.249 40.9189 108.024 40.8695C107.798 40.8201 107.568 40.7707 107.332 40.7213C107.101 40.6664 106.873 40.606 106.648 40.5401C106.423 40.4687 106.22 40.3781 106.039 40.2683C105.863 40.153 105.72 40.0075 105.611 39.8318C105.506 39.6507 105.454 39.4256 105.454 39.1565C105.454 38.8601 105.514 38.6048 105.635 38.3907C105.756 38.171 105.915 37.9926 106.113 37.8554C106.316 37.7126 106.544 37.6083 106.796 37.5424C107.054 37.471 107.318 37.4354 107.587 37.4354C107.889 37.4354 108.169 37.471 108.427 37.5424C108.685 37.6138 108.91 37.7263 109.102 37.8801C109.3 38.0338 109.454 38.2287 109.564 38.4648C109.679 38.6954 109.742 38.9726 109.753 39.2965H109.012Z" fill="white"/>
</svg>
