<svg width="120" height="38" viewBox="0 0 120 38" fill="none" xmlns="http://www.w3.org/2000/svg">
<path d="M1.76922 1.75616C1.76922 1.45585 0.953158 0.68549 0.698547 0.68549H0V0H4.06724L8.26506 10.5304H8.34993L12.7632 0H16.3995V0.68549H15.7467C15.4921 0.68549 14.676 1.45585 14.676 1.75616V12.2474C14.676 12.5477 15.4921 13.3181 15.7467 13.3181H16.3995V14.0101H11.0201V13.3181H11.7056C11.9602 13.3181 12.7762 12.5477 12.7762 12.2474V2.05647L7.67749 14.2125L2.61139 1.84103V12.2017C2.61139 12.502 3.42745 13.2724 3.68206 13.2724H4.36755V13.9579H0V13.2724H0.652848C0.907459 13.2724 1.72352 12.502 1.72352 12.2017L1.76922 1.75616Z" fill="white"/>
<path d="M22.2817 8.00392C22.5363 6.59377 22.2817 5.35335 20.7345 5.35335C18.9391 5.35335 18.0382 6.80921 18.0382 8.90485C18.0382 11.0005 19.3439 12.5869 21.3808 12.5869C21.9682 12.6476 22.5599 12.5236 23.0736 12.2323C23.5873 11.9409 23.9974 11.4966 24.2468 10.9613H24.8082C24.2076 12.9199 23.0064 14.1733 20.7345 14.1733C18.2145 14.1733 16.5823 12.0516 16.5823 9.44018C16.5823 6.52848 18.5082 4.60258 20.9107 4.60258C21.5089 4.57324 22.1062 4.67489 22.661 4.90042C23.2158 5.12595 23.7147 5.46991 24.1227 5.90828L22.817 7.96475L22.2817 8.00392Z" fill="white"/>
<path d="M40.5615 2.78114C40.7156 2.78389 40.8687 2.75522 41.0115 2.69689C41.1542 2.63855 41.2836 2.55177 41.3917 2.44182C41.4998 2.33188 41.5844 2.20108 41.6403 2.05738C41.6962 1.91369 41.7223 1.76011 41.717 1.60601C41.7255 1.45203 41.7014 1.29799 41.6464 1.15395C41.5913 1.0099 41.5065 0.879088 41.3974 0.770044C41.2884 0.660999 41.1576 0.576176 41.0135 0.52111C40.8695 0.466044 40.7154 0.441973 40.5615 0.450469C40.3993 0.438393 40.2365 0.459901 40.083 0.513648C39.9296 0.567394 39.7889 0.652223 39.6698 0.762827C39.5506 0.873431 39.4556 1.00743 39.3906 1.15645C39.3256 1.30546 39.292 1.46629 39.292 1.62886C39.292 1.79143 39.3256 1.95226 39.3906 2.10127C39.4556 2.25029 39.5506 2.38429 39.6698 2.49489C39.7889 2.6055 39.9296 2.69032 40.083 2.74407C40.2365 2.79782 40.3993 2.81933 40.5615 2.80725V2.78114Z" fill="white"/>
<path d="M53.4095 13.2724C53.1549 13.2724 52.4237 12.6196 52.4237 12.3323V7.27925C52.4391 6.94126 52.3846 6.60371 52.2637 6.28771C52.1428 5.97171 51.958 5.68403 51.7209 5.44265C51.4838 5.20126 51.1995 5.01136 50.8857 4.88479C50.5719 4.75822 50.2354 4.69771 49.8972 4.70703C48.2716 4.70703 47.4164 5.65366 46.3457 6.7635L45.9997 4.87025H43.1337V5.52309H43.6886C43.9432 5.52309 44.6744 6.20858 44.6744 6.46972V12.2474C44.6744 12.5477 43.9432 13.1875 43.6886 13.1875H42.5788C42.3176 13.1875 41.5929 12.5347 41.5929 12.2474V4.87025H38.3287V5.52309H38.8836C39.1448 5.52309 39.8694 6.20858 39.8694 6.46972V12.2474C39.8694 12.5477 39.1448 13.1875 38.8836 13.1875H37.8652C37.2385 12.9231 36.6704 12.537 36.1939 12.0516L31.3367 5.60796L34.7185 1.96507C35.2393 1.43208 35.8462 0.990663 36.5138 0.659376H37.1666V0H32.1136V0.68549H32.7991C33.0537 0.68549 33.8698 1.62559 33.6543 1.8802L28.66 7.48164V1.75616C28.66 1.45585 29.4696 0.68549 29.7307 0.68549H30.3836V0H24.978V0.68549H25.6308C25.8854 0.68549 26.7015 1.45585 26.7015 1.75616V12.2474C26.7015 12.5477 25.8854 13.3181 25.6308 13.3181H24.978V14.0101H30.4162V13.3181H29.7633C29.5022 13.3181 28.6927 12.5477 28.6927 12.2474V8.56537L30.1028 7.01812L34.9078 14.0101H47.8864V13.3181H47.3707C47.116 13.3181 46.3849 12.6653 46.3849 12.3715V7.70361C46.3849 7.10951 48.0561 5.8234 49.3423 5.8234C49.5436 5.81273 49.7449 5.84597 49.9322 5.92084C50.1194 5.99571 50.2881 6.1104 50.4266 6.25697C50.5651 6.40354 50.6701 6.57848 50.7342 6.76966C50.7984 6.96084 50.8202 7.16368 50.7981 7.36413V12.3323C50.7981 12.6326 50.0669 13.2724 49.8123 13.2724H49.2966V13.9579H53.9253V13.2724H53.4095Z" fill="white"/>
<path d="M55.0808 10.7916C55.0808 11.6468 56.3212 13.4421 58.2471 13.4421C59.3635 13.4421 60.0033 13.057 60.0033 12.2017C60.0033 11.1768 59.1023 10.8307 58.2928 10.4913C57.64 10.2301 57.1373 10.0212 56.4061 9.67521C55.2962 9.15946 54.4475 8.4348 54.4475 7.19439C54.4475 5.56227 55.4333 4.62216 57.1895 4.62216C58.1753 4.62216 58.7302 5.09222 59.4157 5.09222C59.6703 5.09222 59.8401 5.05304 59.9249 4.8376H60.4407V7.61874H59.8858C59.761 6.97505 59.4221 6.3925 58.9243 5.9658C58.4265 5.5391 57.799 5.29334 57.1438 5.26848C56.0731 5.26848 55.6031 5.73853 55.6031 6.4632C55.6031 7.18786 56.158 7.53387 57.0589 7.91905C57.7444 8.21936 58.2602 8.4348 59.0175 8.73511C60.0033 9.12029 61.1131 9.89065 61.1131 11.3465C61.1131 13.057 59.9119 14.0885 58.2014 14.0885C57.0459 14.0885 56.3604 13.527 55.59 13.527C55.4595 13.5127 55.3275 13.533 55.2072 13.5857C55.0869 13.6384 54.9825 13.7217 54.9045 13.8273H54.4736V10.661H55.0351L55.0808 10.7916Z" fill="white"/>
<path d="M61.7137 9.44018C61.7137 6.74392 63.5548 4.64175 65.8724 4.68745C66.297 4.67157 66.7205 4.74187 67.1173 4.89412C67.514 5.04636 67.8758 5.2774 68.1809 5.57329C68.4859 5.86917 68.7279 6.22378 68.8921 6.61572C69.0564 7.00766 69.1395 7.42881 69.1366 7.85376L69.1758 8.50661L63.1369 8.98319C63.1369 10.8242 64.4426 12.6196 66.4338 12.6196C67.0155 12.6757 67.6002 12.5493 68.1067 12.258C68.6133 11.9667 69.0166 11.5249 69.2607 10.994H69.8547C69.2541 12.9525 68.1377 14.206 65.9377 14.206C63.385 14.1733 61.7137 11.9863 61.7137 9.44018ZM67.6677 7.98433C67.8374 6.67864 67.622 5.41211 65.8267 5.41211C64.0313 5.41211 63.2153 6.95283 63.1304 8.36951L67.6677 7.98433Z" fill="white"/>
<path d="M70.7948 6.59377C70.5106 6.15126 70.1111 5.79464 69.6393 5.56227H69.2541V4.87025H74.046V5.52309H73.4911C73.2365 5.52309 72.675 6.17594 72.675 6.50889L74.7772 11.3987L76.8337 6.56112C76.7932 6.34728 76.7022 6.14621 76.5681 5.97472C76.4341 5.80323 76.261 5.66629 76.0633 5.57532H75.5019V4.87025H79.1448V5.52309H78.7139C78.4984 5.52309 77.8587 6.20859 77.6432 6.50889L74.5618 13.4878L72.2899 18.5017L71.4803 18.1165L73.8763 13.1484L70.7948 6.59377Z" fill="white"/>
<path d="M26.9887 21.1914C27.0189 21.7574 27.2233 22.3002 27.5739 22.7454C27.9245 23.1907 28.4042 23.5167 28.9473 23.6788C30.7426 25.6047 32.9297 27.6612 34.8229 29.3716C35.3515 28.4789 35.6058 27.4504 35.5541 26.4142C35.5541 25.1085 34.6989 24.3578 33.3279 24.3121V23.6592H38.2961V24.3121H37.7346C37.1624 24.657 36.7249 25.1866 36.4942 25.8136C36.4824 27.2072 36.0674 28.5677 35.2995 29.7307C36.198 30.5362 37.1395 31.2924 38.1198 31.9961H38.9816V32.6489H37.4343C36.7891 32.6675 36.1468 32.5537 35.5473 32.3145C34.9477 32.0754 34.4034 31.7159 33.9481 31.2584C33.3403 31.8342 32.6218 32.2805 31.8362 32.57C31.0506 32.8596 30.2143 32.9864 29.3782 32.9427C28.2484 32.9815 27.1496 32.57 26.3232 31.7987C25.4968 31.0274 25.0106 29.9595 24.9714 28.8298C24.9697 27.9957 25.1716 27.1738 25.5595 26.4354C25.9475 25.6971 26.5098 25.0645 27.1977 24.5928C26.4849 23.7868 26.0985 22.7439 26.1139 21.668C26.1139 19.6507 27.4196 18.5409 29.4565 18.5409C30.7622 18.5409 31.4151 18.9652 32.0222 18.9652C32.3225 18.9652 32.5379 18.9652 32.675 18.7106H33.2757V21.9749H32.6424C32.6424 21.0348 31.2714 19.148 29.3782 19.148C27.8897 19.1807 26.9887 19.8857 26.9887 21.1914ZM26.3881 27.8766C26.3881 29.8874 28.5295 31.7937 30.5011 31.7937C31.591 31.8236 32.6603 31.4931 33.5433 30.8536C31.4145 29.0062 29.3979 27.0333 27.5045 24.9453C27.1205 25.3263 26.8222 25.7849 26.6297 26.2904C26.4372 26.7959 26.3548 27.3367 26.3881 27.8766Z" fill="white"/>
<path d="M53.2789 23.6331C53.2789 22.1772 51.6533 19.2655 49.0419 19.2655C46.646 19.2655 45.1901 20.5712 44.929 23.7637C44.8594 24.9471 44.8746 26.1339 44.9747 27.3152C45.0207 28.5337 45.5457 29.6849 46.4356 30.5186C47.3255 31.3523 48.5085 31.8011 49.7274 31.7676C52.1234 31.7676 53.3246 30.7426 54.2256 28.9016H54.9502C54.5747 30.0933 53.8179 31.1287 52.7964 31.8482C51.7749 32.5678 50.5452 32.9317 49.2966 32.884C45.275 32.884 42.7028 29.6197 42.7028 25.6047C42.7028 21.5897 45.0596 18.4234 48.9571 18.4234C50.4521 18.4234 51.3987 19.024 52.4694 19.024C52.6328 19.0365 52.7967 19.0078 52.9461 18.9405C53.0955 18.8732 53.2257 18.7694 53.3246 18.6388H53.8404V23.607H53.2789V23.6331Z" fill="white"/>
<path d="M55.8903 28.1312C55.8903 25.1738 57.9925 23.3328 60.3884 23.3328C62.7844 23.3328 64.8866 25.1738 64.8866 28.1312C64.8866 31.0886 62.7844 32.9427 60.3884 32.9427C59.7735 32.9339 59.1667 32.8011 58.6043 32.5522C58.0419 32.3033 57.5355 31.9434 57.1155 31.4941C56.6955 31.0449 56.3705 30.5155 56.16 29.9376C55.9495 29.3598 55.8578 28.7454 55.8903 28.1312ZM63.0717 29.6328C63.2022 28.6076 63.2022 27.57 63.0717 26.5448C62.9019 25.089 62.0859 24.1031 60.4211 24.1031C58.7563 24.1031 57.9794 25.089 57.764 26.5056C57.6334 27.5286 57.6334 28.5641 57.764 29.5871C57.9794 30.9972 58.7498 32.0287 60.4211 32.0287C62.0924 32.0287 62.915 31.0429 63.0847 29.6328H63.0717Z" fill="white"/>
<path d="M79.6475 30.9842C79.6475 31.2845 80.333 31.9308 80.5876 31.9308H81.0184V32.5836H76.4485V31.9308H76.9577C77.2189 31.9308 77.9044 31.2779 77.9044 30.9842V25.9899C77.9352 25.793 77.9205 25.5917 77.8616 25.4014C77.8026 25.2111 77.7008 25.0368 77.5641 24.8918C77.4274 24.7469 77.2593 24.6352 77.0727 24.5652C76.8861 24.4953 76.686 24.469 76.4877 24.4883C75.293 24.4883 73.8371 25.6504 73.8371 26.2445V30.9842C73.8371 31.2845 74.49 31.9308 74.7772 31.9308H75.293V32.5836H70.6643V31.9308H71.1604C71.415 31.9308 72.1005 31.2779 72.1005 30.9842V25.9899C72.1247 25.7908 72.1041 25.5889 72.0401 25.3989C71.9762 25.2089 71.8706 25.0355 71.731 24.8916C71.5915 24.7477 71.4215 24.6367 71.2335 24.567C71.0456 24.4972 70.8444 24.4703 70.6447 24.4883C69.4435 24.4883 67.9876 25.6896 67.9876 26.3294V31.0429C67.9876 31.3432 68.6731 31.983 68.9342 31.983H69.4435V32.6359H64.8213V31.983H65.337C65.5916 31.983 66.2771 31.3302 66.2771 31.0429V25.2195C66.2771 24.9192 65.5916 24.2794 65.337 24.2794H64.8213V23.6266H67.6024L67.9876 25.3827C69.0191 24.2664 69.7046 23.4242 71.291 23.4242C71.8664 23.3762 72.4379 23.5537 72.8849 23.9191C73.332 24.2845 73.6195 24.8093 73.687 25.3827C74.7968 24.2664 75.528 23.496 77.023 23.496C77.3601 23.4842 77.6959 23.5434 78.0087 23.6697C78.3215 23.7959 78.6043 23.9865 78.8388 24.2289C79.0732 24.4714 79.2542 24.7604 79.3699 25.0773C79.4856 25.3941 79.5334 25.7317 79.5104 26.0682V30.9842H79.6475Z" fill="white"/>
<path d="M83.6821 23.5939L83.9824 25.435C84.2543 24.7919 84.7152 24.2466 85.3039 23.8712C85.8926 23.4958 86.5815 23.3081 87.2793 23.3328C89.5055 23.3328 90.8307 25.1738 90.8307 27.9615C90.8307 30.7491 89.29 32.8383 87.1095 32.8383C86.4731 32.8954 85.8347 32.7533 85.2827 32.4317C84.7306 32.11 84.2922 31.6247 84.0281 31.0429V35.3648C84.0281 35.6651 84.7527 36.3114 84.9682 36.3114H85.5688V36.9643H80.7704V36.3114H81.371C81.6256 36.3114 82.3111 35.6586 82.3111 35.3648V25.2195C82.3111 24.9192 81.6256 24.2794 81.371 24.2794H80.7704V23.6266L83.6821 23.5939ZM83.9824 26.8582V29.2868C83.9824 29.9793 84.2575 30.6436 84.7472 31.1333C85.237 31.623 85.9012 31.8982 86.5938 31.8982C88.1345 31.8982 88.8657 30.9124 89.0746 29.5022C89.2052 28.6082 89.2052 27.7 89.0746 26.8059C88.9049 25.3501 88.0953 24.4492 86.8092 24.4492C85.2685 24.4035 84.4133 25.4741 83.9824 26.8908V26.8582Z" fill="white"/>
<path d="M110.527 31.983C110.273 31.983 109.548 31.3302 109.548 31.0429V25.9899C109.562 25.6521 109.507 25.315 109.386 24.9994C109.265 24.6839 109.08 24.3966 108.843 24.1554C108.606 23.9142 108.322 23.7243 108.009 23.5974C107.695 23.4705 107.359 23.4093 107.021 23.4177C105.389 23.4177 104.534 24.3643 103.463 25.4741L103.15 23.6331H100.277V24.2859H100.839C101.094 24.2859 101.818 24.9714 101.818 25.2326V30.9842C101.818 31.2845 101.094 31.9308 100.839 31.9308H99.7225C99.4679 31.9308 98.7367 31.2779 98.7367 30.9842V26.0747C98.7367 24.2794 97.2809 23.3785 95.355 23.3785C94.6829 23.3357 94.0094 23.4396 93.3815 23.6831C92.7536 23.9266 92.1862 24.3039 91.7186 24.7886L92.9133 26.6297H93.5662C92.8807 25.089 93.3899 24.064 94.9306 24.064C96.4714 24.064 97.072 24.7886 97.072 26.0747V27.1911L94.7217 27.6612C93.416 27.9158 91.7643 28.5621 91.7643 30.3574C91.7494 30.673 91.7978 30.9883 91.9065 31.2849C92.0153 31.5815 92.1822 31.8533 92.3975 32.0844C92.6129 32.3156 92.8722 32.5013 93.1603 32.6308C93.4485 32.7602 93.7596 32.8308 94.0754 32.8383C95.3811 32.8383 96.3865 31.7676 97.1177 30.8275L97.3331 32.6685H105.037V32.0157H104.528C104.266 32.0157 103.542 31.3628 103.542 31.0756V26.3751C103.542 25.7744 105.213 24.4883 106.493 24.4883C106.694 24.4786 106.896 24.5128 107.083 24.5884C107.27 24.6641 107.439 24.7794 107.577 24.9264C107.715 25.0735 107.82 25.2488 107.884 25.4403C107.949 25.6318 107.97 25.8349 107.948 26.0356V30.9842C107.948 31.2845 107.224 31.9308 106.969 31.9308H106.414V32.5836H111.036V31.9308H110.521L110.527 31.983ZM97.0393 30.0245C96.6542 30.6773 95.7336 31.6044 94.8131 31.6044C94.6201 31.6089 94.4283 31.5741 94.2492 31.5021C94.0701 31.4301 93.9075 31.3225 93.7713 31.1857C93.6351 31.0489 93.5282 30.8858 93.457 30.7064C93.3858 30.527 93.3519 30.3349 93.3573 30.142C93.3573 29.2411 93.7425 28.647 94.8588 28.3467L97.0393 27.7852V30.0245Z" fill="white"/>
<path d="M111.637 25.3044C111.353 24.8636 110.953 24.5092 110.481 24.2794H110.096V23.6266H114.901V24.2794H114.346C114.092 24.2794 113.537 24.9323 113.537 25.2652L115.632 30.1028L117.689 25.2652C117.653 25.0496 117.564 24.8463 117.43 24.674C117.295 24.5018 117.119 24.3661 116.919 24.2794H116.357V23.6266H120V24.2794H119.569C119.36 24.2794 118.714 24.9649 118.498 25.2652L115.417 32.2442L113.152 37.2515L112.329 36.8598L114.725 31.8916L111.637 25.3044Z" fill="white"/>
</svg>
