<svg width="120" height="38" viewBox="0 0 120 38" fill="none" xmlns="http://www.w3.org/2000/svg">
<g clip-path="url(#clip0_244_4974)">
<path d="M78.9001 22.075V13.7716H73.4274V22.075H68.2749V1.11621H73.4274V9.1795H78.9001V1.11621H84.0526V22.075H78.9001Z" fill="white"/>
<path d="M94.2719 22.2523C91.0638 22.2523 88.4446 21.6633 86.323 19.4845L89.6227 16.1849C90.7149 17.2714 92.6249 17.6546 94.3005 17.6546C96.3306 17.6546 97.3028 16.9798 97.3028 15.7731C97.3028 15.2699 97.1827 14.8581 96.891 14.5379C96.628 14.2748 96.1819 14.069 95.5071 13.9775L92.9738 13.6229C91.1209 13.3599 89.7084 12.7422 88.7649 11.7701C87.7927 10.7693 87.3238 9.35681 87.3238 7.56115C87.3238 3.73538 90.206 0.938965 94.9753 0.938965C97.9776 0.938965 100.242 1.64808 102.038 3.44373L98.8011 6.68048C97.4744 5.35376 95.7416 5.44526 94.8266 5.44526C93.031 5.44526 92.2933 6.47461 92.2933 7.38959C92.2933 7.65265 92.379 8.0358 92.705 8.36176C92.9681 8.62482 93.4141 8.8936 94.1461 8.97938L96.6795 9.33393C98.5609 9.59699 99.9162 10.186 100.803 11.0724C101.923 12.1589 102.364 13.7201 102.364 15.6645C102.364 19.9306 98.6867 22.2581 94.2662 22.2581L94.2719 22.2523Z" fill="white"/>
<path d="M105.749 22.075V1.11621H119.994V5.70828H110.896V9.21381H118.668V13.8059H110.896V17.483H119.994V22.075H105.749Z" fill="white"/>
<path d="M71.2486 35.228C69.6131 35.228 68.2749 34.1243 68.2749 32.3973V27.2905H70.2078V32.3515C70.2078 33.0835 70.6081 33.501 71.2486 33.501C71.8891 33.501 72.3123 33.0835 72.3123 32.3515V27.2905H74.2452V32.3973C74.2452 34.1243 72.8841 35.228 71.2486 35.228Z" fill="white"/>
<path d="M78.8658 35.1591V31.6021C78.8658 30.9158 78.3797 30.7843 78.1338 30.7843C77.8879 30.7843 77.4018 30.9158 77.4018 31.6021V35.1591H75.589V29.2117H77.3561V29.6978C77.722 29.3318 78.2653 29.1431 78.74 29.1431C79.3061 29.1431 79.7579 29.3318 80.0781 29.652C80.5871 30.161 80.6729 30.7214 80.6729 31.3562V35.1591H78.8601H78.8658Z" fill="white"/>
<path d="M81.9939 28.6056V27.2217H83.8067V28.6056H81.9939ZM81.9939 35.1592V29.4462H83.8067V35.1592H81.9939Z" fill="white"/>
<path d="M88.0615 35.1593H86.6775L84.4873 29.2119H86.3859L87.3695 32.2943L88.3417 29.2119H90.2403L88.05 35.1593H88.0615Z" fill="white"/>
<path d="M92.3389 32.7743C92.3389 33.2603 92.7164 33.7007 93.3912 33.7007C94.0202 33.7007 94.3004 33.5234 94.6207 33.2032L95.7015 34.284C95.0953 34.8902 94.4948 35.2218 93.3912 35.2218C92.0759 35.2218 90.5604 34.7472 90.5604 32.1795C90.5604 30.2352 91.6641 29.1372 93.2253 29.1372C94.9523 29.1372 95.9016 30.3953 95.9016 31.9565V32.7628H92.3446L92.3389 32.7743ZM94.0088 31.1044C93.9001 30.8528 93.6542 30.6412 93.2253 30.6412C92.7964 30.6412 92.5505 30.8528 92.4419 31.1044C92.3618 31.2588 92.3446 31.4247 92.3446 31.5676H94.1117C94.1117 31.4247 94.0888 31.2588 94.0145 31.1044H94.0088Z" fill="white"/>
<path d="M100.202 31.0931C100.025 30.9158 99.859 30.7843 99.5502 30.7843C99.31 30.7843 98.8182 30.9273 98.8182 31.6021V35.1591H97.0054V29.2117H98.7724V29.6978C99.0355 29.4347 99.5559 29.1431 100.173 29.1431C100.757 29.1431 101.157 29.286 101.569 29.6978L100.196 31.0931H100.202Z" fill="white"/>
<path d="M104.159 35.2277C103.262 35.2277 102.392 35.182 101.575 34.3642L102.747 33.1919C103.244 33.6894 103.885 33.6894 104.194 33.6894C104.457 33.6894 104.966 33.6093 104.966 33.3005C104.966 33.1347 104.886 32.9574 104.537 32.9231L103.622 32.8373C102.593 32.7401 101.895 32.2712 101.895 31.1103C101.895 29.795 103.079 29.1431 104.262 29.1431C105.235 29.1431 106.018 29.286 106.607 29.8751L105.492 30.9902C105.194 30.6928 104.697 30.6356 104.234 30.6356C103.771 30.6356 103.65 30.8472 103.65 30.9788C103.65 31.0474 103.628 31.2647 104.039 31.3104L104.954 31.3962C106.201 31.5163 106.744 32.2597 106.744 33.209C106.744 34.6101 105.549 35.222 104.171 35.222L104.159 35.2277Z" fill="white"/>
<path d="M107.716 28.6056V27.2217H109.529V28.6056H107.716ZM107.716 35.1592V29.4462H109.529V35.1592H107.716Z" fill="white"/>
<path d="M112.88 35.1593C111.565 35.1593 111.033 34.2214 111.033 33.4036V30.8417H110.49V29.4463H111.033V27.7422H112.846V29.4463H113.784V30.8417H112.846V33.2721C112.846 33.5066 112.966 33.6381 113.212 33.6381H113.784V35.165H112.875L112.88 35.1593Z" fill="white"/>
<path d="M117.535 35.8684C117.415 36.2115 117.261 36.4632 117.072 36.6519C116.717 37.0293 116.266 37.1494 115.734 37.1494H115.048V35.5139H115.436C115.757 35.5139 115.923 35.4338 116.043 35.0735L116.209 34.576L114.23 29.2119H116.128L117.135 32.2943L118.096 29.2119H119.994L117.53 35.8684H117.535Z" fill="white"/>
<path d="M51.6565 1.0249H50.9246V37.0581H51.6565V1.0249Z" fill="white"/>
<path d="M18.1052 0.938965C8.10904 0.938965 0 9.048 0 19.0442C0 29.0404 8.10904 37.1494 18.1052 37.1494C28.1014 37.1494 36.2104 29.0404 36.2104 19.0442C36.2104 9.048 28.1014 0.938965 18.1052 0.938965ZM18.1052 36.4632C8.48647 36.4632 0.686237 28.6629 0.686237 19.0442C0.686237 9.42543 8.48647 1.6252 18.1052 1.6252C27.724 1.6252 35.5242 9.42543 35.5242 19.0442C35.5242 28.6629 27.724 36.4632 18.1052 36.4632Z" fill="white"/>
<path d="M18.1052 3.70117C9.63589 3.70117 2.76208 10.5693 2.76208 19.0443C2.76208 27.5193 9.63589 34.3874 18.1052 34.3874C26.5745 34.3874 33.4483 27.5136 33.4483 19.0443C33.4483 10.575 26.5802 3.70117 18.1052 3.70117ZM16.9615 8.58489C17.0015 8.58489 17.0301 8.58489 17.0644 8.58489H18.1224C20.2039 8.58489 21.0789 8.95089 22.0625 9.71147C23.4979 10.838 23.7266 12.4679 23.7266 13.2856C23.7266 14.2978 23.4178 15.3729 22.6572 16.2422C22.0911 16.917 21.1132 17.9006 19.1917 18.1293C17.8765 18.2894 16.91 18.2322 16.4239 18.1751V17.1457C16.6412 17.1743 16.9558 17.2029 17.3904 17.2029C18.6999 17.2029 19.6206 16.551 20.1868 15.8419C20.8273 15.0641 20.9588 14.3321 20.9874 13.6802H17.3904V12.668H20.9531C20.8616 11.9818 20.5985 11.4614 20.1754 10.9467C19.3576 9.93449 18.2024 9.76293 17.4418 9.76293H12.3065L11.7003 8.57917H16.9558L16.9615 8.58489ZM25.0305 29.132H11.9748L12.6096 27.8968V10.6322H15.4117V27.8796H17.3904V21.143H19.9752V27.8682H22.2169V24.803C22.2169 22.9444 22.1197 20.3596 20.0267 19.0271L21.2447 18.5811C23.7667 19.5189 25.0305 21.9665 25.0305 25.1918V27.9025L25.6653 29.1377H25.0305V29.132Z" fill="white"/>
</g>
<defs>
<clipPath id="clip0_244_4974">
<rect width="120" height="36.2104" fill="white" transform="translate(0 0.938965)"/>
</clipPath>
</defs>
</svg>
