<svg width="91" height="22" viewBox="0 0 91 22" fill="none" xmlns="http://www.w3.org/2000/svg">
<path d="M82.9052 16.3025L79.7922 21.5278H76.0626L80.9326 13.4746L76.2477 6.06681H80.3778L83.3367 10.739L85.9874 6.06681H89.6553L85.2786 13.5669L90.3334 21.5278H86.2032L82.9052 16.3025ZM66.3847 12.3987H71.5012V12.0916C71.5012 10.1549 70.9463 8.64874 69.1278 8.64874C67.371 8.64874 66.4771 9.93977 66.3847 12.3987ZM69.9292 21.8352C65.2443 21.8352 62.5935 19.2226 62.5935 13.8434C62.5935 9.1714 64.7203 5.75941 69.1893 5.75941C72.8574 5.75941 75.2305 7.7881 75.2305 13.1672V15.1038H66.3847C66.5389 17.6857 67.5559 18.9459 70.2374 18.9459C72.0251 18.9459 73.936 18.2696 75.0764 17.5013V20.4829C73.9978 21.2204 72.2717 21.8353 69.9292 21.8353M50.4805 13.9051C50.4805 17.4089 51.467 18.9459 53.4703 18.9459C55.5353 18.9459 56.5834 17.3783 56.5834 13.782C56.5834 10.2163 55.5971 8.64874 53.6242 8.64874C51.5284 8.64874 50.4805 10.2473 50.4805 13.9051ZM46.6895 13.905C46.6895 8.74101 49.1553 5.75928 52.6997 5.75928C54.3025 5.75928 55.6587 6.4972 56.5834 7.88037V0.165168H60.251V21.5278H56.8608L56.6758 19.5301C55.6894 21.0361 54.2715 21.8352 52.5456 21.8352C49.0935 21.8352 46.6895 19.0074 46.6895 13.905ZM35.5937 21.5278H31.9258V6.06668H35.5011L35.5937 7.35771H35.7785C36.5183 6.62006 37.8127 5.82071 40.001 5.82071C42.9908 5.82071 44.2236 7.17317 44.2236 10.247V21.5277H40.556V10.616C40.556 9.44809 39.9703 8.89471 38.6757 8.89471C37.3503 8.89471 36.2717 9.60166 35.5937 10.4317V21.5278ZM25.2683 14.3045H24.7443C21.6004 14.3045 20.3368 14.9501 20.3368 16.7635C20.3368 18.1469 21.1073 19.0689 22.6484 19.0689C23.9428 19.0689 24.8059 18.5155 25.2682 17.8394L25.2683 14.3045ZM28.9359 17.7471C28.9359 19.0074 28.9977 20.2677 29.121 21.5278H25.5456C25.4224 21.2204 25.2991 20.698 25.2682 20.2985H25.1142C24.4052 21.0361 23.4804 21.7431 21.3231 21.7431C18.4874 21.7431 16.5765 19.9911 16.5765 16.8559C16.5765 13.7205 19.073 11.8763 24.6826 11.8763H25.2683V11.0155C25.2683 9.35569 24.4669 8.74101 22.7101 8.74101C20.8298 8.74101 18.6725 9.54023 17.686 10.278V7.23499C18.7957 6.58934 20.7066 5.82097 23.1415 5.82097C27.0252 5.82097 28.9359 7.23486 28.9359 10.9848V17.7471Z" fill="white"/>
<path d="M7.54566 21.5278V19.3763C7.54566 16.4562 7.20665 15.0117 6.03538 12.4911L0.333374 0.165426H4.27847L9.11764 10.7083C10.5354 13.7823 11.1519 15.3804 11.1519 18.9153V21.5279L7.54566 21.5278ZM9.85736 10.493L14.3574 0.165039H18.1484L13.5867 10.493H9.85736Z" fill="white"/>
</svg>
