<svg width="80" height="80" viewBox="0 0 80 80" fill="none" xmlns="http://www.w3.org/2000/svg">
<path fill-rule="evenodd" clip-rule="evenodd" d="M76.011 40C74.7123 43.1142 73.0214 46.024 71 48.6677V48V47H70H61.8403C63.9185 44.9368 65.706 42.5812 67.1358 40H76.011ZM70 48V49.9214C67.9471 52.39 65.5952 54.6012 63 56.4993V56V55H62H47.8402C52.7295 53.7258 57.1489 51.288 60.785 48H70ZM32.1598 55C27.2705 53.7258 22.8511 51.288 19.215 48H10V49.9214C12.0529 52.39 14.4048 54.6012 17 56.4993V56V55H18H32.1598ZM18 57.207V56H40H62V57.207C55.7376 61.493 48.1616 64 40 64C31.8384 64 24.2624 61.493 18 57.207ZM18 58.4119C21.9283 61.0037 26.3407 62.9214 31.0723 64H26H25V65V79H18V58.4119ZM26 65V79H54V65H40H26ZM62 79H55V65V64H54H48.9277C53.6593 62.9214 58.0717 61.0037 62 58.4119V79ZM71.2269 0H79H80V1V25V39V40V79V80H79H71H70H63H62H55H54H26H25H18H17H10H9H1H0V79V40V39V25V1V0H1H8.77314H10.0655H21.6662H23.411H56.589H58.3338H69.9345H71.2269ZM17 57.7302C14.427 55.9188 12.0772 53.8117 10 51.4582V79H17V57.7302ZM63 79H70V51.4582C67.9228 53.8117 65.573 55.9188 63 57.7302V79ZM40 55C32.6673 55 25.949 52.3692 20.7375 48H40H59.2625C54.051 52.3692 47.3327 55 40 55ZM2.90759 40C4.4221 43.7415 6.48629 47.2017 9 50.2804V79H1V40H2.90759ZM3.98898 40C5.28768 43.1142 6.97859 46.024 9 48.6677V48V47H10H18.1597C16.0815 44.9368 14.294 42.5812 12.8642 40H3.98898ZM14.0135 40C15.5213 42.6066 17.4101 44.9653 19.6037 47H33.2709C29.0617 45.7141 25.3653 43.2534 22.5639 40H14.0135ZM57.4361 40C54.6347 43.2534 50.9383 45.7141 46.7291 47H60.3963C62.5899 44.9653 64.4787 42.6066 65.9865 40H57.4361ZM23.9064 40C27.9224 44.3069 33.6467 47 40 47C46.3533 47 52.0776 44.3069 56.0936 40H40H23.9064ZM71 50.2804V79H79V40H77.0924C75.5779 43.7415 73.5137 47.2017 71 50.2804ZM76.4118 39C78.0836 34.6546 79 29.9343 79 25C79 15.9488 75.9167 7.61781 70.743 1H59.6229C66.5677 6.68498 71 15.3249 71 25C71 30.0377 69.7984 34.7946 67.6661 39H76.4118ZM79 39V33.9277C78.6041 35.6642 78.0953 37.3576 77.4816 39H79ZM1 39H2.51843C1.90472 37.3576 1.39586 35.6642 1 33.9277V39ZM3.58819 39H12.3339C10.2016 34.7946 9 30.0377 9 25C9 15.3249 13.4323 6.68498 20.3771 1H9.25695C4.08334 7.61781 1 15.9488 1 25C1 29.9343 1.91636 34.6546 3.58819 39ZM13.4602 39C11.2509 34.8206 10 30.0564 10 25C10 15.1864 14.7121 6.47337 21.9971 1H58.0029C65.2879 6.47337 70 15.1864 70 25C70 30.0564 68.7491 34.8206 66.5398 39H58.2497C61.2289 35.1223 63 30.268 63 25C63 12.2975 52.7025 2 40 2C27.2975 2 17 12.2975 17 25C17 30.268 18.7711 35.1223 21.7502 39H13.4602ZM45.3964 39C51.0144 36.8331 55 31.382 55 25C55 16.7157 48.2843 10 40 10C31.7157 10 25 16.7157 25 25C25 31.382 28.9856 36.8331 34.6036 39H23.0286C19.8873 35.1962 18 30.3185 18 25C18 12.8497 27.8497 3 40 3C52.1503 3 62 12.8497 62 25C62 30.3185 60.1127 35.1962 56.9714 39H45.3964ZM40 39C47.732 39 54 32.732 54 25C54 17.268 47.732 11 40 11C32.268 11 26 17.268 26 25C26 32.732 32.268 39 40 39ZM7.99707 1C4.6869 5.40693 2.26578 10.5198 1 16.0723V1H7.99707ZM79 16.0723C77.7342 10.5198 75.3131 5.40693 72.0029 1H79V16.0723Z" fill="#707477"/>
</svg>
