<svg width="71" height="70" viewBox="0 0 71 70" fill="none" xmlns="http://www.w3.org/2000/svg">
<path d="M0.333374 0H70.3334V70H0.333374V0Z" fill="#161616"/>
<path d="M6.37127 56.875H32.6213V61.25H6.37127V56.875Z" fill="white"/>
<path d="M6.07617 18.4315L8.11337 16.5083C8.66757 17.1765 9.18917 17.5677 9.90627 17.5677C10.6886 17.5677 11.194 17.0299 11.194 15.9705V8.75H14.3397V15.9867C14.3397 17.421 13.9811 18.4315 13.2151 19.1976C12.4651 19.9476 11.3897 20.3548 10.0857 20.3548C8.09717 20.3548 6.89107 19.5236 6.07617 18.4315Z" fill="white"/>
<path d="M15.0728 8.75H24.249V11.423H18.2022V13.167H23.6785V15.6607H18.2022V17.4699H24.3305V20.1592H15.0728V8.75Z" fill="white"/>
<path d="M28.3825 11.5208H24.9761V8.75H34.9672V11.5208H31.5445V20.1592H28.3825V11.5208Z" fill="white"/>
<path d="M14.307 28.27C15.3176 27.83 16.067 27.0476 16.067 25.7274V25.6948C16.0751 25.3517 16.0144 25.0105 15.8884 24.6913C15.7624 24.3721 15.5736 24.0814 15.3334 23.8364C14.6652 23.1844 13.6546 22.8258 12.2203 22.8258H6.36957V34.235H12.2534C14.9752 34.235 16.5725 33.045 16.5725 31.0893V31.0567C16.5726 29.5083 15.6925 28.726 14.307 28.27ZM9.44997 25.3689H11.52C12.449 25.3689 12.9543 25.7111 12.9543 26.3468V26.3794C12.9543 27.0476 12.4001 27.3736 11.4385 27.3736H9.44997V25.3689ZM13.4107 30.6497C13.4107 31.3179 12.8728 31.6928 11.8949 31.6928H9.44997V29.59H11.8623C12.9217 29.59 13.4107 29.9975 13.4107 30.6169V30.6497Z" fill="white"/>
<path d="M33.9134 22.7444H30.8659L26.6029 32.8637L24.8196 30.2581C26.2376 29.655 27.1665 28.4981 27.1665 26.7376V26.705C27.1665 25.5804 26.8243 24.7165 26.1565 24.0483C25.3904 23.2822 24.1843 22.8259 22.4403 22.8259H17.045V34.235H20.2069V30.78H21.6086L23.9067 34.2353H29.3334L30.1484 32.1817H34.5653L35.3802 34.2353H38.7702L33.9134 22.7444ZM24.0041 26.9494C24.0041 27.7806 23.3684 28.3023 22.309 28.3023H20.207V25.5477H22.2934C23.3366 25.5477 24.0048 26.0041 24.0048 26.9169L24.0041 26.9494ZM31.0778 29.72L32.3655 26.4929L33.6367 29.72H31.0778Z" fill="white"/>
<path d="M39.1453 22.8258H42.3072V34.235H39.1453V22.8258Z" fill="white"/>
<path d="M43.0894 22.8258H46.0395L50.7335 28.8564V22.8258H53.8629V34.235H51.1084L46.2188 27.9763V34.235H43.0894V22.8258Z" fill="white"/>
<path d="M54.0611 32.54L55.8211 30.4375C56.962 31.3339 58.2011 31.8066 59.5211 31.8066C60.3849 31.8066 60.8411 31.5132 60.8411 31.0242V30.9917C60.8411 30.5027 60.4662 30.2582 58.9011 29.8833C56.4725 29.3292 54.5981 28.6446 54.5981 26.3139V26.2813C54.5981 24.1625 56.2769 22.6304 59.0151 22.6304C60.9551 22.6304 62.4704 23.152 63.7091 24.1462L62.129 26.379C61.0859 25.629 59.945 25.2544 58.9344 25.2544C58.1684 25.2544 57.7935 25.5644 57.7935 25.9878V26.02C57.7935 26.5416 58.1847 26.77 59.782 27.1283C62.3898 27.6983 64.0197 28.5463 64.0197 30.6814V30.714C64.0197 33.0447 62.1779 34.4301 59.4071 34.4301C57.386 34.4306 55.4791 33.795 54.0611 32.54Z" fill="white"/>
</svg>
