<svg width="100" height="34" viewBox="0 0 100 34" fill="none" xmlns="http://www.w3.org/2000/svg">
<g clip-path="url(#clip0_244_4917)">
<path d="M13.0108 33.9308L8.55661 31.5118C8.55661 31.5118 5.27392 29.4166 4.61418 28.7649C3.95844 28.1131 0.0200195 24.4386 0.0200195 19.8284V0.0483398H13.0108H26.0056V19.8284C26.0056 24.4386 22.0632 28.1131 21.4075 28.7649C20.7517 29.4166 17.469 31.5118 17.469 31.5118L13.0108 33.9308Z" fill="#161616"/>
<path d="M25.2179 0.939941H0.811707V9.00072H25.2179V0.939941Z" fill="white"/>
<path d="M9.13635 9.00098H16.8932V15.3864H25.1699C25.3739 18.4412 25.3619 21.2001 24.5102 22.7875H16.8892V30.8482L12.9228 33.0114L9.13235 30.9402V22.7915H1.42343C0.719716 21.448 0.771695 18.3932 0.807681 15.3904H9.13235V9.00098H9.13635Z" fill="white"/>
<path d="M0.579773 0.708008V19.6604C0.579773 21.6116 1.32348 24.6784 4.87405 28.197L4.96202 28.285C5.59377 28.9127 8.57258 30.832 8.71652 30.9239L13.0108 33.275L17.3211 30.9159C17.449 30.836 20.4318 28.9127 21.0596 28.285L21.1435 28.205C24.7021 24.6944 25.4498 21.6196 25.4498 19.6644V0.708008H0.579773ZM1.03959 1.17182H24.982V8.82876H1.03959V1.17182ZM17.0652 9.17262H24.986V15.2102H17.0652V9.17262ZM8.96042 9.17262V15.2102H1.03959V9.17262H8.96042ZM5.28989 27.9571L5.19793 27.8651C3.38665 26.0699 2.33507 24.4065 1.73931 22.9631H8.96042V30.5281L8.95242 30.5241C8.92044 30.5041 5.88565 28.5489 5.28989 27.9571ZM20.8157 27.8731L20.7317 27.9571C20.1399 28.5489 17.1012 30.5041 17.0852 30.5161L17.0612 30.5281V22.9631H24.2823C23.6905 24.4145 22.635 26.0779 20.8157 27.8731ZM24.4262 22.6152H16.7173V30.716L13.0108 32.7432L9.30828 30.716V22.6152H1.60336C1.17553 21.4637 1.04359 20.4601 1.04359 19.6604V15.5621H9.31228V9.17262H16.7213V15.5581H24.99V19.6564C24.986 20.4641 24.8501 21.4677 24.4262 22.6152Z" fill="white"/>
<path d="M16.7813 19.1607C16.7573 18.9728 16.6094 18.8089 16.4654 18.7449C16.3215 18.6769 16.2175 18.593 16.1735 18.561C16.1295 18.525 16.1895 18.441 16.1895 18.441L16.5534 18.0932L16.0536 17.9972C16.0536 17.9972 15.9576 17.9612 15.9736 17.9092C15.9936 17.8573 16.0336 17.7293 16.1175 17.5974C16.2015 17.4654 16.2415 17.2495 16.1575 17.0776C15.9416 16.6377 15.3219 16.2739 15.2139 16.2379C15.1539 16.1459 14.5942 15.6741 14.1064 15.5862C13.9144 15.5502 13.7105 15.6421 13.6066 15.7581C13.4986 15.8741 13.3826 15.946 13.3347 15.978C13.2907 16.006 13.2267 15.926 13.2267 15.926L13.0068 15.4702L12.7629 15.91C12.7629 15.91 12.6949 15.986 12.6509 15.954C12.607 15.922 12.495 15.8461 12.399 15.7221C12.2991 15.6022 12.1032 15.4982 11.9112 15.5262C11.4314 15.5942 10.8956 16.062 10.8277 16.1499C10.7197 16.1819 10.104 16.5538 9.87205 16.9856C9.78008 17.1575 9.80407 17.3735 9.88404 17.5094C9.96001 17.6493 9.992 17.7773 10.008 17.8333C10.024 17.8813 9.92802 17.9212 9.92802 17.9212L9.43622 17.9852L9.78008 18.3531C9.78008 18.3531 9.83206 18.441 9.78408 18.469C9.7401 18.501 9.63214 18.581 9.4882 18.6409C9.34426 18.6969 9.18432 18.8529 9.14834 19.0408C9.06437 19.5206 9.34426 20.1723 9.40423 20.2683C9.40023 20.3763 9.56817 21.08 9.90403 21.4358C10.036 21.5798 10.2519 21.6198 10.4078 21.5878C10.5598 21.5558 10.6957 21.5678 10.7477 21.5678C10.8037 21.5718 10.8077 21.6717 10.8077 21.6717L10.7557 22.1316L11.2115 21.9196C11.2115 21.9196 11.3075 21.8916 11.3275 21.9516C11.3435 22.0036 11.3874 22.1315 11.3954 22.2875C11.4034 22.4434 11.4994 22.6433 11.6713 22.7313C12.1032 22.9632 12.8109 22.8992 12.9148 22.8673C13.0188 22.9072 13.7385 22.9632 14.1823 22.7553C14.3543 22.6753 14.4622 22.4794 14.4822 22.3235C14.4982 22.1675 14.5502 22.0436 14.5662 21.9916C14.5862 21.9356 14.6821 21.9676 14.6821 21.9676L15.1259 22.2075L15.078 21.7357C15.078 21.7357 15.082 21.6357 15.1419 21.6357C15.1979 21.6357 15.3299 21.6318 15.4818 21.6757C15.6337 21.7117 15.8497 21.6837 15.9896 21.5518C16.3415 21.2119 16.5014 20.5202 16.5014 20.4082C16.5654 20.3163 16.8453 19.6485 16.7813 19.1607ZM10.6717 21.2759C10.3718 21.2999 10.1559 21.2959 10.06 21.116C9.96801 20.932 9.92403 20.6361 9.90803 20.5762C9.89604 20.5162 9.94402 20.1563 9.89604 20.1284C9.91203 20.0764 9.68012 19.8964 9.65213 19.8405C9.62414 19.7845 9.46021 19.5366 9.41223 19.3327C9.36425 19.1327 9.52818 18.9888 9.76809 18.8129C10.012 18.6369 10.3079 18.8609 10.3359 18.9248C10.3599 18.9888 10.3399 19.0088 10.3319 19.0768C10.3239 19.1407 10.3239 19.2447 10.3359 19.3087C10.3519 19.3687 10.4158 19.4486 10.4158 19.4486L10.5398 19.5006C10.5398 19.5006 10.6437 19.5686 10.6437 19.6485C10.6397 19.7285 10.4478 19.9604 10.4478 19.9604C10.4478 19.9604 10.7237 20.0084 10.7797 20.0684C10.8357 20.1284 10.7997 20.2483 10.7997 20.2483L10.7437 20.3683C10.7437 20.3683 10.7477 20.4762 10.7757 20.5282C10.8037 20.5842 10.8716 20.6641 10.9236 20.7081C10.9756 20.7481 10.9996 20.7521 11.0236 20.8161C11.0436 20.884 10.9676 21.2479 10.6717 21.2759ZM11.4394 17.4014C11.3994 17.4734 11.2755 17.4734 11.2755 17.4734L11.1435 17.4574C11.1435 17.4574 11.0476 17.4894 10.9996 17.5374C10.9556 17.5814 10.8996 17.6733 10.8756 17.7333C10.8477 17.7933 10.8557 17.8173 10.7997 17.8613C10.7437 17.9052 10.3718 17.9452 10.2599 17.6693C10.1399 17.3894 10.076 17.1855 10.2199 17.0376C10.3678 16.8896 10.6357 16.7617 10.6877 16.7257C10.7397 16.6937 11.0956 16.6298 11.1076 16.5738C11.1635 16.5738 11.2635 16.3019 11.3075 16.2539C11.3515 16.2099 11.5394 15.978 11.7153 15.8661C11.8912 15.7581 12.0792 15.8661 12.3191 16.042C12.563 16.2219 12.439 16.5698 12.387 16.6178C12.3311 16.6617 12.3071 16.6497 12.2431 16.6617C12.1791 16.6697 12.0792 16.7057 12.0232 16.7417C11.9712 16.7737 11.9112 16.8577 11.9112 16.8577L11.9032 16.9896C11.9032 16.9896 11.8712 17.1136 11.7913 17.1335C11.7193 17.1535 11.4394 17.0456 11.4394 17.0456C11.4394 17.0456 11.4754 17.3295 11.4394 17.4014ZM13.9264 22.5034C13.7185 22.5354 13.4226 22.4834 13.3626 22.4794C13.3027 22.4754 12.9748 22.3195 12.9308 22.3555C12.8868 22.3195 12.6469 22.4874 12.587 22.4954C12.523 22.5074 12.2391 22.5834 12.0312 22.5674C11.8233 22.5514 11.7353 22.3555 11.6473 22.0676C11.5514 21.7837 11.8593 21.5678 11.9272 21.5638C11.9992 21.5638 12.0112 21.5838 12.0712 21.6118C12.1311 21.6437 12.2311 21.6757 12.2951 21.6757C12.3591 21.6837 12.455 21.6437 12.455 21.6437L12.543 21.5438C12.543 21.5438 12.6389 21.4638 12.7149 21.4918C12.7869 21.5198 12.9468 21.7677 12.9468 21.7677C12.9468 21.7677 13.0788 21.5238 13.1547 21.4918C13.2267 21.4558 13.3307 21.5278 13.3307 21.5278L13.4266 21.6198C13.4266 21.6198 13.5226 21.6517 13.5906 21.6357C13.6505 21.6278 13.7505 21.5838 13.8065 21.5478C13.8664 21.5158 13.8744 21.4918 13.9464 21.4918C14.0144 21.4878 14.3383 21.6757 14.2703 21.9676C14.1943 22.2635 14.1303 22.4714 13.9264 22.5034ZM14.7381 17.5214C14.7381 17.5214 14.6102 17.5294 14.5662 17.4614C14.5222 17.3934 14.5422 17.0976 14.5422 17.0976C14.5422 17.0976 14.2863 17.2175 14.2023 17.2015C14.1223 17.1855 14.0784 17.0696 14.0784 17.0696L14.0584 16.9376C14.0584 16.9376 13.9984 16.8577 13.9344 16.8257C13.8784 16.7977 13.7705 16.7737 13.7065 16.7697C13.6385 16.7617 13.6225 16.7737 13.5586 16.7337C13.4986 16.6937 13.3507 16.3579 13.5786 16.1619C13.8065 15.966 13.9864 15.8381 14.1743 15.934C14.3623 16.03 14.5742 16.2419 14.6221 16.2819C14.6701 16.3219 14.8421 16.6417 14.898 16.6337C14.918 16.6857 15.2139 16.6977 15.2699 16.7217C15.3259 16.7537 15.6098 16.8577 15.7697 16.9936C15.9296 17.1256 15.8816 17.3375 15.7897 17.6214C15.6977 17.9052 15.3179 17.8972 15.2619 17.8613C15.1979 17.8213 15.2019 17.7973 15.1739 17.7373C15.1419 17.6773 15.078 17.5934 15.03 17.5534C14.978 17.5134 14.878 17.4854 14.878 17.4854L14.7381 17.5214ZM16.2735 19.8565C16.2495 19.9124 16.0016 20.1723 16.0216 20.2243C15.9776 20.2563 16.0576 20.5402 16.0496 20.6002C16.0376 20.6601 16.0216 20.96 15.9456 21.1519C15.8656 21.3479 15.6497 21.3639 15.3499 21.3639C15.05 21.3639 14.942 21.008 14.962 20.94C14.978 20.8721 15.002 20.8681 15.05 20.8201C15.094 20.7721 15.1579 20.6881 15.1819 20.6321C15.2059 20.5722 15.1979 20.4682 15.1979 20.4682L15.1299 20.3563C15.1299 20.3563 15.086 20.2403 15.1339 20.1763C15.1819 20.1084 15.4698 20.0404 15.4698 20.0404C15.4698 20.0404 15.2779 19.8365 15.2659 19.7605C15.2579 19.6805 15.3539 19.6006 15.3539 19.6006L15.4698 19.5406C15.4698 19.5406 15.5298 19.4566 15.5378 19.3926C15.5458 19.3327 15.5418 19.2247 15.5258 19.1607C15.5098 19.0968 15.4898 19.0808 15.5098 19.0128C15.5298 18.9488 15.8057 18.6969 16.0616 18.8489C16.3175 19.0048 16.4934 19.1327 16.4614 19.3407C16.4374 19.5326 16.2975 19.7965 16.2735 19.8565Z" fill="#161616"/>
<path d="M13.0068 20.4921C13.0068 20.4921 12.8349 20.4841 12.7949 20.6401C12.7469 20.796 12.8629 20.936 12.7509 21.0199C12.635 21.1039 12.6789 21.1719 12.523 21.1279C12.3671 21.0799 12.3111 21.0039 12.2631 20.884C12.2071 20.764 12.1112 20.6801 11.9712 20.5921C11.8433 20.4881 11.7313 20.4202 11.6034 20.4042C11.4754 20.3962 11.3915 20.3602 11.2955 20.2282C11.2075 20.0923 11.2315 20.1922 11.2955 20.0083C11.3595 19.8284 11.5314 19.9244 11.6674 19.8324C11.8033 19.7404 11.7593 19.5565 11.7593 19.5565C11.7593 19.5565 11.6514 19.3606 11.4874 19.3646C11.3235 19.3686 11.2275 19.5205 11.1156 19.4406C11.0036 19.3566 10.9476 19.4206 10.9436 19.2566C10.9356 19.0927 10.9956 19.0207 11.0956 18.9368C11.1915 18.8568 11.2435 18.7328 11.2835 18.5689C11.3435 18.417 11.3755 18.289 11.3475 18.1611C11.3195 18.0331 11.3275 17.9451 11.4235 17.8172C11.5234 17.6893 11.4394 17.7412 11.6314 17.7452C11.8233 17.7532 11.7833 17.9491 11.9153 18.0451C12.0472 18.1451 12.1991 18.0491 12.1991 18.0491C12.1991 18.0491 12.3631 17.9212 12.3071 17.7652C12.2551 17.6133 12.0752 17.5693 12.1192 17.4334C12.1672 17.3014 12.0872 17.2694 12.2391 17.2134C12.3951 17.1575 12.483 17.1934 12.595 17.2534C12.7029 17.3214 12.8349 17.3334 13.0028 17.3214C13.1628 17.3294 13.2987 17.3214 13.4107 17.2534C13.5186 17.1934 13.6106 17.1695 13.7625 17.2214C13.9145 17.2774 13.8385 17.2134 13.8945 17.3974C13.9464 17.5813 13.7505 17.6093 13.6945 17.7612C13.6426 17.9092 13.7865 18.0331 13.7865 18.0331C13.7865 18.0331 13.9664 18.1611 14.0944 18.0651C14.2263 17.9651 14.2103 17.7852 14.3503 17.7852C14.4902 17.7852 14.4982 17.7052 14.5982 17.8372C14.6981 17.9651 14.6941 18.0571 14.6662 18.1851C14.6382 18.309 14.6662 18.437 14.7301 18.5929C14.7701 18.7528 14.8221 18.8728 14.9181 18.9607C15.014 19.0447 15.062 19.1207 15.058 19.2846C15.054 19.4485 15.09 19.3526 14.93 19.4645C14.7741 19.5725 14.6861 19.3926 14.5262 19.3886C14.3623 19.3846 14.2703 19.5565 14.2703 19.5565C14.2703 19.5565 14.2263 19.7604 14.3623 19.8524C14.4982 19.9443 14.6662 19.8764 14.7061 20.0083C14.7461 20.1403 14.8301 20.1203 14.7381 20.2562C14.6462 20.3922 14.5542 20.4202 14.4263 20.4282C14.2983 20.4362 14.1823 20.5081 14.0584 20.6121C13.9185 20.7 13.8185 20.784 13.7665 20.908C13.7185 21.0239 13.6586 21.0959 13.5026 21.1439C13.3467 21.1879 13.4466 21.1958 13.2947 21.0799C13.1388 20.9639 13.2867 20.824 13.2427 20.6681C13.1907 20.5041 13.0068 20.4921 13.0068 20.4921Z" fill="white"/>
<path d="M13.0068 18.0972L12.6829 18.7369L12.0792 18.8169L12.531 19.2527L12.387 19.9484L13.0068 19.5526L13.6185 19.9484L13.4786 19.2527L13.9304 18.8169L13.3227 18.7369L13.0068 18.0972Z" fill="#161616"/>
<path d="M16.5694 21.2441L17.533 22.3597L16.2535 21.7319L16.5694 21.2441Z" fill="#161616"/>
<path d="M16.6613 17.2457L19.856 16.2261L16.9132 17.8654L16.6613 17.2457Z" fill="#161616"/>
<path d="M17.1051 18.8413L20.4478 19.1492L17.1011 19.509L17.1051 18.8413Z" fill="#161616"/>
<path d="M16.9572 20.3726L19.8561 22.0599L16.7053 21.0163L16.9572 20.3726Z" fill="#161616"/>
<path d="M17.0052 18.1412L18.1047 18.0532L17.0892 18.573L17.0052 18.1412Z" fill="#161616"/>
<path d="M17.0892 19.7407L18.1368 20.2485L17.0012 20.1885L17.0892 19.7407Z" fill="#161616"/>
<path d="M9.28826 21.1119L6.09753 22.1315L9.03636 20.4922L9.28826 21.1119Z" fill="#161616"/>
<path d="M8.84446 19.5169L5.5058 19.209L8.85246 18.8491L8.84446 19.5169Z" fill="#161616"/>
<path d="M8.99637 17.9852L6.09753 16.2979L9.24827 17.3414L8.99637 17.9852Z" fill="#161616"/>
<path d="M8.95244 20.2164L7.84888 20.3044L8.86047 19.7886L8.95244 20.2164Z" fill="#161616"/>
<path d="M8.86048 18.6171L7.81689 18.1133L8.95244 18.1693L8.86048 18.6171Z" fill="#161616"/>
<path d="M14.7781 22.8755L15.8017 26.0662L14.1624 23.1274L14.7781 22.8755Z" fill="#161616"/>
<path d="M13.1867 23.3234L12.8788 26.6661L12.519 23.3154L13.1867 23.3234Z" fill="#161616"/>
<path d="M11.6553 23.1713L9.96802 26.0662L11.0116 22.9194L11.6553 23.1713Z" fill="#161616"/>
<path d="M13.8864 23.2153L13.9744 24.3189L13.4586 23.3033L13.8864 23.2153Z" fill="#161616"/>
<path d="M12.2871 23.3035L11.7793 24.3471L11.8433 23.2075L12.2871 23.3035Z" fill="#161616"/>
<path d="M10.1959 22.2876L9.06036 22.9433L9.83206 21.9077L10.1959 22.2876Z" fill="#161616"/>
<path d="M9.64012 21.7039L8.32465 22.1837L9.40022 21.312L9.64012 21.7039Z" fill="#161616"/>
<path d="M10.7997 22.7914L9.75208 23.715L10.3798 22.4355L10.7997 22.7914Z" fill="#161616"/>
<path d="M16.1016 21.916L16.7613 23.0516L15.7257 22.2839L16.1016 21.916Z" fill="#161616"/>
<path d="M15.5218 22.4756L16.0016 23.7911L15.126 22.7155L15.5218 22.4756Z" fill="#161616"/>
<path d="M15.7377 16.0141L16.8733 15.3584L16.1016 16.394L15.7377 16.0141Z" fill="#161616"/>
<path d="M16.2935 16.6019L17.6129 16.1221L16.5334 16.9937L16.2935 16.6019Z" fill="#161616"/>
<path d="M15.134 15.5145L16.1816 14.5908L15.5538 15.8663L15.134 15.5145Z" fill="#161616"/>
<path d="M9.79209 16.4261L9.13635 15.2905L10.1759 16.0582L9.79209 16.4261Z" fill="#161616"/>
<path d="M10.3798 15.8663L9.90002 14.5508L10.7717 15.6303L10.3798 15.8663Z" fill="#161616"/>
<path d="M9.34829 17.106L8.36469 15.9824L9.64417 16.6102L9.34829 17.106Z" fill="#161616"/>
<path d="M15.7017 12.8314L15.6457 12.9713L15.6137 13.2712C15.2699 13.0633 15.1179 13.647 15.1179 13.647L15.1259 13.767L15.2139 13.735L15.3578 13.703L15.4018 13.799C15.4898 14.1628 14.926 14.3268 14.7941 14.3827C14.6621 14.4387 14.5622 14.4027 14.4062 14.2948C14.2543 14.1868 14.3742 13.731 14.4182 13.679C14.4662 13.623 14.5102 13.647 14.5102 13.647L14.5222 13.755L14.6101 13.9469L14.7301 13.867L14.882 13.5951L14.8261 13.4071L14.6261 13.3951C14.8341 13.0313 14.6941 12.5915 14.6941 12.5915C14.2543 12.5675 14.1983 13.0873 14.1983 13.0873L14.0903 12.9753L13.9584 13.0873L13.8944 13.3392L13.8824 13.4951H13.9584L14.0704 13.4591C14.0704 13.4591 14.1343 13.3072 14.1343 13.5591C14.1343 13.815 13.9704 13.9709 13.8584 14.0229C13.7505 14.0789 13.4866 13.9989 13.4866 13.9989L13.3027 13.867C13.3027 13.867 13.2467 13.683 13.2547 13.5711C13.2707 13.4591 13.2707 13.3831 13.2707 13.3831L13.3426 13.3632L13.5186 13.3951L13.6745 13.5271V13.3392L13.7065 13.1632L13.7625 12.8314L13.7705 12.5235L13.6145 12.5675L13.4066 12.5395L13.2507 12.4715L13.2867 12.3835L13.3746 12.3196L13.4626 12.3076C15.2379 12.3396 16.1815 12.9233 16.1815 12.9233L16.1495 12.6674C15.1339 11.9757 13.4386 11.9517 13.4386 11.9517L13.4466 11.8198C15.2739 11.8957 16.0576 12.4595 16.0576 12.4595L15.9816 12.2276C14.7901 11.348 13.3147 11.4759 13.3147 11.4759C13.3147 11.4759 13.3227 11.4879 13.3267 11.4959C13.3227 11.4919 13.3227 11.4879 13.3147 11.4759C13.2827 11.4119 13.1427 11.3999 13.1427 11.3999V11.244L13.2067 11.18L13.3147 11.0241L13.6465 11.1121V10.6402L13.3147 10.6722L13.3706 10.3604L13.0388 10.4163L12.7109 10.3604L12.7669 10.6722L12.435 10.6402V11.1121L12.7669 11.0241L12.8748 11.18L12.9428 11.244V11.3999C12.9428 11.3999 12.8029 11.4119 12.7669 11.4759C12.7669 11.4759 11.2875 11.344 10.0999 12.2276L10.024 12.4595C10.024 12.4595 10.8077 11.8957 12.6349 11.8198L12.6429 11.9517C12.6429 11.9517 10.9476 11.9717 9.93201 12.6674L9.90002 12.9233C9.90002 12.9233 10.8436 12.3396 12.6229 12.3076L12.7109 12.3196L12.7989 12.3835L12.8309 12.4715L12.6789 12.5395L12.471 12.5675L12.3151 12.5235L12.3271 12.8314L12.383 13.1632L12.415 13.3392V13.5271L12.571 13.3951L12.7429 13.3632L12.8229 13.3831C12.8229 13.3831 12.8229 13.4591 12.8309 13.5711C12.8428 13.683 12.7869 13.867 12.7869 13.867L12.6029 13.9989C12.6029 13.9989 12.339 14.0789 12.2271 14.0229C12.1151 13.9709 11.9552 13.815 11.9552 13.5591C11.9552 13.3072 12.0152 13.4591 12.0152 13.4591L12.1231 13.4951H12.2031L12.1911 13.3392L12.1231 13.0873L11.9952 12.9753L11.8832 13.0873C11.8832 13.0873 11.8313 12.5675 11.3914 12.5915C11.3914 12.5915 11.2475 13.0353 11.4594 13.3951L11.2595 13.4071L11.2035 13.5951L11.3554 13.867L11.4754 13.9469L11.5634 13.755L11.5754 13.647C11.5754 13.647 11.6193 13.623 11.6633 13.679C11.7073 13.731 11.8273 14.1868 11.6713 14.2948C11.5154 14.4027 11.4194 14.4347 11.2835 14.3827C11.1555 14.3268 10.5917 14.1628 10.6837 13.799L10.7277 13.703L10.8676 13.735L10.9556 13.767L10.9636 13.647C10.9636 13.647 10.8077 13.0633 10.4678 13.2712L10.4318 12.9713L10.3758 12.8314L10.08 12.9593L9.98799 13.0513L11.1355 15.3863C11.1355 15.3863 11.8313 14.9785 13.0308 14.9785C14.2303 14.9785 14.926 15.3863 14.926 15.3863L16.0696 13.0513L15.9816 12.9593L15.7017 12.8314ZM11.6913 15.1025C11.5194 15.1704 11.3554 15.1464 11.3155 15.0465C11.2755 14.9465 11.3754 14.8106 11.5434 14.7426C11.7113 14.6746 11.8752 14.7026 11.9152 14.7986C11.9552 14.9025 11.8552 15.0305 11.6913 15.1025ZM13.0508 14.6027C12.8708 14.6027 12.7269 14.5147 12.7269 14.4107C12.7269 14.3068 12.8748 14.2188 13.0508 14.2188C13.2267 14.2188 13.3786 14.3028 13.3786 14.4107C13.3786 14.5187 13.2307 14.6027 13.0508 14.6027ZM14.4662 15.0185C14.4182 15.1144 14.2503 15.1264 14.0903 15.0505C13.9304 14.9665 13.8345 14.8266 13.8824 14.7306C13.9304 14.6386 14.0983 14.6226 14.2583 14.7026C14.4222 14.7826 14.5142 14.9225 14.4662 15.0185Z" fill="#161616"/>
<path d="M22.9988 5.51001C22.8789 5.42205 22.7869 5.21013 22.7589 5.13416C22.7149 5.00222 22.519 4.89426 22.3511 5.0462C22.3151 5.07819 22.2871 5.10618 22.2591 5.13816C22.1871 5.21013 22.1631 5.23812 22.0712 5.23812H21.6274H20.8197L20.8157 4.33448C21.1116 4.33448 21.9552 4.33049 22.0712 4.33448C22.1551 4.33848 22.2031 4.37847 22.3271 4.49842L22.3551 4.52641C22.419 4.58638 22.483 4.61437 22.551 4.61437C22.6709 4.61437 22.7469 4.51841 22.7669 4.42645C22.7869 4.35448 22.8629 4.14256 22.9908 4.07059C23.1707 3.96663 23.1987 3.7827 23.1867 3.67475C23.1907 3.65476 23.1907 3.63876 23.1907 3.62277C23.1787 3.5388 23.1148 3.45084 22.9948 3.36287C22.8749 3.27891 22.7829 3.06299 22.7549 2.98702C22.7069 2.85508 22.515 2.75112 22.3471 2.89906C22.3111 2.93105 22.2831 2.95903 22.2551 2.98702C22.1831 3.06299 22.1591 3.08698 22.0632 3.08698H21.6194H20.8037V2.75512L20.7957 2.63516C20.7917 2.58318 20.7517 2.5392 20.7077 2.51921C20.7077 2.51921 20.6278 2.48322 20.4958 2.32729C20.2999 2.09938 20.112 2.00342 20.1 1.99942C20.064 1.98742 20.028 1.99942 19.996 2.01941L19.6122 1.59958C19.6122 1.5476 19.5802 1.49962 19.5322 1.47563C19.4842 1.45164 19.4282 1.45963 19.3883 1.49562C19.2283 1.63157 19.1324 1.71553 19.1244 1.73552C19.0444 1.8035 18.5366 2.07539 17.6969 2.07539C17.3091 2.07539 16.8933 2.01941 16.4654 1.90745C16.1495 1.82749 15.8257 1.7835 15.4938 1.7835C14.2343 1.7835 13.2867 2.37127 13.0988 2.49522C12.9108 2.37127 11.9632 1.7835 10.6997 1.7835C10.3679 1.7835 10.044 1.82749 9.72812 1.90745C9.30029 2.01941 8.88845 2.07539 8.50061 2.07539C7.66095 2.07539 7.15315 1.8035 7.08917 1.75552C7.06518 1.71953 6.96922 1.63157 6.80929 1.49962C6.7693 1.46363 6.71332 1.45564 6.66534 1.47963C6.62536 1.49562 6.60537 1.5316 6.59337 1.57159L6.17754 2.03141C6.14155 2.00741 6.09757 1.99942 6.05759 2.01141C6.04559 2.01541 5.89365 2.11137 5.70173 2.33928C5.56978 2.49522 5.49381 2.53121 5.49381 2.53121C5.44183 2.5472 5.40185 2.59518 5.39785 2.65116L5.39385 3.10298H4.57018H4.11836C4.0264 3.10298 4.00241 3.07899 3.93044 3.00302C3.90245 2.96303 3.87446 2.93504 3.83847 2.90306C3.67054 2.75512 3.47862 2.85907 3.43064 2.99102C3.41065 3.05899 3.31468 3.27891 3.19473 3.36287C3.07078 3.45084 3.00681 3.5388 2.99481 3.62277C2.99481 3.63876 2.99481 3.65476 2.99881 3.67475C2.98682 3.7827 3.0148 3.96663 3.19473 4.07059C3.32268 4.14256 3.40265 4.35048 3.41864 4.42245C3.43863 4.51841 3.5146 4.61437 3.63456 4.61437C3.69853 4.61437 3.7625 4.58638 3.83048 4.52241L3.85847 4.49442C3.98642 4.37447 4.0304 4.33448 4.11436 4.33049C4.23831 4.32649 5.08598 4.33049 5.37786 4.33049L5.37386 5.23812H4.56218H4.11836C4.0264 5.23812 4.00241 5.21413 3.93044 5.13816C3.90245 5.11017 3.87446 5.07819 3.83847 5.0462C3.67054 4.89826 3.47862 5.00222 3.43064 5.13816C3.40665 5.20614 3.31468 5.42205 3.19073 5.51001C3.07078 5.59398 3.00281 5.68195 2.99481 5.76591C2.99481 5.78191 2.99481 5.7979 2.99881 5.81789C2.98682 5.92985 3.0148 6.11377 3.19473 6.21773C3.32268 6.2897 3.39865 6.49762 3.41864 6.56959C3.43863 6.66555 3.5146 6.76151 3.63456 6.76151C3.70253 6.76151 3.7665 6.73352 3.83048 6.66955L3.86246 6.63756C3.98642 6.52161 4.0304 6.48562 4.11436 6.48163C4.23831 6.47363 5.06199 6.47763 5.36187 6.48163L5.35387 7.60917C5.35387 7.64516 5.36986 7.68115 5.39385 7.70514C5.41784 7.72913 5.44983 7.75312 5.48981 7.74512L11.8833 7.63316C11.8553 7.70114 11.8433 7.77711 11.8473 7.86107C11.8633 8.06499 11.9992 8.40486 12.7469 8.40486C12.8909 8.40486 13.0028 8.38886 13.0028 8.38886H13.1547C13.1547 8.38886 13.2707 8.40486 13.4266 8.40486C14.1743 8.40486 14.3103 8.06499 14.3263 7.86107C14.3343 7.77311 14.3183 7.69714 14.2903 7.63316L20.6837 7.74512C20.7157 7.75712 20.7557 7.72913 20.7837 7.70514C20.8117 7.68115 20.8237 7.64516 20.8237 7.60917L20.8197 6.48163C21.1236 6.48163 21.9432 6.47363 22.0672 6.48163C22.1511 6.48562 22.1951 6.52161 22.3191 6.63756L22.3511 6.66955C22.419 6.72953 22.479 6.76151 22.547 6.76151C22.6669 6.76151 22.7429 6.66555 22.7629 6.57359C22.7789 6.50562 22.8589 6.2897 22.9868 6.21773C23.1707 6.11377 23.1987 5.92985 23.1827 5.81789C23.1867 5.7979 23.1867 5.77791 23.1867 5.76591C23.1827 5.67795 23.1188 5.59398 22.9988 5.51001Z" fill="white"/>
<path d="M19.6321 5.97764C19.6321 6.02962 19.6041 6.0776 19.5562 6.10159L19.4322 6.16156C19.4162 6.17756 19.0684 6.40546 17.9168 6.40546C17.465 6.40546 16.9412 6.36948 16.3614 6.30151C15.9216 6.24953 15.5218 6.22154 15.1699 6.22154C14.7541 6.22154 14.0544 6.32949 13.8105 6.46544C13.3347 6.73333 13.4666 6.79331 13.2107 6.98523C13.1867 7.00523 13.1587 7.01322 13.1267 7.01322C13.1147 7.01322 13.1027 7.00922 13.0908 7.00523C13.0788 7.00922 13.0668 7.01322 13.0548 7.01322C13.0228 7.01322 12.9948 7.00523 12.9708 6.98523C12.7309 6.80131 12.8628 6.71334 12.3271 6.44545C11.9872 6.27352 11.4274 6.21754 11.0116 6.21754C10.6597 6.21754 10.2599 6.24553 9.82006 6.29751C9.24029 6.36948 8.7165 6.40147 8.26468 6.40147C7.10914 6.40147 6.76528 6.17356 6.7293 6.14557L6.62534 6.09759C6.57736 6.0736 6.54937 6.02562 6.54937 5.97364L6.56936 1.86328L6.2295 2.24313L6.2095 4.63017L6.20551 6.32949C6.29347 6.42146 6.7133 6.86928 8.06476 6.86928C8.57256 6.86928 9.30027 6.8213 9.956 6.72134C10.5238 6.63337 11.0276 6.58939 11.4474 6.58939C12.495 6.58939 12.6829 6.75333 12.7269 6.8213C12.7589 6.86528 12.7629 6.92126 12.7429 6.97324L12.6989 7.08919C12.6789 7.12518 12.5989 7.25712 12.7069 7.48903C12.7709 7.62498 12.9148 7.66096 13.0188 7.67296C13.0268 7.67296 13.0308 7.67296 13.0388 7.67296H13.1427H13.1507C13.2747 7.66496 13.4106 7.62498 13.4746 7.48903C13.5826 7.25712 13.5026 7.12518 13.4986 7.12118L13.4386 6.97724C13.4186 6.92526 13.4266 6.86928 13.4546 6.8253C13.4986 6.76132 13.6745 6.58539 14.7261 6.58539C15.1459 6.58539 15.6497 6.62937 16.2175 6.72134C16.8692 6.8173 17.461 6.86928 17.9688 6.86928C19.3123 6.86928 19.844 6.43345 19.94 6.33749L19.92 2.22714L19.6121 1.88727L19.6321 5.97764Z" fill="#161616"/>
<path d="M12.463 6.28966C12.511 6.30565 12.607 6.36163 13.0308 6.59754V2.70309C12.691 2.55915 11.8113 2.05135 10.6997 2.05135C10.3919 2.05135 10.088 2.09134 9.79611 2.16731C9.34429 2.28326 8.90846 2.34324 8.49663 2.34324C7.51302 2.34324 6.84529 1.99538 6.78531 1.90741C6.78131 1.90341 6.78132 1.89941 6.77732 1.89941L6.75732 5.97778L6.80531 6.00177C6.8253 6.01377 7.21714 6.21769 8.27672 6.21769C8.72054 6.21769 9.23233 6.1817 9.80011 6.11373C11.0516 5.95779 11.9832 6.02177 12.463 6.28966Z" fill="#161616"/>
<path d="M3.17075 5.79403C3.17075 5.81003 3.17075 5.82602 3.16676 5.84601C3.16276 5.862 3.15076 5.94597 3.23073 5.99395C3.45064 6.1179 3.5626 6.3818 3.60258 6.50975L3.61458 6.50175C3.76252 6.3658 3.87847 6.25785 4.08239 6.24985C4.20634 6.24185 5.00602 6.24585 5.36188 6.24985L5.36988 5.89799V5.48615H4.59019H4.09838C3.86648 5.48615 3.76652 5.3782 3.67455 5.28224C3.65456 5.26224 3.63457 5.24225 3.61058 5.21826C3.5666 5.32622 3.45064 5.58611 3.25472 5.72606C3.20674 5.75405 3.18275 5.77804 3.17075 5.79403Z" fill="#161616"/>
<path d="M3.17071 3.65075C3.17071 3.66675 3.17071 3.68274 3.16672 3.70273C3.16672 3.71473 3.15472 3.79869 3.23469 3.84667C3.4546 3.97462 3.56656 4.23852 3.60654 4.36247L3.61054 4.35847C3.75848 4.21853 3.87843 4.10657 4.08635 4.09458C4.22229 4.09058 5.04197 4.09458 5.40182 4.09458L5.40582 3.74272V3.33088H4.59414H4.10234C3.87043 3.33088 3.76648 3.22292 3.67851 3.12696C3.65852 3.10697 3.63853 3.08698 3.61454 3.06299C3.57055 3.17095 3.4546 3.43484 3.25868 3.57478C3.2067 3.61077 3.18271 3.63476 3.17071 3.65075Z" fill="#161616"/>
<path d="M12.0952 3.62678C11.5154 3.36289 10.7957 3.03502 9.70014 3.3229C9.02041 3.50283 8.11278 3.61479 7.61298 3.39887L7.72093 3.14697C8.08079 3.30291 8.82849 3.26692 9.62817 3.05901C10.8157 2.74713 11.6194 3.11099 12.2031 3.37888L12.0952 3.62678Z" fill="white"/>
<path d="M12.0952 4.77034C11.5154 4.50644 10.7957 4.17857 9.70014 4.46646C9.02041 4.64638 8.11278 4.75834 7.61298 4.54243L7.72093 4.29053C8.08079 4.44647 8.82849 4.41048 9.62817 4.20256C10.8157 3.89069 11.6194 4.25454 12.2031 4.52243L12.0952 4.77034Z" fill="white"/>
<path d="M12.0952 5.73371C11.5154 5.46982 10.7957 5.14195 9.70014 5.42984C9.02041 5.60976 8.11278 5.72172 7.61298 5.50581L7.72093 5.25391C8.08079 5.40984 8.82849 5.37386 9.62817 5.16594C10.8157 4.85407 11.6194 5.21792 12.2031 5.48581L12.0952 5.73371Z" fill="white"/>
<path d="M13.1747 2.70301V6.60145C13.5866 6.36554 13.6825 6.30557 13.7265 6.29357C14.2263 6.02168 15.146 5.96171 16.3975 6.11365C16.9652 6.18162 17.477 6.2176 17.9208 6.2176C18.9804 6.2176 19.3563 5.95371 19.3603 5.94971L19.4242 5.91772L19.4043 1.83936C19.4003 1.84335 19.3963 1.84735 19.3923 1.85135C19.3323 1.93532 18.6765 2.34715 17.6969 2.34715C17.2851 2.34715 16.8453 2.28718 16.3975 2.17122C16.1056 2.09525 15.8017 2.05527 15.4938 2.05527C14.2623 2.04727 13.1747 2.70301 13.1747 2.70301Z" fill="#161616"/>
<path d="M21.6353 6.23764C21.8633 6.23764 22.0512 6.23764 22.1072 6.24164C22.3111 6.24964 22.427 6.35759 22.575 6.49354L22.587 6.50154C22.6309 6.37359 22.7389 6.10969 22.9588 5.98574C23.0428 5.93776 23.0228 5.8418 23.0228 5.8418C23.0188 5.82581 23.0188 5.80981 23.0188 5.78982C23.0068 5.77383 22.9828 5.74984 22.9348 5.71785C22.7389 5.57791 22.619 5.31401 22.579 5.20605C22.555 5.23404 22.535 5.25404 22.519 5.27403C22.427 5.36999 22.3231 5.47795 22.0952 5.47795H21.6034H20.8237L20.8317 6.24164C21.0316 6.23764 21.3235 6.23764 21.6353 6.23764Z" fill="#161616"/>
<path d="M21.6314 4.09058C21.8593 4.09058 22.0472 4.09058 22.1032 4.09458C22.3151 4.10657 22.4311 4.21853 22.579 4.35847L22.583 4.36247C22.627 4.23452 22.7389 3.97063 22.9549 3.84667C23.0348 3.80269 23.0228 3.71873 23.0188 3.69873C23.0148 3.68274 23.0148 3.66675 23.0188 3.65075C23.0068 3.63476 22.9828 3.61077 22.9309 3.57478C22.7389 3.43484 22.619 3.17095 22.575 3.06299C22.551 3.09098 22.531 3.11097 22.511 3.13096C22.4191 3.22692 22.3191 3.33488 22.0832 3.33488H21.5914H20.7877L20.7957 4.09857C21.0076 4.09458 21.3235 4.09058 21.6314 4.09058Z" fill="#161616"/>
<path d="M13.1788 8.11716C13.2027 8.11716 13.2987 8.13316 13.4307 8.13316C13.6546 8.13316 14.0384 8.09317 14.0544 7.84127C14.0664 7.70133 13.9424 7.60137 13.9424 7.60137C13.8945 7.56538 13.8785 7.50141 13.8985 7.44543C13.9185 7.39345 13.9704 7.35347 14.0264 7.35347H14.0304L20.6118 7.46942L20.5918 2.73932C20.5358 2.69933 20.3879 2.63136 20.2879 2.51141C20.2319 2.44743 20.156 2.39545 20.092 2.35547L20.104 6.37786C20.104 6.40185 20.096 6.42584 20.084 6.44983C20.048 6.50981 19.6921 7.04159 17.9768 7.04159C17.453 7.04159 16.8493 6.98961 16.1855 6.89365C15.6298 6.80569 15.142 6.76171 14.7341 6.76171C14.0744 6.76171 13.7905 6.87766 13.6826 6.94163V6.94563C13.7305 7.00561 13.7985 7.22552 13.6706 7.50541C13.5746 7.70533 13.3707 7.82128 13.1108 7.82128C12.8229 7.82128 12.619 7.70533 12.523 7.50541C12.4031 7.24951 12.455 7.04159 12.511 6.94163C12.4071 6.87766 12.1192 6.76171 11.4594 6.76171C11.0516 6.76171 10.5638 6.80569 10.008 6.89365C9.34029 6.99361 8.74053 7.04559 8.21274 7.04559C6.49742 7.04559 6.08959 6.51381 6.0536 6.45383C6.04161 6.43384 6.03361 6.40985 6.03361 6.38186L6.04561 2.35947C5.98163 2.39945 5.95764 2.45143 5.90166 2.5154C5.7977 2.63536 5.64177 2.70333 5.58179 2.74331L5.57779 2.79129L5.5578 7.47342L12.1552 7.35747H12.1592C12.2151 7.35747 12.2671 7.39745 12.2871 7.44943C12.3071 7.50541 12.2911 7.56539 12.2431 7.60537C12.2431 7.60537 12.1192 7.70933 12.1312 7.84527C12.1512 8.10117 12.531 8.13716 12.7549 8.13716C12.8869 8.13716 12.9868 8.12516 12.9908 8.12116L13.1788 8.11716Z" fill="#161616"/>
<path d="M14.0944 3.62678L13.9824 3.37888C14.5702 3.11099 15.3699 2.74713 16.5574 3.05901C17.3571 3.26692 18.1048 3.30291 18.4646 3.14697L18.5726 3.39887C18.0728 3.61479 17.1691 3.50283 16.4854 3.3229C15.3939 3.03502 14.6741 3.36289 14.0944 3.62678Z" fill="white"/>
<path d="M14.0944 4.77034L13.9824 4.52243C14.5702 4.25454 15.3699 3.89069 16.5574 4.20256C17.3571 4.41048 18.1048 4.44647 18.4646 4.29053L18.5726 4.54243C18.0728 4.75834 17.1691 4.64239 16.4854 4.46646C15.3939 4.18257 14.6741 4.51044 14.0944 4.77034Z" fill="white"/>
<path d="M14.0944 5.73371L13.9824 5.48581C14.5702 5.21792 15.3699 4.85407 16.5574 5.16594C17.3571 5.37386 18.1048 5.40984 18.4646 5.25391L18.5726 5.50581C18.0728 5.72172 17.1691 5.60976 16.4854 5.42984C15.3939 5.14195 14.6741 5.46982 14.0944 5.73371Z" fill="white"/>
<path d="M48.5206 1.17213V9.72471H46.8733L42.627 4.003V9.72471H40.8597V1.17213H42.6509L46.7533 6.70992V1.17213H48.5206ZM70.7677 14.1589V19.6967L66.6653 14.1589H64.8741V22.7115H66.6413V16.9898L70.8876 22.7115H72.535V14.1589H70.7677ZM50.012 9.72071H51.7913V1.17213H50.012V9.72071ZM59.1963 1.18413L56.8013 7.31368L54.4662 1.18413H52.519L56.0216 9.78869H57.3451L61.0076 1.18413H59.1963ZM81.6633 9.72071H83.4426V1.17213H81.6633V9.72071ZM76.9412 3.28729C76.9412 2.79548 77.437 2.5076 78.0728 2.5076C78.7725 2.5076 79.3962 2.73951 80.124 3.13135V1.59596C79.6321 1.31208 78.8884 1.07617 77.9808 1.07617C76.0976 1.07617 75.074 2.21971 75.074 3.5152C75.074 4.17493 75.2939 4.65874 75.6178 5.03459C76.6573 6.21412 78.7325 6.41004 78.7325 7.53759C78.7325 8.18533 78.1248 8.38925 77.501 8.38925C76.7533 8.38925 75.6857 8.0014 75.09 7.62555V9.28889C75.6977 9.62875 76.5454 9.84866 77.581 9.84866C79.3363 9.84866 80.6158 8.87705 80.6158 7.31768C80.6158 4.63475 76.9412 4.7667 76.9412 3.28729ZM90.9636 1.17213H84.3223V2.62355H86.6453V9.72471H88.4366V2.62355H90.5598L90.9636 1.17213ZM36.0656 15.5224C37.549 15.5224 38.5966 16.626 38.5966 18.4692C38.5966 20.3365 37.521 21.416 36.0656 21.416C34.5862 21.416 33.5066 20.3405 33.5066 18.4692C33.5066 16.598 34.5822 15.5224 36.0656 15.5224ZM36.0656 22.8395C38.6845 22.8395 40.4798 20.9122 40.4798 18.4252C40.4798 15.9502 38.8405 14.067 36.0656 14.067C33.4786 14.067 31.6553 15.9622 31.6553 18.5292C31.6513 21.0322 33.3187 22.8395 36.0656 22.8395ZM86.8053 15.5224C88.2887 15.5224 89.3363 16.626 89.3363 18.4692C89.3363 20.3365 88.2607 21.416 86.8053 21.416C85.3259 21.416 84.2463 20.3405 84.2463 18.4692C84.2463 16.598 85.3259 15.5224 86.8053 15.5224ZM86.8053 22.8395C89.4242 22.8395 91.2195 20.9122 91.2195 18.4252C91.2195 15.9502 89.5802 14.067 86.8053 14.067C84.2183 14.067 82.391 15.9622 82.391 18.5292C82.395 21.0322 84.0624 22.8395 86.8053 22.8395ZM59.3603 15.5224C60.8437 15.5224 61.8912 16.626 61.8912 18.4692C61.8912 20.3365 60.8157 21.416 59.3603 21.416C57.8809 21.416 56.8013 20.3405 56.8013 18.4692C56.8013 16.598 57.8809 15.5224 59.3603 15.5224ZM59.3603 22.8395C61.9792 22.8395 63.7745 20.9122 63.7745 18.4252C63.7745 15.9502 62.1352 14.067 59.3603 14.067C56.7733 14.067 54.95 15.9622 54.95 18.5292C54.95 21.0322 56.6134 22.8395 59.3603 22.8395ZM54.7901 22.7115V21.2441H51.7793V14.1589H50.016V22.7115H54.7901ZM98.2167 14.1589V19.6967L94.1144 14.1589H92.3231V22.7115H94.0904V16.9898L98.3367 22.7115H99.984V14.1589H98.2167ZM76.7533 15.6383C78.7125 15.6383 79.7241 16.7299 79.7241 18.4172C79.7241 19.9086 78.8924 21.2481 76.7773 21.2481H75.8057V15.6383H76.7533ZM76.7093 22.7115C79.6681 22.7115 81.6314 20.9962 81.6314 18.3653C81.6314 15.8103 79.916 14.1629 76.8653 14.1629H74.0224V22.7115H76.7093ZM70.6477 6.45402H69.7521V9.72071H67.9728V1.17213H70.6158C72.8829 1.17213 73.7305 2.16374 73.7305 3.74311C73.7305 4.72271 73.2427 5.54239 72.3191 6.0182L74.5022 9.72471H72.535L70.6477 6.45402ZM69.7481 2.64754V5.05458H70.6517C71.4794 5.05458 71.9632 4.52679 71.9632 3.81907C71.9632 3.15934 71.4794 2.65154 70.6517 2.65154H69.7481V2.64754ZM96.9732 1.17213L95.1979 4.81468L93.3946 1.17213H91.4354L94.2423 6.33807V9.72471H96.0216V6.36606L98.8325 1.17613H96.9732V1.17213ZM37.617 1.17213V6.35006C37.617 7.79748 36.8333 8.35326 35.6977 8.35326C34.5622 8.35326 33.7785 7.79349 33.7785 6.35006V1.17213H32.0152V6.46602C32.0152 8.97701 33.5786 9.84467 35.6977 9.84467C37.8169 9.84467 39.3803 8.97701 39.3803 6.46602V1.17213H37.617ZM66.6773 9.72071V8.2693H63.5106V6.08617H66.2375V4.61876H63.5106V2.61955H66.2255L66.6933 1.16814H61.7353V9.72071H66.6773ZM45.9856 17.6495H43.2947V15.6104H46.0296L46.4854 14.1549H41.5154V22.7115H43.2947V19.105H45.9856V17.6495Z" fill="white"/>
</g>
<defs>
<clipPath id="clip0_244_4917">
<rect width="100" height="33.8984" fill="white" transform="translate(0 0.0405273)"/>
</clipPath>
</defs>
</svg>
