<svg width="50" height="50" viewBox="0 0 50 50" fill="none" xmlns="http://www.w3.org/2000/svg">
<path fill-rule="evenodd" clip-rule="evenodd" d="M50 0H0V50H50V0ZM12.6997 9.58625H9.40189V40.3933H17.5748V36.993H12.6997V9.58625ZM40.6801 9.58625H32.3638V40.3933H40.6801V36.993H35.6411V26.4236H40.3523V22.839H35.6411V12.9455H40.6801V9.58625ZM20.4424 37.0135V40.4138H21.4666C23.2803 40.4646 25.0462 39.8279 26.41 38.6312C27.7738 37.4345 28.6348 35.7664 28.8202 33.9615C29.4732 29.8595 27.7677 27.1198 25.8508 24.0407L25.8296 24.0066L25.7476 23.9041C23.1667 19.4183 22.9414 18.0664 23.2692 16.018C23.6174 13.8878 25.973 12.9455 27.3249 12.9455H28.349V9.58625H27.3249C25.5127 9.52786 23.7448 10.1524 22.3714 11.3361C20.9981 12.5197 20.1195 14.1762 19.9099 15.9771C19.2816 19.9429 20.8738 22.535 22.6304 25.3947C22.7065 25.5187 22.7829 25.6431 22.8595 25.7681L22.88 25.8296C25.5428 30.3769 25.7886 31.8722 25.4609 33.941C25.1127 36.0713 22.8185 37.0135 21.4666 37.0135H20.4424Z" fill="white"/>
</svg>
