<svg width="90" height="40" viewBox="0 0 90 40" fill="none" xmlns="http://www.w3.org/2000/svg">
<path d="M12.808 9.74117V18.656C10.9905 19.0243 9.59879 19.2108 8.07312 19.2108C2.10437 19.2108 0 15.7912 0 10.162C0 4.11198 2.91742 0.692383 8.73313 0.692383C9.46966 0.692383 10.8614 0.744992 12.5975 1.00804V6.71375H11.3349L10.6223 4.53286C9.93836 2.45718 9.12531 1.42891 7.83399 1.42891C5.60049 1.42891 4.41439 4.45155 4.41439 10.1094C4.41439 15.7912 4.88787 18.4743 7.80529 18.4743C8.20225 18.4743 8.67095 18.4217 9.12052 18.2926V11.659L7.36051 10.449V9.74117H12.808ZM12.7027 33.6736C12.7027 37.251 10.2588 39.3028 5.94484 39.3028C4.76352 39.3028 3.02742 39.121 1.39654 38.8532V31.8609H2.65916L3.18525 33.5157C4.36656 37.3275 5.20831 38.5901 6.71007 38.5901C8.28834 38.5901 9.41705 37.1984 9.41705 35.3571C9.41705 33.8601 8.70922 32.8079 7.18355 31.9901L4.55309 30.5696C2.52524 29.4935 1.42045 27.81 1.42045 25.7583C1.42045 22.6543 3.9696 20.7891 8.15443 20.7891C9.10139 20.7891 10.2062 20.8704 11.9662 21.1048V26.8105H10.7036L9.99575 24.6296C9.28313 22.3148 8.52269 21.473 7.13094 21.473C5.57658 21.473 4.65831 22.4726 4.65831 23.917C4.65831 25.2035 5.37092 26.1265 6.76267 26.9157L9.41705 28.4127C11.6505 29.6753 12.7027 31.3588 12.7027 33.6736ZM24.3294 37.8058L24.8555 38.5949V38.9919H20.8332L20.6467 37.4662C20.2258 38.6236 19.1211 39.3075 17.7006 39.3075C15.5962 39.3075 14.281 37.9923 14.281 35.8353C14.281 33.731 15.4623 32.3392 19.0924 30.9188L20.6419 30.3161V28.3457C20.6419 26.6096 20.3263 25.9018 19.3554 25.9018C18.5663 25.9018 18.1215 26.3226 17.3563 28.2405L16.4906 30.3879H15.3093V26.0978C16.8589 25.6244 18.4132 25.3087 19.7524 25.3087C22.7224 25.3087 24.3294 26.7292 24.3294 29.307V37.8058ZM25.8503 12.2138C25.8503 16.6856 23.4589 19.2108 20.3789 19.2108C17.3036 19.2108 14.9123 16.6856 14.9123 12.2138C14.9123 7.74202 17.3036 5.21677 20.3837 5.21677C23.4589 5.21677 25.8503 7.74202 25.8503 12.2138ZM20.6467 35.5962V31.0479L20.1493 31.2583C18.595 31.8896 18.0163 33.3101 18.0163 35.3858C18.0163 36.9401 18.3845 37.8297 19.2502 37.8297C20.1158 37.8297 20.6467 36.988 20.6467 35.5962ZM21.9859 12.2138C21.9859 7.16331 21.565 5.82417 20.3837 5.82417C19.2024 5.82417 18.7815 7.16331 18.7815 12.2138C18.7815 17.2643 19.2024 18.6034 20.3837 18.6034C21.565 18.6034 21.9859 17.2643 21.9859 12.2138ZM35.1908 35.7253L35.6643 35.9645C34.8225 38.3845 33.7464 39.3028 31.666 39.3028C28.2751 39.3028 26.3811 36.7536 26.3811 32.3057C26.3811 27.8626 28.5907 25.3087 32.1921 25.3087C33.1629 25.3087 34.4543 25.4665 35.559 25.9113V30.3831H34.3251L33.8277 28.6996C33.1677 26.4661 32.8042 25.8874 32.1442 25.8874C31.092 25.8874 30.2503 27.2552 30.2503 32.4636C30.2503 36.6436 30.8816 38.1693 32.4838 38.1693C33.5599 38.174 34.4782 37.4901 35.1908 35.7253ZM32.2686 18.8952H27.5337V18.503L28.0598 17.7139V3.03588L27.5337 2.24675V1.84979L31.7425 1.53413V17.7091L32.2686 18.4982V18.8952ZM38.7395 19.2108C35.846 19.2108 34.1099 16.5804 34.1099 12.0847C34.1099 7.61288 35.9225 5.22156 38.7108 5.22156C40.1313 5.22156 40.9204 5.77156 41.26 6.87636V3.03588L40.7339 2.24675V1.84979L44.9426 1.53413V17.7091L45.4687 18.4982V18.8904H41.7335L41.4465 16.8912C41.0304 18.6034 40.2413 19.2108 38.7395 19.2108ZM47.97 37.8058L48.4961 38.5949V38.9919H43.7613V38.5949L44.2874 37.8058V28.3361C44.2874 27.2074 43.9478 26.5235 43.13 26.5235C42.1543 26.5235 41.4465 27.3413 41.4465 28.9435V37.8058L41.9726 38.5949V38.9919H37.2378V38.5949L37.7638 37.8058V23.1278L37.2378 22.3387V21.9465L41.4465 21.6308V27.0735C41.92 25.9448 42.9961 25.3135 44.5217 25.3135C46.6787 25.3135 47.9652 26.6813 47.9652 29.3357V37.8058H47.97ZM37.9791 12.1325C37.9791 16.8673 38.3999 18.3117 39.5573 18.3117C41.0017 18.3117 41.2648 16.236 41.2648 12.0799C41.2648 8.05767 40.9778 6.05852 39.5813 6.05852C38.3999 6.05852 37.9791 7.47897 37.9791 12.1325ZM64.3841 17.7091L64.9102 18.4982V18.8904H60.1754V18.4982L60.7015 17.7091V7.95245C60.7015 7.00549 60.3858 6.42679 59.6493 6.42679C58.731 6.42679 57.9945 7.24462 57.9945 8.81811V17.7091L58.5206 18.4982V18.8904H53.7857V18.4982L54.3118 17.7091V7.95245C54.3118 7.00549 53.9962 6.42679 53.2596 6.42679C52.3414 6.42679 51.6049 7.24462 51.6049 8.81811V17.7091L52.1309 18.4982V18.8904H47.3961V18.4982L47.9222 17.7091V7.00549L47.3961 6.37418V5.982L51.184 5.53243H51.4996L51.6049 7.00549C52.0496 5.84808 53.1544 5.21677 54.6562 5.21677C56.2584 5.21677 57.3106 6.00591 57.784 7.42636C58.1762 6.05852 59.4149 5.21677 60.9932 5.21677C63.0689 5.21677 64.3841 6.58461 64.3841 9.23899V17.7091ZM59.4675 35.1227C59.4675 37.4088 57.9945 39.3028 54.4457 39.3028C53.5275 39.3028 52.2888 39.1975 50.3709 38.8532V33.9653H51.447L51.7866 35.0175C52.6283 37.7006 53.4414 38.7001 54.7327 38.7001C55.9427 38.7001 56.7319 37.8297 56.7319 36.4906C56.7319 35.3858 56.1771 34.6253 54.8666 33.9127L52.6044 32.7027C51.1601 31.9136 50.3709 30.6796 50.3709 29.154C50.3709 26.7626 52.2409 25.3135 55.3401 25.3135C56.2345 25.3135 57.3919 25.4426 58.6545 25.7057V29.5461H57.5784L57.0236 28.1496C56.3923 26.4661 55.7897 25.9161 54.7901 25.9161C53.714 25.9161 53.0827 26.5474 53.0827 27.5996C53.0827 28.494 53.6088 29.0966 54.8953 29.8331L57.1288 31.0957C58.6497 31.9662 59.4675 33.2001 59.4675 35.1227ZM76.4842 17.7091L77.0103 18.4982V18.8904H72.9881L72.8064 17.3647C72.3855 18.5221 71.2807 19.206 69.8602 19.206C67.7559 19.206 66.4406 17.8908 66.4406 15.7338C66.4406 13.6295 67.622 12.2377 71.252 10.8173L72.8016 10.2146V8.24419C72.8016 6.50809 72.4859 5.80026 71.515 5.80026C70.7259 5.80026 70.2811 6.22113 69.5159 8.13898L68.6502 10.296H67.4641V6.0107C69.0185 5.53721 70.5681 5.22156 71.9072 5.22156C74.8772 5.22156 76.4842 6.64201 76.4842 9.21986V17.7091ZM72.8016 15.4995V10.9512L72.3042 11.1616C70.7546 11.7929 70.1759 13.2134 70.1759 15.289C70.1759 16.8434 70.5442 17.7378 71.4098 17.7378C72.2755 17.7378 72.8016 16.896 72.8016 15.4995ZM90 18.4982V18.8904H85.2652V18.4982L85.7913 17.7091V8.23941C85.7913 7.10592 85.4517 6.42679 84.6339 6.42679C83.6582 6.42679 82.9504 7.24462 82.9504 8.84681V17.7091L83.4765 18.4982V18.8904H78.7416V18.4982L79.2677 17.7091V7.00549L78.7416 6.37418V5.982L82.5295 5.53243H82.8452L82.9504 7.00549C83.3952 5.84808 84.476 5.21677 86.0256 5.21677C88.1826 5.21677 89.4691 6.58461 89.4691 9.23899V17.7091L90 18.4982Z" fill="white"/>
</svg>
