<svg width="80" height="24" viewBox="0 0 80 24" fill="none" xmlns="http://www.w3.org/2000/svg">
<path d="M49.339 21.5888L41.589 2.78987C41.5282 2.61847 41.496 2.43819 41.4939 2.2563C41.4794 1.87168 41.6161 1.49668 41.8746 1.21156C42.0076 1.07547 42.168 0.969371 42.3453 0.900392C42.5227 0.831404 42.7127 0.80113 42.9026 0.811589C43.1904 0.815341 43.4699 0.908423 43.7025 1.07797C43.9463 1.25919 44.137 1.5026 44.2545 1.78273L51.6236 20.1816L58.9928 1.78273C59.1103 1.5026 59.3009 1.25919 59.5448 1.07797C59.7774 0.908423 60.0569 0.815341 60.3447 0.811589C60.5347 0.80113 60.7247 0.831404 60.902 0.900392C61.0792 0.969371 61.2397 1.07547 61.3727 1.21156C61.6318 1.49728 61.7686 1.87326 61.7534 2.2587C61.7513 2.44059 61.7191 2.62086 61.6582 2.79227L53.9083 21.5912C53.7756 22.0046 53.5171 22.3663 53.1689 22.6257C52.8207 22.8852 52.4002 23.0294 51.966 23.0383H51.2805C50.8462 23.0291 50.4256 22.8844 50.0775 22.6245C49.7294 22.3646 49.4712 22.0025 49.339 21.5888Z" fill="white"/>
<path d="M65.0484 22.4638C64.9169 22.3313 64.8136 22.1735 64.7449 22C64.6761 21.8264 64.6433 21.6408 64.6485 21.4542V2.41052C64.6414 2.02836 64.7851 1.6588 65.0484 1.38178C65.1772 1.24416 65.3339 1.13565 65.508 1.06349C65.6821 0.991338 65.8696 0.957212 66.058 0.963404H78.6476C78.8256 0.958436 79.0026 0.991554 79.1668 1.06053C79.3309 1.12951 79.4785 1.23276 79.5996 1.36338C79.7287 1.48557 79.8309 1.63332 79.8998 1.79723C79.9687 1.96112 80.0027 2.13757 79.9995 2.31532C80.0043 2.49061 79.9713 2.66489 79.9022 2.82608C79.8332 2.98727 79.7299 3.13152 79.5996 3.24887C79.4737 3.37179 79.3249 3.46869 79.1615 3.53403C78.9982 3.59937 78.8235 3.63185 78.6476 3.62964H67.5051V10.5629H77.5213C77.6993 10.5579 77.8762 10.591 78.0405 10.6601C78.2046 10.729 78.3521 10.8322 78.4732 10.9628C78.6008 11.0861 78.7021 11.2341 78.7709 11.3978C78.8396 11.5614 78.8744 11.7373 78.8732 11.9148C78.8782 12.0901 78.8449 12.2643 78.7759 12.4255C78.7068 12.5867 78.6036 12.731 78.4732 12.8483C78.3473 12.9712 78.1985 13.0682 78.0352 13.1334C77.8718 13.1988 77.6972 13.2313 77.5213 13.2291H67.5051V20.1991H78.6476C78.8256 20.1941 79.0026 20.2272 79.1668 20.2962C79.3309 20.3652 79.4785 20.4684 79.5996 20.5991C79.7287 20.7212 79.8309 20.869 79.8998 21.0329C79.9687 21.1968 80.0027 21.3733 79.9995 21.551C80.0043 21.7263 79.9713 21.9005 79.9022 22.0617C79.8332 22.2229 79.7299 22.3672 79.5996 22.4845C79.4737 22.6074 79.3249 22.7044 79.1615 22.7697C78.9982 22.835 78.8235 22.8675 78.6476 22.8653H66.058C65.8703 22.8791 65.6819 22.8501 65.5071 22.7805C65.3322 22.711 65.1754 22.6026 65.0484 22.4638Z" fill="white"/>
<path d="M43.3401 21.0551L35.5902 2.25624C35.4571 1.84324 35.1984 1.48207 34.8502 1.22309C34.502 0.964116 34.0817 0.820236 33.6479 0.811525H32.9624C32.5282 0.820404 32.1077 0.964636 31.7595 1.22407C31.4113 1.4835 31.1528 1.84519 31.0201 2.25864L27.6499 10.4477H25.098C24.73 10.4498 24.3775 10.597 24.1173 10.8572C23.857 11.1175 23.7098 11.47 23.7077 11.8381V11.8573C23.7098 12.2253 23.857 12.5778 24.1173 12.8381C24.3775 13.0983 24.73 13.2455 25.098 13.2476H26.4691L23.2509 21.0559C23.1901 21.2273 23.1579 21.4076 23.1557 21.5895C23.1406 21.9749 23.2773 22.3509 23.5365 22.6366C23.6695 22.7727 23.8299 22.8788 24.0072 22.9478C24.1846 23.0168 24.3746 23.0471 24.5645 23.0366C24.8523 23.0328 25.1318 22.9398 25.3644 22.7702C25.6082 22.589 25.7989 22.3456 25.9164 22.0655L29.4586 13.2484H31.896C32.2641 13.2463 32.6165 13.0991 32.8768 12.8389C33.1371 12.5786 33.2843 12.2261 33.2863 11.8581V11.8189C33.2843 11.4508 33.1371 11.0984 32.8768 10.838C32.6165 10.5778 32.2641 10.4306 31.896 10.4286H30.5825L33.3023 3.66815L40.6715 22.0671C40.789 22.3472 40.9796 22.5906 41.2235 22.7718C41.4561 22.9414 41.7356 23.0344 42.0234 23.0382C42.2134 23.0487 42.4034 23.0184 42.5807 22.9494C42.7579 22.8804 42.9184 22.7743 43.0514 22.6382C43.3105 22.3525 43.4473 21.9765 43.4321 21.5911C43.4408 21.4079 43.4094 21.2249 43.3401 21.0551Z" fill="white"/>
<path d="M20.1855 21.0551L12.4356 2.25624C12.3025 1.84324 12.0438 1.48207 11.6956 1.22309C11.3474 0.964116 10.9271 0.820236 10.4933 0.811525H9.80774C9.37361 0.820404 8.95307 0.964636 8.60486 1.22407C8.25664 1.4835 7.99817 1.84519 7.86546 2.25864L4.49526 10.4477H1.94341C1.57533 10.4498 1.22291 10.597 0.962632 10.8572C0.702352 11.1175 0.555198 11.47 0.553098 11.8381V11.8573C0.555198 12.2253 0.702352 12.5778 0.962632 12.8381C1.22291 13.0983 1.57533 13.2455 1.94341 13.2476H3.31453L0.0963254 21.0551C0.035448 21.2265 0.00328424 21.4068 0.00113113 21.5887C-0.0139768 21.9741 0.122745 22.3501 0.381908 22.6358C0.514833 22.7719 0.675323 22.878 0.852615 22.947C1.0299 23.016 1.2199 23.0463 1.40985 23.0358C1.69766 23.032 1.9772 22.939 2.2098 22.7694C2.45361 22.5882 2.64425 22.3448 2.76176 22.0647L6.30395 13.2476H8.76061C9.12866 13.2455 9.48112 13.0983 9.74143 12.8381C10.0017 12.5778 10.1488 12.2253 10.1509 11.8573V11.8189C10.1488 11.4508 10.0017 11.0984 9.74143 10.838C9.48112 10.5778 9.12866 10.4306 8.76061 10.4286H7.44628L10.1501 3.66815L17.5193 22.0671C17.6368 22.3472 17.8274 22.5906 18.0713 22.7718C18.3039 22.9414 18.5834 23.0344 18.8712 23.0382C19.0612 23.0487 19.2512 23.0184 19.4284 22.9494C19.6057 22.8804 19.7662 22.7743 19.8991 22.6382C20.1583 22.3525 20.295 21.9765 20.2799 21.5911C20.2878 21.4077 20.2556 21.2248 20.1855 21.0551Z" fill="white"/>
</svg>
