<svg width="130" height="24" viewBox="0 0 130 24" fill="none" xmlns="http://www.w3.org/2000/svg">
<path d="M34.6713 10.826L32.5768 7.02104H31.7285V10.826H29.6919V1.20521H33.555C34.2156 1.20521 34.7858 1.31617 35.2672 1.53808C35.7485 1.76 36.1155 2.08263 36.3698 2.50767C36.6243 2.93272 36.7523 3.44142 36.7523 4.03545C36.7523 4.73362 36.5662 5.31743 36.194 5.79028C35.8219 6.26313 35.2911 6.59259 34.603 6.78036L36.9383 10.826H34.6713ZM31.7285 2.96003V5.4079H33.3127C33.7377 5.4079 34.062 5.30207 34.289 5.0904C34.516 4.87872 34.6286 4.56975 34.6286 4.16348C34.6286 3.75722 34.516 3.43288 34.289 3.24341C34.062 3.05391 33.7325 2.96003 33.299 2.96003H31.7285Z" fill="white"/>
<path d="M42.778 3.34068H44.7154V10.8243H42.778V9.93314C42.5322 10.273 42.2215 10.5392 41.8443 10.7321C41.4669 10.925 41.0419 11.0223 40.5709 11.0223C39.9581 11.0223 39.41 10.855 38.9304 10.5205C38.4491 10.1859 38.0751 9.71808 37.8054 9.11898C37.5357 8.51979 37.4026 7.84381 37.4026 7.08931C37.4026 6.3348 37.5374 5.64346 37.8054 5.04428C38.0734 4.44513 38.4491 3.97911 38.9304 3.64453C39.4117 3.30996 39.9581 3.14267 40.5709 3.14267C41.0419 3.14267 41.4669 3.24168 41.8443 3.43969C42.2215 3.6377 42.5322 3.90742 42.778 4.24712V3.34068ZM42.0133 9.01315C42.2676 8.84417 42.469 8.59491 42.6141 8.27057C42.7609 7.94453 42.8326 7.5519 42.8326 7.08931C42.8326 6.6267 42.7592 6.2341 42.6141 5.90805C42.4673 5.58372 42.2676 5.33448 42.0133 5.16549C41.759 4.99649 41.4669 4.91115 41.1358 4.91115C40.8047 4.91115 40.5111 4.99649 40.2517 5.16549C39.9922 5.33448 39.7924 5.58372 39.6507 5.90805C39.509 6.2341 39.439 6.6267 39.439 7.08931C39.439 7.5519 39.509 7.94453 39.6507 8.27057C39.7924 8.59491 39.9922 8.84417 40.2517 9.01315C40.5111 9.18384 40.8064 9.26747 41.1358 9.26747C41.4652 9.26747 41.759 9.18213 42.0133 9.01315Z" fill="white"/>
<path d="M46.5334 1.97503C46.3217 1.76336 46.2159 1.48682 46.2159 1.14712C46.2159 0.807425 46.3217 0.530881 46.5334 0.319215C46.745 0.107549 47.0217 0 47.3614 0C47.701 0 47.9741 0.105842 48.1824 0.319215C48.3889 0.530881 48.493 0.807425 48.493 1.14712C48.493 1.48682 48.3889 1.76336 48.1824 1.97503C47.9741 2.1867 47.701 2.29424 47.3614 2.29424C47.0217 2.29424 46.745 2.1884 46.5334 1.97503ZM48.3087 10.8243H46.3712V3.34064H48.3087V10.8243Z" fill="white"/>
<path d="M52.455 3.34075H54.5069V5.03923H52.455V10.826H50.5175V5.03923H49.2442V3.34075H50.5175V2.88838C50.5175 2.0673 50.7531 1.44084 51.2243 1.00725C51.6954 0.573672 52.3423 0.356868 53.1618 0.356868C53.4639 0.356868 53.7506 0.384178 54.0254 0.442228C54.2987 0.498554 54.5496 0.575379 54.7749 0.669256L54.2799 2.15437C54.0254 2.05023 53.7472 1.99903 53.4451 1.99903C53.0952 1.99903 52.8443 2.07925 52.689 2.23971C52.5335 2.40017 52.455 2.64599 52.455 2.97545V3.34245V3.34075Z" fill="white"/>
<path d="M57.407 3.34075H59.4588V5.03923H57.407V10.826H55.4696V5.03923H54.1961V3.34075H55.4696V2.88838C55.4696 2.0673 55.7051 1.44084 56.1762 1.00725C56.6473 0.573672 57.2944 0.356868 58.1137 0.356868C58.4158 0.356868 58.7027 0.384178 58.9775 0.442228C59.2506 0.498554 59.5015 0.575379 59.7268 0.669256L59.2318 2.15437C58.9775 2.05023 58.6993 1.99903 58.397 1.99903C58.0471 1.99903 57.7962 2.07925 57.6409 2.23971C57.4856 2.40017 57.407 2.64599 57.407 2.97545V3.34245V3.34075Z" fill="white"/>
<path d="M66.9988 7.76865H61.9478C62.0143 8.3354 62.197 8.74501 62.4991 8.9995C62.8014 9.25382 63.2434 9.38183 63.8289 9.38183C64.2334 9.38183 64.6091 9.3238 64.9539 9.20603C65.2987 9.08825 65.5974 8.92098 65.8517 8.70404L66.6865 10.0338C66.3093 10.3547 65.8705 10.6007 65.3703 10.7697C64.8702 10.9386 64.3324 11.024 63.7572 11.024C62.9464 11.024 62.2482 10.8687 61.6627 10.558C61.0773 10.2472 60.6316 9.7983 60.3261 9.21456C60.0189 8.62901 59.8669 7.93594 59.8669 7.13536C59.8669 6.33476 60.0172 5.64513 60.3193 5.04084C60.6214 4.43654 61.0483 3.97054 61.5996 3.63938C62.1509 3.30992 62.7809 3.14434 63.4875 3.14434C64.1942 3.14434 64.8122 3.3048 65.3413 3.62572C65.8687 3.94664 66.2768 4.40411 66.5653 4.99817C66.8521 5.5922 66.9971 6.29039 66.9971 7.09267V7.77207L66.9988 7.76865ZM61.9478 6.43888H65.046C64.9983 5.8824 64.8429 5.4676 64.5801 5.19447C64.3153 4.92134 63.9569 4.78479 63.5046 4.78479C62.5998 4.78479 62.0809 5.33616 61.9478 6.44059V6.43888Z" fill="white"/>
<path d="M68.3493 1.97503C68.1377 1.76336 68.0318 1.48682 68.0318 1.14712C68.0318 0.807425 68.1377 0.530881 68.3493 0.319215C68.561 0.107549 68.8375 0 69.1771 0C69.5168 0 69.7901 0.105842 69.9983 0.319215C70.2048 0.530881 70.3089 0.807425 70.3089 1.14712C70.3089 1.48682 70.2048 1.76336 69.9983 1.97503C69.7901 2.1867 69.5168 2.29424 69.1771 2.29424C68.8375 2.29424 68.561 2.1884 68.3493 1.97503ZM70.1246 10.8243H68.1872V3.34064H70.1246V10.8243Z" fill="white"/>
<path d="M72.6014 10.7765C72.0723 10.6109 71.6249 10.3547 71.2579 10.0048L72.1628 8.61875C72.7192 9.14629 73.4258 9.41085 74.2845 9.41085C74.6618 9.41085 74.9468 9.35282 75.1397 9.23334C75.3327 9.11556 75.43 8.93805 75.43 8.70234C75.43 8.50439 75.3429 8.34222 75.1687 8.21419C74.9946 8.08616 74.6754 7.96668 74.2146 7.85401C73.6206 7.72257 73.1322 7.57576 72.7499 7.4153C72.3676 7.25484 72.0586 7.02781 71.8229 6.73591C71.5874 6.444 71.4696 6.06164 71.4696 5.59049C71.4696 5.09034 71.5976 4.65676 71.8521 4.28975C72.1064 3.92273 72.47 3.63938 72.9411 3.44135C73.4122 3.24334 73.9602 3.14434 74.5815 3.14434C75.1653 3.14434 75.7065 3.22968 76.2015 3.39868C76.6965 3.56767 77.1182 3.81861 77.4681 4.14807L76.5633 5.47784C76.309 5.24226 76.0069 5.06303 75.6587 4.94012C75.3105 4.81722 74.9468 4.75576 74.5696 4.75576C74.1924 4.75576 73.938 4.8121 73.7486 4.92646C73.5591 5.03913 73.4651 5.20983 73.4651 5.43515C73.4651 5.5666 73.5043 5.67756 73.5847 5.76802C73.6649 5.8585 73.8032 5.94385 74.0029 6.0292C74.2026 6.11456 74.4842 6.1982 74.8512 6.28356C75.36 6.40645 75.7987 6.55326 76.1674 6.72225C76.5343 6.89125 76.8364 7.13195 77.0722 7.44432C77.3077 7.755 77.4255 8.15104 77.4255 8.63242C77.4255 9.11386 77.3026 9.53374 77.0568 9.89218C76.8108 10.2506 76.4524 10.5288 75.9813 10.727C75.5102 10.925 74.9434 11.024 74.2828 11.024C73.6888 11.024 73.1271 10.9421 72.5997 10.7765H72.6014Z" fill="white"/>
<path d="M85.3476 7.76865H80.2966C80.3631 8.3354 80.5458 8.74501 80.848 8.9995C81.1502 9.25382 81.5922 9.38183 82.1777 9.38183C82.5824 9.38183 82.9579 9.3238 83.3027 9.20603C83.6474 9.08825 83.9462 8.92098 84.2006 8.70404L85.0353 10.0338C84.6581 10.3547 84.2194 10.6007 83.7191 10.7697C83.219 10.9386 82.6814 11.024 82.106 11.024C81.2952 11.024 80.597 10.8687 80.0115 10.558C79.4261 10.2472 78.9806 9.7983 78.6749 9.21456C78.3677 8.62901 78.2157 7.93594 78.2157 7.13536C78.2157 6.33476 78.366 5.64513 78.6681 5.04084C78.9703 4.43654 79.3971 3.97054 79.9484 3.63938C80.4997 3.30992 81.1297 3.14434 81.8363 3.14434C82.5431 3.14434 83.161 3.3048 83.6901 3.62572C84.2177 3.94664 84.6256 4.40411 84.9141 4.99817C85.2009 5.5922 85.3459 6.29039 85.3459 7.09267V7.77207L85.3476 7.76865ZM80.2966 6.43888H83.3948C83.347 5.8824 83.1917 5.4676 82.9289 5.19447C82.6643 4.92134 82.3057 4.78479 81.8534 4.78479C80.9488 4.78479 80.4297 5.33616 80.2966 6.44059V6.43888Z" fill="white"/>
<path d="M92.1025 3.48911C92.5036 3.71957 92.8126 4.05756 93.0293 4.50137C93.2461 4.9452 93.3555 5.47779 93.3555 6.10086V10.8258H91.4025V6.34154C91.4025 5.86018 91.2916 5.49998 91.0697 5.2593C90.8478 5.01861 90.5115 4.89912 90.0575 4.89912C89.7177 4.89912 89.419 4.97422 89.1596 5.12614C88.9001 5.27807 88.6714 5.50339 88.4734 5.80554V10.8275H86.5358V3.34402H88.4734V4.22143C88.7089 3.88173 89.0179 3.61714 89.4002 3.42937C89.7825 3.2416 90.2094 3.146 90.6805 3.146C91.2267 3.146 91.7012 3.26208 92.1025 3.49252V3.48911Z" fill="white"/>
<path d="M104.734 6.6455C105.007 7.0364 105.144 7.51608 105.144 8.08109C105.144 8.95853 104.862 9.63615 104.303 10.1108C103.741 10.587 102.947 10.826 101.919 10.826H98.0565V1.20521H101.58C102.599 1.20521 103.386 1.42372 103.942 1.86241C104.499 2.30112 104.777 2.92078 104.777 3.72306C104.777 4.67559 104.367 5.3601 103.546 5.77492C104.065 5.9644 104.461 6.25459 104.734 6.6455ZM100.093 2.93102V5.18087H101.423C101.856 5.18087 102.175 5.08699 102.377 4.8975C102.58 4.70972 102.681 4.43149 102.681 4.06276C102.681 3.6582 102.572 3.36801 102.355 3.19218C102.138 3.01807 101.812 2.93102 101.378 2.93102H100.091H100.093ZM101.677 9.09849C102.121 9.09849 102.452 9.00462 102.674 8.81516C102.896 8.62735 103.007 8.32521 103.007 7.91039C103.007 7.5229 102.901 7.23612 102.689 7.04664C102.478 6.85716 102.126 6.76329 101.636 6.76329H100.095V9.09849H101.679H101.677Z" fill="white"/>
<path d="M111.271 3.34068H113.208V10.8243H111.271V9.93314C111.025 10.273 110.714 10.5392 110.337 10.7321C109.96 10.925 109.535 11.0223 109.063 11.0223C108.451 11.0223 107.903 10.855 107.423 10.5205C106.941 10.1859 106.568 9.71808 106.298 9.11898C106.028 8.51979 105.895 7.84381 105.895 7.08931C105.895 6.3348 106.03 5.64346 106.298 5.04428C106.566 4.44513 106.941 3.97911 107.423 3.64453C107.904 3.30996 108.451 3.14267 109.063 3.14267C109.535 3.14267 109.96 3.24168 110.337 3.43969C110.714 3.6377 111.025 3.90742 111.271 4.24712V3.34068ZM110.506 9.01315C110.76 8.84417 110.962 8.59491 111.107 8.27057C111.254 7.94453 111.325 7.5519 111.325 7.08931C111.325 6.6267 111.252 6.2341 111.107 5.90805C110.96 5.58372 110.76 5.33448 110.506 5.16549C110.251 4.99649 109.96 4.91115 109.628 4.91115C109.297 4.91115 109.004 4.99649 108.744 5.16549C108.485 5.33448 108.285 5.58372 108.143 5.90805C108.002 6.2341 107.932 6.6267 107.932 7.08931C107.932 7.5519 108.002 7.94453 108.143 8.27057C108.285 8.59491 108.485 8.84417 108.744 9.01315C109.004 9.18384 109.299 9.26747 109.628 9.26747C109.958 9.26747 110.251 9.18213 110.506 9.01315Z" fill="white"/>
<path d="M120.43 3.48911C120.831 3.71957 121.14 4.05756 121.357 4.50137C121.574 4.9452 121.683 5.47779 121.683 6.10086V10.8258H119.73V6.34154C119.73 5.86018 119.619 5.49998 119.398 5.2593C119.176 5.01861 118.839 4.89912 118.385 4.89912C118.046 4.89912 117.747 4.97422 117.487 5.12614C117.228 5.27807 116.999 5.50339 116.801 5.80554V10.8275H114.864V3.34402H116.801V4.22143C117.037 3.88173 117.346 3.61714 117.728 3.42937C118.11 3.2416 118.537 3.146 119.008 3.146C119.555 3.146 120.029 3.26208 120.43 3.49252V3.48911Z" fill="white"/>
<path d="M127.001 6.83497L130 10.8243H127.68L125.12 7.42903V10.8243H123.182V0.638481H125.12V6.38263L127.554 3.3407H129.86L127.002 6.83497H127.001Z" fill="white"/>
<path d="M30.5267 23.6528H29.6919V14.032H30.5267V23.6528Z" fill="white"/>
<path d="M36.9774 16.5651C37.3359 16.7631 37.6124 17.0516 37.8054 17.4289C37.9983 17.8062 38.0956 18.2585 38.0956 18.7878V23.6543H37.2898V18.8868C37.2898 18.2824 37.1345 17.8215 36.8238 17.5006C36.5132 17.1797 36.0743 17.0191 35.5077 17.0191C34.5928 17.0191 33.8706 17.458 33.3432 18.3353V23.6543H32.5374V16.4251H33.3432V17.557C33.5975 17.1524 33.9252 16.8348 34.3263 16.6095C34.7276 16.3825 35.1868 16.2698 35.7057 16.2698C36.1957 16.2698 36.6207 16.3688 36.9791 16.5668L36.9774 16.5651Z" fill="white"/>
<path d="M43.9373 23.4973C43.5309 23.7038 43.0598 23.8079 42.5221 23.8079C41.1258 23.8079 40.4277 23.0962 40.4277 21.6708V17.1574H39.0688V16.4217H40.4277V14.5679H41.235V16.4217H43.7683V17.1574H41.235V21.5991C41.235 22.0992 41.3459 22.4664 41.5678 22.7019C41.7897 22.9375 42.1364 23.0552 42.6075 23.0552C43.0325 23.0552 43.3909 22.975 43.683 22.8146L43.9373 23.4939V23.4973Z" fill="white"/>
<path d="M45.2106 20.3002C45.2481 21.2151 45.4821 21.9065 45.9106 22.3725C46.339 22.8385 46.9417 23.0723 47.7149 23.0723C48.6384 23.0723 49.3707 22.7565 49.9083 22.125L50.3335 22.7053C50.0227 23.0535 49.6421 23.3249 49.1949 23.518C48.7477 23.7108 48.244 23.8081 47.6876 23.8081C47.0082 23.8081 46.4192 23.6596 45.9191 23.3625C45.419 23.0655 45.0348 22.6353 44.7668 22.0755C44.4988 21.5138 44.364 20.843 44.364 20.0594C44.364 19.2759 44.4937 18.6137 44.7531 18.0434C45.0126 17.4733 45.378 17.0347 45.8491 16.7273C46.3202 16.4217 46.8681 16.2681 47.4896 16.2681C48.1109 16.2681 48.6402 16.4183 49.1027 16.7204C49.5653 17.0227 49.9237 17.458 50.178 18.0298C50.4325 18.6 50.5605 19.2725 50.5605 20.0457V20.3002H45.2106ZM45.9037 17.6969C45.5077 18.1492 45.2807 18.7997 45.2242 19.6497H49.7377C49.7001 18.81 49.4833 18.1612 49.0873 17.7037C48.6914 17.2463 48.1586 17.0176 47.4879 17.0176C46.8169 17.0176 46.2997 17.2446 45.9037 17.6969Z" fill="white"/>
<path d="M55.4254 16.3671V17.1593C55.2172 17.1405 55.0618 17.1302 54.9594 17.1302C54.4781 17.1302 54.0632 17.2531 53.715 17.4972C53.3651 17.743 53.0595 18.1014 52.795 18.5727V23.6511H51.9892V16.4217H52.795V17.8079C53.0493 17.3368 53.3565 16.9766 53.715 16.7255C54.0736 16.4763 54.502 16.35 55.0021 16.35C55.1916 16.35 55.3315 16.3552 55.4271 16.3637L55.4254 16.3671Z" fill="white"/>
<path d="M61.0995 16.5651C61.4579 16.7631 61.7344 17.0516 61.9273 17.4289C62.1202 17.8062 62.2175 18.2585 62.2175 18.7878V23.6543H61.4118V18.8868C61.4118 18.2824 61.2565 17.8215 60.9459 17.5006C60.635 17.1797 60.1964 17.0191 59.6297 17.0191C58.7147 17.0191 57.9927 17.458 57.4652 18.3353V23.6543H56.6594V16.4251H57.4652V17.557C57.7196 17.1524 58.0473 16.8348 58.4484 16.6095C58.8495 16.3825 59.3088 16.2698 59.8277 16.2698C60.3176 16.2698 60.7427 16.3688 61.1012 16.5668L61.0995 16.5651Z" fill="white"/>
<path d="M68.9655 16.4234H69.7711V23.6526H68.9655V22.2102C68.7385 22.7104 68.4106 23.1013 67.9822 23.3846C67.552 23.668 67.0605 23.8097 66.5039 23.8097C65.9184 23.8097 65.3978 23.6543 64.9402 23.3437C64.4828 23.033 64.1243 22.5944 63.8649 22.0275C63.6053 21.4609 63.4756 20.8018 63.4756 20.0474C63.4756 19.293 63.6053 18.6306 63.8649 18.0605C64.1243 17.4904 64.4828 17.0481 64.9402 16.7375C65.3978 16.4269 65.9184 16.2715 66.5039 16.2715C67.0895 16.2715 67.5537 16.4132 67.9822 16.6965C68.4106 16.9799 68.7385 17.3759 68.9655 17.8847V16.4234ZM67.9122 22.6985C68.2655 22.4577 68.5386 22.1095 68.7333 21.652C68.9262 21.1946 69.0235 20.6602 69.0235 20.0457C69.0235 19.4312 68.9262 18.8832 68.7333 18.4257C68.5403 17.9683 68.2672 17.6201 67.9122 17.3793C67.5589 17.1386 67.1509 17.0191 66.6882 17.0191C66.2256 17.0191 65.8041 17.1403 65.4507 17.3793C65.0973 17.6201 64.8207 17.9683 64.6227 18.4257C64.4248 18.8832 64.3258 19.4227 64.3258 20.0457C64.3258 20.6687 64.4248 21.2065 64.6227 21.6589C64.8207 22.1112 65.0973 22.4577 65.4507 22.6985C65.8041 22.9392 66.2171 23.0586 66.6882 23.0586C67.1595 23.0586 67.5589 22.9392 67.9122 22.6985Z" fill="white"/>
<path d="M75.7833 23.4973C75.3771 23.7038 74.9058 23.8079 74.3682 23.8079C72.9718 23.8079 72.2737 23.0962 72.2737 21.6708V17.1574H70.9149V16.4217H72.2737V14.5679H73.081V16.4217H75.6143V17.1574H73.081V21.5991C73.081 22.0992 73.192 22.4664 73.4139 22.7019C73.6358 22.9375 73.9824 23.0552 74.4535 23.0552C74.8785 23.0552 75.237 22.975 75.529 22.8146L75.7833 23.4939V23.4973Z" fill="white"/>
<path d="M76.9305 14.6415C76.8074 14.5288 76.746 14.3769 76.746 14.1892C76.746 14.0014 76.8074 13.8478 76.9305 13.73C77.0534 13.6123 77.2036 13.5525 77.3828 13.5525C77.5706 13.5525 77.7242 13.6123 77.8419 13.73C77.9597 13.8478 78.0195 14.0014 78.0195 14.1892C78.0195 14.3769 77.9597 14.5288 77.8419 14.6415C77.7242 14.7541 77.5706 14.8105 77.3828 14.8105C77.195 14.8105 77.0534 14.7541 76.9305 14.6415ZM77.7788 23.653H76.9732V16.4236H77.7788V23.653Z" fill="white"/>
<path d="M80.7915 23.349C80.2914 23.0435 79.9023 22.6046 79.6239 22.0328C79.3457 21.4627 79.2057 20.8003 79.2057 20.0442C79.2057 19.2879 79.3474 18.6256 79.6307 18.0487C79.9142 17.4733 80.3051 17.033 80.8052 16.7257C81.3053 16.4202 81.8704 16.2664 82.502 16.2664C83.1335 16.2664 83.714 16.4202 84.2141 16.7257C84.7142 17.033 85.1036 17.4716 85.3818 18.0419C85.66 18.612 85.8 19.2793 85.8 20.0442C85.8 20.8088 85.66 21.461 85.3818 22.0328C85.1036 22.6029 84.7142 23.0417 84.2141 23.349C83.714 23.6545 83.1438 23.8081 82.502 23.8081C81.8602 23.8081 81.2899 23.6545 80.7898 23.349H80.7915ZM83.7977 22.6985C84.1697 22.4578 84.4582 22.1113 84.6613 21.659C84.8646 21.2065 84.9653 20.6689 84.9653 20.0459C84.9653 19.4227 84.8646 18.8833 84.6613 18.4259C84.4582 17.9683 84.1715 17.6201 83.7977 17.3794C83.4256 17.1388 82.9936 17.0193 82.5037 17.0193C82.0138 17.0193 81.5837 17.1405 81.2166 17.3794C80.8479 17.6201 80.5628 17.9683 80.3614 18.4259C80.1583 18.8833 80.0576 19.4227 80.0576 20.0459C80.0576 20.6689 80.1583 21.2065 80.3614 21.659C80.5645 22.1113 80.8496 22.4578 81.2166 22.6985C81.5837 22.9392 82.0138 23.0588 82.5037 23.0588C82.9936 23.0588 83.4256 22.9392 83.7977 22.6985Z" fill="white"/>
<path d="M91.6722 16.5651C92.0306 16.7631 92.3072 17.0516 92.5 17.4289C92.6931 17.8062 92.7904 18.2585 92.7904 18.7878V23.6543H91.9846V18.8868C91.9846 18.2824 91.8292 17.8215 91.5186 17.5006C91.2079 17.1797 90.7691 17.0191 90.2024 17.0191C89.2876 17.0191 88.5654 17.458 88.038 18.3353V23.6543H87.2322V16.4251H88.038V17.557C88.2923 17.1524 88.62 16.8348 89.0211 16.6095C89.4224 16.3825 89.8816 16.2698 90.4004 16.2698C90.8903 16.2698 91.3155 16.3688 91.6739 16.5668L91.6722 16.5651Z" fill="white"/>
<path d="M99.5382 16.4234H100.344V23.6526H99.5382V22.2102C99.3112 22.7104 98.9835 23.1013 98.5549 23.3846C98.1248 23.668 97.6332 23.8097 97.0766 23.8097C96.4911 23.8097 95.9706 23.6543 95.513 23.3437C95.0555 23.033 94.6971 22.5944 94.4376 22.0275C94.1782 21.4609 94.0485 20.8018 94.0485 20.0474C94.0485 19.293 94.1782 18.6306 94.4376 18.0605C94.6971 17.4904 95.0555 17.0481 95.513 16.7375C95.9706 16.4269 96.4911 16.2715 97.0766 16.2715C97.6622 16.2715 98.1265 16.4132 98.5549 16.6965C98.9835 16.9799 99.3112 17.3759 99.5382 17.8847V16.4234ZM98.4849 22.6985C98.8382 22.4577 99.1115 22.1095 99.3061 21.652C99.499 21.1946 99.5963 20.6602 99.5963 20.0457C99.5963 19.4312 99.499 18.8832 99.3061 18.4257C99.1132 17.9683 98.84 17.6201 98.4849 17.3793C98.1299 17.1386 97.7237 17.0191 97.2611 17.0191C96.7984 17.0191 96.3768 17.1403 96.0235 17.3793C95.6702 17.6201 95.3935 17.9683 95.1955 18.4257C94.9975 18.8832 94.8985 19.4227 94.8985 20.0457C94.8985 20.6687 94.9975 21.2065 95.1955 21.6589C95.3935 22.1112 95.6702 22.4577 96.0235 22.6985C96.3768 22.9392 96.7899 23.0586 97.2611 23.0586C97.7322 23.0586 98.1316 22.9392 98.4849 22.6985Z" fill="white"/>
<path d="M103.145 23.6528H102.34V13.467H103.145V23.6528Z" fill="white"/>
<path d="M22.4474 1.20521H0V23.6543H22.4474V1.20521Z" fill="white"/>
<path fill-rule="evenodd" clip-rule="evenodd" d="M16.232 10.8328L19.0931 7.97186L19.8577 8.73664L19.8629 8.73152C19.8629 8.23986 19.7178 6.54991 18.3608 5.22697C16.8416 3.74527 15.3206 4.61244 14.7947 5.13478L12.0397 7.88993L12.7224 8.57273L11.2236 10.0716L9.72486 8.57273L10.4078 7.88993L7.65257 5.13478C7.12853 4.61073 5.60758 3.74527 4.08662 5.22697C2.72954 6.54991 2.58444 8.23986 2.58444 8.73152L2.58956 8.73664L3.3543 7.97186L6.21527 10.8328L7.00392 10.0443V8.15963L7.81472 8.97048V11.2493L8.93117 12.3657L3.13751 18.1593L5.43005 20.4519L11.2236 14.6582L17.0174 20.4519L19.3098 18.1593L13.5163 12.3657L14.6326 11.2493V8.97048L15.4435 8.15963V10.0443L16.232 10.8328Z" fill="black"/>
</svg>
