<svg width="50" height="50" viewBox="0 0 50 50" fill="none" xmlns="http://www.w3.org/2000/svg">
<path fill-rule="evenodd" clip-rule="evenodd" d="M15 25L25 35L35 25L25 15L15 25ZM33.5858 25L25 33.5858L16.4142 25L25 16.4142L33.5858 25Z" fill="#707477"/>
<path fill-rule="evenodd" clip-rule="evenodd" d="M8.06466 26.4817L23.5183 8.06474L41.9353 23.5184L26.4816 41.9354L8.06466 26.4817ZM26.3584 40.5265L40.5264 23.6417L23.6416 9.47357L9.47349 26.3584L26.3584 40.5265Z" fill="#707477"/>
<path fill-rule="evenodd" clip-rule="evenodd" d="M1.36482 29.1675L29.1678 48.6354L48.6356 20.8324L20.8326 1.36461L1.36482 29.1675ZM47.2429 21.078L28.9222 47.2426L2.75755 28.922L21.0782 2.75734L47.2429 21.078Z" fill="#707477"/>
<path fill-rule="evenodd" clip-rule="evenodd" d="M0 50H50V0H0V50ZM1 43.4564V49H12.8882L1 43.4564ZM15.2544 49L1 42.3531V36.4554L22.7279 49H15.2544ZM43.4565 49H49V37.1118L43.4565 49ZM49 34.7456L42.3531 49H36.4543L49 27.2702V34.7456ZM49 6.54356V1H37.1118L49 6.54356ZM34.7456 1L49 7.64694V13.5454L27.2707 1H34.7456ZM7.64694 1H13.5443L1 22.7274V15.2544L7.64694 1ZM6.54356 1L1 12.8882V1H6.54356ZM1 24.7274V35.3007L24.7279 49H35.2996L49 25.2702V14.7001L25.2707 1H14.699L1 24.7274Z" fill="#707477"/>
</svg>
