<svg width="80" height="80" viewBox="0 0 80 80" fill="none" xmlns="http://www.w3.org/2000/svg">
<path fill-rule="evenodd" clip-rule="evenodd" d="M0 5.17817V8.10197V25.3908V27.757V38.5714V40.5714V56.5761V57.7308V67.0567V68.16V77.0511V78.1153V79V80H1H5.17816H8.10196H25.3909H27.7571H38.5714H40.5714H56.5761H57.7308H67.0567H68.16H77.0511H78.1153H79H80V79V74.8219V71.898V54.6091V52.2429V41.4286V39.4286V23.4239V22.2692V12.9433V11.8399V2.94887V1.8847V1V0H79H74.8218H71.898H54.6091H52.2429H41.4286H39.4286H23.4239H22.2692H12.9433H11.8399H2.94888H1.8847H1H0V1V5.17817ZM1 79V78.4793L2.43068 79H1ZM1 77.4151L5.35448 79H23.2463L1 68.6264V77.4151ZM79 79H78.4793L79 77.5693V79ZM77.4151 79L79 74.6455V56.7536L68.6264 79H77.4151ZM79 1V1.52073L77.5693 1H79ZM79 2.5849L74.6455 1H56.7537L79 11.3736V2.5849ZM11.3736 1H2.58491L1 5.3545V23.2463L11.3736 1ZM1 2.43069L1.52073 1H1V2.43069ZM25.6125 79L1 67.523V58.3082L36.8393 79H25.6125ZM79 54.3874L67.523 79H58.3082L79 43.1607V54.3874ZM54.3875 1L79 12.477V21.6918L43.1607 1H54.3875ZM12.477 1H21.6918L1 36.8393V25.6125L12.477 1ZM1 57.1535L38.8393 79H46.3856L46.1268 78.8187L1.42684 47.5195L1 47.2206V57.1535ZM57.1535 79L79 41.1607V33.6143L78.8187 33.8732L47.5195 78.5732L47.2206 79H57.1535ZM79 22.8465L41.1607 1H33.6143L33.8732 1.18127L78.5732 32.4805L79 32.7794V22.8465ZM32.7794 1H22.8465L1 38.8393V46.3857L1.18127 46.1268L32.4805 1.42684L32.7794 1ZM20 40L20.7071 40.7071L39.2929 59.2929L40 60L40.7071 59.2929L59.2929 40.7071L60 40L59.2929 39.2929L40.7071 20.7071L40 20L39.2929 20.7071L20.7071 39.2929L20 40ZM58.5858 40L40 58.5858L21.4142 40L40 21.4142L58.5858 40ZM10.8802 43.2575L10.1142 42.6147L10.7569 41.8486L36.7425 10.8802L37.3853 10.1142L38.1514 10.7569L69.1198 36.7425L69.8858 37.3853L69.243 38.1514L43.2575 69.1198L42.6147 69.8858L41.8486 69.243L10.8802 43.2575ZM42.4914 68.477L68.477 37.5086L37.5086 11.523L11.523 42.4914L42.4914 68.477ZM77.9996 33.2996L46.7003 77.9996L2.00042 46.7004L33.2996 2.00042L77.9996 33.2996Z" fill="#707477"/>
</svg>
