<svg width="1360" height="430" viewBox="0 0 1360 430" fill="none" xmlns="http://www.w3.org/2000/svg">
<rect x="3.5" y="251.5" width="13" height="67" stroke="#47494B"/>
<rect x="13.5" y="261.5" width="13" height="67" stroke="#47494B"/>
<rect x="23.5" y="221.5" width="13" height="73" stroke="#47494B"/>
<rect x="33.5" y="243.5" width="13" height="43" stroke="#47494B"/>
<rect x="43.5" y="249.5" width="13" height="43" stroke="#47494B"/>
<rect x="53.5" y="231.5" width="13" height="55" stroke="#47494B"/>
<rect x="63.5" y="238.5" width="13" height="40" stroke="#47494B"/>
<rect x="73.5" y="245.5" width="13" height="78" stroke="#47494B"/>
<rect x="83.5" y="279.5" width="13" height="31" stroke="#47494B"/>
<rect x="93.5" y="275.5" width="13" height="17" stroke="#47494B"/>
<rect x="103.5" y="279.5" width="13" height="10" stroke="#47494B"/>
<rect x="113.5" y="275.5" width="13" height="10" stroke="#47494B"/>
<rect x="123.5" y="271.5" width="13" height="12" stroke="#47494B"/>
<rect x="133.5" y="255.5" width="13" height="30" stroke="#47494B"/>
<rect x="143.5" y="264.5" width="13" height="11" stroke="#47494B"/>
<rect x="153.5" y="258.5" width="13" height="20" stroke="#47494B"/>
<rect x="163.5" y="261.5" width="13" height="14" stroke="#47494B"/>
<rect x="173.5" y="182.5" width="13" height="83" stroke="#47494B"/>
<rect x="183.5" y="110.5" width="13" height="94" stroke="#47494B"/>
<rect x="193.5" y="124.5" width="13" height="48" stroke="#47494B"/>
<rect x="203.5" y="133.5" width="13" height="82" stroke="#47494B"/>
<rect x="213.5" y="169.5" width="13" height="62" stroke="#47494B"/>
<rect x="223.5" y="194.5" width="13" height="167" stroke="#47494B"/>
<rect x="233.5" y="340.5" width="13" height="21" stroke="#47494B"/>
<rect x="243.5" y="329.5" width="13" height="25" stroke="#47494B"/>
<rect x="253.5" y="333.5" width="13" height="17" stroke="#47494B"/>
<rect x="263.5" y="340.5" width="13" height="21" stroke="#47494B"/>
<rect x="273.5" y="358.5" width="13" height="15" stroke="#47494B"/>
<rect x="283.5" y="353.5" width="13" height="25" stroke="#47494B"/>
<rect x="293.5" y="358.5" width="13" height="13" stroke="#47494B"/>
<rect x="303.5" y="351.5" width="13" height="31" stroke="#47494B"/>
<rect x="313.5" y="366.5" width="13" height="12" stroke="#47494B"/>
<rect x="323.5" y="374.5" width="13" height="22" stroke="#47494B"/>
<rect x="333.5" y="329.5" width="13" height="80" stroke="#47494B"/>
<rect x="343.5" y="307.5" width="13" height="34" stroke="#47494B"/>
<rect x="353.5" y="316.5" width="13" height="21" stroke="#47494B"/>
<rect x="363.5" y="320.5" width="13" height="17" stroke="#47494B"/>
<rect x="373.5" y="324.5" width="13" height="22" stroke="#47494B"/>
<rect x="383.5" y="328.5" width="13" height="35" stroke="#47494B"/>
<rect x="393.5" y="332.5" width="13" height="25" stroke="#47494B"/>
<rect x="403.5" y="332.5" width="13" height="29" stroke="#47494B"/>
<rect x="413.5" y="332.5" width="13" height="14" stroke="#47494B"/>
<rect x="423.5" y="332.5" width="13" height="11" stroke="#47494B"/>
<rect x="433.5" y="307.5" width="13" height="43" stroke="#47494B"/>
<rect x="443.5" y="269.5" width="13" height="56" stroke="#47494B"/>
<rect x="453.5" y="296.5" width="13" height="63" stroke="#47494B"/>
<rect x="463.5" y="316.5" width="13" height="23" stroke="#47494B"/>
<rect x="473.5" y="288.5" width="13" height="35" stroke="#47494B"/>
<rect x="483.5" y="296.5" width="13" height="23" stroke="#47494B"/>
<rect x="493.5" y="328.5" width="13" height="37" stroke="#47494B"/>
<rect x="503.5" y="358.5" width="13" height="17" stroke="#47494B"/>
<rect x="513.5" y="362.5" width="13" height="10" stroke="#47494B"/>
<rect x="523.5" y="358.5" width="13" height="9" stroke="#47494B"/>
<rect x="533.5" y="354.5" width="13" height="11" stroke="#47494B"/>
<rect x="543.5" y="336.5" width="13" height="33" stroke="#47494B"/>
<rect x="553.5" y="344.5" width="13" height="15" stroke="#47494B"/>
<rect x="563.5" y="340.5" width="13" height="23" stroke="#47494B"/>
<rect x="573.5" y="344.5" width="13" height="15" stroke="#47494B"/>
<rect x="583.5" y="328.5" width="13" height="22" stroke="#47494B"/>
<rect x="593.5" y="318.5" width="13" height="21" stroke="#47494B"/>
<rect x="603.5" y="315.5" width="13" height="24" stroke="#47494B"/>
<rect x="613.5" y="320.5" width="13" height="64" stroke="#47494B"/>
<rect x="623.5" y="299.5" width="13" height="66" stroke="#47494B"/>
<rect x="633.5" y="333.5" width="13" height="64" stroke="#47494B"/>
<rect x="643.5" y="362.5" width="13" height="67" stroke="#47494B"/>
<rect x="653.5" y="388.5" width="13" height="24" stroke="#47494B"/>
<rect x="663.5" y="381.5" width="13" height="37" stroke="#47494B"/>
<rect x="673.5" y="370.5" width="13" height="52" stroke="#47494B"/>
<rect x="683.5" y="351.5" width="13" height="32" stroke="#47494B"/>
<rect x="693.5" y="346.5" width="13" height="32" stroke="#47494B"/>
<rect x="703.5" y="355.5" width="13" height="28" stroke="#47494B"/>
<rect x="713.5" y="360.5" width="13" height="20" stroke="#47494B"/>
<rect x="723.5" y="364.5" width="13" height="23" stroke="#47494B"/>
<rect x="733.5" y="372.5" width="13" height="30" stroke="#47494B"/>
<rect x="743.5" y="370.5" width="13" height="27" stroke="#47494B"/>
<rect x="753.5" y="374.5" width="13" height="30" stroke="#47494B"/>
<rect x="763.5" y="370.5" width="13" height="19" stroke="#47494B"/>
<rect x="773.5" y="374.5" width="13" height="9" stroke="#47494B"/>
<rect x="783.5" y="281.5" width="13" height="106" stroke="#47494B"/>
<rect x="793.5" y="276.5" width="13" height="113" stroke="#47494B"/>
<rect x="803.5" y="370.5" width="13" height="32" stroke="#47494B"/>
<rect x="813.5" y="352.5" width="13" height="32" stroke="#47494B"/>
<rect x="823.5" y="329.5" width="13" height="34" stroke="#47494B"/>
<rect x="833.5" y="335.5" width="13" height="22" stroke="#47494B"/>
<rect x="843.5" y="319.5" width="13" height="34" stroke="#47494B"/>
<rect x="853.5" y="247.5" width="13" height="90" stroke="#47494B"/>
<rect x="863.5" y="208.5" width="13" height="70" stroke="#47494B"/>
<rect x="873.5" y="229.5" width="13" height="43" stroke="#47494B"/>
<rect x="883.5" y="234.5" width="13" height="46" stroke="#47494B"/>
<rect x="893.5" y="216.5" width="13" height="56" stroke="#47494B"/>
<rect x="903.5" y="224.5" width="13" height="41" stroke="#47494B"/>
<rect x="913.5" y="232.5" width="13" height="77" stroke="#47494B"/>
<rect x="923.5" y="266.5" width="13" height="28" stroke="#47494B"/>
<rect x="933.5" y="260.5" width="13" height="18" stroke="#47494B"/>
<rect x="943.5" y="266.5" width="13" height="9" stroke="#47494B"/>
<rect x="953.5" y="262.5" width="13" height="10" stroke="#47494B"/>
<rect x="963.5" y="258.5" width="13" height="11" stroke="#47494B"/>
<rect x="973.5" y="241.5" width="13" height="31" stroke="#47494B"/>
<rect x="983.5" y="249.5" width="13" height="12" stroke="#47494B"/>
<rect x="993.5" y="243.5" width="13" height="22" stroke="#47494B"/>
<rect x="1003.5" y="249.5" width="13" height="12" stroke="#47494B"/>
<rect x="1013.5" y="232.5" width="13" height="20" stroke="#47494B"/>
<rect x="1023.5" y="223.5" width="13" height="19" stroke="#47494B"/>
<rect x="1033.5" y="220.5" width="13" height="25" stroke="#47494B"/>
<rect x="1043.5" y="230.5" width="13" height="22" stroke="#47494B"/>
<rect x="1053.5" y="84.5" width="13" height="164" stroke="#47494B"/>
<rect x="1063.5" y="58.5" width="13" height="63" stroke="#47494B"/>
<rect x="1073.5" y="24.5" width="13" height="82" stroke="#47494B"/>
<rect x="1083.5" y="14.5" width="13" height="48" stroke="#47494B"/>
<rect x="1093.5" y="0.5" width="13" height="95" stroke="#47494B"/>
<rect x="1103.5" y="72.5" width="13" height="82" stroke="#47494B"/>
<rect x="1113.5" y="96.5" width="13" height="113" stroke="#47494B"/>
<rect x="1123.5" y="150.5" width="13" height="46" stroke="#47494B"/>
<rect x="1133.5" y="145.5" width="13" height="26" stroke="#47494B"/>
<rect x="1143.5" y="152.5" width="13" height="26" stroke="#47494B"/>
<rect x="1153.5" y="163.5" width="13" height="54" stroke="#47494B"/>
<rect x="1163.5" y="177.5" width="13" height="42" stroke="#47494B"/>
<rect x="1173.5" y="179.5" width="13" height="52" stroke="#47494B"/>
<rect x="1183.5" y="174.5" width="13" height="51" stroke="#47494B"/>
<rect x="1193.5" y="182.5" width="13" height="16" stroke="#47494B"/>
<rect x="1203.5" y="152.5" width="13" height="34" stroke="#47494B"/>
<rect x="1213.5" y="157.5" width="13" height="45" stroke="#47494B"/>
<rect x="1223.5" y="121.5" width="13" height="69" stroke="#47494B"/>
<rect x="1233.5" y="116.5" width="13" height="48" stroke="#47494B"/>
<rect x="1243.5" y="108.5" width="13" height="45" stroke="#47494B"/>
<rect x="1253.5" y="140.5" width="13" height="31" stroke="#47494B"/>
<rect x="1263.5" y="131.5" width="13" height="29" stroke="#47494B"/>
<rect x="1273.5" y="74.5" width="13" height="118" stroke="#47494B"/>
<rect x="1283.5" y="157.5" width="13" height="41" stroke="#47494B"/>
<rect x="1293.5" y="142.5" width="13" height="18" stroke="#47494B"/>
<rect x="1303.5" y="131.5" width="13" height="33" stroke="#47494B"/>
<rect x="1313.5" y="120.5" width="13" height="31" stroke="#47494B"/>
<rect x="1323.5" y="93.5" width="13" height="39" stroke="#47494B"/>
<rect x="1333.5" y="57.5" width="13" height="122" stroke="#47494B"/>
<rect x="1343.5" y="24.5" width="13" height="39" stroke="#47494B"/>
</svg>
